<svg width="2324" height="452" viewBox="0 0 2324 452" fill="none" xmlns="http://www.w3.org/2000/svg">
<path d="M101.14 336.748C146.684 284.848 210.183 252.109 278.877 245.108L747.365 197.364C782.132 193.821 815.898 183.643 846.832 167.383L1059.59 55.5489C1094.13 37.3935 1132.16 26.8435 1171.11 24.6083L1496.04 5.96502C1563 2.12302 1629.03 23.0342 1681.58 64.719L1840.3 190.637C1868.95 213.37 1901.88 230.121 1937.13 239.897L2116.49 289.642C2164.49 302.955 2207.94 329.132 2242.15 365.344L2324 452H0L101.14 336.748Z" fill="#DAE0D9"/>
<path d="M194.981 332.95C207.897 315.474 227.786 304.491 249.457 302.868L764.796 264.281C795.401 261.99 825.307 253.996 852.974 240.712L1075.11 134.055C1102.39 120.955 1131.86 112.999 1162.02 110.583L1476.9 85.3746C1549.73 79.5438 1620.42 111.688 1663.9 170.408V170.408C1691.99 208.344 1731.95 235.801 1777.44 248.417L1960.51 299.191C1975.17 303.257 1988.31 311.53 1998.32 322.989V322.989C2042.28 373.32 2006.54 452 1939.71 452H255.032C193.743 452 158.555 382.24 194.981 332.95V332.95Z" fill="#E8EBE4"/>
<path d="M343.333 373.243C351.474 364.732 362.537 359.622 374.295 358.942L810.084 333.731C829.917 332.583 849.469 328.487 868.095 321.578L1060.29 250.28C1078.66 243.464 1097.94 239.385 1117.5 238.175L1396.14 220.94C1446.79 217.807 1496.25 237.13 1531.36 273.768V273.768C1555.24 298.682 1586.04 315.865 1619.78 323.095L1779.73 357.37C1787.77 359.094 1795.24 362.865 1801.4 368.317V368.317C1834.4 397.505 1813.75 452 1769.7 452H376.985C335.994 452 314.999 402.865 343.333 373.243V373.243Z" fill="white"/>
</svg>
