<svg xmlns="http://www.w3.org/2000/svg" width="2394" height="476" fill="none" viewBox="0 0 2394 476"><path fill="#DAE0D9" d="M101.14 360.748C146.684 308.848 210.183 276.109 278.877 269.108L747.365 221.364C782.132 217.821 815.898 207.643 846.832 191.383L1059.59 79.5489C1094.13 61.3935 1132.16 50.8435 1171.11 48.6083L1496.04 29.965C1563 26.123 1629.03 47.0342 1681.58 88.719L1840.3 214.637C1868.95 237.37 1901.88 254.121 1937.13 263.897L2116.49 313.642C2164.49 326.955 2207.94 353.132 2242.15 389.344L2324 476H0L101.14 360.748Z"/><path fill="#E8EBE4" d="M194.981 356.95C207.897 339.474 227.786 328.491 249.457 326.868L764.796 288.281C795.401 285.99 825.307 277.996 852.974 264.712L1075.11 158.055C1102.39 144.955 1131.86 136.999 1162.02 134.583L1476.9 109.375C1549.73 103.544 1620.42 135.688 1663.9 194.408V194.408C1691.99 232.344 1731.95 259.801 1777.44 272.417L1960.51 323.191C1975.17 327.257 1988.31 335.53 1998.32 346.989V346.989C2042.28 397.32 2006.54 476 1939.71 476H255.032C193.743 476 158.555 406.24 194.981 356.95V356.95Z"/><path fill="#fff" d="M343.333 397.243C351.474 388.732 362.537 383.622 374.295 382.942L810.084 357.731C829.917 356.583 849.469 352.487 868.095 345.578L1060.29 274.28C1078.66 267.464 1097.94 263.385 1117.5 262.175L1396.14 244.94C1446.79 241.807 1496.25 261.13 1531.36 297.768V297.768C1555.24 322.682 1586.04 339.865 1619.78 347.095L1779.73 381.37C1787.77 383.094 1795.24 386.865 1801.4 392.317V392.317C1834.4 421.505 1813.75 476 1769.7 476H376.985C335.994 476 314.999 426.865 343.333 397.243V397.243Z"/><ellipse cx="488.5" cy="204.5" fill="#BCCFE8" rx="55.5" ry="14.5"/><path fill="#8C9DDE" d="M479.897 175.045C481.477 171.377 485.088 169 489.082 169H510.396C514.144 169 517.577 171.096 519.29 174.429L535 205H467L479.897 175.045Z"/><path fill="#8C9DDE" d="M454.525 191.262C456.42 189.184 459.103 188 461.915 188H481.5C487.023 188 491.5 192.477 491.5 198V205H448.795C446.189 205 444.822 201.905 446.578 199.979L454.525 191.262Z"/><path fill="#6176CF" d="M494.569 185.053C496.147 181.38 499.76 179 503.757 179H515.559C519.31 179 522.746 181.099 524.457 184.437L535 205H486L494.569 185.053Z"/><ellipse cx="740.5" cy="156.5" fill="#BCCFE8" rx="55.5" ry="14.5"/><path fill="#F9CF9D" d="M731.897 127.045C733.477 123.377 737.088 121 741.082 121H762.396C766.144 121 769.577 123.096 771.29 126.429L787 157H719L731.897 127.045Z"/><path fill="#F9CF9D" d="M706.525 143.262C708.42 141.184 711.103 140 713.915 140H733.5C739.023 140 743.5 144.477 743.5 150V157H700.795C698.189 157 696.822 153.905 698.578 151.979L706.525 143.262Z"/><path fill="#E4953D" d="M746.569 137.053C748.147 133.38 751.76 131 755.757 131H767.559C771.31 131 774.746 133.099 776.457 136.437L787 157H738L746.569 137.053Z"/><path fill="#8C9DDE" d="M1912.1 206.702C1915.9 210.113 1920.82 212 1925.93 212L2007.96 212C2010.64 212 2013.32 211.686 2015.93 211.064L2073.94 197.262C2089.2 193.632 2090.62 172.48 2075.99 166.838V166.838C2074.67 166.33 2073.29 165.999 2071.88 165.854L1994.02 157.827C1988.71 157.279 1983.34 157.58 1978.12 158.718L1921.52 171.062C1905.02 174.659 1899.54 195.423 1912.1 206.702V206.702Z"/><path fill="#8C9DDE" d="M2023.46 226.675C2025.87 225.571 2028.49 225 2031.14 225H2194.53L2304.91 238.406C2321.02 240.363 2321.87 263.423 2305.94 266.557V266.557C2305.28 266.687 2304.61 266.77 2303.94 266.806L2152.35 274.783C2149.6 274.927 2146.85 274.847 2144.11 274.543L2029.1 261.739C2010.53 259.672 2006.47 234.46 2023.46 226.675V226.675Z"/><path fill="#8C9DDE" d="M1995.54 92.4562C1997.29 90.2714 1999.94 89 2002.74 89H2025.43C2027.02 89 2028.59 89.2539 2030.1 89.752L2047.28 95.4311C2053.21 97.3918 2053.91 105.499 2048.4 108.448V108.448C2047.67 108.841 2046.88 109.101 2046.05 109.219L2024.07 112.369C2021.17 112.785 2018.21 112.559 2015.4 111.709L2000.06 107.06C1993.81 105.166 1991.45 97.5534 1995.54 92.4562V92.4562Z"/><path fill="#8C9DDE" d="M353.46 82.6751C355.869 81.5714 358.487 81 361.137 81H524.529L634.909 94.4063C651.023 96.3634 651.871 119.423 635.944 122.557V122.557C635.282 122.687 634.613 122.77 633.939 122.806L482.352 130.783C479.604 130.927 476.849 130.847 474.113 130.543L359.098 117.739C340.526 115.672 336.472 90.46 353.46 82.6751V82.6751Z"/><path fill="#8C9DDE" d="M450.535 3.45622C452.287 1.2714 454.935 0 457.735 0H480.431C482.018 0 483.594 0.253873 485.101 0.751994L502.278 6.43109C508.209 8.3918 508.91 16.4987 503.404 19.4484V19.4484C502.672 19.8406 501.877 20.1015 501.055 20.2192L479.067 23.3688C476.165 23.7846 473.207 23.5594 470.401 22.7092L455.059 18.0603C448.807 16.1658 446.449 8.55336 450.535 3.45622V3.45622Z"/><path fill="#8C9DDE" d="M1863.54 93.4562C1865.29 91.2714 1867.94 90 1870.74 90H1893.43C1895.02 90 1896.59 90.2539 1898.1 90.752L1915.28 96.4311C1921.21 98.3918 1921.91 106.499 1916.4 109.448V109.448C1915.67 109.841 1914.88 110.101 1914.05 110.219L1892.07 113.369C1889.17 113.785 1886.21 113.559 1883.4 112.709L1868.06 108.06C1861.81 106.166 1859.45 98.5534 1863.54 93.4562V93.4562Z"/><ellipse cx="1239.5" cy="346.5" fill="#9FB4D3" rx="29.5" ry="10.5"/><mask id="mask0" width="16" height="232" x="1232" y="122" mask-type="alpha" maskUnits="userSpaceOnUse"><rect width="232" height="16" x="1232" y="354" fill="#C4C4C4" rx="8" transform="rotate(-90 1232 354)"/></mask><g mask="url(#mask0)"><rect width="232" height="16" x="1232" y="354" fill="#684930" transform="rotate(-90 1232 354)"/><rect width="220.253" height="8" x="1232" y="348.127" fill="#8C7C50" rx="4" transform="rotate(-90 1232 348.127)"/></g><path fill="#FF6969" d="M1232 115L1372.2 190.995H1232V115Z"/><rect width="22" height="10" x="1229" y="344" fill="#9FB4D3"/></svg>