<svg width="1264" height="755" viewBox="0 0 1264 755" fill="none" xmlns="http://www.w3.org/2000/svg">
<path d="M294.199 399.288C317.06 434.577 294.254 481.525 252.383 485.368L206.317 489.597C150.052 494.763 114.883 552.948 136.464 605.165L154.277 648.266C167.371 679.949 193.57 704.39 226.084 715.256L265.792 728.527C284.595 734.811 304.193 738.4 324.002 739.188L668.195 752.886C697.972 754.071 727.788 751.925 757.088 746.487L983.902 704.394C1006.02 700.29 1026.82 690.926 1044.55 677.091L1048.73 673.831C1080.14 649.326 1098.5 611.711 1098.5 571.873V562.415C1098.5 543.784 1093.14 525.546 1083.06 509.876L1081.8 507.905C1048.83 456.65 1071.81 388.053 1129 367V367L1140.46 363.511C1212.73 341.502 1260.18 272.435 1254.8 197.075V197.075C1250.66 139.107 1215.77 87.8051 1163.38 62.6486L1102.76 33.5402C1065.85 15.8152 1025.48 6.47016 984.53 6.17392L200.142 0.499001C155.468 0.175793 111.989 14.9166 76.7224 42.3419L60.455 54.9926C22.3109 84.656 0 130.27 0 178.59V178.59C0 245.987 43.128 305.821 107.067 327.131L174.893 349.736L263.262 376.109C276.002 379.912 286.971 388.129 294.199 399.288V399.288Z" fill="#7289DA"/>
<path d="M346.539 498C328.603 498 311.09 503.446 296.318 513.617L282.657 523.023C240.19 552.262 238.299 614.312 278.907 646.083V646.083C288.903 653.904 300.692 659.111 313.206 661.232L514.407 695.335C525.449 697.207 536.63 698.148 547.83 698.148L653.514 698.148C675.684 698.148 697.699 694.462 718.66 687.24L850.926 641.672C869.25 635.359 889.01 634.478 907.824 639.136V639.136C971.211 654.827 1032.5 606.861 1032.5 541.56V512.129C1032.5 489.729 1022.92 468.397 1006.18 453.511L997.415 445.712C982.268 432.242 975.298 411.813 979.053 391.893V391.893C983.771 366.867 1004.33 347.891 1029.66 345.195L1062.32 341.718C1133.74 334.115 1175.09 256.99 1141.9 193.295L1129.49 169.472C1117.49 146.445 1098.35 127.922 1074.95 116.676L996.7 79.0766C970.547 66.5095 941.972 59.7835 912.959 59.3654L318.181 50.7951C282.183 50.2764 246.821 60.3093 216.458 79.6555L188.905 97.2122C152.943 120.127 131.17 159.817 131.17 202.459V227.819C131.17 254.964 145.121 280.205 168.108 294.645V294.645C177.916 300.806 188.959 304.733 200.455 306.147L296.615 317.973C335.845 322.797 368.663 350.049 380.613 387.725L395.707 435.312C398.912 445.416 407.881 452.599 418.441 453.519L490.613 459.806C513.74 461.821 514.082 495.517 491 498V498H346.539Z" fill="#8C9DDE"/>
<path d="M407.161 403.986C416.629 427.904 440.289 443.126 465.979 441.827L526.204 438.782C552.936 437.43 574.602 460.189 571.939 486.822V486.822C569.703 509.184 550.886 526.213 528.412 526.213H335.516C311.035 526.213 289.009 541.087 279.862 563.796L277.007 570.883C264.398 602.186 280.075 637.725 311.694 649.518L428.858 693.217C435.565 695.719 442.666 697 449.825 697H769.015C776.278 697 783.481 695.681 790.272 693.108L966.076 626.504C990.46 617.266 1006.09 593.337 1004.74 567.296L1001.79 510.23C1001.27 500.236 998.262 490.529 993.036 481.995L969.768 444L949 414L941.467 402.061C916.766 362.914 943.821 311.725 990.081 310.082L1047.13 308.055C1079.42 306.909 1105 280.401 1105 248.093V200.238C1105 176.913 1091.48 155.702 1070.34 145.851L941.426 85.7894C933.247 81.9789 924.315 80.062 915.293 80.1814L270.58 88.7144C256.631 88.899 243.182 93.9387 232.546 102.967L184.172 144.028C170.742 155.429 163 172.155 163 189.771V230.898C163 268.733 197.591 297.124 234.699 289.747L291.353 278.484C314.304 273.922 337.813 283.118 351.576 302.042L380.532 341.856C383.499 345.936 385.939 350.373 387.796 355.064L407.161 403.986Z" fill="#74653B"/>
<path d="M415.415 387.635C424.87 409.696 446.562 424 470.564 424H529C562.137 424 589 450.863 589 484V484C589 517.137 562.137 544 529 544H343C309.863 544 283 570.863 283 604V605.581C283 630.014 297.815 652.006 320.458 661.186L420.843 701.882C427.559 704.605 434.712 706.088 441.957 706.261L724.019 712.977C752.35 713.651 780.5 708.298 806.604 697.271L958.884 632.945C982.809 622.839 997.516 598.487 995.323 572.608L990.414 514.683C989.489 503.77 985.594 493.317 979.152 484.459L936.476 425.779C929.017 415.524 925 403.17 925 390.489V372C925 338.863 951.863 312 985 312H1035C1068.14 312 1095 285.137 1095 252V223.069C1095 198.312 1079.79 176.096 1056.72 167.136L935.477 120.067C928.552 117.379 921.189 116 913.762 116H280.556C266.621 116 253.121 120.85 242.373 129.718L200.817 164.001C187.001 175.399 179 192.373 179 210.283V236.123C179 266.77 202.096 292.491 232.567 295.777L348.109 308.237C369.662 310.562 388.285 324.331 396.824 344.256L415.415 387.635Z" fill="#CFE8E7"/>
<path d="M458.492 339.361C472.38 358.499 492.6 372.096 515.562 377.74L559.141 388.45C584.085 394.58 605.714 410.075 619.544 431.721L625.823 441.55C637.587 459.962 642.706 481.841 640.334 503.562V503.562C635.022 552.179 593.96 589 545.053 589H366.429C357.973 589 350.007 592.971 344.917 599.724V599.724C333.149 615.336 341.407 637.89 360.474 642.212L451.475 662.841C457.805 664.276 464.276 665 470.767 665H741.552C754.397 665 767.122 662.525 779.031 657.711L907.18 605.906C932.455 595.688 949 571.154 949 543.892V533.375C949 511.192 934.954 491.442 914 484.161V484.161C893.046 476.88 879 457.13 879 434.947V431.176C879 427.732 878.69 424.296 878.074 420.907L872.525 390.385C864.523 346.376 886.721 302.406 926.882 282.712L951.59 270.595C959.097 266.914 967.347 265 975.708 265H998.008C1025.55 265 1044.58 237.453 1034.83 211.696V211.696C1029.97 198.844 1018.76 189.457 1005.25 186.93L843.72 156.706C837.655 155.571 831.498 155 825.327 155H331.658C323.824 155 316.039 156.233 308.588 158.653L269.04 171.498C239.633 181.05 228.384 216.722 246.994 241.415V241.415C255.779 253.072 269.671 259.747 284.262 259.321L329.5 258L345.181 257.542C378.229 256.577 409.617 272.009 429.035 298.768L458.492 339.361Z" fill="#BCCFE8"/>
<path d="M693 453.407C693 478.876 717.015 497.511 741.687 491.185V491.185C758.937 486.762 771 471.215 771 453.407V443.669C771 424.891 786.222 409.669 805 409.669V409.669C823.778 409.669 839 394.447 839 375.669V352.402C839 339.005 843.697 326.033 852.273 315.741L891.172 269.062C896.23 262.993 899 255.342 899 247.441V247.441C899 228.789 883.879 213.669 865.227 213.669H718.175C701.472 213.669 684.85 215.983 668.782 220.545L562.916 250.606C544.031 255.969 531 273.215 531 292.846V292.846C531 315.017 547.527 333.709 569.53 336.426L631.618 344.091C666.672 348.418 693 378.197 693 413.517V453.407Z" fill="white"/>
</svg>
