<svg width="1264" height="847" viewBox="0 0 1264 847" fill="none" xmlns="http://www.w3.org/2000/svg">
<path d="M294.199 491.288C317.06 526.577 294.254 573.525 252.383 577.368L206.317 581.597C150.052 586.763 114.883 644.948 136.464 697.165L154.277 740.266C167.371 771.949 193.57 796.39 226.084 807.256L265.792 820.527C284.595 826.811 304.193 830.4 324.002 831.188L668.195 844.886C697.972 846.071 727.788 843.925 757.088 838.487L983.902 796.394C1006.02 792.29 1026.82 782.926 1044.55 769.091L1048.73 765.831C1080.14 741.326 1098.5 703.711 1098.5 663.873V654.415C1098.5 635.784 1093.14 617.546 1083.06 601.876L1081.8 599.905C1048.83 548.65 1071.81 480.053 1129 459V459L1140.46 455.511C1212.73 433.502 1260.18 364.435 1254.8 289.075V289.075C1250.66 231.107 1215.77 179.805 1163.38 154.649L1102.76 125.54C1065.85 107.815 1025.48 98.4702 984.53 98.1739L200.142 92.499C155.468 92.1758 111.989 106.917 76.7224 134.342L60.455 146.993C22.3109 176.656 0 222.27 0 270.59V270.59C0 337.987 43.128 397.821 107.067 419.131L174.893 441.736L263.262 468.109C276.002 471.912 286.971 480.129 294.199 491.288V491.288Z" fill="#7289DA"/>
<path d="M346.539 590C328.603 590 311.09 595.446 296.318 605.617L282.657 615.023C240.19 644.262 238.299 706.312 278.907 738.083V738.083C288.903 745.904 300.692 751.111 313.206 753.232L514.407 787.335C525.449 789.207 536.63 790.148 547.83 790.148L653.514 790.148C675.684 790.148 697.699 786.462 718.66 779.24L850.926 733.672C869.25 727.359 889.01 726.478 907.824 731.136V731.136C971.211 746.827 1032.5 698.861 1032.5 633.56V604.129C1032.5 581.729 1022.92 560.397 1006.18 545.511L997.415 537.712C982.268 524.242 975.298 503.813 979.053 483.893V483.893C983.771 458.867 1004.33 439.891 1029.66 437.195L1062.32 433.718C1133.74 426.115 1175.09 348.99 1141.9 285.295L1129.49 261.472C1117.49 238.445 1098.35 219.922 1074.95 208.676L996.7 171.077C970.547 158.509 941.972 151.783 912.959 151.365L318.181 142.795C282.183 142.276 246.821 152.309 216.458 171.656L188.905 189.212C152.943 212.127 131.17 251.817 131.17 294.459V319.819C131.17 346.964 145.121 372.205 168.108 386.645V386.645C177.916 392.806 188.959 396.733 200.455 398.147L296.615 409.973C335.845 414.797 368.663 442.049 380.613 479.725L395.707 527.312C398.912 537.416 407.881 544.599 418.441 545.519L490.613 551.806C513.74 553.821 514.082 587.517 491 590V590H346.539Z" fill="#8C9DDE"/>
<ellipse cx="1004.5" cy="473.5" rx="55.5" ry="14.5" fill="#8C9DDE"/>
<path d="M995.897 444.045C997.477 440.377 1001.09 438 1005.08 438H1026.4C1030.14 438 1033.58 440.096 1035.29 443.429L1051 474H983L995.897 444.045Z" fill="#F9CF9D"/>
<path d="M970.525 460.262C972.42 458.184 975.103 457 977.915 457H997.5C1003.02 457 1007.5 461.477 1007.5 467V474H964.795C962.189 474 960.822 470.905 962.578 468.979L970.525 460.262Z" fill="#F9CF9D"/>
<path d="M1010.57 454.053C1012.15 450.38 1015.76 448 1019.76 448H1031.56C1035.31 448 1038.75 450.099 1040.46 453.437L1051 474H1002L1010.57 454.053Z" fill="#E4953D"/>
<ellipse cx="1150.5" cy="537.5" rx="55.5" ry="14.5" fill="#8C9DDE"/>
<path d="M1141.9 508.045C1143.48 504.377 1147.09 502 1151.08 502H1172.4C1176.14 502 1179.58 504.096 1181.29 507.429L1197 538H1129L1141.9 508.045Z" fill="#F9CF9D"/>
<path d="M1116.53 524.262C1118.42 522.184 1121.1 521 1123.91 521H1143.5C1149.02 521 1153.5 525.477 1153.5 531V538H1110.8C1108.19 538 1106.82 534.905 1108.58 532.979L1116.53 524.262Z" fill="#F9CF9D"/>
<path d="M1156.57 518.053C1158.15 514.38 1161.76 512 1165.76 512H1177.56C1181.31 512 1184.75 514.099 1186.46 517.437L1197 538H1148L1156.57 518.053Z" fill="#E4953D"/>
<path d="M407.161 495.986C416.629 519.904 440.289 535.126 465.979 533.827L526.204 530.782C552.936 529.43 574.602 552.189 571.939 578.822V578.822C569.703 601.184 550.886 618.213 528.412 618.213H335.516C311.035 618.213 289.009 633.087 279.862 655.796L277.007 662.883C264.398 694.186 280.075 729.725 311.694 741.518L428.858 785.217C435.565 787.719 442.666 789 449.825 789H769.015C776.278 789 783.481 787.681 790.272 785.108L966.076 718.504C990.46 709.266 1006.09 685.337 1004.74 659.296L1001.79 602.23C1001.27 592.236 998.262 582.529 993.036 573.995L969.768 536L949 506L941.467 494.061C916.766 454.914 943.821 403.725 990.081 402.082L1047.13 400.055C1079.42 398.909 1105 372.401 1105 340.093V292.238C1105 268.913 1091.48 247.702 1070.34 237.851L941.426 177.789C933.247 173.979 924.315 172.062 915.293 172.181L270.58 180.714C256.631 180.899 243.182 185.939 232.546 194.967L184.172 236.028C170.742 247.429 163 264.155 163 281.771V322.898C163 360.733 197.591 389.124 234.699 381.747L291.353 370.484C314.304 365.922 337.813 375.118 351.576 394.042L380.532 433.856C383.499 437.936 385.939 442.373 387.796 447.064L407.161 495.986Z" fill="#74653B"/>
<path d="M415.415 479.635C424.87 501.696 446.562 516 470.564 516H529C562.137 516 589 542.863 589 576V576C589 609.137 562.137 636 529 636H343C309.863 636 283 662.863 283 696V697.581C283 722.014 297.815 744.006 320.458 753.186L420.843 793.882C427.559 796.605 434.712 798.088 441.957 798.261L724.019 804.977C752.35 805.651 780.5 800.298 806.604 789.271L958.884 724.945C982.809 714.839 997.516 690.487 995.323 664.608L990.414 606.683C989.489 595.77 985.594 585.317 979.152 576.459L936.476 517.779C929.017 507.524 925 495.17 925 482.489V464C925 430.863 951.863 404 985 404H1035C1068.14 404 1095 377.137 1095 344V315.069C1095 290.312 1079.79 268.096 1056.72 259.136L935.477 212.067C928.552 209.379 921.189 208 913.762 208H280.556C266.621 208 253.121 212.85 242.373 221.718L200.817 256.001C187.001 267.399 179 284.373 179 302.283V328.123C179 358.77 202.096 384.491 232.567 387.777L348.109 400.237C369.662 402.562 388.285 416.331 396.824 436.256L415.415 479.635Z" fill="#CFE8E7"/>
<path d="M458.492 431.361C472.38 450.499 492.6 464.096 515.562 469.74L559.141 480.45C584.085 486.58 605.714 502.075 619.544 523.721L625.823 533.55C637.587 551.962 642.706 573.841 640.334 595.562V595.562C635.022 644.179 593.96 681 545.053 681H366.429C357.973 681 350.007 684.971 344.917 691.724V691.724C333.149 707.336 341.407 729.89 360.474 734.212L451.475 754.841C457.805 756.276 464.276 757 470.767 757H741.552C754.397 757 767.122 754.525 779.031 749.711L907.18 697.906C932.455 687.688 949 663.154 949 635.892V625.375C949 603.192 934.954 583.442 914 576.161V576.161C893.046 568.88 879 549.13 879 526.947V523.176C879 519.732 878.69 516.296 878.074 512.907L872.525 482.385C864.523 438.376 886.721 394.406 926.882 374.712L951.59 362.595C959.097 358.914 967.347 357 975.708 357H998.008C1025.55 357 1044.58 329.453 1034.83 303.696V303.696C1029.97 290.844 1018.76 281.457 1005.25 278.93L843.72 248.706C837.655 247.571 831.498 247 825.327 247H331.658C323.824 247 316.039 248.233 308.588 250.653L269.04 263.498C239.633 273.05 228.384 308.722 246.994 333.415V333.415C255.779 345.072 269.671 351.747 284.262 351.321L329.5 350L345.181 349.542C378.229 348.577 409.617 364.009 429.035 390.768L458.492 431.361Z" fill="#BCCFE8"/>
<ellipse cx="102.5" cy="285.5" rx="55.5" ry="14.5" fill="#8C9DDE"/>
<path d="M93.8971 256.045C95.4767 252.377 99.0878 250 103.082 250H124.396C128.144 250 131.577 252.096 133.29 255.429L149 286H81L93.8971 256.045Z" fill="#BCCFE8"/>
<path d="M68.5254 272.262C70.4202 270.184 73.1026 269 75.915 269H95.5C101.023 269 105.5 273.477 105.5 279V286H62.7951C60.1886 286 58.8221 282.905 60.5782 280.979L68.5254 272.262Z" fill="#BCCFE8"/>
<path d="M108.569 266.053C110.147 262.38 113.76 260 117.757 260H129.559C133.31 260 136.746 262.099 138.457 265.437L149 286H100L108.569 266.053Z" fill="#6176CF"/>
<ellipse cx="208.5" cy="521.5" rx="55.5" ry="14.5" fill="#8C9DDE"/>
<path d="M199.897 492.045C201.477 488.377 205.088 486 209.082 486H230.396C234.144 486 237.577 488.096 239.29 491.429L255 522H187L199.897 492.045Z" fill="#BCCFE8"/>
<path d="M174.525 508.262C176.42 506.184 179.103 505 181.915 505H201.5C207.023 505 211.5 509.477 211.5 515V522H168.795C166.189 522 164.822 518.905 166.578 516.979L174.525 508.262Z" fill="#BCCFE8"/>
<path d="M214.569 502.053C216.147 498.38 219.76 496 223.757 496H235.559C239.31 496 242.746 498.099 244.457 501.437L255 522H206L214.569 502.053Z" fill="#6176CF"/>
<path d="M91.329 547.252C94.3961 543.307 99.1127 541 104.109 541H141.988C144.841 541 147.676 541.47 150.377 542.391L179.316 552.255C189.565 555.749 190.801 569.746 181.323 574.981V574.981C180.016 575.703 178.591 576.184 177.114 576.402L140.3 581.839C135.125 582.603 129.845 582.19 124.852 580.63L99.2818 572.642C88.4972 569.272 84.3937 556.171 91.329 547.252V547.252Z" fill="#8C9DDE"/>
<path d="M99.2223 458.015C101.194 455.482 104.225 454 107.435 454H131.818C133.651 454 135.472 454.302 137.207 454.893L155.831 461.235C162.422 463.48 163.217 472.482 157.121 475.846V475.846C156.281 476.309 155.365 476.618 154.417 476.758L130.721 480.255C127.396 480.745 124.003 480.48 120.795 479.479L104.334 474.34C97.3985 472.175 94.76 463.749 99.2223 458.015V458.015Z" fill="#8C9DDE"/>
<ellipse rx="55.5" ry="14.5" transform="matrix(-1 0 0 1 492.5 67.5)" fill="#8C9DDE"/>
<path d="M501.103 38.0454C499.523 34.3768 495.912 32 491.918 32H470.604C466.856 32 463.423 34.0958 461.71 37.4293L446 68H514L501.103 38.0454Z" fill="#BCCFE8"/>
<path d="M526.475 54.2625C524.58 52.1843 521.897 51 519.085 51H499.5C493.977 51 489.5 55.4772 489.5 61V68H532.205C534.811 68 536.178 64.9048 534.422 62.9787L526.475 54.2625Z" fill="#BCCFE8"/>
<path d="M486.431 48.053C484.853 44.3803 481.24 42 477.243 42H465.441C461.69 42 458.254 44.0994 456.543 47.4375L446 68H495L486.431 48.053Z" fill="#6176CF"/>
<ellipse cx="355.5" cy="221.5" rx="55.5" ry="14.5" fill="#BCCFE8"/>
<path d="M346.897 192.045C348.477 188.377 352.088 186 356.082 186H377.396C381.144 186 384.577 188.096 386.29 191.429L402 222H334L346.897 192.045Z" fill="#8C9DDE"/>
<path d="M321.525 208.262C323.42 206.184 326.103 205 328.915 205H348.5C354.023 205 358.5 209.477 358.5 215V222H315.795C313.189 222 311.822 218.905 313.578 216.979L321.525 208.262Z" fill="#8C9DDE"/>
<path d="M361.569 202.053C363.147 198.38 366.76 196 370.757 196H382.559C386.31 196 389.746 198.099 391.457 201.437L402 222H353L361.569 202.053Z" fill="#6176CF"/>
<rect x="337" y="283" width="10" height="10" transform="rotate(-90 337 283)" fill="white"/>
<rect x="347" y="293" width="10" height="10" transform="rotate(-90 347 293)" fill="white"/>
<rect x="337" y="303" width="10" height="10" transform="rotate(-90 337 303)" fill="white"/>
<rect x="327" y="293" width="10" height="10" transform="rotate(-90 327 293)" fill="white"/>
<rect x="388" y="306" width="10" height="10" transform="rotate(-90 388 306)" fill="white"/>
<rect x="398" y="316" width="10" height="10" transform="rotate(-90 398 316)" fill="white"/>
<rect x="388" y="326" width="10" height="10" transform="rotate(-90 388 326)" fill="white"/>
<rect x="378" y="316" width="10" height="10" transform="rotate(-90 378 316)" fill="white"/>
<rect x="780" y="682" width="10" height="10" transform="rotate(-90 780 682)" fill="white"/>
<rect x="790" y="692" width="10" height="10" transform="rotate(-90 790 692)" fill="white"/>
<rect x="780" y="702" width="10" height="10" transform="rotate(-90 780 702)" fill="white"/>
<rect x="770" y="692" width="10" height="10" transform="rotate(-90 770 692)" fill="white"/>
<rect x="731" y="705" width="10" height="10" transform="rotate(-90 731 705)" fill="white"/>
<rect x="741" y="715" width="10" height="10" transform="rotate(-90 741 715)" fill="white"/>
<rect x="731" y="725" width="10" height="10" transform="rotate(-90 731 725)" fill="white"/>
<rect x="721" y="715" width="10" height="10" transform="rotate(-90 721 715)" fill="white"/>
<rect x="627" y="418" width="10" height="10" transform="rotate(-90 627 418)" fill="white"/>
<rect x="637" y="428" width="10" height="10" transform="rotate(-90 637 428)" fill="white"/>
<rect x="627" y="438" width="10" height="10" transform="rotate(-90 627 438)" fill="white"/>
<rect x="617" y="428" width="10" height="10" transform="rotate(-90 617 428)" fill="white"/>
<path d="M693 545.407C693 570.876 717.015 589.511 741.687 583.185V583.185C758.937 578.762 771 563.215 771 545.407V535.669C771 516.891 786.222 501.669 805 501.669V501.669C823.778 501.669 839 486.447 839 467.669V444.402C839 431.005 843.697 418.033 852.273 407.741L891.172 361.062C896.23 354.993 899 347.342 899 339.441V339.441C899 320.789 883.879 305.669 865.227 305.669H718.175C701.472 305.669 684.85 307.983 668.782 312.545L562.916 342.606C544.031 347.969 531 365.215 531 384.846V384.846C531 407.017 547.527 425.709 569.53 428.426L631.618 436.091C666.672 440.418 693 470.197 693 505.517V545.407Z" fill="white"/>
<rect x="480" y="380" width="126" height="18" rx="9" fill="#9FB4D3"/>
<rect x="499" y="352" width="23" height="37" rx="11.5" fill="#F9CF9D"/>
<path d="M536 365.5C541.523 365.5 546.127 360.953 544.742 355.606C543.128 349.374 540.003 343.632 535.602 338.983C528.945 331.951 519.915 328 510.5 328C501.085 328 492.055 331.951 485.398 338.983C480.997 343.632 477.872 349.374 476.258 355.606C474.873 360.953 479.477 365.5 485 365.5L510.5 365.5H536Z" fill="#DB4242"/>
<rect x="565.916" y="364.916" width="17.169" height="27.6197" rx="8.58451" fill="#F9CF9D"/>
<path d="M593.535 374.993C597.658 374.993 601.095 371.598 600.061 367.607C598.856 362.956 596.523 358.669 593.238 355.199C588.269 349.949 581.528 347 574.5 347C567.472 347 560.731 349.949 555.762 355.199C552.477 358.669 550.144 362.956 548.939 367.607C547.905 371.598 551.342 374.993 555.465 374.993L574.5 374.993H593.535Z" fill="#7289DA"/>
<ellipse cx="880.5" cy="279.5" rx="55.5" ry="14.5" fill="#9FB4D3"/>
<path d="M871.897 250.045C873.477 246.377 877.088 244 881.082 244H902.396C906.144 244 909.577 246.096 911.29 249.429L927 280H859L871.897 250.045Z" fill="#F9CF9D"/>
<path d="M846.525 266.262C848.42 264.184 851.103 263 853.915 263H873.5C879.023 263 883.5 267.477 883.5 273V280H840.795C838.189 280 836.822 276.905 838.578 274.979L846.525 266.262Z" fill="#F9CF9D"/>
<path d="M886.569 260.053C888.147 256.38 891.76 254 895.757 254H907.559C911.31 254 914.746 256.099 916.457 259.437L927 280H878L886.569 260.053Z" fill="#E4953D"/>
<ellipse cx="949.75" cy="236.35" rx="10.75" ry="6.45" fill="#BCCFE8"/>
<mask id="mask0" mask-type="alpha" maskUnits="userSpaceOnUse" x="944" y="217" width="11" height="22">
<path d="M944.913 221.837C944.913 219.166 947.078 217 949.75 217V217C952.422 217 954.588 219.166 954.588 221.837V233.662C954.588 236.334 952.422 238.5 949.75 238.5V238.5V238.5C947.078 238.5 944.913 236.334 944.913 233.662V221.837Z" fill="#7A2544"/>
</mask>
<g mask="url(#mask0)">
<rect x="943.838" y="217" width="6.45" height="21.5" fill="#A0603B"/>
<rect x="950.288" y="217" width="5.375" height="21.5" fill="#7A2544"/>
</g>
<path d="M919.752 217.624C929.418 223.83 940.628 226.703 951.865 225.854C963.102 225.005 973.826 220.475 982.585 212.876L948 167L919.752 217.624Z" fill="#9FB4D3"/>
<path d="M914.485 213.781C921.252 219.359 929.135 223.172 937.512 224.917C945.89 226.663 954.53 226.294 962.751 223.838L948 167L914.485 213.781Z" fill="#BCCFE8"/>
<path d="M924.767 196.973C932.876 202.18 942.281 204.59 951.709 203.878C961.137 203.165 970.133 199.364 977.482 192.989L948.466 154.5L924.767 196.973Z" fill="#9FB4D3"/>
<path d="M920.348 193.748C926.025 198.428 932.639 201.627 939.667 203.092C946.695 204.556 953.945 204.246 960.842 202.186L948.466 154.5L920.348 193.748Z" fill="#BCCFE8"/>
<path d="M929.075 180.25C935.711 184.511 943.405 186.483 951.119 185.9C958.833 185.317 966.194 182.207 972.207 176.991L948.466 145.5L929.075 180.25Z" fill="#9FB4D3"/>
<path d="M925.46 177.612C930.105 181.441 935.516 184.059 941.267 185.257C947.017 186.455 952.949 186.202 958.592 184.516L948.466 145.5L925.46 177.612Z" fill="#BCCFE8"/>
<ellipse cx="945.5" cy="170.5" rx="2.5" ry="3.5" transform="rotate(12.9465 945.5 170.5)" fill="white"/>
<ellipse cx="934.221" cy="212.971" rx="2.5" ry="3.5" transform="rotate(12.9465 934.221 212.971)" fill="white"/>
<ellipse cx="947.853" cy="194.984" rx="3.76702" ry="5.27383" transform="rotate(12.9465 947.853 194.984)" fill="white"/>
<ellipse cx="864.917" cy="220.25" rx="12.9167" ry="7.75" fill="#BCCFE8"/>
<mask id="mask1" mask-type="alpha" maskUnits="userSpaceOnUse" x="859" y="197" width="12" height="26">
<path d="M859.104 202.813C859.104 199.602 861.707 197 864.917 197V197C868.127 197 870.729 199.602 870.729 202.812V217.021C870.729 220.231 868.127 222.833 864.917 222.833V222.833V222.833C861.707 222.833 859.104 220.231 859.104 217.021V202.813Z" fill="#7A2544"/>
</mask>
<g mask="url(#mask1)">
<rect x="857.813" y="197" width="7.75" height="25.8333" fill="#A0603B"/>
<rect x="865.562" y="197" width="6.45833" height="25.8333" fill="#7A2544"/>
</g>
<path d="M838.536 200.624C847.763 206.83 858.463 209.703 869.189 208.854C879.916 208.005 890.152 203.475 898.513 195.876L865.5 150L838.536 200.624Z" fill="#9FB4D3"/>
<path d="M833.509 196.781C839.968 202.359 847.493 206.172 855.489 207.917C863.485 209.663 871.734 209.294 879.581 206.838L865.5 150L833.509 196.781Z" fill="#BCCFE8"/>
<path d="M843.323 179.973C851.064 185.18 860.041 187.59 869.04 186.878C878.04 186.165 886.627 182.364 893.642 175.989L865.945 137.5L843.323 179.973Z" fill="#9FB4D3"/>
<path d="M839.105 176.748C844.524 181.428 850.837 184.627 857.546 186.092C864.255 187.556 871.175 187.246 877.758 185.186L865.945 137.5L839.105 176.748Z" fill="#BCCFE8"/>
<ellipse cx="849.221" cy="197.971" rx="2.5" ry="3.5" transform="rotate(12.9465 849.221 197.971)" fill="white"/>
<ellipse cx="859.853" cy="173.984" rx="3.76702" ry="5.27383" transform="rotate(12.9465 859.853 173.984)" fill="white"/>
<ellipse cx="627.5" cy="725.5" rx="55.5" ry="14.5" fill="#9FB4D3"/>
<path d="M618.897 696.045C620.477 692.377 624.088 690 628.082 690H649.396C653.144 690 656.577 692.096 658.29 695.429L674 726H606L618.897 696.045Z" fill="#F9CF9D"/>
<path d="M593.525 712.262C595.42 710.184 598.103 709 600.915 709H620.5C626.023 709 630.5 713.477 630.5 719V726H587.795C585.189 726 583.822 722.905 585.578 720.979L593.525 712.262Z" fill="#F9CF9D"/>
<path d="M633.569 706.053C635.147 702.38 638.76 700 642.757 700H654.559C658.31 700 661.746 702.099 663.457 705.437L674 726H625L633.569 706.053Z" fill="#E4953D"/>
<ellipse cx="786.724" cy="334.606" rx="10.7836" ry="4.00533" transform="rotate(-36.245 786.724 334.606)" fill="#BCCFE8"/>
<ellipse rx="10.7836" ry="4.00533" transform="matrix(-0.806496 -0.59124 -0.59124 0.806496 774.065 334.661)" fill="#BCCFE8"/>
<ellipse cx="829.724" cy="349.606" rx="10.7836" ry="4.00533" transform="rotate(-36.245 829.724 349.606)" fill="#BCCFE8"/>
<ellipse rx="10.7836" ry="4.00533" transform="matrix(-0.806496 -0.59124 -0.59124 0.806496 817.065 349.661)" fill="#BCCFE8"/>
<ellipse cx="449.724" cy="468.606" rx="10.7836" ry="4.00533" transform="rotate(-36.245 449.724 468.606)" fill="#BCCFE8"/>
<ellipse rx="10.7836" ry="4.00533" transform="matrix(-0.806496 -0.59124 -0.59124 0.806496 437.065 468.661)" fill="#BCCFE8"/>
<ellipse cx="516.724" cy="487.606" rx="10.7836" ry="4.00533" transform="rotate(-36.245 516.724 487.606)" fill="#BCCFE8"/>
<ellipse rx="10.7836" ry="4.00533" transform="matrix(-0.806496 -0.59124 -0.59124 0.806496 504.065 487.661)" fill="#BCCFE8"/>
<ellipse cx="396.724" cy="654.606" rx="10.7836" ry="4.00533" transform="rotate(-36.245 396.724 654.606)" fill="#BCCFE8"/>
<ellipse rx="10.7836" ry="4.00533" transform="matrix(-0.806496 -0.59124 -0.59124 0.806496 384.065 654.661)" fill="#BCCFE8"/>
<ellipse cx="323.724" cy="673.606" rx="10.7836" ry="4.00533" transform="rotate(-36.245 323.724 673.606)" fill="#BCCFE8"/>
<ellipse rx="10.7836" ry="4.00533" transform="matrix(-0.806496 -0.59124 -0.59124 0.806496 311.065 673.661)" fill="#BCCFE8"/>
<ellipse cx="361.724" cy="669.606" rx="10.7836" ry="4.00533" transform="rotate(-36.245 361.724 669.606)" fill="#BCCFE8"/>
<ellipse rx="10.7836" ry="4.00533" transform="matrix(-0.806496 -0.59124 -0.59124 0.806496 349.065 669.661)" fill="#BCCFE8"/>
<ellipse cx="471.724" cy="497.606" rx="10.7836" ry="4.00533" transform="rotate(-36.245 471.724 497.606)" fill="#BCCFE8"/>
<ellipse rx="10.7836" ry="4.00533" transform="matrix(-0.806496 -0.59124 -0.59124 0.806496 459.065 497.661)" fill="#BCCFE8"/>
<ellipse cx="626.724" cy="461.606" rx="10.7836" ry="4.00533" transform="rotate(-36.245 626.724 461.606)" fill="#BCCFE8"/>
<ellipse rx="10.7836" ry="4.00533" transform="matrix(-0.806496 -0.59124 -0.59124 0.806496 614.065 461.661)" fill="#BCCFE8"/>
<ellipse cx="626.724" cy="461.606" rx="10.7836" ry="4.00533" transform="rotate(-36.245 626.724 461.606)" fill="#BCCFE8"/>
<ellipse rx="10.7836" ry="4.00533" transform="matrix(-0.806496 -0.59124 -0.59124 0.806496 614.065 461.661)" fill="#BCCFE8"/>
<ellipse cx="678.296" cy="412.647" rx="11.9527" ry="4.43959" transform="rotate(-36.245 678.296 412.647)" fill="#93ABD0"/>
<ellipse rx="11.9527" ry="4.43959" transform="matrix(-0.806496 -0.59124 -0.59124 0.806496 664.265 412.708)" fill="#93ABD0"/>
<ellipse cx="709.296" cy="448.647" rx="11.9527" ry="4.43959" transform="rotate(-36.245 709.296 448.647)" fill="#93ABD0"/>
<ellipse rx="11.9527" ry="4.43959" transform="matrix(-0.806496 -0.59124 -0.59124 0.806496 695.265 448.708)" fill="#93ABD0"/>
<ellipse cx="1055.3" cy="360.647" rx="11.9527" ry="4.43959" transform="rotate(-36.245 1055.3 360.647)" fill="#93ABD0"/>
<ellipse rx="11.9527" ry="4.43959" transform="matrix(-0.806496 -0.59124 -0.59124 0.806496 1041.26 360.708)" fill="#93ABD0"/>
<ellipse cx="1016.3" cy="350.647" rx="11.9527" ry="4.43959" transform="rotate(-36.245 1016.3 350.647)" fill="#93ABD0"/>
<ellipse rx="11.9527" ry="4.43959" transform="matrix(-0.806496 -0.59124 -0.59124 0.806496 1002.26 350.708)" fill="#93ABD0"/>
<ellipse cx="1003.3" cy="381.647" rx="11.9527" ry="4.43959" transform="rotate(-36.245 1003.3 381.647)" fill="#93ABD0"/>
<ellipse rx="11.9527" ry="4.43959" transform="matrix(-0.806496 -0.59124 -0.59124 0.806496 989.265 381.708)" fill="#93ABD0"/>
<ellipse cx="634.296" cy="630.647" rx="11.9527" ry="4.43959" transform="rotate(-36.245 634.296 630.647)" fill="#93ABD0"/>
<ellipse rx="11.9527" ry="4.43959" transform="matrix(-0.806496 -0.59124 -0.59124 0.806496 620.265 630.708)" fill="#93ABD0"/>
<ellipse cx="671.296" cy="655.647" rx="11.9527" ry="4.43959" transform="rotate(-36.245 671.296 655.647)" fill="#93ABD0"/>
<ellipse rx="11.9527" ry="4.43959" transform="matrix(-0.806496 -0.59124 -0.59124 0.806496 657.265 655.708)" fill="#93ABD0"/>
<ellipse cx="734.296" cy="412.647" rx="11.9527" ry="4.43959" transform="rotate(-36.245 734.296 412.647)" fill="#93ABD0"/>
<ellipse rx="11.9527" ry="4.43959" transform="matrix(-0.806496 -0.59124 -0.59124 0.806496 720.265 412.708)" fill="#93ABD0"/>
<ellipse cx="714.5" cy="330" rx="11" ry="5" fill="#BCCFE8"/>
<rect x="711" y="314" width="7" height="18" rx="3.5" fill="#684930"/>
<circle cx="714.5" cy="302.5" r="15" fill="white" stroke="#FF6969" stroke-width="7"/>
<ellipse cx="351.241" cy="647.962" rx="16.7294" ry="10.0377" fill="#BCCFE8"/>
<mask id="mask2" mask-type="alpha" maskUnits="userSpaceOnUse" x="343" y="617" width="16" height="35">
<path d="M343.713 625.378C343.713 621.22 347.084 617.849 351.241 617.849V617.849C355.399 617.849 358.77 621.22 358.77 625.378V643.78C358.77 647.938 355.399 651.308 351.241 651.308V651.308V651.308C347.084 651.308 343.713 647.938 343.713 643.78V625.378Z" fill="#7A2544"/>
</mask>
<g mask="url(#mask2)">
<rect x="342.04" y="617.849" width="10.0377" height="33.4588" fill="#CFE8E7"/>
<rect x="352.078" y="617.849" width="8.36471" height="33.4588" fill="#7A2544"/>
</g>
<path d="M317.074 622.543C329.024 630.582 342.882 634.303 356.775 633.203C370.668 632.103 383.925 626.235 394.755 616.393L351.997 556.976L317.074 622.543Z" fill="#CFE8E7"/>
<path d="M310.563 617.566C318.928 624.79 328.674 629.729 339.031 631.989C349.388 634.25 360.07 633.772 370.234 630.592L351.997 556.976L310.563 617.566Z" fill="white"/>
<path d="M322.11 595.812C332.136 604.464 343.763 608.468 355.419 607.285C367.075 606.101 378.197 599.786 387.283 589.193L351.41 525.244L322.11 595.812Z" fill="#CFE8E7"/>
<path d="M316.647 590.455C323.665 598.231 331.843 603.546 340.532 605.979C349.221 608.412 358.183 607.897 366.711 604.475L351.41 525.244L316.647 590.455Z" fill="white"/>
<ellipse cx="330.912" cy="619.107" rx="3.23795" ry="4.53313" transform="rotate(12.9465 330.912 619.107)" fill="#BCCFE8"/>
<ellipse cx="344.683" cy="588.039" rx="4.87897" ry="6.83056" transform="rotate(12.9465 344.683 588.039)" fill="#BCCFE8"/>
<ellipse cx="807.62" cy="218.309" rx="17.8188" ry="10.6913" fill="#BCCFE8"/>
<mask id="mask3" mask-type="alpha" maskUnits="userSpaceOnUse" x="799" y="186" width="17" height="36">
<path d="M799.602 194.253C799.602 189.825 803.192 186.235 807.62 186.235V186.235C812.048 186.235 815.638 189.825 815.638 194.253V213.854C815.638 218.283 812.048 221.872 807.62 221.872V221.872V221.872C803.192 221.872 799.602 218.283 799.602 213.854V194.253Z" fill="#7A2544"/>
</mask>
<g mask="url(#mask3)">
<rect x="797.82" y="186.235" width="10.6913" height="35.6376" fill="#CFE8E7"/>
<rect x="808.511" y="186.235" width="8.90939" height="35.6376" fill="#7A2544"/>
</g>
<path d="M771.228 191.234C783.956 199.796 798.717 203.759 813.514 202.588C828.312 201.416 842.432 195.167 853.967 184.684L808.425 121.398L771.228 191.234Z" fill="#CFE8E7"/>
<path d="M764.292 185.933C773.202 193.628 783.583 198.888 794.614 201.296C805.646 203.704 817.024 203.194 827.849 199.807L808.425 121.398L764.292 185.933Z" fill="white"/>
<path d="M776.592 162.762C787.27 171.978 799.654 176.243 812.069 174.982C824.484 173.721 836.331 166.995 846.008 155.712L807.799 87.5994L776.592 162.762Z" fill="#CFE8E7"/>
<path d="M770.773 157.057C778.248 165.339 786.958 171 796.213 173.591C805.468 176.183 815.014 175.635 824.096 171.989L807.799 87.5994L770.773 157.057Z" fill="white"/>
<ellipse cx="785.967" cy="187.575" rx="3.4488" ry="4.82831" transform="rotate(12.9465 785.967 187.575)" fill="#BCCFE8"/>
<ellipse cx="800.634" cy="154.484" rx="5.19667" ry="7.27534" transform="rotate(12.9465 800.634 154.484)" fill="#BCCFE8"/>
<rect x="869.617" y="531.42" width="44.3498" height="121.08" fill="#9FB4D3"/>
<path d="M891.792 543.612L913.967 531V555.627L891.792 543.612Z" fill="#BCCFE8"/>
<path d="M891.792 542.772L869.617 531V554.787L891.792 542.772Z" fill="white"/>
<path d="M891.792 543.612L913.967 531H869.617L891.792 543.612Z" fill="#CFE8E7"/>
<path d="M822.682 634.71C822.682 626.349 829.461 619.57 837.822 619.57H941.533C949.894 619.57 956.673 626.349 956.673 634.71V677.86C956.673 686.221 949.894 693 941.533 693H893.794C887.574 693 882.531 687.958 882.531 681.738V681.738C882.531 675.518 877.489 670.475 871.269 670.475H837.822C829.461 670.475 822.682 663.697 822.682 655.335V634.71Z" fill="#9FB4D3"/>
<rect x="803" y="554.467" width="49.9626" height="24.2243" fill="white"/>
<path d="M803 578.692H852.963L898.005 659.692H850.313L803 578.692Z" fill="#7A95C1"/>
<path d="M852.206 577.935V553.71L898.383 633.953V660.07L852.206 577.935Z" fill="#CFE8E7"/>
<rect x="817.383" y="574.15" width="5.29907" height="15.1402" rx="2.64953" fill="white"/>
<rect x="824.953" y="574.15" width="5.29907" height="11.3551" rx="2.64953" fill="white"/>
<rect x="898.323" y="574.452" width="31.9153" height="87.132" fill="#BCCFE8"/>
<path d="M914.28 583.226L930.238 574.15V591.872L914.28 583.226Z" fill="#9FB4D3"/>
<path d="M914.28 582.621L898.323 574.15V591.267L914.28 582.621Z" fill="white"/>
<path d="M914.28 583.226L930.238 574.15H898.323L914.28 583.226Z" fill="#CFE8E7"/>
<rect width="36.8052" height="17.8449" transform="matrix(-1 0 0 1 968.647 601.96)" fill="#CFE8E7"/>
<path d="M968.647 619.804H931.842L898.662 679.473H933.794L968.647 619.804Z" fill="#7A95C1"/>
<path d="M932.4 619.247V601.402L898.383 658.178V679.752L932.4 619.247Z" fill="white"/>
<rect width="3.90358" height="11.1531" rx="1.95179" transform="matrix(-1 0 0 1 958.052 616.458)" fill="#CFE8E7"/>
<rect width="3.90358" height="8.36482" rx="1.95179" transform="matrix(-1 0 0 1 952.476 616.458)" fill="#CFE8E7"/>
<rect x="532.617" y="144.42" width="44.3498" height="121.08" fill="#9FB4D3"/>
<path d="M554.792 156.613L576.967 144V168.628L554.792 156.613Z" fill="#BCCFE8"/>
<path d="M554.792 155.772L532.617 144V167.787L554.792 155.772Z" fill="white"/>
<path d="M554.792 156.612L576.967 144H532.617L554.792 156.612Z" fill="#CFE8E7"/>
<path d="M485.682 247.71C485.682 239.349 492.461 232.57 500.823 232.57H604.533C612.895 232.57 619.673 239.349 619.673 247.71V290.86C619.673 299.221 612.895 306 604.533 306H556.794C550.574 306 545.532 300.958 545.532 294.738V294.738C545.532 288.518 540.489 283.475 534.269 283.475H500.823C492.461 283.475 485.682 276.697 485.682 268.335V247.71Z" fill="#9FB4D3"/>
<rect x="466" y="167.467" width="49.9626" height="24.2243" fill="white"/>
<path d="M466 191.692H515.963L561.005 272.692H513.313L466 191.692Z" fill="#7A95C1"/>
<path d="M515.206 190.935V166.71L561.383 246.953V273.07L515.206 190.935Z" fill="#CFE8E7"/>
<rect x="480.383" y="187.15" width="5.29907" height="15.1402" rx="2.64953" fill="white"/>
<rect x="487.953" y="187.15" width="5.29907" height="11.3551" rx="2.64953" fill="white"/>
<rect x="561.323" y="187.452" width="31.9153" height="87.132" fill="#BCCFE8"/>
<path d="M577.28 196.226L593.238 187.15V204.872L577.28 196.226Z" fill="#9FB4D3"/>
<path d="M577.28 195.621L561.323 187.15V204.267L577.28 195.621Z" fill="white"/>
<path d="M577.28 196.226L593.238 187.15H561.323L577.28 196.226Z" fill="#CFE8E7"/>
<rect width="36.8052" height="17.8449" transform="matrix(-1 0 0 1 631.647 214.96)" fill="#CFE8E7"/>
<path d="M631.647 232.804H594.842L561.662 292.473H596.794L631.647 232.804Z" fill="#7A95C1"/>
<path d="M595.4 232.247V214.402L561.383 271.178V292.752L595.4 232.247Z" fill="white"/>
<rect width="3.90358" height="11.1531" rx="1.95179" transform="matrix(-1 0 0 1 621.052 229.458)" fill="#CFE8E7"/>
<rect width="3.90358" height="8.36482" rx="1.95179" transform="matrix(-1 0 0 1 615.475 229.458)" fill="#CFE8E7"/>
</svg>
