<svg width="106" height="119" viewBox="0 0 106 119" fill="none" xmlns="http://www.w3.org/2000/svg">
<ellipse cx="52.5" cy="109" rx="37.5" ry="10" fill="#9FB4D3"/>
<rect x="48" y="71" width="10" height="38" fill="#684930"/>
<ellipse rx="22.381" ry="7.69228" transform="matrix(0.871244 -0.49085 0.690241 0.72358 67.1912 101.552)" fill="#684930"/>
<ellipse rx="22.381" ry="7.69228" transform="matrix(-0.871244 -0.49085 -0.690241 0.72358 38.8088 101.646)" fill="#684930"/>
<path d="M100 37.5C100 45.3892 95.4897 53.1196 87.0111 59.1185C78.5474 65.107 66.5416 69 53 69C39.4584 69 27.4526 65.107 18.9889 59.1185C10.5103 53.1196 6 45.3892 6 37.5C6 29.6108 10.5103 21.8804 18.9889 15.8815C27.4526 9.89299 39.4584 6 53 6C66.5416 6 78.5474 9.89299 87.0111 15.8815C95.4897 21.8804 100 29.6108 100 37.5Z" fill="white" stroke="#7289DA" stroke-width="12"/>
<ellipse cx="35.5" cy="40.5" rx="4.5" ry="10.5" fill="#3B3B3B"/>
<ellipse cx="70.5" cy="40.5" rx="4.5" ry="10.5" fill="#3B3B3B"/>
</svg>
