<svg width="1264" height="760" viewBox="0 0 1264 760" fill="none" xmlns="http://www.w3.org/2000/svg">
<path d="M969.801 360.381C946.94 325.092 969.746 278.144 1011.62 274.3L1057.68 270.071C1113.95 264.906 1149.12 206.72 1127.54 154.504L1109.72 111.403C1096.63 79.7203 1070.43 55.279 1037.92 44.4126L998.208 31.1422C979.405 24.8583 959.807 21.2687 939.998 20.4804L595.805 6.78303C566.028 5.59805 536.212 7.74431 506.912 13.1819L280.098 55.2747C257.984 59.3785 237.183 68.7431 219.451 82.5777L215.272 85.8379C183.862 110.343 165.5 147.958 165.5 187.796V197.254C165.5 215.885 170.858 234.123 180.936 249.793L182.204 251.764C215.168 303.018 192.187 371.616 135 392.669V392.669L123.543 396.158C51.2675 418.166 3.81881 487.234 9.20247 562.594V562.594C13.3436 620.561 48.2323 671.864 100.62 697.02L161.238 726.129C198.15 743.854 238.524 753.199 279.47 753.495L1063.86 759.17C1108.53 759.493 1152.01 744.752 1187.28 717.327L1203.54 704.676C1241.69 675.013 1264 629.399 1264 581.078V581.078C1264 513.682 1220.87 453.848 1156.93 432.538L1089.11 409.932L1000.74 383.56C987.998 379.757 977.029 371.54 969.801 360.381V360.381Z" fill="#8C9DDE"/>
<path d="M917.461 261.669C935.397 261.669 952.91 256.223 967.682 246.052L981.343 236.646C1023.81 207.406 1025.7 145.357 985.093 113.586V113.586C975.097 105.765 963.308 100.558 950.794 98.4368L749.593 64.3334C738.551 62.4617 727.37 61.5209 716.17 61.5209L610.486 61.5209C588.316 61.5209 566.301 65.207 545.34 72.4284L413.074 117.997C394.75 124.31 374.99 125.191 356.176 120.533V120.533C292.789 104.841 231.5 152.808 231.5 218.109V247.54C231.5 269.94 241.077 291.272 257.816 306.158L266.585 313.957C281.732 327.427 288.702 347.856 284.947 367.776V367.776C280.229 392.802 259.666 411.778 234.342 414.474L201.68 417.951C130.259 425.554 88.9064 502.679 122.1 566.374L134.514 590.197C146.515 613.224 165.649 631.747 189.053 642.993L267.3 680.592C293.453 693.159 322.028 699.885 351.041 700.303L945.819 708.874C981.817 709.392 1017.18 699.36 1047.54 680.013L1075.1 662.457C1111.06 639.542 1132.83 599.852 1132.83 557.21V531.85C1132.83 504.704 1118.88 479.464 1095.89 465.024V465.024C1086.08 458.863 1075.04 454.936 1063.54 453.522L967.385 441.696C928.155 436.872 895.337 409.62 883.387 371.944L868.293 324.357C865.088 314.253 856.119 307.069 845.559 306.15L773.387 299.863C750.26 297.848 749.918 264.152 773 261.669V261.669H917.461Z" fill="#BCCFE8"/>
<path d="M856.839 355.682C847.371 331.765 823.711 316.543 798.021 317.842L737.796 320.887C711.064 322.239 689.398 299.48 692.061 272.846V272.846C694.297 250.485 713.114 233.455 735.588 233.455H928.484C952.965 233.455 974.991 218.582 984.138 195.873L986.993 188.786C999.602 157.483 983.925 121.943 952.306 110.151L835.142 66.4517C828.435 63.95 821.334 62.6688 814.175 62.6688H494.985C487.722 62.6688 480.519 63.9874 473.728 66.5605L297.924 133.165C273.54 142.403 257.914 166.332 259.261 192.372L262.212 249.439C262.729 259.433 265.738 269.14 270.964 277.674L294.232 315.669L315 345.669L322.533 357.608C347.234 396.755 320.179 447.944 273.919 449.587L216.87 451.613C184.582 452.76 159 479.267 159 511.576V559.431C159 582.756 172.518 603.967 193.661 613.818L322.574 673.879C330.753 677.69 339.685 679.607 348.707 679.487L993.42 670.954C1007.37 670.77 1020.82 665.73 1031.45 656.702L1079.83 615.64C1093.26 604.24 1101 587.514 1101 569.898V528.771C1101 490.936 1066.41 462.545 1029.3 469.922L972.647 481.185C949.696 485.747 926.187 476.551 912.424 457.627L883.468 417.813C880.501 413.733 878.061 409.296 876.204 404.605L856.839 355.682Z" fill="#A0603B"/>
<path d="M848.585 372.034C839.13 349.973 817.438 335.669 793.436 335.669H735C701.863 335.669 675 308.806 675 275.669V275.669C675 242.532 701.863 215.669 735 215.669H921C954.137 215.669 981 188.806 981 155.669V154.088C981 129.655 966.185 107.663 943.542 98.4833L843.157 57.7866C836.441 55.0639 829.288 53.5804 822.043 53.4079L539.981 46.6922C511.65 46.0176 483.5 51.3712 457.396 62.3982L305.116 126.723C281.191 136.83 266.484 161.182 268.677 187.061L273.586 244.986C274.511 255.899 278.406 266.352 284.848 275.209L327.524 333.89C334.983 344.145 339 356.499 339 369.18V387.669C339 420.806 312.137 447.669 279 447.669H229C195.863 447.669 169 474.532 169 507.669V536.6C169 561.357 184.206 583.572 207.285 592.532L328.523 639.601C335.448 642.29 342.811 643.669 350.238 643.669H983.444C997.379 643.669 1010.88 638.819 1021.63 629.951L1063.18 595.668C1077 584.27 1085 567.296 1085 549.385V523.546C1085 492.899 1061.9 467.178 1031.43 463.892L915.891 451.432C894.338 449.107 875.715 435.338 867.176 415.413L848.585 372.034Z" fill="#E38F33"/>
<path d="M805.508 420.307C791.62 401.17 771.4 387.572 748.438 381.929L704.859 371.219C679.915 365.089 658.286 349.594 644.456 327.948L638.177 318.119C626.413 299.707 621.294 277.828 623.666 256.107V256.107C628.978 207.49 670.04 170.669 718.947 170.669H897.571C906.027 170.669 913.993 166.698 919.083 159.945V159.945C930.851 144.333 922.593 121.779 903.526 117.457L812.525 96.828C806.195 95.393 799.724 94.6688 793.233 94.6688H522.448C509.603 94.6688 496.878 97.1436 484.969 101.958L356.82 153.763C331.545 163.98 315 188.515 315 215.776V226.294C315 248.477 329.046 268.227 350 275.508V275.508C370.954 282.788 385 302.539 385 324.721V328.493C385 331.937 385.31 335.373 385.926 338.761L391.475 369.283C399.477 413.292 377.279 457.263 337.118 476.957L312.41 489.074C304.903 492.755 296.653 494.669 288.292 494.669H265.992C238.453 494.669 219.423 522.216 229.169 547.973V547.973C234.032 560.825 245.244 570.211 258.751 572.739L420.28 602.963C426.345 604.098 432.502 604.669 438.673 604.669H932.342C940.176 604.669 947.961 603.436 955.412 601.016L994.96 588.17C1024.37 578.619 1035.62 542.947 1017.01 518.254V518.254C1008.22 506.597 994.329 499.922 979.738 500.348L934.5 501.669L918.819 502.127C885.771 503.092 854.383 487.66 834.965 460.901L805.508 420.307Z" fill="#E6A851"/>
<ellipse cx="364.915" cy="214.113" rx="7.98509" ry="2.96589" transform="rotate(-36.245 364.915 214.113)" fill="#F9CF9D"/>
<ellipse rx="7.98508" ry="2.96589" transform="matrix(-0.806496 -0.59124 -0.59124 0.806496 355.541 214.154)" fill="#F9CF9D"/>
<ellipse cx="390.567" cy="200.113" rx="7.98509" ry="2.96589" transform="rotate(-36.245 390.567 200.113)" fill="#F9CF9D"/>
<ellipse rx="7.98508" ry="2.96589" transform="matrix(-0.806496 -0.59124 -0.59124 0.806496 381.193 200.154)" fill="#F9CF9D"/>
<ellipse cx="449.567" cy="282.113" rx="7.98509" ry="2.96589" transform="rotate(-36.245 449.567 282.113)" fill="#F9CF9D"/>
<ellipse rx="7.98508" ry="2.96589" transform="matrix(-0.806496 -0.59124 -0.59124 0.806496 440.193 282.154)" fill="#F9CF9D"/>
<ellipse cx="566.567" cy="156.113" rx="7.98509" ry="2.96589" transform="rotate(-36.245 566.567 156.113)" fill="#F9CF9D"/>
<ellipse rx="7.98508" ry="2.96589" transform="matrix(-0.806496 -0.59124 -0.59124 0.806496 557.193 156.154)" fill="#F9CF9D"/>
<ellipse cx="954.567" cy="167.113" rx="7.98509" ry="2.96589" transform="rotate(-36.245 954.567 167.113)" fill="#F9CF9D"/>
<ellipse rx="7.98508" ry="2.96589" transform="matrix(-0.806496 -0.59124 -0.59124 0.806496 945.193 167.154)" fill="#F9CF9D"/>
<ellipse cx="943.567" cy="191.113" rx="7.98509" ry="2.96589" transform="rotate(-36.245 943.567 191.113)" fill="#F9CF9D"/>
<ellipse rx="7.98508" ry="2.96589" transform="matrix(-0.806496 -0.59124 -0.59124 0.806496 934.193 191.154)" fill="#F9CF9D"/>
<ellipse cx="732.567" cy="566.113" rx="7.98509" ry="2.96589" transform="rotate(-36.245 732.567 566.113)" fill="#F9CF9D"/>
<ellipse rx="7.98508" ry="2.96589" transform="matrix(-0.806496 -0.59124 -0.59124 0.806496 723.193 566.154)" fill="#F9CF9D"/>
<ellipse cx="966.5" cy="483.275" rx="8.19608" ry="3.72549" fill="#F0A048"/>
<rect x="963.892" y="471.353" width="5.21569" height="13.4118" rx="2.60784" fill="#7289DA"/>
<circle cx="966.5" cy="462.784" r="11.1765" fill="#FF6969" stroke="white" stroke-width="5.21569"/>
<ellipse cx="343.5" cy="313.863" rx="6.90196" ry="3.13725" fill="#F0A048"/>
<rect x="341.304" y="303.823" width="4.39216" height="11.2941" rx="2.19608" fill="#7289DA"/>
<circle cx="343.5" cy="296.608" r="9.41177" fill="#FF6969" stroke="white" stroke-width="4.39216"/>
<path d="M571 306.262C571 280.792 546.985 262.158 522.313 268.484V268.484C505.063 272.907 493 288.453 493 306.262V316C493 334.778 477.778 350 459 350V350C440.222 350 425 365.222 425 384V407.267C425 420.663 420.303 433.636 411.727 443.928L372.828 490.607C367.77 496.676 365 504.327 365 512.227V512.227C365 530.879 380.121 546 398.773 546H545.825C562.528 546 579.15 543.686 595.218 539.123L701.084 509.063C719.969 503.7 733 486.454 733 466.822V466.822C733 444.652 716.473 425.96 694.47 423.243L632.382 415.578C597.328 411.25 571 381.472 571 346.152V306.262Z" fill="#F9CF9D"/>
<ellipse cx="371.369" cy="615.086" rx="8.55089" ry="5.13054" fill="#F0A048"/>
<mask id="mask0" mask-type="alpha" maskUnits="userSpaceOnUse" x="367" y="599" width="9" height="18">
<path d="M367.521 603.542C367.521 601.417 369.244 599.695 371.369 599.695V599.695C373.494 599.695 375.217 601.417 375.217 603.542V612.948C375.217 615.074 373.494 616.796 371.369 616.796V616.796V616.796C369.244 616.796 367.521 615.074 367.521 612.948V603.542Z" fill="#7A2544"/>
</mask>
<g mask="url(#mask0)">
<rect x="366.666" y="599.695" width="5.13054" height="17.1018" fill="#A0603B"/>
<rect x="371.797" y="599.695" width="4.27545" height="17.1018" fill="#7A2544"/>
</g>
<path d="M353.905 602.094C360.013 606.202 367.097 608.104 374.198 607.542C381.299 606.98 388.075 603.981 393.61 598.95L371.755 568.58L353.905 602.094Z" fill="#AB333B"/>
<path d="M350.577 599.55C354.853 603.242 359.834 605.766 365.128 606.922C370.422 608.078 375.882 607.833 381.077 606.208L371.755 568.58L350.577 599.55Z" fill="#DB4242"/>
<path d="M357.074 588.422C362.198 591.87 368.141 593.465 374.099 592.994C380.057 592.522 385.742 590.006 390.386 585.785L372.05 560.305L357.074 588.422Z" fill="#AB333B"/>
<path d="M354.282 586.288C357.869 589.386 362.048 591.504 366.49 592.473C370.931 593.443 375.512 593.238 379.87 591.874L372.05 560.305L354.282 586.288Z" fill="#DB4242"/>
<ellipse cx="360.978" cy="600.338" rx="1.65501" ry="2.31702" transform="rotate(12.9465 360.978 600.338)" fill="#F1BC72"/>
<ellipse cx="368.017" cy="584.458" rx="2.49378" ry="3.4913" transform="rotate(12.9465 368.017 584.458)" fill="#F1BC72"/>
<ellipse cx="432.273" cy="613.762" rx="8.55089" ry="5.13054" fill="#F0A048"/>
<mask id="mask1" mask-type="alpha" maskUnits="userSpaceOnUse" x="428" y="598" width="9" height="18">
<path d="M428.426 602.219C428.426 600.093 430.148 598.371 432.274 598.371V598.371C434.399 598.371 436.121 600.093 436.121 602.219V611.624C436.121 613.75 434.399 615.472 432.274 615.472V615.472V615.472C430.148 615.472 428.426 613.75 428.426 611.624V602.219Z" fill="#7A2544"/>
</mask>
<g mask="url(#mask1)">
<rect x="427.571" y="598.371" width="5.13054" height="17.1018" fill="#A0603B"/>
<rect x="432.701" y="598.371" width="4.27545" height="17.1018" fill="#7A2544"/>
</g>
<path d="M414.809 600.77C420.918 604.878 428.001 606.78 435.102 606.218C442.203 605.656 448.979 602.657 454.514 597.626L432.66 567.256L414.809 600.77Z" fill="#A0603B"/>
<path d="M411.481 598.226C415.757 601.918 420.739 604.442 426.032 605.598C431.326 606.754 436.786 606.509 441.981 604.884L432.66 567.256L411.481 598.226Z" fill="#C77930"/>
<path d="M417.384 587.107C422.508 591.529 428.451 593.576 434.409 592.971C440.366 592.366 446.051 589.138 450.695 583.723L432.36 551.037L417.384 587.107Z" fill="#A0603B"/>
<path d="M414.591 584.369C418.179 588.343 422.358 591.06 426.799 592.303C431.241 593.547 435.822 593.284 440.18 591.534L432.36 551.037L414.591 584.369Z" fill="#C77930"/>
<ellipse cx="421.883" cy="599.014" rx="1.65501" ry="2.31702" transform="rotate(12.9465 421.883 599.014)" fill="#F1BC72"/>
<ellipse cx="428.921" cy="583.134" rx="2.49378" ry="3.4913" transform="rotate(12.9465 428.921 583.134)" fill="#F1BC72"/>
<ellipse cx="516.764" cy="615.459" rx="11.9021" ry="7.14124" fill="#F0A048"/>
<mask id="mask2" mask-type="alpha" maskUnits="userSpaceOnUse" x="511" y="594" width="12" height="24">
<path d="M511.408 599.391C511.408 596.433 513.806 594.035 516.764 594.035V594.035C519.722 594.035 522.12 596.433 522.12 599.391V612.483C522.12 615.441 519.722 617.839 516.764 617.839V617.839V617.839C513.806 617.839 511.408 615.441 511.408 612.483V599.391Z" fill="#7A2544"/>
</mask>
<g mask="url(#mask2)">
<rect x="510.218" y="594.035" width="7.14124" height="23.8041" fill="#A0603B"/>
<rect x="517.359" y="594.035" width="5.95103" height="23.8041" fill="#7A2544"/>
</g>
<mask id="mask3" mask-type="alpha" maskUnits="userSpaceOnUse" x="479" y="532" width="75" height="74">
<circle cx="516.403" cy="568.788" r="36.7882" fill="#AB333B"/>
</mask>
<g mask="url(#mask3)">
<ellipse cx="516.403" cy="565.903" rx="41.1162" ry="45.4442" fill="#AB333B"/>
<circle cx="502.698" cy="555.083" r="38.2309" fill="#DB4242"/>
<ellipse cx="504.093" cy="561.669" rx="8.81044" ry="3.52418" transform="rotate(42.1376 504.093 561.669)" fill="#F1BC72"/>
<ellipse cx="531.072" cy="577.313" rx="8.81044" ry="3.52418" transform="rotate(113.246 531.072 577.313)" fill="#F1BC72"/>
<circle cx="534.437" cy="552.198" r="3.60668" fill="#F1BC72"/>
<circle cx="498.37" cy="584.658" r="3.60668" fill="#F1BC72"/>
</g>
<rect x="431.333" y="240.333" width="8.33333" height="8.33333" transform="rotate(-90 431.333 240.333)" fill="white"/>
<rect x="439.667" y="248.667" width="8.33333" height="8.33333" transform="rotate(-90 439.667 248.667)" fill="white"/>
<rect x="431.333" y="257" width="8.33333" height="8.33333" transform="rotate(-90 431.333 257)" fill="white"/>
<rect x="423" y="248.667" width="8.33333" height="8.33333" transform="rotate(-90 423 248.667)" fill="white"/>
<rect x="409.333" y="285.333" width="8.33333" height="8.33333" transform="rotate(-90 409.333 285.333)" fill="white"/>
<rect x="417.667" y="293.667" width="8.33333" height="8.33333" transform="rotate(-90 417.667 293.667)" fill="white"/>
<rect x="409.333" y="302" width="8.33333" height="8.33333" transform="rotate(-90 409.333 302)" fill="white"/>
<rect x="401" y="293.667" width="8.33333" height="8.33333" transform="rotate(-90 401 293.667)" fill="white"/>
<rect x="652.333" y="336.333" width="8.33333" height="8.33333" transform="rotate(-90 652.333 336.333)" fill="white"/>
<rect x="660.667" y="344.667" width="8.33333" height="8.33333" transform="rotate(-90 660.667 344.667)" fill="white"/>
<rect x="652.333" y="353" width="8.33333" height="8.33333" transform="rotate(-90 652.333 353)" fill="white"/>
<rect x="644" y="344.667" width="8.33333" height="8.33333" transform="rotate(-90 644 344.667)" fill="white"/>
<rect x="1000.33" y="588.333" width="8.33333" height="8.33333" transform="rotate(-90 1000.33 588.333)" fill="white"/>
<rect x="1008.67" y="596.667" width="8.33333" height="8.33333" transform="rotate(-90 1008.67 596.667)" fill="white"/>
<rect x="1000.33" y="605" width="8.33333" height="8.33333" transform="rotate(-90 1000.33 605)" fill="white"/>
<rect x="992" y="596.667" width="8.33333" height="8.33333" transform="rotate(-90 992 596.667)" fill="white"/>
<rect x="633.333" y="596.333" width="8.33333" height="8.33333" transform="rotate(-90 633.333 596.333)" fill="white"/>
<rect x="641.667" y="604.667" width="8.33333" height="8.33333" transform="rotate(-90 641.667 604.667)" fill="white"/>
<rect x="633.333" y="613" width="8.33333" height="8.33333" transform="rotate(-90 633.333 613)" fill="white"/>
<rect x="625" y="604.667" width="8.33333" height="8.33333" transform="rotate(-90 625 604.667)" fill="white"/>
<rect x="541.333" y="378.333" width="8.33333" height="8.33333" transform="rotate(-90 541.333 378.333)" fill="white"/>
<rect x="549.667" y="386.667" width="8.33333" height="8.33333" transform="rotate(-90 549.667 386.667)" fill="white"/>
<rect x="541.333" y="395" width="8.33333" height="8.33333" transform="rotate(-90 541.333 395)" fill="white"/>
<rect x="533" y="386.667" width="8.33333" height="8.33333" transform="rotate(-90 533 386.667)" fill="white"/>
<rect x="333.333" y="478.333" width="8.33333" height="8.33333" transform="rotate(-90 333.333 478.333)" fill="white"/>
<rect x="341.667" y="486.667" width="8.33333" height="8.33333" transform="rotate(-90 341.667 486.667)" fill="white"/>
<rect x="333.333" y="495" width="8.33333" height="8.33333" transform="rotate(-90 333.333 495)" fill="white"/>
<rect x="325" y="486.667" width="8.33333" height="8.33333" transform="rotate(-90 325 486.667)" fill="white"/>
<rect x="541.333" y="378.333" width="8.33333" height="8.33333" transform="rotate(-90 541.333 378.333)" fill="white"/>
<rect x="549.667" y="386.667" width="8.33333" height="8.33333" transform="rotate(-90 549.667 386.667)" fill="white"/>
<rect x="541.333" y="395" width="8.33333" height="8.33333" transform="rotate(-90 541.333 395)" fill="white"/>
<rect x="533" y="386.667" width="8.33333" height="8.33333" transform="rotate(-90 533 386.667)" fill="white"/>
<ellipse cx="629.881" cy="374.099" rx="13.5821" ry="5.04478" transform="rotate(-36.245 629.881 374.099)" fill="#E38F33"/>
<ellipse rx="13.5821" ry="5.04478" transform="matrix(-0.806496 -0.59124 -0.59124 0.806496 613.937 374.168)" fill="#E38F33"/>
<ellipse cx="851.881" cy="533.099" rx="13.5821" ry="5.04478" transform="rotate(-36.245 851.881 533.099)" fill="#E38F33"/>
<ellipse rx="13.5821" ry="5.04478" transform="matrix(-0.806496 -0.59124 -0.59124 0.806496 835.937 533.168)" fill="#E38F33"/>
<ellipse cx="940.88" cy="557.099" rx="13.5821" ry="5.04478" transform="rotate(-36.245 940.88 557.099)" fill="#E38F33"/>
<ellipse rx="13.5821" ry="5.04478" transform="matrix(-0.806496 -0.59124 -0.59124 0.806496 924.937 557.168)" fill="#E38F33"/>
<ellipse cx="545.881" cy="136.099" rx="13.5821" ry="5.04478" transform="rotate(-36.245 545.881 136.099)" fill="#E38F33"/>
<ellipse rx="13.5821" ry="5.04478" transform="matrix(-0.806496 -0.59124 -0.59124 0.806496 529.937 136.168)" fill="#E38F33"/>
<ellipse cx="542.881" cy="473.099" rx="13.5821" ry="5.04478" transform="rotate(-36.245 542.881 473.099)" fill="#E38F33"/>
<ellipse rx="13.5821" ry="5.04478" transform="matrix(-0.806496 -0.59124 -0.59124 0.806496 526.937 473.168)" fill="#E38F33"/>
<ellipse cx="586.881" cy="430.099" rx="13.5821" ry="5.04478" transform="rotate(-36.245 586.881 430.099)" fill="#E38F33"/>
<ellipse rx="13.5821" ry="5.04478" transform="matrix(-0.806496 -0.59124 -0.59124 0.806496 570.937 430.168)" fill="#E38F33"/>
<ellipse cx="489.881" cy="441.099" rx="13.5821" ry="5.04478" transform="rotate(-36.245 489.881 441.099)" fill="#E38F33"/>
<ellipse rx="13.5821" ry="5.04478" transform="matrix(-0.806496 -0.59124 -0.59124 0.806496 473.937 441.168)" fill="#E38F33"/>
<ellipse cx="231.019" cy="486.511" rx="11.127" ry="6.67621" fill="#F0A048"/>
<mask id="mask4" mask-type="alpha" maskUnits="userSpaceOnUse" x="226" y="466" width="11" height="23">
<path d="M226.011 471.489C226.011 468.724 228.253 466.482 231.019 466.482V466.482C233.784 466.482 236.026 468.724 236.026 471.489V483.729C236.026 486.494 233.784 488.736 231.019 488.736V488.736V488.736C228.253 488.736 226.011 486.494 226.011 483.729V471.489Z" fill="#7A2544"/>
</mask>
<g mask="url(#mask4)">
<rect x="224.899" y="466.482" width="6.67621" height="22.254" fill="#A0603B"/>
<rect x="231.575" y="466.482" width="5.56351" height="22.254" fill="#7A2544"/>
</g>
<path d="M208.293 469.604C216.241 474.95 225.459 477.425 234.699 476.694C243.94 475.962 252.757 472.059 259.96 465.513L231.521 425.994L208.293 469.604Z" fill="#AB333B"/>
<path d="M203.962 466.293C209.526 471.099 216.009 474.383 222.897 475.887C229.786 477.39 236.891 477.072 243.651 474.957L231.521 425.994L203.962 466.293Z" fill="#DB4242"/>
<path d="M212.416 451.814C219.085 456.299 226.818 458.376 234.571 457.762C242.323 457.148 249.721 453.874 255.764 448.382L231.904 415.226L212.416 451.814Z" fill="#AB333B"/>
<path d="M208.783 449.036C213.451 453.068 218.89 455.823 224.669 457.085C230.448 458.347 236.409 458.08 242.081 456.305L231.904 415.226L208.783 449.036Z" fill="#DB4242"/>
<ellipse cx="217.497" cy="467.319" rx="2.15361" ry="3.01506" transform="rotate(12.9465 217.497 467.319)" fill="#F1BC72"/>
<ellipse cx="226.656" cy="446.655" rx="3.24508" ry="4.54312" transform="rotate(12.9465 226.656 446.655)" fill="#F1BC72"/>
<ellipse cx="193.976" cy="506.324" rx="11.127" ry="6.67621" fill="#F0A048"/>
<mask id="mask5" mask-type="alpha" maskUnits="userSpaceOnUse" x="188" y="486" width="11" height="23">
<path d="M188.969 491.302C188.969 488.537 191.211 486.295 193.976 486.295V486.295C196.742 486.295 198.984 488.537 198.984 491.302V503.542C198.984 506.307 196.742 508.549 193.976 508.549V508.549V508.549C191.211 508.549 188.969 506.307 188.969 503.542V491.302Z" fill="#7A2544"/>
</mask>
<g mask="url(#mask5)">
<rect x="187.857" y="486.295" width="6.67621" height="22.254" fill="#A0603B"/>
<rect x="194.533" y="486.295" width="5.56351" height="22.254" fill="#7A2544"/>
</g>
<path d="M171.251 489.417C179.199 494.764 188.417 497.238 197.657 496.507C206.897 495.775 215.715 491.873 222.918 485.327L194.479 445.807L171.251 489.417Z" fill="#A0603B"/>
<path d="M166.92 486.106C172.484 490.912 178.967 494.196 185.855 495.7C192.744 497.204 199.849 496.885 206.609 494.77L194.479 445.807L166.92 486.106Z" fill="#C77930"/>
<path d="M174.601 471.638C181.269 477.392 189.002 480.056 196.755 479.268C204.507 478.481 211.905 474.281 217.948 467.235L194.088 424.702L174.601 471.638Z" fill="#A0603B"/>
<path d="M170.967 468.075C175.635 473.247 181.074 476.782 186.853 478.4C192.632 480.018 198.594 479.676 204.265 477.399L194.088 424.702L170.967 468.075Z" fill="#C77930"/>
<ellipse cx="180.455" cy="487.132" rx="2.15361" ry="3.01506" transform="rotate(12.9465 180.455 487.132)" fill="#F1BC72"/>
<ellipse cx="189.614" cy="466.468" rx="3.24508" ry="4.54312" transform="rotate(12.9465 189.614 466.468)" fill="#F1BC72"/>
<ellipse cx="526.001" cy="282.37" rx="11.0492" ry="6.62952" fill="#F0A048"/>
<mask id="mask6" mask-type="alpha" maskUnits="userSpaceOnUse" x="521" y="262" width="10" height="23">
<path d="M521.029 267.454C521.029 264.708 523.255 262.482 526.001 262.482V262.482C528.747 262.482 530.973 264.708 530.973 267.454V279.608C530.973 282.354 528.747 284.58 526.001 284.58V284.58V284.58C523.255 284.58 521.029 282.354 521.029 279.608V267.454Z" fill="#7A2544"/>
</mask>
<g mask="url(#mask6)">
<rect x="519.924" y="262.482" width="6.62952" height="22.0984" fill="#A0603B"/>
<rect x="526.553" y="262.482" width="5.5246" height="22.0984" fill="#7A2544"/>
</g>
<path d="M503.435 265.582C511.327 270.891 520.48 273.349 529.656 272.622C538.832 271.896 547.588 268.02 554.74 261.52L526.5 222.277L503.435 265.582Z" fill="#A0603B"/>
<path d="M499.134 262.295C504.659 267.066 511.096 270.328 517.937 271.821C524.777 273.314 531.832 272.998 538.545 270.898L526.5 222.277L499.134 262.295Z" fill="#C77930"/>
<path d="M506.761 247.927C513.382 253.641 521.062 256.286 528.76 255.504C536.458 254.722 543.804 250.551 549.805 243.555L526.112 201.319L506.761 247.927Z" fill="#A0603B"/>
<path d="M503.153 244.389C507.788 249.525 513.189 253.035 518.928 254.642C524.666 256.249 530.586 255.909 536.218 253.648L526.112 201.319L503.153 244.389Z" fill="#C77930"/>
<ellipse cx="512.574" cy="263.313" rx="2.13855" ry="2.99398" transform="rotate(12.9465 512.574 263.313)" fill="#F1BC72"/>
<ellipse cx="521.669" cy="242.793" rx="3.22239" ry="4.51135" transform="rotate(12.9465 521.669 242.793)" fill="#F1BC72"/>
<path d="M595.128 99.1138C602.81 93.2268 612.32 90.2341 621.989 90.6611L911.505 103.448C919.476 103.8 926.945 107.44 932.135 113.501V113.501C940.375 123.124 941.368 136.998 934.583 147.697L928.036 158.021C920.452 169.98 907.718 177.712 893.609 178.926L835.301 183.942C827.161 184.642 819.202 186.736 811.771 190.133L798.476 196.211C791.537 199.383 784.134 201.421 776.549 202.246L674.01 213.407C654.259 215.557 635.321 204.932 626.861 186.955L623.286 179.357C619.327 170.944 611.653 164.874 602.555 162.959V162.959C588.827 160.069 579 147.958 579 133.929V129.07C579 117.978 584.162 107.517 592.967 100.77L595.128 99.1138Z" fill="#E38F33"/>
<rect x="898.333" y="171.333" width="8.33333" height="8.33333" transform="rotate(-90 898.333 171.333)" fill="white"/>
<rect x="906.667" y="179.667" width="8.33333" height="8.33333" transform="rotate(-90 906.667 179.667)" fill="white"/>
<rect x="898.333" y="188" width="8.33333" height="8.33333" transform="rotate(-90 898.333 188)" fill="white"/>
<rect x="890" y="179.667" width="8.33333" height="8.33333" transform="rotate(-90 890 179.667)" fill="white"/>
<path d="M653.974 35L607.344 133.875L594.527 126.49C592.404 125.268 591.261 122.859 591.656 120.442L595.212 98.6738C595.6 96.3024 596.703 94.1063 598.376 92.3806L653.974 35Z" fill="#C77930"/>
<path d="M653.974 35L700.604 133.875L713.421 126.49C715.543 125.268 716.687 122.859 716.292 120.442L712.736 98.6738C712.348 96.3024 711.245 94.1063 709.572 92.3806L653.974 35Z" fill="#7A2544"/>
<path d="M653.974 35L701.084 133.505L679.115 145.228C675.704 147.048 671.898 148 668.032 148H642.919C639.452 148 636.028 147.234 632.892 145.758L606.864 133.505L653.974 35Z" fill="#A0603B"/>
<path d="M817.099 0L747.774 147L728.717 136.021C725.562 134.203 723.863 130.622 724.45 127.028L729.736 94.6655C730.312 91.1398 731.953 87.8748 734.439 85.3092L817.099 0Z" fill="#C77930"/>
<path d="M817.099 0L796.989 44.975L794.147 43.2476C791.535 41.6605 789.941 38.826 789.941 35.7699V32.9741C789.941 28.1267 791.951 23.4964 795.493 20.187L817.099 0Z" fill="white"/>
<path d="M817.099 0L886.424 147L905.481 136.021C908.636 134.203 910.335 130.622 909.748 127.028L904.462 94.6655C903.886 91.1398 902.245 87.8748 899.759 85.3092L817.099 0Z" fill="#7A2544"/>
<path d="M817.099 0L837.209 44.975L840.051 43.2476C842.663 41.6605 844.257 38.826 844.257 35.7699V32.9741C844.257 28.1267 842.247 23.4964 838.705 20.187L817.099 0Z" fill="#E38F33"/>
<path d="M817.099 0L887.139 146.45L854.476 163.879C849.406 166.585 843.747 168 837.999 168H800.663C795.509 168 790.418 166.862 785.755 164.667L747.059 146.45L817.099 0Z" fill="#A0603B"/>
<path d="M817.099 0L838.54 44.2402L833.288 46.9217C828.36 49.438 822.905 50.75 817.372 50.75H816.98C811.58 50.75 806.252 49.5003 801.415 47.0987L795.658 44.2402L817.099 0Z" fill="#F9CF9D"/>
<path d="M723.052 72L664.868 195.375L648.874 186.16C646.227 184.635 644.8 181.629 645.293 178.613L649.73 151.451C650.213 148.492 651.591 145.752 653.677 143.599L723.052 72Z" fill="#C77930"/>
<path d="M723.052 72L706.174 109.747L703.789 108.297C701.597 106.965 700.259 104.586 700.259 102.021V99.6747C700.259 95.6063 701.946 91.7202 704.919 88.9427L723.052 72Z" fill="white"/>
<path d="M723.052 72L781.236 195.375L797.23 186.16C799.878 184.635 801.304 181.629 800.812 178.613L796.374 151.451C795.891 148.492 794.514 145.752 792.427 143.599L723.052 72Z" fill="#7A2544"/>
<path d="M723.052 72L739.93 109.747L742.316 108.297C744.508 106.965 745.846 104.586 745.846 102.021V99.6747C745.846 95.6063 744.158 91.7202 741.185 88.9427L723.052 72Z" fill="#E38F33"/>
<path d="M723.052 72L781.836 194.914L754.422 209.541C750.167 211.812 745.417 213 740.594 213H709.257C704.932 213 700.66 212.045 696.746 210.202L664.268 194.914L723.052 72Z" fill="#A0603B"/>
<path d="M723.052 72L741.047 109.13L736.639 111.381C732.503 113.493 727.925 114.594 723.281 114.594H722.952C718.42 114.594 713.949 113.545 709.889 111.529L705.057 109.13L723.052 72Z" fill="#F9CF9D"/>
<ellipse cx="939.004" cy="132.412" rx="10.9792" ry="6.5875" fill="#F0A048"/>
<mask id="mask7" mask-type="alpha" maskUnits="userSpaceOnUse" x="934" y="112" width="10" height="23">
<path d="M934.064 117.591C934.064 114.862 936.276 112.65 939.004 112.65V112.65C941.733 112.65 943.945 114.862 943.945 117.591V129.668C943.945 132.396 941.733 134.608 939.004 134.608V134.608V134.608C936.276 134.608 934.064 132.396 934.064 129.668V117.591Z" fill="#7A2544"/>
</mask>
<g mask="url(#mask7)">
<rect x="932.966" y="112.65" width="6.5875" height="21.9583" fill="#A0603B"/>
<rect x="939.553" y="112.65" width="5.48958" height="21.9583" fill="#7A2544"/>
</g>
<path d="M916.581 115.73C924.423 121.006 933.518 123.448 942.636 122.726C951.754 122.004 960.454 118.153 967.561 111.694L939.5 72.7L916.581 115.73Z" fill="#AB333B"/>
<path d="M912.308 112.464C917.797 117.205 924.194 120.446 930.991 121.93C937.788 123.414 944.798 123.1 951.469 121.013L939.5 72.7L912.308 112.464Z" fill="#DB4242"/>
<path d="M920.649 98.1767C927.229 102.603 934.86 104.652 942.509 104.046C950.159 103.44 957.458 100.21 963.421 94.7905L939.878 62.075L920.649 98.1767Z" fill="#AB333B"/>
<path d="M917.064 95.4362C921.67 99.4142 927.037 102.133 932.739 103.378C938.442 104.623 944.323 104.359 949.92 102.608L939.878 62.075L917.064 95.4362Z" fill="#DB4242"/>
<ellipse cx="925.663" cy="113.475" rx="2.125" ry="2.975" transform="rotate(12.9465 925.663 113.475)" fill="#F1BC72"/>
<ellipse cx="934.7" cy="93.0862" rx="3.20197" ry="4.48275" transform="rotate(12.9465 934.7 93.0862)" fill="#F1BC72"/>
<ellipse cx="754.6" cy="566.446" rx="14.6098" ry="8.7659" fill="#E38F33"/>
<mask id="mask8" mask-type="alpha" maskUnits="userSpaceOnUse" x="748" y="540" width="14" height="30">
<path d="M748.026 546.723C748.026 543.092 750.969 540.148 754.6 540.148V540.148C758.231 540.148 761.175 543.092 761.175 546.723V562.793C761.175 566.424 758.231 569.368 754.6 569.368V569.368V569.368C750.969 569.368 748.026 566.424 748.026 562.793V546.723Z" fill="#7A2544"/>
</mask>
<g mask="url(#mask8)">
<rect x="746.565" y="540.148" width="8.7659" height="29.2197" fill="#A0603B"/>
<rect x="755.331" y="540.148" width="7.30492" height="29.2197" fill="#7A2544"/>
</g>
<mask id="mask9" mask-type="alpha" maskUnits="userSpaceOnUse" x="709" y="464" width="91" height="91">
<circle cx="754.158" cy="509.158" r="45.1577" fill="#AB333B"/>
</mask>
<g mask="url(#mask9)">
<ellipse cx="754.158" cy="505.616" rx="50.4704" ry="55.783" fill="#AB333B"/>
<circle cx="737.334" cy="492.334" r="46.9286" fill="#DB4242"/>
<ellipse cx="739.047" cy="500.419" rx="10.8149" ry="4.32594" transform="rotate(42.1376 739.047 500.419)" fill="#F1BC72"/>
<ellipse cx="772.163" cy="519.621" rx="10.8149" ry="4.32594" transform="rotate(113.246 772.163 519.621)" fill="#F1BC72"/>
<circle cx="776.294" cy="488.792" r="4.42722" fill="#F1BC72"/>
<circle cx="732.022" cy="528.637" r="4.42722" fill="#F1BC72"/>
</g>
<ellipse cx="901.567" cy="607.113" rx="7.98509" ry="2.96589" transform="rotate(-36.245 901.567 607.113)" fill="#F9CF9D"/>
<ellipse rx="7.98508" ry="2.96589" transform="matrix(-0.806496 -0.59124 -0.59124 0.806496 892.193 607.154)" fill="#F9CF9D"/>
<ellipse cx="921.567" cy="595.113" rx="7.98509" ry="2.96589" transform="rotate(-36.245 921.567 595.113)" fill="#F9CF9D"/>
<ellipse rx="7.98508" ry="2.96589" transform="matrix(-0.806496 -0.59124 -0.59124 0.806496 912.193 595.154)" fill="#F9CF9D"/>
<ellipse cx="870.567" cy="604.113" rx="7.98509" ry="2.96589" transform="rotate(-36.245 870.567 604.113)" fill="#F9CF9D"/>
<ellipse rx="7.98508" ry="2.96589" transform="matrix(-0.806496 -0.59124 -0.59124 0.806496 861.193 604.154)" fill="#F9CF9D"/>
<ellipse cx="231.567" cy="546.113" rx="7.98509" ry="2.96589" transform="rotate(-36.245 231.567 546.113)" fill="#F9CF9D"/>
<ellipse rx="7.98508" ry="2.96589" transform="matrix(-0.806496 -0.59124 -0.59124 0.806496 222.193 546.154)" fill="#F9CF9D"/>
<ellipse cx="261.567" cy="560.113" rx="7.98509" ry="2.96589" transform="rotate(-36.245 261.567 560.113)" fill="#F9CF9D"/>
<ellipse rx="7.98508" ry="2.96589" transform="matrix(-0.806496 -0.59124 -0.59124 0.806496 252.193 560.154)" fill="#F9CF9D"/>
<ellipse cx="216.567" cy="561.113" rx="7.98509" ry="2.96589" transform="rotate(-36.245 216.567 561.113)" fill="#F9CF9D"/>
<ellipse rx="7.98508" ry="2.96589" transform="matrix(-0.806496 -0.59124 -0.59124 0.806496 207.193 561.154)" fill="#F9CF9D"/>
<ellipse cx="884.033" cy="551.458" rx="10.9037" ry="6.5422" fill="#E38F33"/>
<mask id="mask10" mask-type="alpha" maskUnits="userSpaceOnUse" x="879" y="531" width="10" height="23">
<path d="M879.126 536.738C879.126 534.028 881.323 531.831 884.033 531.831V531.831C886.742 531.831 888.939 534.028 888.939 536.738V548.732C888.939 551.442 886.742 553.639 884.033 553.639V553.639V553.639C881.323 553.639 879.126 551.442 879.126 548.732V536.738Z" fill="#7A2544"/>
</mask>
<g mask="url(#mask10)">
<rect x="878.036" y="531.831" width="6.5422" height="21.8073" fill="#A0603B"/>
<rect x="884.578" y="531.831" width="5.45183" height="21.8073" fill="#7A2544"/>
</g>
<mask id="mask11" mask-type="alpha" maskUnits="userSpaceOnUse" x="850" y="475" width="68" height="68">
<circle cx="883.702" cy="508.702" r="33.7022" fill="#AB333B"/>
</mask>
<g mask="url(#mask11)">
<ellipse cx="883.702" cy="506.059" rx="37.6672" ry="41.6322" fill="#AB333B"/>
<circle cx="871.146" cy="496.146" r="35.0239" fill="#DB4242"/>
<ellipse cx="872.425" cy="502.181" rx="8.07138" ry="3.22855" transform="rotate(42.1376 872.425 502.181)" fill="#F1BC72"/>
<ellipse cx="897.14" cy="516.512" rx="8.07138" ry="3.22855" transform="rotate(113.246 897.14 516.512)" fill="#F1BC72"/>
<circle cx="900.223" cy="493.503" r="3.30414" fill="#F1BC72"/>
<circle cx="867.182" cy="523.24" r="3.30414" fill="#F1BC72"/>
</g>
<ellipse cx="824.993" cy="586.9" rx="14.1671" ry="8.50027" fill="#E38F33"/>
<mask id="mask12" mask-type="alpha" maskUnits="userSpaceOnUse" x="818" y="561" width="14" height="29">
<path d="M818.618 567.774C818.618 564.253 821.472 561.399 824.993 561.399V561.399C828.514 561.399 831.369 564.253 831.369 567.774V583.358C831.369 586.879 828.514 589.733 824.993 589.733V589.733V589.733C821.472 589.733 818.618 586.879 818.618 583.358V567.774Z" fill="#7A2544"/>
</mask>
<g mask="url(#mask12)">
<rect x="817.201" y="561.399" width="8.50027" height="28.3342" fill="#A0603B"/>
<rect x="825.702" y="561.399" width="7.08356" height="28.3342" fill="#7A2544"/>
</g>
<mask id="mask13" mask-type="alpha" maskUnits="userSpaceOnUse" x="779" y="484" width="92" height="91">
<circle cx="824.993" cy="529.523" r="45.1577" fill="#AB333B"/>
</mask>
<g mask="url(#mask13)">
<ellipse cx="824.993" cy="525.981" rx="50.4704" ry="55.783" fill="#A0603B"/>
<circle cx="808.17" cy="512.699" r="46.9286" fill="#C77930"/>
<ellipse cx="809.882" cy="520.784" rx="10.8149" ry="4.32594" transform="rotate(42.1376 809.882 520.784)" fill="#F1BC72"/>
<ellipse cx="842.999" cy="539.987" rx="10.8149" ry="4.32594" transform="rotate(113.246 842.999 539.987)" fill="#F1BC72"/>
<circle cx="847.129" cy="509.158" r="4.42722" fill="#F1BC72"/>
<circle cx="802.857" cy="549.003" r="4.42722" fill="#F1BC72"/>
</g>
<path d="M1015.98 324.485C1021.67 317.234 1030.38 313 1039.6 313H1111.07C1116.32 313 1121.54 313.857 1126.52 315.536L1180.94 333.902C1200.05 340.352 1202.34 366.463 1184.65 376.141V376.141C1182.23 377.459 1179.61 378.338 1176.89 378.735L1107.51 388.879C1097.96 390.275 1088.21 389.52 1078.99 386.668L1030.73 371.741C1010.6 365.517 1002.97 341.051 1015.98 324.485V324.485Z" fill="#8C9DDE"/>
<path d="M1102.54 271.456C1104.29 269.271 1106.94 268 1109.74 268H1132.43C1134.02 268 1135.59 268.254 1137.1 268.752L1154.28 274.431C1160.21 276.392 1160.91 284.499 1155.4 287.448V287.448C1154.67 287.841 1153.88 288.101 1153.05 288.219L1131.07 291.369C1128.17 291.785 1125.21 291.559 1122.4 290.709L1107.06 286.06C1100.81 284.166 1098.45 276.553 1102.54 271.456V271.456Z" fill="#8C9DDE"/>
<path d="M92.5351 271.456C94.2866 269.271 96.9353 268 99.7355 268H122.431C124.018 268 125.594 268.254 127.101 268.752L144.278 274.431C150.209 276.392 150.91 284.499 145.404 287.448V287.448C144.672 287.841 143.877 288.101 143.055 288.219L121.067 291.369C118.165 291.785 115.207 291.559 112.401 290.709L97.0593 286.06C90.8072 284.166 88.449 276.553 92.5351 271.456V271.456Z" fill="#8C9DDE"/>
<path d="M44.9388 325.811C49.2073 316.197 58.7389 310 69.2579 310H85.527C92.5379 310 99.4182 311.897 105.438 315.491L125.589 327.52C137.391 334.565 139.282 350.895 129.403 360.451V360.451C126.81 362.96 123.61 364.753 120.116 365.657L100.249 370.795C89.8048 373.497 78.7243 372.118 69.2607 366.94L56.4866 359.951C44.3428 353.307 39.3216 338.462 44.9388 325.811V325.811Z" fill="#8C9DDE"/>
</svg>
