<svg width="454" height="496" viewBox="0 0 454 496" fill="none" xmlns="http://www.w3.org/2000/svg">
<path d="M80 127.476C85.9444 102.976 104.404 108.365 117.167 102.976C127.762 98.5021 139.673 93.0593 150.889 90.4203C163.15 87.5353 173.205 77.4483 186.333 76.4758C200.335 75.4386 214.684 76.4203 228.722 76.4203H242.833C247.001 76.4203 249.901 78.2593 253.611 80.3092C260.507 84.1192 270.727 87.9454 275.722 94.4203C280.066 100.051 284.44 108.395 286.833 114.976C291.384 127.491 295.145 139.383 299.444 151.42C301.783 157.967 306.133 154.531 311.5 154.531C313.63 154.531 317.987 156.858 320.167 157.642C330.331 157.642 330.29 162.457 329.713 164.195C332.266 167.496 334.7 171.018 334.944 175.42C335.097 178.159 335.827 183.567 334.167 185.642C333.551 186.412 332.442 190.803 332.056 191.865C331.221 194.159 330.944 196.546 330.944 198.976C330.944 201.388 329.42 203.376 328.722 205.643C328.328 206.925 328.295 208.829 327.722 209.976C327.2 211.02 325.581 210.891 325.167 212.087C323.536 216.796 323.833 221.025 318.444 223.42C316.376 224.339 313.852 227.084 311.944 227.42C310.367 227.699 310.559 230.89 308.889 231.865C302.919 235.347 301.944 239.832 301.944 246.198V271.92C301.944 279.12 300.122 289.298 302.167 296.198C303.481 300.634 303.944 304.26 303.944 308.92C303.944 313.232 305.723 316.213 305.944 320.42C306.431 329.658 305.552 338.412 309.444 346.976C316.749 363.046 317.542 384.244 315.833 401.754C312.895 431.874 266.111 440.919 243.389 429.865C227.205 421.992 222.944 401.745 222.944 385.642C222.944 380.702 223.74 377.545 226.167 373.42C228.164 370.025 228.944 366.317 228.944 361.865C228.944 351.127 230.944 341.084 230.944 330.42C230.944 318.023 221.038 316.934 212.5 323.92C207.641 327.896 202.586 328.124 196.944 330.865C192.669 332.941 188.1 333.743 183.333 334.476C178.933 335.153 169.87 335.2 166.444 337.865C163.118 340.452 156.143 338.975 152.167 340.198C143.451 342.88 132.434 341.42 123.167 341.42C118.025 341.42 116.944 339.467 116.944 334.42C116.944 329.595 115.944 324.867 115.944 319.92C115.944 312.89 115.774 304.575 113.889 297.976C112.592 293.438 113.75 288.598 112.889 283.865C112.011 279.035 110.194 274.408 109.944 269.42C109.774 266.005 106.713 262.42 102.944 262.42C100.629 262.42 92.0433 262.788 90.9444 260.865C89.0256 257.507 82.4226 259.139 85.9444 252.976C86.675 251.697 89.7721 251.686 90.7222 249.976C92.123 247.454 92.438 245.648 93.1667 242.976C95.4408 234.637 100.944 228.909 100.944 219.42C100.944 214.33 97.3335 210.256 96.9444 205.198C96.6182 200.957 95.9444 196.533 95.9444 191.92C95.9444 187.516 95.1744 183.559 94.9444 179.42C94.6974 174.973 92.6155 170.729 92 166.42C90.6429 156.921 90.0231 149.097 86.1667 140.42C84.3215 136.269 81.735 132.102 80 127.476Z" fill="#FFE4AD"/>
<path d="M89.4444 72.7575C80.5085 75.5707 70.2656 75.0353 61 75.0353C65.2811 72.5889 67.7474 57.3979 72 55.0353C74.75 58.2853 79 51.7853 76 49.0353C79 49.0353 80.98 45.4059 82.9722 44.2853C85.4278 42.904 88.288 40.0197 91.0278 39.5631C92.9782 39.238 93.0866 37.7746 94.75 37.0353L94.7505 37.0351C95.8877 36.5296 97.587 35.7744 98.5 35.0353C99.7632 34.0127 101.581 34.583 102.611 33.6464C103.693 32.6632 104.775 33.0162 105.75 32.2575C108.31 30.2667 110.937 29.8337 113.778 28.5353C116.712 27.194 120.02 26.414 123 24.9242C125.363 23.7427 127.951 23.2583 130.222 21.8131C132.3 20.4906 136.105 20.1939 138.5 19.6464C140.189 19.2604 140.986 18.5353 142.833 18.5353C144.966 18.5353 145.888 17.943 147.778 17.3131C153.318 15.4663 158.925 15.5353 164.75 15.5353C166.935 15.5353 168.799 14.1511 171 14.0353C174.064 13.874 177.019 13.9889 180 13.5631C185.368 12.7962 191.058 13.0353 196.5 13.0353C199.73 13.0353 202.976 13.5353 206.25 13.5353C208.556 13.5353 210.809 14.483 213.111 14.5353C215.091 14.5803 216.98 15.0353 218.889 15.0353C220.281 15.0353 221.184 16.0353 222.611 16.0353C226.031 16.0353 229.102 16.6418 232.472 17.0631C237.917 17.7436 244.097 18.8034 249.25 20.7853C251.748 21.7461 254.598 22.4737 257.25 23.0631C258.695 23.3841 259.811 24.7861 261.25 25.0075C262.242 25.1602 263.575 25.4806 264.389 26.1464C266.978 28.2647 269 30.7052 269 34.3131C269 38.7979 266.041 40.8063 262.278 42.5353C259.032 44.0266 254.798 43.9498 251.333 44.1464C242.996 44.6194 234.805 44.0353 226.472 44.0353C220.057 44.0353 213.979 42.0908 207.583 42.0908C192.632 42.0908 177.437 42.8066 162.556 44.1464C150.022 45.2748 138.156 49.9932 126.722 55.0353C122.372 56.9535 118.268 59.3441 114 61.4242C111.102 62.8366 107.861 63.5198 105.056 65.0908C99.8711 67.9942 95.1977 70.9463 89.4444 72.7575Z" fill="#FF6969" stroke="#09162B" stroke-linecap="round" stroke-linejoin="round"/>
<path d="M6.0345 102.756C11.3243 104.782 16.2443 108.009 21.7589 109.357C43.2616 114.609 65.0974 115.716 87.0636 110.371C133.414 99.0932 182.17 78.2238 229.589 87.9987C245.433 91.2645 274.206 100.567 264.311 141.928" stroke="#09162B" stroke-width="6.15068" stroke-linecap="round" stroke-linejoin="round"/>
<path d="M267.325 143.141C290.082 135.928 295.325 152.443 300.416 161.99" stroke="#09162B" stroke-width="6.15068" stroke-linecap="round" stroke-linejoin="round"/>
<path d="M77.8835 123.014C87.7246 150.692 90.8 151.307 101.871 225.73" stroke="#09162B" stroke-width="6.15068" stroke-linecap="round" stroke-linejoin="round"/>
<path d="M113.558 211.584C110.415 216.099 100.641 232.496 86.0746 252.6C85.5096 253.833 84.3888 255.336 84.3076 256.72C84.1631 259.182 93.3776 261.333 95.276 261.638C102.666 262.826 119.679 262.394 127.113 262.706" stroke="#09162B" stroke-width="6.15068" stroke-linecap="round" stroke-linejoin="round"/>
<path d="M110.482 264.911C113.634 281.985 114.46 300.396 115.117 318.336C115.363 325.043 115.674 332.202 114.973 339.074" stroke="#09162B" stroke-width="6.15068" stroke-linecap="round" stroke-linejoin="round"/>
<path d="M115.417 339.683C120.114 341.092 124.587 341.878 129.489 342.602C137.161 343.736 145.073 342.879 152.848 343.346C167.598 341.56 235.956 339.343 263.019 264.787" stroke="#09162B" stroke-width="6.15068" stroke-linecap="round" stroke-linejoin="round"/>
<path d="M289.904 178.927C298.228 169.839 328.483 138.702 334.664 168.42C338.327 186.031 329.736 210.131 316.722 224.429C310.434 231.337 307.144 230.242 298.502 228.254" stroke="#09162B" stroke-width="6.15068" stroke-linecap="round" stroke-linejoin="round"/>
<path d="M4.70557 113.833C14.3896 114.605 24.1416 115.939 33.8934 114.977C43.7043 114.009 52.3337 111.445 61.3015 107.596C76.3773 101.125 90.7323 93.7875 106.314 88.2804C126.245 81.2365 146.637 74.9767 166.911 68.868C184.148 63.6745 202.155 59.0826 220.286 58.5407C229.846 58.2549 239.335 58.9348 248.807 59.8187C252.265 60.1415 254.631 60.841 256.797 63.2611" stroke="#09162B" stroke-width="6.15068" stroke-linecap="round" stroke-linejoin="round"/>
<path d="M15.9833 106.936C35.0863 108.653 56.2521 111.424 74.9954 105.079C91.2825 99.5648 105.49 91.0029 119.584 81.1489" stroke="#09162B" stroke-width="6.15068" stroke-linecap="round" stroke-linejoin="round"/>
<path d="M47.8641 101.735C51.1998 91.9344 58.5168 83.6158 67.8399 77.6917C76.8998 71.9349 87.2771 68.9493 97.4924 65.4123C109.117 61.3873 120.176 56.8381 132.321 54.1031C157.063 48.5313 180.976 49.9346 205.894 51.9224C213.194 52.5048 222.352 51.801 229.002 54.8806" stroke="#09162B" stroke-width="6.15068" stroke-linecap="round" stroke-linejoin="round"/>
<path d="M268.523 85.0862C286.526 89.2278 308.218 110.822 299.858 140.39" stroke="#09162B" stroke-width="6.15068" stroke-linecap="round" stroke-linejoin="round"/>
<path d="M304.206 136.238C305.86 138.923 307.962 143.219 308.313 146.407C308.621 149.195 307.888 153.095 308.878 155.634" stroke="#09162B" stroke-width="6.15068" stroke-linecap="round" stroke-linejoin="round"/>
<path d="M293.844 111.516C301.466 115.179 308.124 122.316 313.147 128.554C319.47 136.405 321.911 143.692 323.452 153.35" stroke="#09162B" stroke-width="6.15068" stroke-linecap="round" stroke-linejoin="round"/>
<path d="M299.154 75.5284C306.777 79.1909 313.435 86.3275 318.458 92.5657C324.78 100.417 327.221 107.704 328.762 117.362" stroke="#09162B" stroke-width="6.15068" stroke-linecap="round" stroke-linejoin="round"/>
<path d="M277.277 58.6132C283.634 60.0756 289.992 61.5381 296.349 63.0006C302.962 64.5219 309.799 68.0192 315.586 71.2926C318.447 72.911 342.324 95.6383 325.756 154.237" stroke="#09162B" stroke-width="6.15068" stroke-linecap="round" stroke-linejoin="round"/>
<path d="M16.8824 67.938C30.4385 75.6317 47.4395 77.5913 57.1061 68.9811C67.5942 68.4821 72.7149 64.2939 82.0692 59.9737C93.8525 54.5317 107.942 46.3423 120.318 41.9878C129.783 38.6575 138.782 34.3137 148.898 33.0545C159.208 31.7713 170.257 31.8152 180.614 31.8676C188.733 31.9088 197.16 32.5203 205.175 33.5482C207.747 33.8781 209.827 34.7108 211.703 36.2683" stroke="#09162B" stroke-width="6.15068" stroke-linecap="round" stroke-linejoin="round"/>
<path d="M227.755 50.0005C240.594 44.2037 255.842 41.5893 270.48 42.3447C279.352 42.8025 288.497 44.6046 297.009 46.558C305.077 48.4093 315.769 51.0721 321.062 56.7898C333.431 70.1501 333.935 90.5325 330.648 106.404C328.495 116.797 322.318 143.338 322.318 143.338" stroke="#09162B" stroke-width="6.15068" stroke-linecap="round" stroke-linejoin="round"/>
<path d="M3.97413 55.445C1.62793 74.2993 22.9027 79.0055 39.0901 81.6383C49.7812 83.3772 60.9257 84.2995 71.8102 84.6818C81.8412 85.0341 91.0888 83.4454 100.74 80.7395C115.006 76.7396 129.127 71.8976 142.706 66.2031C160.882 58.5807 178.245 49.2868 196.456 41.7773C199.521 40.5132 202.549 39.7083 205.817 39.2443" stroke="#09162B" stroke-width="6.15068" stroke-linecap="round" stroke-linejoin="round"/>
<path d="M38.8496 56.6087C41.0449 60.3531 43.812 63.8403 46.7718 66.9605C54.2301 74.8231 65.705 75.1412 75.7204 76.5958C99.6198 80.0667 122.555 81.9473 146.489 75.7084C155.358 73.3966 164.283 71.0302 173.357 69.9828" stroke="#09162B" stroke-width="6.15068" stroke-linecap="round" stroke-linejoin="round"/>
<path d="M9.25764 128.654C12.8944 131.726 15.3493 133.678 20.1956 134.114C27.8505 134.802 35.0289 137.102 42.8273 135.366C64.3622 130.573 84.9662 118.753 103.037 106.103C115.091 97.6654 126.878 88.9043 139.55 81.4612C142.816 79.5427 146.214 77.1634 149.816 76.0602" stroke="#09162B" stroke-width="6.15068" stroke-linecap="round" stroke-linejoin="round"/>
<path d="M172.827 74.783C197.807 68.8176 222.732 66.4444 248.087 68.7231C258.633 69.671 268.016 70.7542 277.305 76.1936C279.88 77.7013 282.248 78.8788 282.662 82.0896" stroke="#09162B" stroke-width="6.15068" stroke-linecap="round" stroke-linejoin="round"/>
<path d="M58.3593 67.3084C103.941 26.6146 139.402 14.448 179.94 11.3529C224.456 7.95403 273.233 20.783 277.125 36.1923" stroke="#09162B" stroke-width="6.15068" stroke-linecap="round" stroke-linejoin="round"/>
<path d="M223.53 44.5003C236.24 45.5203 249.693 48.4639 260.151 54.3585C268.057 58.8144 275.888 63.9845 282.811 69.4018C285.607 71.5893 288.208 73.5623 290.209 76.2605" stroke="#09162B" stroke-width="6.15068" stroke-linecap="round" stroke-linejoin="round"/>
<path d="M233.737 39.1258C248.183 29.7122 265.105 31.566 281.785 35.9452C291.424 38.4758 301.966 43.5887 307.67 50.527C312.782 56.7445 314.342 65.2021 316.977 72.2517" stroke="#09162B" stroke-width="6.15068" stroke-linecap="round" stroke-linejoin="round"/>
<path d="M198.502 22.726C188.623 19.8847 180.519 22.4604 170.751 26.7971C160.249 31.4595 151.504 39.707 140.603 43.4363" stroke="#09162B" stroke-width="6.15068" stroke-linecap="round" stroke-linejoin="round"/>
<path d="M227.96 317.99C231.036 336.854 234.986 372.455 221.195 385.314" stroke="#09162B" stroke-width="6.15068" stroke-linecap="round" stroke-linejoin="round"/>
<path d="M304.976 231.175C303.729 237.972 297.342 335.63 326.622 384.735" stroke="#09162B" stroke-width="6.15068" stroke-linecap="round" stroke-linejoin="round"/>
<path d="M159.076 189.309C161.158 181.946 164.469 170.294 175.742 172.021C181.971 172.976 187.11 177.07 191.433 181.007C193.082 182.508 195.429 184.806 195.936 186.909" stroke="#09162B" stroke-width="6.15068" stroke-linecap="round" stroke-linejoin="round"/>
<path d="M96.4099 191.528C97.2119 188.691 97.1016 185.728 99.7859 185.499C102.872 185.236 106.834 192.78 108.473 195.417" stroke="#09162B" stroke-width="6.15068" stroke-linecap="round" stroke-linejoin="round"/>
<path d="M129.201 303.814C140.239 304.623 147.685 302.979 157.677 298.237C162.583 295.908 166 295 170.5 290" stroke="#09162B" stroke-width="6.15068" stroke-linecap="round" stroke-linejoin="round"/>
<path d="M142.402 305.004C145.536 312.94 145.312 321.264 142.829 329.186C140.475 336.694 122.398 336.556 116.018 330.585" stroke="#09162B" stroke-width="6.15068" stroke-linecap="round" stroke-linejoin="round"/>
<path d="M153.673 302.694C155.269 304.846 153.169 319.487 168.149 327.125C179.612 331.313 184.708 329.055 190.716 327.277C199.837 319.444 199.701 307.036 200.235 307.898C201.411 309.799 211.965 322.167 213.199 323.83" stroke="#09162B" stroke-width="6.15068" stroke-linecap="round" stroke-linejoin="round"/>
<path d="M134.323 203.803L131.154 156.067L220.187 143.883L220.369 198.923L134.323 203.803Z" stroke="#09162B" stroke-width="6.15068"/>
<path d="M114.454 204.286L107.581 159.487L75.4688 161.743L83.5071 204.918L114.454 204.286Z" stroke="#09162B" stroke-width="6.15068"/>
<path d="M217.274 26.5908C225.423 26.9925 234.403 29.0924 242.174 31.1993C245.623 32.1345 249.883 35.6637 250.638 38.4437" stroke="#09162B" stroke-width="6.15068" stroke-linecap="round" stroke-linejoin="round"/>
<path d="M216.89 41.6324C224.749 30.7885 243.134 25.8233 258.091 28.8775C264.962 30.2805 271.639 31.4709 277.476 34.88C280.087 36.4052 283.557 38.1958 285.242 40.47" stroke="#09162B" stroke-width="6.15068" stroke-linecap="round" stroke-linejoin="round"/>
<path d="M252.086 34.328C265.499 30.8503 293.773 21.588 323.343 43.8497C326.468 46.7601 339.288 62.4159 330.677 97.3689" stroke="#09162B" stroke-width="6.15068" stroke-linecap="round" stroke-linejoin="round"/>
<path d="M112.699 186.083C121.261 174.884 129.192 182.254 131.281 184.346" stroke="#09162B" stroke-width="6.15068" stroke-linecap="round" stroke-linejoin="round"/>
<line y1="-4.61301" x2="100.99" y2="-4.61301" transform="matrix(0.968838 -0.247696 0.299766 0.954013 220.572 182.843)" stroke="#09162B" stroke-width="9.22603"/>
<path d="M305.578 187.512C306.76 183.33 310.717 179.533 313.109 180.083C316.725 180.915 318.845 182.819 319.276 186.21C320.246 193.834 320.138 198.877 310.612 208.996" stroke="#09162B" stroke-width="6.15068" stroke-linecap="round" stroke-linejoin="round"/>
<path d="M315.3 358.129C300.25 391.521 227.345 443.733 227.345 361.735C162.148 382.818 99.3644 422.038 89.5582 457.539C85.464 466.687 88.0129 479.88 99.3644 480.891C105.396 481.429 113.421 482.33 119.249 480.181C133.061 475.09 157.541 469.39 170.459 479.866C176.97 485.146 195.362 490.595 203.555 490.595C225.619 491.7 268.521 453.989 281.323 477.341C287.596 484.003 298.413 487.57 306.247 490.595C315.04 493.991 324.218 493.441 331.58 487.282C346.406 474.877 384.969 435.773 426.441 440.577C431.002 441.106 445.745 446.759 449.662 443.733C451.26 442.499 446.701 434.254 446.053 433.24C429.71 370.757 319.548 354.438 315.3 358.129Z" fill="#09162B" stroke="#09162B" stroke-width="6.15068" stroke-linecap="round" stroke-linejoin="round"/>
<path d="M149.807 302.022C148.311 304.211 145.083 304.064 142.568 304.064C140.251 304.254 141.89 305.688 141.952 306.599C142.117 309.048 142.038 311.917 143.03 314.203C143.52 315.331 144.724 315.705 144.724 317.09C144.724 317.726 145.033 318.344 145.033 319.019C145.033 320.194 145.116 321.394 145.033 322.568C144.857 325.02 142.553 326.648 141.644 328.891C141.41 329.467 140.021 331.3 139.333 331.426C137.997 331.67 137.13 333.359 135.859 333.778C132.911 334.748 129.309 334.482 125.95 334.482C124.38 334.482 123.008 333.975 121.466 333.975C119.735 333.975 118.542 332.505 116.931 332.454C114.961 332.392 115.459 333.423 115.459 334.735C115.459 335.357 115.548 336.275 116.075 336.763C116.698 337.34 116.218 338.222 116.691 338.904C116.897 339.201 119.455 339.805 119.926 339.805C121.255 339.805 123.181 340.15 124.392 340.622C125.714 341.137 127.072 341.437 128.466 341.776C129.135 341.94 130.177 342.024 130.862 342.086C131.546 342.149 132 342.593 132.727 342.593C136.54 342.593 140.368 342.511 144.108 342.34C145.718 342.266 147.09 341.833 148.729 341.833H152.871H158.416C159.97 341.833 161.957 342.143 163.345 341.636C165.211 340.953 167.286 341.465 169.13 341.016C170.372 340.713 171.935 340.312 173.22 340.312C174.909 340.312 176.823 339.234 178.44 338.918C179.352 338.739 179.961 338.22 180.921 338.045C181.843 337.876 182.682 337.704 183.608 337.467C186.869 336.634 190.243 335.473 193.244 334.101C194.759 333.409 196.186 332.787 197.728 332.074C199.22 331.383 201.03 331.204 202.349 330.299C202.707 330.054 203.619 330.143 203.872 329.778C204.244 329.243 205.326 328.786 206.011 328.539C207.309 328.072 208.509 327.268 209.794 326.821C210.91 326.432 213.092 324.831 211.265 323.892C210.256 323.373 210.195 321.482 209.554 320.653C209.043 319.993 208.945 319.234 208.339 318.625C207.607 317.889 206.983 316.961 206.49 316.104C205.64 314.627 202.349 309.64 198.96 315.583C198.072 316.923 197.374 318.581 196.102 319.723C195.595 320.178 195.865 320.902 195.246 321.441C194.681 321.934 194.589 322.574 194.014 323.075C193.413 323.599 193.987 324.274 193.638 324.849C193.322 325.369 192.571 325.574 192.166 325.99C191.713 326.455 190.946 326.411 190.625 327.004C190.366 327.484 189.678 328.164 189.222 328.539C188.045 329.507 186.382 329.919 184.772 329.919C181.241 329.919 177.824 329.666 174.298 329.666C172.349 329.666 170.524 328.626 168.77 328.145C166.915 327.636 165.966 326.666 164.611 325.61C159.314 321.481 154.274 317.317 154.274 310.851C154.274 308.536 155.193 304.316 153.487 302.402C152.752 301.578 152.734 300.768 151.348 300.768C150.221 300.768 150.306 301.292 149.807 302.022Z" fill="#09162B" stroke="#09162B" stroke-width="0.615068" stroke-linecap="round" stroke-linejoin="round"/>
<path d="M62.3234 94.0883C59.8391 94.7964 57.7936 95.9073 55.126 95.9073C56.9236 95.9073 81.4202 88.5921 88.8722 82.7124C90.9676 81.3374 92.4566 79.9528 93.7609 78.0562C95.0723 76.1494 95.3914 74.2034 96.2563 72.2053C97.1093 70.2346 99.0873 68.2481 100.806 66.7075C102.557 65.1369 104.457 63.5541 106.696 62.4313C109.752 60.8984 105.597 61.4539 104.184 61.4539C99.6217 61.4539 95.0733 61.2768 90.5357 61.2096C89.5915 61.1956 88.6452 61.2096 87.7009 61.2096C86.7382 61.2096 85.9555 60.7717 85.0019 60.7209C82.4792 60.5864 81.1045 59.5777 81.4202 57.5579C81.5942 56.4441 89.3003 57.0451 90.5527 56.9199C93.7284 56.6024 96.6399 55.3963 99.4985 54.3135C102.564 53.1521 105.851 52.0413 108.597 50.431C111.878 48.5066 114.561 46.0653 117.78 44.0915C120.941 42.1538 124.131 40.2897 127.439 38.5122C133.689 35.1539 141.051 32.5274 148.047 30.3672C151.373 29.34 154.781 28.6278 158.198 27.8286C163.543 26.5786 168.499 24.9635 174.12 24.6657C185.064 24.0859 196.364 24.6014 207.289 25.1815C216.199 25.6546 225.089 26.2387 233.872 27.625C238.665 28.3816 243.416 29.558 248.063 30.7473C251.59 31.6499 255.072 32.3769 258.248 33.9645C259.707 34.6939 260.952 35.5391 262.05 36.5981C262.383 36.9185 263.495 37.7207 263.001 37.5891C261.705 37.2435 260.413 36.7277 259.046 36.408C258.172 36.2038 250.677 34.7321 250.677 35.9465C250.677 38.1181 250.31 40.0743 252.409 41.7159C254.624 43.4489 257.737 45.1146 260.285 46.5486C264.053 48.6692 267.391 51.4426 270.3 54.2863C274.072 57.9733 277.917 61.6767 281.47 65.4993C284.232 68.4705 287.064 71.4108 289.788 74.4045C292.517 77.4048 294.36 80.4201 296.204 83.7848C297.43 86.0221 299.078 88.0684 300.482 90.233C301.667 92.0606 302.028 93.9756 302.773 95.9209C303.971 99.0451 303.537 102.407 303.537 105.641C303.537 110.201 303.606 114.75 303.096 119.297C302.922 120.851 302.398 123.805 302.026 120.682C301.78 118.615 301.91 114.287 298.462 114.491C296.155 114.628 294.551 115.523 293.166 116.908C292.063 118.01 292.87 119.464 291.791 120.641C291.098 121.396 290.717 118.937 290.704 118.74C290.577 116.812 290.153 114.879 289.736 112.976L289.72 112.903C289.187 110.477 288.663 108.012 287.886 105.627C286.823 102.362 285.53 99.126 284.525 95.853C282.528 89.3471 277.237 83.1958 270.928 78.8978C270.251 78.4367 265.955 75.7304 265.955 76.9702C265.955 77.9413 266.586 81.7467 265.208 82.0472C264.521 82.1971 262.823 81.4135 262.169 81.2463C260.539 80.8291 258.972 80.0282 257.399 79.4815C250.846 77.203 244.602 74.7797 237.742 73.1284C230.584 71.4052 223.186 71.4379 215.913 70.3048C213.285 69.8955 211.432 68.486 208.936 67.9564C207.071 67.5607 205.009 67.3376 203.08 67.3183C200.167 67.2892 197.251 67.3183 194.337 67.3183C192.876 67.3183 191.616 67.2121 192.046 65.8387C192.326 64.9425 194.083 64.5367 194.864 63.9517C196.085 63.036 197.471 62.3317 198.717 61.4404C202.485 58.7445 206.819 56.5531 211.092 54.3949C213.7 53.0777 217.774 51.4698 217.678 48.6391C217.612 46.6763 215.429 43.9592 213.231 43.0462C211.499 42.3272 207.139 42.7363 205.252 42.9919C201.367 43.5182 197.499 44.6253 193.692 45.449C188.885 46.4894 184.07 47.6456 179.552 49.345C168.658 53.4433 158.368 57.9269 148.471 63.3952C144.844 65.3991 141.34 67.2243 137.37 68.7573C136.912 68.9339 132.735 70.3231 132.735 69.151C132.735 67.5389 133.686 66.296 134.993 65.0513C136.77 63.3596 139.749 62.8179 141.834 61.4539C142.516 61.0074 143.093 58.2288 141.834 58.576C137.127 59.8741 133.103 61.9558 129.001 64.1961C121.682 68.1931 113.915 71.975 107.205 76.6036C101.071 80.8352 93.5992 83.1811 86.7333 86.5134C82.745 88.4491 78.3403 89.475 74.0021 90.776C70.1212 91.9398 66.2279 92.9753 62.3234 94.0883Z" fill="#09162B" stroke="#09162B" stroke-width="0.615068" stroke-linecap="round" stroke-linejoin="round"/>
<path d="M296.087 84.0547C299.662 85.5578 298.982 81.3802 298.286 78.9349C298.114 78.7604 297.937 78.5897 297.755 78.4232C296.468 77.2435 295.83 75.2 294.891 73.7397C292.741 70.3969 290.391 67.1731 288.177 63.8624C287.527 62.8899 286.99 61.9 286.485 60.9156C285.118 58.2509 283.98 55.626 281.435 53.4925C279.622 51.9722 278.321 50.3462 276.29 49.006C274.322 47.7069 272.489 46.0599 270.448 44.8909C269.283 44.224 265.888 43.5789 265.205 42.3223C265.116 42.1583 275.924 42.5044 276.993 42.6471C280.173 43.0708 285.123 45.1961 287.991 46.5571C290.316 47.6606 292.236 49.8368 294.346 51.266C297.724 53.5542 300.659 55.8539 303.261 58.9132C304.723 60.6316 306.742 65.4458 306.472 60.6488C306.252 56.7397 304.481 53.1321 303.984 49.2511C303.82 47.9781 302.675 46.9582 302.554 45.7364C302.243 42.5972 305.996 47.3023 306.867 48.1933C311.916 53.3625 315.998 59.0582 318.151 65.7314C319.827 70.9245 322.917 75.3064 325.062 80.3216C326.794 84.3706 327.666 88.9996 328.56 93.2472C329.172 96.1498 328.779 99.0817 330.342 101.807C331.483 103.797 331.813 106.068 331.937 108.277C332.086 110.91 332.518 113.659 332.251 116.287C331.861 120.137 329.007 122.55 327.877 126.116C327.22 128.189 326.056 130.557 325.92 132.687C325.81 134.402 324.791 135.523 324.113 137.059C323.536 138.367 324.088 139.72 323.307 140.985C322.182 142.808 317.725 143.144 317.909 144.164C318.355 146.635 318.988 147.777 321.27 149.164C323.404 150.461 323.243 153.892 319.731 151.611C317.89 150.415 315.376 153.722 312.938 153.712C310.214 153.7 307.454 150.232 306.773 148.13C305.738 144.935 304.276 142.06 304.083 138.624C304.039 137.846 303.794 136.786 303.443 135.661C301.822 133.927 300.267 132.112 299.025 130.214C296.918 126.994 298.018 128.45 301.468 129.238C305.28 130.108 307.825 133.39 310.551 135.612C312.059 136.841 311.017 130.517 310.952 129.359L310.429 120.063L310.109 114.362C308.896 110.98 307.429 107.704 305.503 104.857C300.812 97.9247 296.342 90.2901 293.202 82.6436C291.717 79.0256 294.976 83.5875 296.087 84.0547Z" fill="#09162B"/>
<path d="M268.193 47.9877C281.097 55.286 293.702 64.6893 298.089 78.2845C298.812 80.5249 300.005 85.7022 296.087 84.0547C294.976 83.5875 291.717 79.0256 293.202 82.6436C296.342 90.2901 300.812 97.9247 305.503 104.857C309.584 110.889 311.601 118.844 313.516 125.662C314.614 129.572 315.173 133.995 315.136 138.056C315.121 139.82 307.584 139.922 306.561 138.881C303.935 136.209 301.06 133.323 299.025 130.214C296.918 126.994 298.018 128.45 301.468 129.238C305.28 130.108 307.825 133.39 310.551 135.612C312.059 136.841 311.017 130.517 310.952 129.359C310.778 126.261 310.604 123.162 310.429 120.063C310.1 114.214 309.772 108.365 309.443 102.517C309.204 98.2653 307.952 94.7546 305.717 91.0211C303.265 86.9257 301.454 81.8144 297.755 78.4232C296.468 77.2435 295.83 75.2 294.891 73.7397C292.741 70.3969 290.391 67.1731 288.177 63.8624C285.766 60.2573 284.921 56.4141 281.435 53.4925C279.622 51.9722 278.321 50.3462 276.29 49.006C274.322 47.7069 272.489 46.0599 270.448 44.8909C269.283 44.224 265.888 43.5789 265.205 42.3223C265.116 42.1583 275.924 42.5044 276.993 42.6471C280.173 43.0708 285.123 45.1961 287.991 46.5571C290.316 47.6606 292.236 49.8368 294.346 51.266C297.724 53.5542 300.659 55.8539 303.261 58.9132C304.723 60.6316 306.742 65.4458 306.472 60.6488C306.252 56.7397 304.481 53.1321 303.984 49.2511C303.82 47.9781 302.675 46.9582 302.554 45.7364C302.243 42.5972 305.996 47.3023 306.867 48.1933C311.916 53.3625 315.998 59.0582 318.151 65.7314C319.827 70.9245 322.917 75.3064 325.062 80.3216C326.794 84.3706 327.666 88.9996 328.56 93.2472C329.172 96.1498 328.779 99.0817 330.342 101.807C331.483 103.797 331.813 106.068 331.937 108.277C332.086 110.91 332.518 113.659 332.251 116.287C331.861 120.137 329.007 122.55 327.877 126.116C327.22 128.189 326.056 130.557 325.92 132.687C325.81 134.402 324.791 135.523 324.113 137.059C323.536 138.367 324.088 139.72 323.307 140.985C322.182 142.808 317.725 143.144 317.909 144.164C318.355 146.635 318.988 147.777 321.27 149.164C323.404 150.461 323.243 153.892 319.731 151.611C317.89 150.415 315.376 153.722 312.938 153.712C310.214 153.7 307.454 150.232 306.773 148.13C305.738 144.935 304.276 142.06 304.083 138.624C303.963 136.496 302.336 132.248 301.155 130.363" stroke="#09162B" stroke-width="0.615068" stroke-linecap="round" stroke-linejoin="round"/>
<path d="M300.299 147.027C299.792 146.742 299.232 146.444 298.556 146.038C297.506 145.406 295.607 145.392 294.524 144.682C293.054 143.717 292.502 146.469 290.561 146.469C287.042 146.469 289.4 141.956 290.356 140.182C292.643 135.934 291.927 131.394 291.927 126.743C291.927 119.848 290.214 114.2 287.69 107.941C286.293 104.475 287.622 115.318 287.622 119.006C287.622 122.488 286.187 115.506 285.777 114.506C284.788 112.097 283.589 109.109 283.316 106.523C283.225 105.659 283.011 104.542 282.673 103.373C281.116 103.087 279.505 102.801 277.883 102.362C275.169 101.628 273.875 100.156 272.587 97.9545C272.107 97.1344 271.598 96.3417 271.069 95.5672C269.193 95.0226 266.598 93.8958 266.095 93.4544C264.057 91.669 262.874 90.6102 262.267 88.2145C261.962 87.0074 262.093 84.5208 261.121 83.3302C260.767 83.0962 260.403 82.885 260.029 82.6944C259.916 82.676 259.797 82.6664 259.67 82.6664C256.964 82.6664 253.669 83.1344 251.06 83.8069C250.285 84.0064 249.694 84.6089 249.033 85.132C251.088 85.0185 253.267 84.6778 254.989 85.1631C255.69 85.3607 261.143 88.0431 258.577 88.2145C254.189 88.5077 249.575 86.7049 245.114 86.5501C242.268 86.4514 246.706 86.0732 247.369 85.9645C248.027 85.8566 248.548 85.5157 249.033 85.132C247.481 85.2178 246 85.1739 244.841 84.5466C241.215 82.5846 235.286 82.5599 231.036 82.6664C228.701 82.7249 226.713 83.7761 224.27 83.7761H215.351C209.373 83.7761 204.503 80.1701 198.642 79.4609C197.239 79.2911 195.778 79.0719 194.285 78.857C194.226 78.8736 194.174 78.89 194.132 78.9061C191.9 79.7535 189.527 80.053 187.366 81.1253C185.845 81.88 184.352 83.1244 182.787 84.0226C179.84 85.7142 175.339 85.7461 172.023 85.9953C168.82 86.2361 164.791 85.9737 161.346 86.3867C157.522 88.0841 153.466 89.2658 149.319 90.0117C148.288 90.4036 147.276 90.8033 146.293 91.2043C144.155 92.0767 137.15 93.3666 135.222 91.9749C135.146 91.9202 139.193 91.0104 139.869 90.9886C143.031 90.8867 146.201 90.5723 149.319 90.0117C152.43 88.8283 155.708 87.7164 158.833 86.8583C159.617 86.6433 160.462 86.4928 161.346 86.3867C161.431 86.349 161.516 86.311 161.601 86.2727C167.465 83.6283 174.45 79.7567 180.805 78.4746C185.087 77.6105 189.825 78.2149 194.285 78.857C194.844 78.6981 195.973 78.5152 194.405 78.3513C186.102 77.483 177.294 78.228 168.948 78.228C162.972 78.228 155.612 77.052 149.949 78.9677C147.936 79.6487 153.645 76.9423 155.656 76.2553C162.559 73.8965 170.111 72.9337 177.251 71.262C182.54 70.024 188.91 69.9058 194.405 69.9058C199.416 69.9058 204.429 69.8628 209.44 69.9058C210.461 69.9146 223.34 70.3085 217.231 72.0634C216.203 72.3586 199.99 74.2127 206.98 77.3649C210.877 79.1228 214.751 79.1884 219.008 79.4609C222.705 79.6976 226.376 81.002 230.045 81.002H250.308C253.943 81.002 257.251 81.2777 260.029 82.6944C260.499 82.771 260.852 83.0011 261.121 83.3302C262.277 84.0949 263.326 85.1026 264.249 86.4268C266.451 89.5835 268.924 92.4256 271.069 95.5672C272.379 95.9471 273.339 96.0438 272.997 95.427C272.602 94.7141 270.148 93.8662 272.553 94.3482C274.683 94.7752 276.781 96.1315 278.669 97.0606C280.602 98.0118 281.934 100.817 282.673 103.373C286.824 104.136 290.596 104.9 293.192 108.558C296.679 113.472 295.618 121.516 295.618 127.298C295.618 133.912 296.758 141.057 300.299 147.027Z" fill="#09162B"/>
<path d="M303.614 149.798C301.71 147.532 300.736 147.349 298.556 146.038C297.506 145.406 295.607 145.392 294.524 144.682C293.054 143.717 292.502 146.469 290.561 146.469C287.042 146.469 289.4 141.956 290.356 140.182C292.643 135.934 291.927 131.394 291.927 126.743C291.927 119.848 290.214 114.2 287.69 107.941C286.293 104.475 287.622 115.318 287.622 119.006C287.622 122.488 286.187 115.506 285.777 114.506C284.788 112.097 283.589 109.109 283.316 106.523C283.026 103.77 281.486 98.4467 278.669 97.0606C276.781 96.1315 274.683 94.7752 272.553 94.3482C270.148 93.8662 272.602 94.7141 272.997 95.427C273.829 96.928 266.95 94.2036 266.095 93.4544C264.057 91.669 262.874 90.6102 262.267 88.2145C261.857 86.5937 262.234 82.6664 259.67 82.6664C256.964 82.6664 253.669 83.1344 251.06 83.8069C249.717 84.1528 248.924 85.7095 247.369 85.9645C246.706 86.0732 242.268 86.4514 245.114 86.5501C249.575 86.7049 254.189 88.5077 258.577 88.2145C261.143 88.0431 255.69 85.3607 254.989 85.1631C251.967 84.3112 247.534 86.0044 244.841 84.5466C241.215 82.5846 235.286 82.5599 231.036 82.6664C228.701 82.7249 226.713 83.7761 224.27 83.7761C221.297 83.7761 218.324 83.7761 215.351 83.7761C209.373 83.7761 204.503 80.1701 198.642 79.4609C193.049 78.7841 186.521 77.3212 180.805 78.4746C174.45 79.7567 167.465 83.6283 161.601 86.2727C154.835 89.3245 147.331 90.7482 139.869 90.9886C139.193 91.0104 135.146 91.9202 135.222 91.9749C137.15 93.3666 144.155 92.0767 146.293 91.2043C150.243 89.5926 154.672 88.0006 158.833 86.8583C162.667 85.8058 167.998 86.2979 172.023 85.9953C175.339 85.7461 179.84 85.7142 182.787 84.0226C184.352 83.1244 185.845 81.88 187.366 81.1253C189.527 80.053 191.9 79.7535 194.132 78.9061C194.578 78.7366 196.137 78.5324 194.405 78.3513C186.102 77.483 177.294 78.228 168.948 78.228C162.972 78.228 155.612 77.052 149.949 78.9677C147.936 79.6487 153.645 76.9423 155.656 76.2553C162.559 73.8965 170.111 72.9337 177.251 71.262C182.54 70.024 188.91 69.9058 194.405 69.9058C199.416 69.9058 204.429 69.8628 209.44 69.9058C210.461 69.9146 223.34 70.3085 217.231 72.0634C216.203 72.3586 199.99 74.2127 206.98 77.3649C210.877 79.1228 214.751 79.1884 219.008 79.4609C222.705 79.6976 226.376 81.002 230.045 81.002C236.799 81.002 243.553 81.002 250.308 81.002C256.03 81.002 260.943 81.6851 264.249 86.4268C266.993 90.3617 270.161 93.8078 272.587 97.9545C273.875 100.156 275.169 101.628 277.883 102.362C283.827 103.97 289.623 103.527 293.192 108.558C296.679 113.472 295.618 121.516 295.618 127.298C295.618 134.753 297.066 142.881 301.769 149.243" stroke="#09162B" stroke-width="0.615068" stroke-linecap="round" stroke-linejoin="round"/>
<path d="M85.9978 57.2132C82.6824 61.3725 86.6675 57.7488 83.4192 62.1385C85.1548 61.0414 86.5587 59.6264 88.1692 58.4172C89.9799 57.0576 92.3556 56.5185 94.1407 55.0789C97.6613 52.2396 102.315 50.7179 105.71 47.691C108.674 45.0492 110.851 42.3263 114.498 40.3304C116.453 39.2606 118.297 37.649 120.673 37.2384C121.806 37.0426 128.002 35.3223 128.002 36.3902C128.002 38.3452 129.02 39.7949 131.666 39.5916C139.426 38.9956 147.703 35.48 154.737 33.0246C160.509 31.0099 166.763 30.339 172.516 28.2634C174.456 27.5634 177.251 27.2784 179.37 27.2784C182.043 27.2784 184.7 26.4625 187.377 26.1839C197.796 25.0997 208.82 25.8008 219.338 25.8008C225.334 25.8008 230.554 26.0199 236.438 27.0048C240.492 27.6833 244.508 28.2634 248.652 28.2634C249.783 28.2634 253.33 28.7417 251.366 27.4973C244.95 23.4313 238.145 19.4635 229.72 17.8109C224.122 16.7128 217.663 17.4278 211.907 17.4278C203.985 17.4278 195.739 17.8817 187.92 18.9327C179.788 20.0258 172.867 22.561 165.391 25.1988C160.58 26.8964 156.584 29.5164 152.091 31.3281C149.127 32.5231 147.044 31.559 147.68 28.8654C147.948 27.7315 148.47 26.1904 149.784 25.5545C150.472 25.2215 157.553 22.3802 156.705 21.97C155.232 21.2573 148.313 23.6933 146.798 24.3232C143.782 25.5776 140.529 26.5212 137.4 27.5794C133.495 28.8998 130.082 31.1699 126.034 32.2037C122.893 33.0058 120.248 34.134 117.348 35.3504C109.152 38.7876 101.864 42.4476 95.3282 47.7184C92.0061 50.3975 88.5478 54.0141 85.9978 57.2132Z" fill="#09162B" stroke="#09162B" stroke-width="0.615068" stroke-linecap="round" stroke-linejoin="round"/>
<path d="M249.488 85.9953C249.981 86.2646 250.458 86.5495 250.918 86.8485C253.93 88.631 256.805 90.2569 259.807 92.0982L259.84 92.1185C261.779 93.3078 263.836 94.5695 264.728 96.6599C266.007 99.6591 268.699 101.794 270.366 104.551C273.078 109.036 278.528 109.925 281.471 113.612C286.156 119.482 293.685 126.121 291.893 134.202C291.688 135.128 291.147 131.999 291.039 131.798C290.063 129.988 288.618 128.252 286.153 128.746C284.812 129.015 283.518 135.187 283.282 136.144C282.95 137.491 281.139 135.338 280.993 134.942C280.437 133.437 280.079 131.388 279.694 129.825C279.433 128.763 278.986 119.715 276.072 121.626C275.209 122.193 274.424 128.906 273.612 126.928C271.57 121.953 273.103 116.656 268.623 112.904C267.35 111.837 267.624 109.212 266.71 107.756C265.337 105.571 264.915 103.169 263.293 100.944C259.624 95.9148 256.374 90.3898 250.918 86.8485C250.445 86.5685 249.969 86.2845 249.488 85.9953Z" fill="#09162B" stroke="#09162B" stroke-width="0.615068" stroke-linecap="round" stroke-linejoin="round"/>
<path d="M228.097 64.4811C219.992 62.7939 211.68 67.2047 204.588 69.9058C206.109 71.9649 216.767 76.4535 218.427 78.7828C220.396 81.5462 221.105 83.3673 224.201 85.1631C227.297 86.9579 229.912 88.7562 233.735 89.8173C236.157 90.4895 238.658 91.1656 241.15 91.5742C247.366 92.5937 253.245 94.6141 257.176 99.3415C258.939 101.462 260.321 103.107 262.097 105.136C263.865 107.156 266.732 109.805 267.359 112.349C268.971 118.892 267.325 126.27 267.325 133.031V140.921C267.325 143.434 271.567 142.586 273.475 142.586C278.093 142.586 282.509 143.141 287.007 143.141C288.765 143.141 292.392 144.377 293.294 145.915C294.2 147.459 295.847 149.907 297.326 150.908C299.529 152.398 300.087 153.742 303.306 153.096C305.854 152.586 306.235 149.343 307.612 147.826C309.889 145.315 309.269 143.546 313.113 142.555C316.807 141.603 317.76 141.449 317.76 137.87C317.76 132.21 315.915 126.682 315.915 120.948C315.915 116.84 317.574 109.628 315.197 105.876C313.361 102.978 307.782 94.3884 304.502 100.729C303.452 102.758 302.849 105.122 301.7 107.047C300.45 109.142 297.387 108.944 295.071 108.712C292.449 108.449 291.681 103.228 290.834 101.53C289.301 98.4563 284.448 97.7034 282.838 94.1941C281.32 90.8851 281.623 87.8842 280.993 84.3309C280.116 79.3865 277.503 76.1398 273.475 72.6799C271.577 71.0487 265.317 72.096 263.019 72.5566C258.606 73.4413 253.795 72.0307 249.624 71.0155C246.577 70.2738 243.473 69.9225 240.535 68.7962C236.683 67.3194 232.152 65.3251 228.097 64.4811Z" fill="#09162B" stroke="#09162B" stroke-width="0.615068" stroke-linecap="round" stroke-linejoin="round"/>
<path d="M30.5233 107.633C33.8293 107.078 37.0129 107.078 40.3545 107.078H40.3644C43.093 107.078 46.0289 105.026 48.2236 103.749C54.4207 100.143 62.0745 96.5387 66.7782 91.2352C69.6336 88.0156 73.0796 85.6161 77.0635 83.5295C77.2672 83.4228 78.9563 82.3873 80.1745 81.635C80.6664 81.1294 81.1311 80.7789 81.4373 80.8479C81.4427 80.8491 80.8898 81.1933 80.1745 81.635C79.2894 82.5449 78.3163 83.957 78.0203 84.3309C76.7015 85.9962 76.0384 86.9734 76.0384 89.0159C76.0384 91.1147 78.5171 90.4338 80.3439 90.4338C87.3962 90.4338 93.3579 85.9268 98.7959 82.1116C105.063 77.7145 112.121 74.1577 119.093 70.8922C123.368 68.89 127.756 66.5042 131.736 64.0187C135.746 61.5145 139.311 58.3964 144.038 56.9603C148.518 55.5991 152.641 54.485 156.749 52.2445C160.232 50.3451 165.859 49.167 169.87 48.3916C172.902 47.8057 175.991 47.8639 179.062 47.1587C182.792 46.3023 186.523 45.1377 190.304 44.508C198.05 43.2181 205.651 41.1689 213.677 41.0558C217.64 41 221.859 40.0147 222.391 44.5696C222.691 47.1483 222.229 48.2475 220.545 50.241C218.372 52.8141 215.446 54.5315 213.199 57.022C211.308 59.1173 210.85 61.7573 210.738 64.4811C210.662 66.3449 211.774 68.0288 213.54 69.0428C216.258 70.6027 218.178 72.0783 220.545 74.0361C223.29 76.3054 220.891 79.8581 218.871 81.6801C217.56 82.8627 212.359 82.1116 210.431 82.1116C206.8 82.1116 203.657 82.4351 200.282 83.6528C198.715 84.2183 196.12 83.7761 194.439 83.7761C192.184 83.7761 191.426 84.4725 189.519 84.8549C181.231 86.5161 173.367 83.7761 165.087 83.7761C163.035 83.7761 161.334 84.0357 159.346 84.3617C157.251 84.7054 156.091 86.7576 154.152 87.3823C150.53 88.549 146.9 89.7976 143.218 90.8653C140.951 91.5224 138.371 90.534 136.076 91.2968C134.41 91.8503 133.02 91.9036 131.439 92.0251C133.839 92.3293 136.698 93.6517 138.551 93.7561C140.493 93.196 142.56 93.7626 138.775 93.7626C138.702 93.7626 138.628 93.7604 138.551 93.7561C138.42 93.794 138.289 93.8371 138.16 93.8859C136.729 94.4296 134.76 94.6661 133.206 94.8414C130.313 95.1675 124.965 96.452 122.784 98.2011C121.719 99.0544 117.763 100.277 116.325 100.389C113.785 100.589 111.154 100.42 108.603 100.42C106.159 100.42 103.739 100.225 101.393 100.852C100.31 101.141 99.0252 100.975 97.9075 100.975C96.753 100.975 96.1924 101.982 95.1055 102.085C90.9749 102.477 86.8682 104.374 82.8383 104.828C77.4765 105.433 72.0118 105.504 66.6757 106.4C64.6585 106.738 64.1179 107.014 62.4727 107.879C60.6943 108.815 57.0864 108.188 55.1944 108.188C52.0076 108.188 32.8512 109.733 30.5233 107.633Z" fill="#09162B" stroke="#09162B" stroke-width="0.615068" stroke-linecap="round" stroke-linejoin="round"/>
<path d="M270.708 33.2885C263.114 33.2885 246.842 26.9815 240.262 30.5145C242.199 32.1699 243.132 34.6326 243.679 36.9564C244.581 40.795 245.41 44.5289 248.599 47.4053C251.158 49.7132 255.13 51.1965 257.962 53.2616C262.235 56.3779 265.162 61.5685 268.213 65.5907C271.016 69.2855 273.575 72.9564 275.97 76.8718C279.758 83.0655 284.046 90.8722 290.629 94.9955C295.271 97.9031 299.295 93.9705 302.999 91.7283C306.633 89.5276 309.803 85.1108 314.343 88.3378C316.897 90.1526 317.494 91.51 321.211 90.9269C325.525 90.2502 330.677 85.6137 330.677 81.5568C330.677 74.2191 329.447 67.2979 329.447 59.9193C329.447 57.9003 328.216 56.7561 328.216 54.8027C328.216 52.9262 327.897 52.0771 326.713 50.7033C325.334 49.1043 323.788 47.7119 322.339 46.0491C321.237 44.7837 320.563 43.3851 318.99 42.597C317.551 41.8754 316.372 40.4066 315.163 39.5147C314.169 38.781 312.412 38.849 311.268 38.0044C308.072 35.6458 303.665 34.5759 300.538 32.1789C297.796 30.0762 295.268 29.4048 291.62 29.4048H285.196C282.328 29.4048 281.782 29.866 279.489 31.3775C276.478 33.3622 274.436 33.2885 270.708 33.2885Z" fill="#09162B"/>
<path d="M240.262 30.5145C246.842 26.9815 263.114 33.2885 270.708 33.2885C274.436 33.2885 276.478 33.3622 279.489 31.3775C281.782 29.866 282.328 29.4048 285.196 29.4048C287.337 29.4048 289.479 29.4048 291.62 29.4048C295.268 29.4048 297.796 30.0762 300.538 32.1789C303.665 34.5759 308.072 35.6458 311.268 38.0044C312.412 38.849 314.169 38.781 315.163 39.5147C316.372 40.4066 317.551 41.8754 318.99 42.597C320.563 43.3851 321.237 44.7837 322.339 46.0491C323.788 47.7119 325.334 49.1043 326.713 50.7033C327.897 52.0771 328.216 52.9262 328.216 54.8027C328.216 56.7561 329.447 57.9003 329.447 59.9193C329.447 67.2979 330.677 74.2191 330.677 81.5568C330.677 85.6137 325.525 90.2502 321.211 90.9269C317.495 91.51 316.897 90.1526 314.343 88.3378C309.803 85.1108 306.633 89.5276 302.999 91.7283C299.295 93.9705 295.271 97.9031 290.629 94.9955C284.046 90.8722 279.758 83.0655 275.97 76.8718C273.575 72.9564 271.016 69.2855 268.213 65.5907C265.162 61.5685 262.235 56.3779 257.962 53.2616C255.13 51.1965 251.158 49.7132 248.599 47.4053C245.41 44.5289 244.581 40.795 243.679 36.9564C243.132 34.6326 242.199 32.1699 240.262 30.5145ZM240.262 30.5145C237.981 28.5654 234.759 29.9822 232.266 28.2952" stroke="#09162B" stroke-width="0.615068" stroke-linecap="round" stroke-linejoin="round"/>
<path d="M268.555 27.7404C265.554 25.7651 261.749 24.2867 258.167 23.3636C257.157 23.1032 256.34 23.2552 255.331 22.8088C254.474 22.4298 253.814 22.3562 252.939 22.1307C251.305 21.7095 249.842 21.0622 248.155 20.7437C246.847 20.4967 245.123 20.0811 244.02 19.4183C242.952 18.776 241.74 18.9207 240.638 18.3087C239.757 17.8197 238.473 17.7683 237.494 17.4148C235.502 16.6961 233.003 16.7087 230.882 16.2127C227.417 15.4024 223.938 14.3101 220.409 13.8856C218.935 13.7084 217.549 13.4346 216.12 13.038C215.379 12.8324 214.516 12.5618 213.745 12.4986C212.373 12.3861 211.192 11.7271 209.884 11.651C206.134 11.4328 202.449 10.8188 198.574 10.8188C194.485 10.8188 190.396 10.8188 186.306 10.8188C178.779 10.8188 170.941 10.7797 163.737 12.8685C162.236 13.3036 160.349 12.5973 158.936 13.1767C157.226 13.878 155.3 13.7506 153.554 14.3017C151.757 14.869 149.87 15.3791 148.018 15.7966C146.083 16.2331 143.806 16.6437 141.987 17.3532C141.416 17.5762 140.688 17.5339 140.074 17.6922C139.47 17.8478 138.718 18.2249 138.16 18.3087C136.441 18.5671 134.87 19.7331 133.24 20.2505C131.902 20.6752 130.314 21.8458 128.934 21.9149C128.236 21.9499 127.361 22.5108 126.713 22.7472C125.272 23.2726 123.742 23.6671 122.339 24.2575C118.06 26.0588 113.919 28.4848 109.423 29.9597C108.261 30.3407 107.079 30.8736 106.04 31.47C104.614 32.2884 103.16 33.8565 101.564 34.3365C98.8167 35.1624 96.1915 36.9165 93.8753 38.4976C91.16 40.3511 87.9928 41.5995 85.2644 43.3367C82.5255 45.0807 80.3154 47.4526 77.4735 49.1006C76.3776 49.7361 75.4037 50.4574 74.5007 51.3198C73.6507 52.1316 73.1439 53.4583 71.9892 54.1092C69.9906 55.236 68.4028 56.9417 66.6586 58.3782C65.807 59.0795 63.5124 60.2145 63.1219 61.1831C62.2946 63.2352 59.8935 64.6093 59.0556 66.7928C58.7191 67.6697 57.6088 70.9763 58.5772 71.5703C60.3938 72.6845 62.0464 73.5665 64.0445 74.4676C64.5994 74.7179 65.29 74.6217 65.8897 74.6217C67.0072 74.6217 67.9394 75.1766 69.0847 75.1766C70.4273 75.1766 71.7507 75.454 73.1168 75.454C74.0738 75.454 75.3328 75.2762 76.2263 75.6081C77.2306 75.9811 78.1948 75.9438 79.2333 76.1475C80.0805 76.3136 80.5236 76.8961 81.2664 77.0876C82.6286 77.4386 83.9093 77.6555 85.2986 78.0893C87.6456 78.8221 90.2986 79.8924 92.799 79.8924C94.1876 79.8924 95.5241 80.338 96.9165 80.4472C99.8272 80.6755 102.685 80.7246 105.613 80.7246C108.217 80.7246 110.822 80.8417 113.335 80.1082C117.697 78.8353 121.749 76.6774 125.961 75.0533C132.05 72.7055 138.634 70.8565 144.345 67.8408C151.721 63.9461 159.959 61.556 167.274 57.6384C173.848 54.1174 180.651 49.6314 188.22 48.1142C196.091 46.5366 203.633 45.7329 211.712 46.0799C222.747 46.5539 233.56 49.378 244.635 49.378C252.062 49.378 258.976 47.5857 265.462 44.2614C270.182 41.8424 271.63 38.1447 271.63 33.5659" stroke="#09162B" stroke-width="0.615068" stroke-linecap="round" stroke-linejoin="round"/>
<path d="M77.3027 62.9399C80.5358 59.5375 90.3401 58.2148 94.6613 56.3438C98.7214 55.6114 102.827 55.0846 106.894 54.3712C112.791 53.337 119.141 53.4563 124.902 52.0287C133.242 49.9621 140.507 49.3779 149.095 49.3779C154.719 49.3779 162.579 49.1551 159.073 55.4808C156.259 60.556 152.105 64.3088 148.001 68.5496C143.673 73.023 139.569 77.7521 134.948 81.9883C128.277 88.1048 122.462 94.5108 114.48 99.3107C111.214 101.275 108.029 104.298 105.22 106.831C102.751 109.059 98.522 110.284 96.3357 112.749C95.1756 114.057 89.7614 116.933 87.8614 117.065C85.3884 117.236 82.5619 119.497 80.5831 120.732C74.881 124.293 69.2333 127.609 62.5069 129.394C57.204 130.8 52.9207 134.851 47.1302 135.373C42.6022 135.782 36.3568 136.939 31.7876 135.651C26.5375 134.171 14.3251 133.091 10.2261 129.394C3.73369 123.537 14.4974 129.394 17.6069 128.592C19.1593 129.292 22.3046 128.716 24.0651 128.716C29.4541 128.716 34.8929 128.875 39.7494 126.928C40.9756 126.436 45.9344 120.979 44.0548 119.284C44.5101 118.873 50.0764 114.447 47.1302 114.29C44.8513 114.17 43.5404 115.955 41.3212 115.955C35.5009 115.955 29.4097 116.51 23.4501 116.51C19.5849 116.51 16.3811 116.174 12.6522 115.123C9.66792 114.281 6.16511 114.299 3.46033 112.626H6.53567C9.05763 112.626 12.0806 113.03 14.4974 112.349C16.6202 111.75 22.7264 112.215 20.9898 110.962C19.6992 110.03 16.7331 108.796 15.8984 107.633C15.5269 107.115 10.3696 103.42 8.075 102.218C7.33299 102.116 6.87033 101.999 7.01405 101.869C7.11661 101.776 7.50859 101.921 8.075 102.218C9.98779 102.48 13.7569 102.64 13.7798 102.64H23.6209C27.1653 102.64 30.2672 101.012 33.5645 99.8963C39.9613 97.7325 44.9587 95.0344 48.9754 90.0022C49.913 88.8276 51.7114 84.3308 48.9754 84.3308C46.0473 84.3308 43.0024 84.1445 40.1252 83.7452C36.7463 83.2763 33.3968 82.2326 29.9083 82.1116C28.036 82.0467 25.646 81.2681 23.7576 80.8787C21.5373 80.4209 19.1731 79.9039 17.0943 79.0602C12.0951 77.0309 6.96965 72.0975 6.53567 67.0085C6.30153 64.2629 5.9206 61.5406 5.9206 58.6864C5.9206 58.0877 5.74832 53.8775 6.53567 55.1726C12.6522 68.5496 22.2058 70.1112 24.5093 71.447C27.4633 73.1599 32.6175 73.2347 36.059 73.2347C37.6275 73.2347 47.3774 72.9326 47.1302 72.6799C45.2841 70.7926 44.9376 69.0322 43.7815 66.8852C43.2422 65.8836 42.6987 62.9517 42.073 62.2618C41.2308 61.3334 40.0034 60.7529 39.7835 59.3645C39.5598 57.9517 43.4819 60.9246 44.6699 61.4604C47.3976 62.6907 49.3783 63.3971 52.3583 63.8646C55.697 64.3883 58.2912 65.4674 61.8918 65.4674C64.4831 65.4674 67.1663 65.6467 69.751 65.4674C70.8759 65.3893 72.4828 64.2682 73.7148 63.9262C74.8446 63.6127 76.4451 63.8424 77.3027 62.9399Z" fill="#09162B"/>
<path d="M3.46033 112.626C4.48544 112.626 5.51055 112.626 6.53567 112.626C9.05763 112.626 12.0806 113.03 14.4974 112.349C16.6202 111.75 22.7264 112.215 20.9898 110.962C19.6992 110.03 16.7331 108.796 15.8984 107.633C15.4352 106.987 7.53209 101.402 7.01405 101.869C6.49983 102.333 13.7481 102.64 13.7798 102.64C17.0602 102.64 20.3405 102.64 23.6209 102.64C27.1653 102.64 30.2672 101.012 33.5645 99.8963C39.9613 97.7325 44.9587 95.0344 48.9754 90.0022C49.913 88.8276 51.7114 84.3308 48.9754 84.3308C46.0473 84.3308 43.0024 84.1445 40.1252 83.7452C36.7463 83.2763 33.3968 82.2326 29.9083 82.1116C28.036 82.0467 25.646 81.2681 23.7576 80.8787C21.5373 80.4209 19.1731 79.9039 17.0943 79.0602C12.0951 77.0309 6.96965 72.0975 6.53567 67.0085C6.30153 64.2629 5.9206 61.5406 5.9206 58.6864C5.9206 58.0877 5.74832 53.8775 6.53567 55.1726C12.6522 68.5496 22.2058 70.1112 24.5093 71.447C27.4633 73.1599 32.6175 73.2347 36.059 73.2347C37.6275 73.2347 47.3774 72.9326 47.1302 72.6799C45.2841 70.7926 44.9376 69.0322 43.7815 66.8852C43.2422 65.8836 42.6987 62.9517 42.073 62.2618C41.2308 61.3334 40.0034 60.7529 39.7835 59.3645C39.5598 57.9517 43.4819 60.9246 44.6699 61.4604C47.3976 62.6907 49.3783 63.3971 52.3583 63.8646C55.697 64.3883 58.2912 65.4674 61.8918 65.4674C64.4831 65.4674 67.1663 65.6467 69.751 65.4674C70.8759 65.3893 72.4828 64.2682 73.7148 63.9262C74.8446 63.6127 76.4451 63.8424 77.3027 62.9399C80.5358 59.5375 90.3401 58.2148 94.6613 56.3438C98.7214 55.6114 102.827 55.0846 106.894 54.3712C112.791 53.337 119.141 53.4563 124.902 52.0287C133.242 49.9621 140.507 49.3779 149.095 49.3779C154.719 49.3779 162.579 49.1551 159.073 55.4808C156.259 60.556 152.105 64.3088 148.001 68.5496C143.673 73.023 139.569 77.7521 134.948 81.9883C128.277 88.1048 122.462 94.5108 114.48 99.3107C111.214 101.275 108.029 104.298 105.22 106.831C102.751 109.059 98.522 110.284 96.3357 112.749C95.1756 114.057 89.7614 116.933 87.8614 117.065C85.3884 117.236 82.5619 119.497 80.5831 120.732C74.881 124.293 69.2333 127.609 62.5069 129.394C57.204 130.8 52.9207 134.851 47.1302 135.373C42.6022 135.782 36.3568 136.939 31.7876 135.651C26.5375 134.171 14.3251 133.091 10.2261 129.394C3.73369 123.537 14.4974 129.394 17.6069 128.592C19.1593 129.292 22.3046 128.716 24.0651 128.716C29.4541 128.716 34.8929 128.875 39.7494 126.928C40.9756 126.436 45.9344 120.979 44.0548 119.284C44.5101 118.873 50.0764 114.447 47.1302 114.29C44.8513 114.17 43.5404 115.955 41.3212 115.955C35.5009 115.955 29.4097 116.51 23.4501 116.51C19.5849 116.51 16.3811 116.174 12.6522 115.123C9.66792 114.281 6.16511 114.299 3.46033 112.626ZM3.46033 112.626C1.37129 112.626 2.15351 111.818 3.46033 112.626Z" stroke="#09162B" stroke-width="0.615068" stroke-linecap="round" stroke-linejoin="round"/>
<path d="M151.077 78.7828C141.243 84.6437 143.787 79.8924 132.01 79.8924C115.087 79.8924 125.216 101.344 137.887 94.0709C141.055 92.2524 146.567 93.3412 150.154 92.6222C153.028 92.0462 155.198 89.9917 157.569 88.7694C160.499 87.259 164.24 88.8177 167.069 86.5501C168.991 85.0089 174.313 84.3258 174.449 81.1253C174.543 78.9317 174.435 77.6262 173.219 75.7622C171.381 72.9431 166.072 74.0206 162.9 74.4676C158.577 75.0769 154.672 76.6399 151.077 78.7828Z" fill="#09162B" stroke="#09162B" stroke-width="0.615068" stroke-linecap="round" stroke-linejoin="round"/>
<path d="M312.361 147.271C309.267 152.294 298.088 148.377 294.388 146.469C294.388 149.335 295.618 151.459 295.618 154.237C295.618 155.932 297.991 158.606 300.06 158.675C301.05 158.708 303.701 159.089 304.502 158.367C305.795 157.201 305.197 156.456 307.441 156.456C310.641 156.456 312.714 157.566 315.778 157.566C318.408 157.566 323.296 158.53 323.296 155.346C323.296 152.175 322.746 149.683 320.221 147.271C318.911 146.02 313.373 145.628 312.361 147.271Z" fill="#09162B" stroke="#09162B" stroke-width="0.615068" stroke-linecap="round" stroke-linejoin="round"/>
</svg>
