<svg xmlns="http://www.w3.org/2000/svg" width="449" height="494" fill="none" viewBox="0 0 449 494"><rect width="159.93" height="159.93" x="168.85" y="136.606" fill="#F9CF9D" rx="53.31"/><rect width="23.017" height="174.268" x="93.321" y="284.062" fill="#7A2544" rx="11.508"/><circle cx="80.169" cy="293.926" r="27.949" fill="#C27431" stroke="#7A2544" stroke-width="16.44"/><path fill="#F9CF9D" d="M91.493 348.998C93.3635 341.98 100.57 337.806 107.589 339.677L136.183 347.297L122.636 398.132L94.041 390.511C87.0221 388.641 82.8486 381.435 84.7192 374.416L91.493 348.998Z"/><path fill="#6176CF" d="M114.821 343.592C114.887 341.417 117.01 339.904 119.087 340.552L168.312 355.911C173.513 357.534 176.413 363.065 174.79 368.266L161.695 410.238C160.223 414.954 155.49 417.854 150.62 417.024L121.262 412.019C116.411 411.192 112.912 406.916 113.06 401.997L114.821 343.592Z"/><path fill="#6176CF" d="M158.188 264.549C158.188 261.605 160.575 259.218 163.519 259.218H339.442C342.386 259.218 344.773 261.605 344.773 264.549V307.197C344.773 321.918 332.839 333.852 318.118 333.852H184.843C170.122 333.852 158.188 321.918 158.188 307.197V264.549Z"/><path fill="#6176CF" d="M136.864 355.176C136.864 331.622 155.958 312.528 179.512 312.528H328.78C352.333 312.528 371.428 331.622 371.428 355.176V488.451C371.428 491.395 369.041 493.782 366.097 493.782H142.195C139.251 493.782 136.864 491.395 136.864 488.451V355.176Z"/><path fill="#7289DA" d="M152.857 264.549C152.857 261.605 155.244 259.218 158.188 259.218H275.47C278.414 259.218 280.801 261.605 280.801 264.549V307.197C280.801 321.918 268.867 333.852 254.146 333.852H179.512C164.791 333.852 152.857 321.918 152.857 307.197V264.549Z"/><path fill="#7289DA" d="M136.864 355.176C136.864 331.622 155.958 312.528 179.512 312.528H254.146C277.7 312.528 296.794 331.622 296.794 355.176V488.451C296.794 491.395 294.407 493.782 291.463 493.782H142.195C139.251 493.782 136.864 491.395 136.864 488.451V355.176Z"/><path fill="#000" d="M328.779 184.584H302.124V195.246C302.124 209.968 314.058 221.901 328.779 221.901V221.901V184.584Z"/><ellipse cx="178.264" cy="161.693" fill="#000" rx="23.989" ry="10.649" transform="rotate(-9.40499 178.264 161.693)"/><path fill="#EB5050" d="M270.782 45.1853C279.285 37.6031 292.763 41.0896 296.523 51.8438L346.545 194.925L295.931 172.232C267.59 159.525 237.247 151.87 206.27 149.61L157.654 146.065L270.782 45.1853Z"/><path fill="#7A2544" d="M158.37 143.295C223.765 109.356 304.165 128.674 347.002 188.618L350.045 192.876L342.005 187.402C289.146 151.415 225.111 135.63 161.582 142.927L158.37 143.295V143.295Z"/><ellipse cx="250.187" cy="170" fill="#EB5050" rx="122.886" ry="20.022" transform="rotate(14.5029 250.187 170)"/><rect width="46.734" height="34.887" x="166.807" y="187.873" fill="#5293F4" stroke="#000" stroke-width="6.576" rx="3.288"/><rect width="46.734" height="34.887" x="225.448" y="187.873" fill="#EF3E72" stroke="#000" stroke-width="6.576" rx="3.288"/><line x1="216.829" x2="222.16" y1="197.289" y2="197.289" stroke="#000" stroke-width="6.576"/><rect width="55.897" height="49.321" x="274.165" y="392.568" fill="#F9CF9D" rx="13.152"/></svg>