<svg width="454" height="496" viewBox="0 0 454 496" fill="none" xmlns="http://www.w3.org/2000/svg">
<path d="M83 124.476C88.9444 99.9758 107.404 105.365 120.167 99.9758C130.762 95.5021 142.673 90.0593 153.889 87.4203C166.15 84.5353 176.205 74.4483 189.333 73.4758C203.335 72.4386 217.684 73.4203 231.722 73.4203H245.833C250.001 73.4203 252.901 75.2593 256.611 77.3092C263.507 81.1192 273.727 84.9454 278.722 91.4203C283.066 97.0506 287.44 105.395 289.833 111.976C294.384 124.491 298.145 136.383 302.444 148.42C304.783 154.967 309.133 151.531 314.5 151.531C316.63 151.531 320.987 153.858 323.167 154.642C333.331 154.642 333.29 159.457 332.713 161.195C335.266 164.496 337.7 168.018 337.944 172.42C338.097 175.159 338.827 180.567 337.167 182.642C336.551 183.412 335.442 187.803 335.056 188.865C334.221 191.159 333.944 193.546 333.944 195.976C333.944 198.388 332.42 200.376 331.722 202.643C331.328 203.925 331.295 205.829 330.722 206.976C330.2 208.02 328.581 207.891 328.167 209.087C326.536 213.796 326.833 218.025 321.444 220.42C319.376 221.339 316.852 224.084 314.944 224.42C313.367 224.699 313.559 227.89 311.889 228.865C305.919 232.347 304.944 236.832 304.944 243.198V268.92C304.944 276.12 303.122 286.298 305.167 293.198C306.481 297.634 306.944 301.26 306.944 305.92C306.944 310.232 308.723 313.213 308.944 317.42C309.431 326.658 308.552 335.412 312.444 343.976C319.749 360.046 320.542 381.244 318.833 398.754C315.895 428.874 269.111 437.919 246.389 426.865C230.205 418.992 225.944 398.745 225.944 382.642C225.944 377.702 226.74 374.545 229.167 370.42C231.164 367.025 231.944 363.317 231.944 358.865C231.944 348.127 233.944 338.084 233.944 327.42C233.944 315.023 224.038 313.934 215.5 320.92C210.641 324.896 205.586 325.124 199.944 327.865C195.669 329.941 191.1 330.743 186.333 331.476C181.933 332.153 172.87 332.2 169.444 334.865C166.118 337.452 159.143 335.975 155.167 337.198C146.451 339.88 135.434 338.42 126.167 338.42C121.025 338.42 119.944 336.467 119.944 331.42C119.944 326.595 118.944 321.867 118.944 316.92C118.944 309.89 118.774 301.575 116.889 294.976C115.592 290.438 116.75 285.598 115.889 280.865C115.011 276.035 113.194 271.408 112.944 266.42C112.774 263.005 109.713 259.42 105.944 259.42C103.629 259.42 95.0433 259.788 93.9444 257.865C92.0256 254.507 85.4226 256.139 88.9444 249.976C89.675 248.697 92.7721 248.686 93.7222 246.976C95.123 244.454 95.438 242.648 96.1667 239.976C98.4408 231.637 103.944 225.909 103.944 216.42C103.944 211.33 100.333 207.256 99.9444 202.198C99.6182 197.957 98.9444 193.533 98.9444 188.92C98.9444 184.516 98.1744 180.559 97.9444 176.42C97.6974 171.973 95.6155 167.729 95 163.42C93.6429 153.921 93.0231 146.097 89.1667 137.42C87.3215 133.269 84.735 129.102 83 124.476Z" fill="#FFE4AD"/>
<path d="M92.4444 69.7575C83.5085 72.5707 73.2656 72.0353 64 72.0353C68.2811 69.5889 70.7474 54.3979 75 52.0353C77.75 55.2853 82 48.7853 79 46.0353C82 46.0353 83.98 42.4059 85.9722 41.2853C88.4278 39.904 91.288 37.0197 94.0278 36.5631C95.9782 36.238 96.0866 34.7746 97.75 34.0353L97.7505 34.0351C98.8877 33.5296 100.587 32.7744 101.5 32.0353C102.763 31.0127 104.581 31.583 105.611 30.6464C106.693 29.6632 107.775 30.0162 108.75 29.2575C111.31 27.2667 113.937 26.8337 116.778 25.5353C119.712 24.194 123.02 23.414 126 21.9242C128.363 20.7427 130.951 20.2583 133.222 18.8131C135.3 17.4906 139.105 17.1939 141.5 16.6464C143.189 16.2604 143.986 15.5353 145.833 15.5353C147.966 15.5353 148.888 14.943 150.778 14.3131C156.318 12.4663 161.925 12.5353 167.75 12.5353C169.935 12.5353 171.799 11.1511 174 11.0353C177.064 10.874 180.019 10.9889 183 10.5631C188.368 9.79616 194.058 10.0353 199.5 10.0353C202.73 10.0353 205.976 10.5353 209.25 10.5353C211.556 10.5353 213.809 11.483 216.111 11.5353C218.091 11.5803 219.98 12.0353 221.889 12.0353C223.281 12.0353 224.184 13.0353 225.611 13.0353C229.031 13.0353 232.102 13.6418 235.472 14.0631C240.917 14.7436 247.097 15.8034 252.25 17.7853C254.748 18.7461 257.598 19.4737 260.25 20.0631C261.695 20.3841 262.811 21.7861 264.25 22.0075C265.242 22.1602 266.575 22.4806 267.389 23.1464C269.978 25.2647 272 27.7052 272 31.3131C272 35.7979 269.041 37.8063 265.278 39.5353C262.032 41.0266 257.798 40.9498 254.333 41.1464C245.996 41.6194 237.805 41.0353 229.472 41.0353C223.057 41.0353 216.979 39.0908 210.583 39.0908C195.632 39.0908 180.437 39.8066 165.556 41.1464C153.022 42.2748 141.156 46.9932 129.722 52.0353C125.372 53.9535 121.268 56.3441 117 58.4242C114.102 59.8366 110.861 60.5198 108.056 62.0908C102.871 64.9942 98.1977 67.9463 92.4444 69.7575Z" fill="#FF6969" stroke="#09162B" stroke-linecap="round" stroke-linejoin="round"/>
<path d="M6.0345 102.756C11.3243 104.782 16.2443 108.009 21.7589 109.357C43.2616 114.609 65.0974 115.716 87.0636 110.371C133.414 99.0932 182.17 78.2238 229.589 87.9987C245.433 91.2645 274.206 100.567 264.311 141.928" stroke="#09162B" stroke-width="6.15068" stroke-linecap="round" stroke-linejoin="round"/>
<path d="M267.325 143.141C290.082 135.928 295.325 152.443 300.416 161.99" stroke="#09162B" stroke-width="6.15068" stroke-linecap="round" stroke-linejoin="round"/>
<path d="M77.8835 123.014C87.7246 150.692 90.8 151.307 101.871 225.73" stroke="#09162B" stroke-width="6.15068" stroke-linecap="round" stroke-linejoin="round"/>
<path d="M113.558 211.584C110.415 216.099 100.641 232.496 86.0746 252.6C85.5096 253.833 84.3888 255.336 84.3076 256.72C84.1631 259.182 93.3776 261.333 95.276 261.638C102.666 262.826 119.679 262.394 127.113 262.706" stroke="#09162B" stroke-width="6.15068" stroke-linecap="round" stroke-linejoin="round"/>
<path d="M110.482 264.911C113.634 281.985 114.46 300.396 115.117 318.336C115.363 325.043 115.674 332.202 114.973 339.074" stroke="#09162B" stroke-width="6.15068" stroke-linecap="round" stroke-linejoin="round"/>
<path d="M115.417 339.683C120.114 341.092 124.587 341.878 129.489 342.602C137.161 343.736 145.073 342.879 152.848 343.346C167.597 341.56 235.956 339.343 263.019 264.787" stroke="#09162B" stroke-width="6.15068" stroke-linecap="round" stroke-linejoin="round"/>
<path d="M289.904 178.927C298.228 169.839 328.483 138.702 334.664 168.42C338.327 186.031 329.736 210.131 316.722 224.429C310.434 231.337 307.144 230.242 298.502 228.254" stroke="#09162B" stroke-width="6.15068" stroke-linecap="round" stroke-linejoin="round"/>
<path d="M4.70557 113.833C14.3896 114.605 24.1416 115.939 33.8934 114.977C43.7043 114.009 52.3337 111.445 61.3015 107.596C76.3773 101.125 90.7323 93.7875 106.314 88.2804C126.245 81.2365 146.637 74.9767 166.911 68.868C184.148 63.6745 202.155 59.0826 220.286 58.5407C229.846 58.2549 239.335 58.9348 248.807 59.8187C252.265 60.1415 254.631 60.841 256.797 63.2611" stroke="#09162B" stroke-width="6.15068" stroke-linecap="round" stroke-linejoin="round"/>
<path d="M15.9833 106.936C35.0863 108.653 56.2521 111.424 74.9954 105.079C91.2825 99.5648 105.49 91.0029 119.584 81.1489" stroke="#09162B" stroke-width="6.15068" stroke-linecap="round" stroke-linejoin="round"/>
<path d="M47.8641 101.735C51.1998 91.9344 58.5168 83.6158 67.8399 77.6917C76.8998 71.9349 87.2771 68.9493 97.4924 65.4123C109.117 61.3873 120.176 56.8381 132.321 54.1031C157.063 48.5313 180.976 49.9346 205.894 51.9224C213.194 52.5048 222.352 51.801 229.002 54.8806" stroke="#09162B" stroke-width="6.15068" stroke-linecap="round" stroke-linejoin="round"/>
<path d="M268.523 85.0862C286.526 89.2278 308.218 110.822 299.858 140.39" stroke="#09162B" stroke-width="6.15068" stroke-linecap="round" stroke-linejoin="round"/>
<path d="M304.206 136.238C305.86 138.923 307.962 143.219 308.313 146.407C308.621 149.195 307.888 153.095 308.878 155.634" stroke="#09162B" stroke-width="6.15068" stroke-linecap="round" stroke-linejoin="round"/>
<path d="M293.844 111.516C301.466 115.179 308.124 122.316 313.147 128.554C319.47 136.405 321.911 143.692 323.452 153.35" stroke="#09162B" stroke-width="6.15068" stroke-linecap="round" stroke-linejoin="round"/>
<path d="M299.154 75.5284C306.777 79.1909 313.435 86.3275 318.458 92.5657C324.78 100.417 327.221 107.704 328.762 117.362" stroke="#09162B" stroke-width="6.15068" stroke-linecap="round" stroke-linejoin="round"/>
<path d="M277.277 58.6132C283.634 60.0756 289.992 61.5381 296.349 63.0006C302.962 64.5219 309.799 68.0192 315.586 71.2926C318.447 72.911 342.324 95.6383 325.756 154.237" stroke="#09162B" stroke-width="6.15068" stroke-linecap="round" stroke-linejoin="round"/>
<path d="M16.8824 67.938C30.4385 75.6317 47.4395 77.5913 57.1061 68.9811C67.5942 68.4821 72.7149 64.2939 82.0692 59.9737C93.8525 54.5317 107.942 46.3423 120.318 41.9878C129.783 38.6575 138.782 34.3137 148.898 33.0545C159.208 31.7713 170.257 31.8152 180.614 31.8676C188.733 31.9088 197.16 32.5203 205.175 33.5482C207.747 33.8781 209.827 34.7108 211.703 36.2683" stroke="#09162B" stroke-width="6.15068" stroke-linecap="round" stroke-linejoin="round"/>
<path d="M227.755 50.0005C240.594 44.2037 255.842 41.5893 270.48 42.3447C279.352 42.8025 288.497 44.6046 297.009 46.558C305.077 48.4093 315.769 51.0721 321.062 56.7898C333.431 70.1501 333.935 90.5325 330.648 106.404C328.495 116.797 322.318 143.338 322.318 143.338" stroke="#09162B" stroke-width="6.15068" stroke-linecap="round" stroke-linejoin="round"/>
<path d="M3.97413 55.445C1.62793 74.2993 22.9027 79.0055 39.0901 81.6383C49.7812 83.3772 60.9257 84.2995 71.8102 84.6818C81.8412 85.0341 91.0888 83.4454 100.74 80.7395C115.006 76.7396 129.127 71.8976 142.706 66.2031C160.882 58.5807 178.245 49.2868 196.456 41.7773C199.521 40.5132 202.549 39.7083 205.817 39.2443" stroke="#09162B" stroke-width="6.15068" stroke-linecap="round" stroke-linejoin="round"/>
<path d="M38.8496 56.6087C41.0449 60.3531 43.812 63.8403 46.7718 66.9605C54.2301 74.8231 65.705 75.1412 75.7204 76.5958C99.6198 80.0667 122.555 81.9473 146.489 75.7084C155.358 73.3966 164.283 71.0302 173.357 69.9828" stroke="#09162B" stroke-width="6.15068" stroke-linecap="round" stroke-linejoin="round"/>
<path d="M9.25764 128.654C12.8944 131.726 15.3493 133.678 20.1956 134.114C27.8505 134.802 35.0289 137.102 42.8273 135.366C64.3622 130.573 84.9662 118.753 103.037 106.103C115.091 97.6654 126.878 88.9043 139.55 81.4612C142.816 79.5427 146.214 77.1634 149.816 76.0602" stroke="#09162B" stroke-width="6.15068" stroke-linecap="round" stroke-linejoin="round"/>
<path d="M172.827 74.783C197.807 68.8176 222.732 66.4444 248.087 68.7231C258.633 69.671 268.016 70.7542 277.305 76.1936C279.88 77.7013 282.248 78.8788 282.663 82.0896" stroke="#09162B" stroke-width="6.15068" stroke-linecap="round" stroke-linejoin="round"/>
<path d="M58.3593 67.3084C103.941 26.6146 139.402 14.448 179.94 11.3529C224.456 7.95403 273.233 20.783 277.125 36.1923" stroke="#09162B" stroke-width="6.15068" stroke-linecap="round" stroke-linejoin="round"/>
<path d="M223.53 44.5003C236.24 45.5203 249.693 48.4639 260.151 54.3585C268.057 58.8144 275.888 63.9845 282.811 69.4018C285.607 71.5893 288.208 73.5623 290.209 76.2605" stroke="#09162B" stroke-width="6.15068" stroke-linecap="round" stroke-linejoin="round"/>
<path d="M233.737 39.1258C248.183 29.7122 265.105 31.566 281.785 35.9452C291.424 38.4758 301.966 43.5887 307.67 50.527C312.782 56.7445 314.342 65.2021 316.977 72.2517" stroke="#09162B" stroke-width="6.15068" stroke-linecap="round" stroke-linejoin="round"/>
<path d="M198.502 22.726C188.623 19.8847 180.519 22.4604 170.751 26.7971C160.249 31.4595 151.504 39.707 140.603 43.4363" stroke="#09162B" stroke-width="6.15068" stroke-linecap="round" stroke-linejoin="round"/>
<path d="M227.96 317.99C231.036 336.854 234.986 372.455 221.195 385.314" stroke="#09162B" stroke-width="6.15068" stroke-linecap="round" stroke-linejoin="round"/>
<path d="M304.976 231.175C303.729 237.972 297.342 335.63 326.622 384.735" stroke="#09162B" stroke-width="6.15068" stroke-linecap="round" stroke-linejoin="round"/>
<path d="M142.402 305.004C145.536 312.94 145.312 321.264 142.829 329.186C140.475 336.694 122.398 336.556 116.018 330.585" stroke="#09162B" stroke-width="6.15068" stroke-linecap="round" stroke-linejoin="round"/>
<path d="M153.673 302.694C155.269 304.846 153.169 319.487 168.149 327.125C179.612 331.313 184.708 329.055 190.716 327.277C199.837 319.444 199.701 307.036 200.235 307.898C201.411 309.799 211.965 322.167 213.199 323.83" stroke="#09162B" stroke-width="6.15068" stroke-linecap="round" stroke-linejoin="round"/>
<path d="M134.323 203.803L131.154 156.067L220.187 143.883L220.369 198.923L134.323 203.803Z" stroke="#09162B" stroke-width="6.15068"/>
<path d="M114.454 204.286L107.581 159.487L75.4688 161.743L83.5071 204.918L114.454 204.286Z" stroke="#09162B" stroke-width="6.15068"/>
<path d="M217.274 26.5908C225.423 26.9925 234.403 29.0924 242.174 31.1993C245.623 32.1345 249.883 35.6637 250.638 38.4437" stroke="#09162B" stroke-width="6.15068" stroke-linecap="round" stroke-linejoin="round"/>
<path d="M216.89 41.6324C224.749 30.7885 243.134 25.8233 258.091 28.8775C264.962 30.2805 271.639 31.4709 277.476 34.88C280.087 36.4052 283.556 38.1958 285.242 40.47" stroke="#09162B" stroke-width="6.15068" stroke-linecap="round" stroke-linejoin="round"/>
<path d="M252.086 34.328C265.499 30.8503 293.773 21.588 323.343 43.8497C326.468 46.7601 339.288 62.4159 330.677 97.3689" stroke="#09162B" stroke-width="6.15068" stroke-linecap="round" stroke-linejoin="round"/>
<path d="M112.699 186.083C121.261 174.884 129.192 182.254 131.281 184.346" stroke="#09162B" stroke-width="6.15068" stroke-linecap="round" stroke-linejoin="round"/>
<line y1="-4.61301" x2="100.99" y2="-4.61301" transform="matrix(0.968838 -0.247696 0.299766 0.954013 220.571 182.843)" stroke="#09162B" stroke-width="9.22603"/>
<path d="M305.578 187.512C306.761 183.33 310.717 179.533 313.109 180.083C316.725 180.915 318.845 182.819 319.276 186.21C320.247 193.834 320.138 198.877 310.612 208.996" stroke="#09162B" stroke-width="6.15068" stroke-linecap="round" stroke-linejoin="round"/>
<path d="M315.3 358.129C300.25 391.521 227.345 443.733 227.345 361.735C162.148 382.818 99.3644 422.038 89.5583 457.539C85.4641 466.687 88.013 479.88 99.3644 480.891C105.396 481.429 113.421 482.33 119.249 480.181C133.061 475.09 157.541 469.39 170.459 479.866C176.97 485.146 195.362 490.595 203.555 490.595C225.619 491.7 268.521 453.989 281.323 477.341C287.596 484.003 298.413 487.57 306.247 490.595C315.04 493.991 324.218 493.441 331.58 487.282C346.406 474.877 384.969 435.773 426.441 440.577C431.002 441.106 445.745 446.759 449.662 443.733C451.261 442.499 446.701 434.254 446.053 433.24C429.71 370.757 319.548 354.438 315.3 358.129Z" fill="#09162B" stroke="#09162B" stroke-width="6.15068" stroke-linecap="round" stroke-linejoin="round"/>
<path d="M149.807 302.022C148.311 304.211 145.083 304.064 142.568 304.064C140.251 304.254 141.89 305.688 141.952 306.599C142.117 309.048 142.038 311.917 143.03 314.203C143.52 315.331 144.724 315.705 144.724 317.09C144.724 317.726 145.033 318.344 145.033 319.019C145.033 320.194 145.116 321.394 145.033 322.568C144.857 325.02 142.553 326.648 141.644 328.891C141.41 329.467 140.021 331.3 139.333 331.426C137.997 331.67 137.13 333.359 135.859 333.778C132.911 334.748 129.309 334.482 125.95 334.482C124.38 334.482 123.008 333.975 121.466 333.975C119.735 333.975 118.542 332.505 116.931 332.454C114.961 332.392 115.459 333.423 115.459 334.735C115.459 335.357 115.548 336.275 116.075 336.763C116.698 337.34 116.218 338.222 116.691 338.904C116.897 339.201 119.455 339.805 119.926 339.805C121.255 339.805 123.181 340.15 124.392 340.622C125.714 341.137 127.072 341.437 128.466 341.776C129.135 341.94 130.177 342.024 130.862 342.086C131.546 342.149 132 342.593 132.727 342.593C136.54 342.593 140.368 342.511 144.108 342.34C145.718 342.266 147.09 341.833 148.729 341.833H152.871H158.416C159.97 341.833 161.957 342.143 163.345 341.636C165.211 340.953 167.286 341.465 169.13 341.016C170.372 340.713 171.935 340.312 173.22 340.312C174.909 340.312 176.823 339.234 178.44 338.918C179.352 338.739 179.961 338.22 180.921 338.045C181.843 337.876 182.682 337.704 183.608 337.467C186.869 336.634 190.243 335.473 193.244 334.101C194.759 333.409 196.186 332.787 197.728 332.074C199.22 331.383 201.03 331.204 202.349 330.299C202.707 330.054 203.619 330.143 203.872 329.778C204.244 329.243 205.326 328.786 206.011 328.539C207.309 328.072 208.509 327.268 209.794 326.821C210.91 326.432 213.092 324.831 211.265 323.892C210.256 323.373 210.195 321.482 209.554 320.653C209.043 319.993 208.945 319.234 208.339 318.625C207.607 317.889 206.983 316.961 206.49 316.104C205.64 314.627 202.349 309.64 198.96 315.583C198.072 316.923 197.374 318.581 196.102 319.723C195.595 320.178 195.865 320.902 195.246 321.441C194.681 321.934 194.589 322.574 194.014 323.075C193.413 323.599 193.987 324.274 193.638 324.849C193.322 325.369 192.571 325.574 192.166 325.99C191.713 326.455 190.946 326.411 190.625 327.004C190.366 327.484 189.678 328.164 189.222 328.539C188.045 329.507 186.382 329.919 184.772 329.919C181.241 329.919 177.824 329.666 174.298 329.666C172.349 329.666 170.524 328.626 168.77 328.145C166.915 327.636 165.966 326.666 164.611 325.61C159.314 321.481 154.274 317.317 154.274 310.851C154.274 308.536 155.193 304.316 153.487 302.402C152.752 301.578 152.734 300.768 151.348 300.768C150.221 300.768 150.306 301.292 149.807 302.022Z" fill="#09162B" stroke="#09162B" stroke-width="0.615068" stroke-linecap="round" stroke-linejoin="round"/>
<path d="M62.3234 94.0883C59.8391 94.7964 57.7936 95.9073 55.126 95.9073C56.9236 95.9073 81.4202 88.5921 88.8722 82.7124C90.9676 81.3374 92.4566 79.9528 93.7609 78.0562C95.0723 76.1494 95.3914 74.2034 96.2563 72.2053C97.1093 70.2346 99.0873 68.2481 100.806 66.7075C102.557 65.1369 104.457 63.5541 106.696 62.4313C109.752 60.8984 105.597 61.4539 104.184 61.4539C99.6217 61.4539 95.0733 61.2768 90.5357 61.2096C89.5915 61.1956 88.6452 61.2096 87.7009 61.2096C86.7382 61.2096 85.9555 60.7717 85.0019 60.7209C82.4792 60.5864 81.1045 59.5777 81.4202 57.5579C81.5942 56.4441 89.3003 57.0451 90.5527 56.9199C93.7284 56.6024 96.6399 55.3963 99.4985 54.3135C102.564 53.1521 105.851 52.0413 108.597 50.431C111.878 48.5066 114.561 46.0653 117.78 44.0915C120.941 42.1538 124.131 40.2897 127.439 38.5122C133.689 35.1539 141.051 32.5274 148.047 30.3672C151.373 29.34 154.781 28.6278 158.198 27.8286C163.543 26.5786 168.499 24.9635 174.12 24.6657C185.064 24.0859 196.364 24.6014 207.289 25.1815C216.199 25.6546 225.089 26.2387 233.872 27.625C238.665 28.3816 243.416 29.558 248.063 30.7473C251.59 31.6499 255.072 32.3769 258.248 33.9645C259.707 34.6939 260.952 35.5391 262.05 36.5981C262.383 36.9185 263.495 37.7207 263.001 37.5891C261.705 37.2435 260.413 36.7277 259.046 36.408C258.172 36.2038 250.677 34.7321 250.677 35.9465C250.677 38.1181 250.31 40.0743 252.409 41.7159C254.624 43.4489 257.737 45.1146 260.285 46.5486C264.053 48.6692 267.391 51.4426 270.3 54.2863C274.072 57.9733 277.917 61.6767 281.47 65.4993C284.232 68.4705 287.064 71.4108 289.788 74.4045C292.517 77.4048 294.36 80.4201 296.204 83.7848C297.43 86.0221 299.078 88.0684 300.482 90.233C301.667 92.0606 302.028 93.9756 302.773 95.9209C303.971 99.0451 303.537 102.407 303.537 105.641C303.537 110.201 303.606 114.75 303.096 119.297C302.922 120.851 302.398 123.805 302.026 120.682C301.78 118.615 301.91 114.287 298.462 114.491C296.155 114.628 294.551 115.523 293.166 116.908C292.063 118.01 292.87 119.464 291.791 120.641C291.098 121.396 290.717 118.937 290.704 118.74C290.577 116.812 290.153 114.879 289.736 112.976L289.72 112.903C289.187 110.477 288.663 108.012 287.886 105.627C286.823 102.362 285.53 99.126 284.525 95.853C282.528 89.3471 277.237 83.1958 270.928 78.8978C270.251 78.4367 265.955 75.7304 265.955 76.9702C265.955 77.9413 266.586 81.7467 265.208 82.0472C264.521 82.1971 262.823 81.4135 262.169 81.2463C260.539 80.8291 258.972 80.0282 257.399 79.4815C250.846 77.203 244.602 74.7797 237.742 73.1284C230.584 71.4052 223.186 71.4379 215.913 70.3048C213.285 69.8955 211.432 68.486 208.936 67.9564C207.071 67.5607 205.009 67.3376 203.08 67.3183C200.167 67.2892 197.251 67.3183 194.337 67.3183C192.876 67.3183 191.616 67.2121 192.046 65.8387C192.326 64.9425 194.083 64.5367 194.864 63.9517C196.085 63.036 197.471 62.3317 198.717 61.4404C202.485 58.7445 206.819 56.5531 211.092 54.3949C213.7 53.0777 217.774 51.4698 217.678 48.6391C217.612 46.6763 215.429 43.9592 213.231 43.0462C211.499 42.3272 207.139 42.7363 205.252 42.9919C201.367 43.5182 197.499 44.6253 193.692 45.449C188.885 46.4894 184.07 47.6456 179.552 49.345C168.658 53.4433 158.368 57.9269 148.471 63.3952C144.844 65.3991 141.34 67.2243 137.37 68.7573C136.912 68.9339 132.735 70.3231 132.735 69.151C132.735 67.5389 133.686 66.296 134.993 65.0513C136.77 63.3596 139.749 62.8179 141.834 61.4539C142.516 61.0074 143.093 58.2288 141.834 58.576C137.127 59.8741 133.103 61.9558 129.001 64.1961C121.682 68.1931 113.915 71.975 107.205 76.6036C101.071 80.8352 93.5992 83.1811 86.7333 86.5134C82.745 88.4491 78.3403 89.475 74.0021 90.776C70.1212 91.9398 66.2279 92.9753 62.3234 94.0883Z" fill="#09162B" stroke="#09162B" stroke-width="0.615068" stroke-linecap="round" stroke-linejoin="round"/>
<path d="M296.087 84.0547C299.662 85.5578 298.982 81.3802 298.286 78.9349C298.114 78.7604 297.937 78.5897 297.755 78.4232C296.468 77.2435 295.83 75.2 294.891 73.7397C292.741 70.3969 290.391 67.1731 288.177 63.8624C287.527 62.8899 286.99 61.9 286.485 60.9156C285.118 58.2509 283.98 55.626 281.435 53.4925C279.622 51.9722 278.321 50.3462 276.29 49.006C274.322 47.7069 272.489 46.0599 270.448 44.8909C269.283 44.224 265.888 43.5789 265.205 42.3223C265.116 42.1583 275.924 42.5044 276.993 42.6471C280.173 43.0708 285.123 45.1961 287.991 46.5571C290.316 47.6606 292.236 49.8368 294.346 51.266C297.724 53.5542 300.659 55.8539 303.261 58.9132C304.723 60.6316 306.742 65.4458 306.472 60.6488C306.252 56.7397 304.481 53.1321 303.984 49.2511C303.82 47.9781 302.675 46.9582 302.554 45.7364C302.243 42.5972 305.996 47.3023 306.867 48.1933C311.916 53.3625 315.998 59.0582 318.151 65.7314C319.827 70.9245 322.917 75.3064 325.062 80.3216C326.794 84.3706 327.666 88.9996 328.56 93.2472C329.172 96.1498 328.779 99.0817 330.342 101.807C331.483 103.797 331.813 106.068 331.937 108.277C332.086 110.91 332.518 113.659 332.251 116.287C331.861 120.137 329.007 122.55 327.877 126.116C327.22 128.189 326.056 130.557 325.92 132.687C325.81 134.402 324.791 135.523 324.113 137.059C323.536 138.367 324.088 139.72 323.307 140.985C322.182 142.808 317.725 143.144 317.909 144.164C318.355 146.635 318.988 147.777 321.27 149.164C323.404 150.461 323.243 153.892 319.731 151.611C317.89 150.415 315.376 153.722 312.938 153.712C310.214 153.7 307.454 150.232 306.773 148.13C305.738 144.935 304.276 142.06 304.083 138.624C304.039 137.846 303.794 136.786 303.443 135.661C301.822 133.927 300.267 132.112 299.025 130.214C296.918 126.994 298.018 128.45 301.468 129.238C305.28 130.108 307.825 133.39 310.551 135.612C312.059 136.841 311.017 130.517 310.952 129.359L310.429 120.063L310.109 114.362C308.896 110.98 307.429 107.704 305.503 104.857C300.812 97.9247 296.342 90.2901 293.202 82.6436C291.717 79.0256 294.976 83.5875 296.087 84.0547Z" fill="#09162B"/>
<path d="M268.193 47.9877C281.097 55.286 293.702 64.6893 298.089 78.2845C298.812 80.5249 300.005 85.7022 296.087 84.0547C294.976 83.5875 291.717 79.0256 293.202 82.6436C296.342 90.2901 300.812 97.9247 305.503 104.857C309.584 110.889 311.601 118.844 313.516 125.662C314.614 129.572 315.173 133.995 315.136 138.056C315.121 139.82 307.584 139.922 306.561 138.881C303.935 136.209 301.06 133.323 299.025 130.214C296.918 126.994 298.018 128.45 301.468 129.238C305.28 130.108 307.825 133.39 310.551 135.612C312.059 136.841 311.017 130.517 310.952 129.359C310.778 126.261 310.604 123.162 310.429 120.063C310.1 114.214 309.772 108.365 309.443 102.517C309.204 98.2653 307.952 94.7546 305.717 91.0211C303.265 86.9257 301.454 81.8144 297.755 78.4232C296.468 77.2435 295.83 75.2 294.891 73.7397C292.741 70.3969 290.391 67.1731 288.177 63.8624C285.766 60.2573 284.921 56.4141 281.435 53.4925C279.622 51.9722 278.321 50.3462 276.29 49.006C274.322 47.7069 272.489 46.0599 270.448 44.8909C269.283 44.224 265.888 43.5789 265.205 42.3223C265.116 42.1583 275.924 42.5044 276.993 42.6471C280.173 43.0708 285.123 45.1961 287.991 46.5571C290.316 47.6606 292.236 49.8368 294.346 51.266C297.724 53.5542 300.659 55.8539 303.261 58.9132C304.723 60.6316 306.742 65.4458 306.472 60.6488C306.252 56.7397 304.481 53.1321 303.984 49.2511C303.82 47.9781 302.675 46.9582 302.554 45.7364C302.243 42.5972 305.996 47.3023 306.867 48.1933C311.916 53.3625 315.998 59.0582 318.151 65.7314C319.827 70.9245 322.917 75.3064 325.062 80.3216C326.794 84.3706 327.666 88.9996 328.56 93.2472C329.172 96.1498 328.779 99.0817 330.342 101.807C331.483 103.797 331.813 106.068 331.937 108.277C332.086 110.91 332.518 113.659 332.251 116.287C331.861 120.137 329.007 122.55 327.877 126.116C327.22 128.189 326.056 130.557 325.92 132.687C325.81 134.402 324.791 135.523 324.113 137.059C323.536 138.367 324.088 139.72 323.307 140.985C322.182 142.808 317.725 143.144 317.909 144.164C318.355 146.635 318.988 147.777 321.27 149.164C323.404 150.461 323.243 153.892 319.731 151.611C317.89 150.415 315.376 153.722 312.938 153.712C310.214 153.7 307.454 150.232 306.773 148.13C305.738 144.935 304.276 142.06 304.083 138.624C303.963 136.496 302.336 132.248 301.155 130.363" stroke="#09162B" stroke-width="0.615068" stroke-linecap="round" stroke-linejoin="round"/>
<path d="M300.299 147.027C299.792 146.742 299.232 146.444 298.556 146.038C297.506 145.406 295.607 145.392 294.524 144.682C293.054 143.717 292.501 146.469 290.561 146.469C287.042 146.469 289.4 141.956 290.356 140.182C292.643 135.934 291.927 131.394 291.927 126.743C291.927 119.848 290.213 114.2 287.69 107.941C286.293 104.475 287.622 115.318 287.622 119.006C287.622 122.488 286.187 115.506 285.777 114.506C284.788 112.097 283.589 109.109 283.316 106.523C283.225 105.659 283.011 104.542 282.673 103.373C281.116 103.087 279.505 102.801 277.883 102.362C275.169 101.628 273.875 100.156 272.587 97.9545C272.107 97.1344 271.598 96.3417 271.069 95.5672C269.192 95.0226 266.598 93.8958 266.094 93.4544C264.057 91.669 262.874 90.6102 262.267 88.2145C261.962 87.0074 262.093 84.5208 261.121 83.3302C260.767 83.0962 260.402 82.885 260.029 82.6944C259.916 82.676 259.797 82.6664 259.67 82.6664C256.964 82.6664 253.669 83.1344 251.059 83.8069C250.285 84.0064 249.694 84.6089 249.033 85.132C251.088 85.0185 253.267 84.6778 254.989 85.1631C255.69 85.3607 261.143 88.0431 258.577 88.2145C254.189 88.5077 249.575 86.7049 245.114 86.5501C242.268 86.4514 246.706 86.0732 247.369 85.9645C248.027 85.8566 248.548 85.5157 249.033 85.132C247.481 85.2178 246 85.1739 244.84 84.5466C241.215 82.5846 235.286 82.5599 231.036 82.6664C228.701 82.7249 226.713 83.7761 224.27 83.7761H215.351C209.373 83.7761 204.503 80.1701 198.642 79.4609C197.239 79.2911 195.777 79.0719 194.285 78.857C194.226 78.8736 194.174 78.89 194.131 78.9061C191.9 79.7535 189.527 80.053 187.366 81.1253C185.845 81.88 184.352 83.1244 182.787 84.0226C179.84 85.7142 175.339 85.7461 172.023 85.9953C168.82 86.2361 164.79 85.9737 161.346 86.3867C157.522 88.0841 153.466 89.2658 149.318 90.0117C148.288 90.4036 147.275 90.8033 146.293 91.2043C144.155 92.0767 137.15 93.3666 135.222 91.9749C135.146 91.9202 139.193 91.0104 139.869 90.9886C143.031 90.8867 146.201 90.5723 149.318 90.0117C152.43 88.8283 155.708 87.7164 158.833 86.8583C159.617 86.6433 160.462 86.4928 161.346 86.3867C161.431 86.349 161.516 86.311 161.601 86.2727C167.464 83.6283 174.45 79.7567 180.805 78.4746C185.087 77.6105 189.825 78.2149 194.285 78.857C194.844 78.6981 195.972 78.5152 194.405 78.3513C186.102 77.483 177.294 78.228 168.948 78.228C162.972 78.228 155.612 77.052 149.949 78.9677C147.936 79.6487 153.645 76.9423 155.656 76.2553C162.559 73.8965 170.111 72.9337 177.251 71.262C182.54 70.024 188.91 69.9058 194.405 69.9058C199.416 69.9058 204.429 69.8628 209.44 69.9058C210.461 69.9146 223.34 70.3085 217.231 72.0634C216.203 72.3586 199.99 74.2127 206.98 77.3649C210.877 79.1228 214.751 79.1884 219.008 79.4609C222.705 79.6976 226.376 81.002 230.045 81.002H250.308C253.943 81.002 257.251 81.2777 260.029 82.6944C260.499 82.771 260.852 83.0011 261.121 83.3302C262.277 84.0949 263.326 85.1026 264.249 86.4268C266.451 89.5835 268.924 92.4256 271.069 95.5672C272.379 95.9471 273.339 96.0438 272.997 95.427C272.602 94.7141 270.148 93.8662 272.553 94.3482C274.683 94.7752 276.781 96.1315 278.669 97.0606C280.602 98.0118 281.934 100.817 282.673 103.373C286.824 104.136 290.596 104.9 293.192 108.558C296.679 113.472 295.618 121.516 295.618 127.298C295.618 133.912 296.758 141.057 300.299 147.027Z" fill="#09162B"/>
<path d="M303.614 149.798C301.71 147.532 300.736 147.349 298.556 146.038C297.506 145.406 295.607 145.392 294.524 144.682C293.054 143.717 292.501 146.469 290.561 146.469C287.042 146.469 289.4 141.956 290.356 140.182C292.643 135.934 291.927 131.394 291.927 126.743C291.927 119.848 290.213 114.2 287.69 107.941C286.293 104.475 287.622 115.318 287.622 119.006C287.622 122.488 286.187 115.506 285.777 114.506C284.788 112.097 283.589 109.109 283.316 106.523C283.026 103.77 281.486 98.4467 278.669 97.0606C276.781 96.1315 274.683 94.7752 272.553 94.3482C270.148 93.8662 272.602 94.7141 272.997 95.427C273.829 96.928 266.95 94.2036 266.094 93.4544C264.057 91.669 262.874 90.6102 262.267 88.2145C261.857 86.5937 262.234 82.6664 259.67 82.6664C256.964 82.6664 253.669 83.1344 251.059 83.8069C249.717 84.1528 248.924 85.7095 247.369 85.9645C246.706 86.0732 242.268 86.4514 245.114 86.5501C249.575 86.7049 254.189 88.5077 258.577 88.2145C261.143 88.0431 255.69 85.3607 254.989 85.1631C251.967 84.3112 247.534 86.0044 244.84 84.5466C241.215 82.5846 235.286 82.5599 231.036 82.6664C228.701 82.7249 226.713 83.7761 224.27 83.7761C221.297 83.7761 218.324 83.7761 215.351 83.7761C209.373 83.7761 204.503 80.1701 198.642 79.4609C193.049 78.7841 186.521 77.3212 180.805 78.4746C174.45 79.7567 167.464 83.6283 161.601 86.2727C154.835 89.3245 147.331 90.7482 139.869 90.9886C139.193 91.0104 135.146 91.9202 135.222 91.9749C137.15 93.3666 144.155 92.0767 146.293 91.2043C150.243 89.5926 154.672 88.0006 158.833 86.8583C162.667 85.8058 167.997 86.2979 172.023 85.9953C175.339 85.7461 179.84 85.7142 182.787 84.0226C184.352 83.1244 185.845 81.88 187.366 81.1253C189.527 80.053 191.9 79.7535 194.131 78.9061C194.578 78.7366 196.137 78.5324 194.405 78.3513C186.102 77.483 177.294 78.228 168.948 78.228C162.972 78.228 155.612 77.052 149.949 78.9677C147.936 79.6487 153.645 76.9423 155.656 76.2553C162.559 73.8965 170.111 72.9337 177.251 71.262C182.54 70.024 188.91 69.9058 194.405 69.9058C199.416 69.9058 204.429 69.8628 209.44 69.9058C210.461 69.9146 223.34 70.3085 217.231 72.0634C216.203 72.3586 199.99 74.2127 206.98 77.3649C210.877 79.1228 214.751 79.1884 219.008 79.4609C222.705 79.6976 226.376 81.002 230.045 81.002C236.799 81.002 243.553 81.002 250.308 81.002C256.03 81.002 260.943 81.6851 264.249 86.4268C266.993 90.3617 270.161 93.8078 272.587 97.9545C273.875 100.156 275.169 101.628 277.883 102.362C283.827 103.97 289.623 103.527 293.192 108.558C296.679 113.472 295.618 121.516 295.618 127.298C295.618 134.753 297.066 142.881 301.768 149.243" stroke="#09162B" stroke-width="0.615068" stroke-linecap="round" stroke-linejoin="round"/>
<path d="M85.9978 57.2132C82.6824 61.3725 86.6675 57.7488 83.4192 62.1385C85.1548 61.0414 86.5587 59.6264 88.1692 58.4172C89.9799 57.0576 92.3556 56.5185 94.1407 55.0789C97.6613 52.2396 102.315 50.7179 105.71 47.691C108.674 45.0492 110.851 42.3263 114.498 40.3304C116.453 39.2606 118.297 37.649 120.673 37.2384C121.806 37.0426 128.002 35.3223 128.002 36.3902C128.002 38.3452 129.02 39.7949 131.666 39.5916C139.426 38.9956 147.703 35.48 154.737 33.0246C160.509 31.0099 166.763 30.339 172.516 28.2634C174.456 27.5634 177.251 27.2784 179.37 27.2784C182.043 27.2784 184.7 26.4625 187.377 26.1839C197.796 25.0997 208.82 25.8008 219.338 25.8008C225.334 25.8008 230.554 26.0199 236.438 27.0048C240.492 27.6833 244.508 28.2634 248.652 28.2634C249.783 28.2634 253.33 28.7417 251.366 27.4973C244.95 23.4313 238.145 19.4635 229.72 17.8109C224.122 16.7128 217.663 17.4278 211.907 17.4278C203.985 17.4278 195.739 17.8817 187.92 18.9327C179.788 20.0258 172.867 22.561 165.391 25.1988C160.58 26.8964 156.584 29.5164 152.091 31.3281C149.127 32.5231 147.044 31.559 147.68 28.8654C147.948 27.7315 148.47 26.1904 149.784 25.5545C150.472 25.2215 157.553 22.3802 156.705 21.97C155.232 21.2573 148.313 23.6933 146.798 24.3232C143.782 25.5776 140.529 26.5212 137.4 27.5794C133.495 28.8998 130.082 31.1699 126.034 32.2037C122.893 33.0058 120.248 34.134 117.348 35.3504C109.152 38.7876 101.864 42.4476 95.3282 47.7184C92.0061 50.3975 88.5478 54.0141 85.9978 57.2132Z" fill="#09162B" stroke="#09162B" stroke-width="0.615068" stroke-linecap="round" stroke-linejoin="round"/>
<path d="M249.488 85.9953C249.981 86.2646 250.458 86.5495 250.918 86.8485C253.93 88.631 256.805 90.2569 259.807 92.0982L259.84 92.1185C261.779 93.3078 263.836 94.5695 264.728 96.6599C266.007 99.6591 268.699 101.794 270.366 104.551C273.078 109.036 278.528 109.925 281.471 113.612C286.156 119.482 293.685 126.121 291.893 134.202C291.688 135.128 291.147 131.999 291.039 131.798C290.063 129.988 288.618 128.252 286.153 128.746C284.812 129.015 283.518 135.187 283.282 136.144C282.95 137.491 281.139 135.338 280.993 134.942C280.437 133.437 280.079 131.388 279.694 129.825C279.433 128.763 278.986 119.715 276.072 121.626C275.209 122.193 274.424 128.906 273.612 126.928C271.57 121.953 273.103 116.656 268.623 112.904C267.35 111.837 267.624 109.212 266.71 107.756C265.337 105.571 264.915 103.169 263.293 100.944C259.624 95.9148 256.374 90.3898 250.918 86.8485C250.445 86.5685 249.969 86.2845 249.488 85.9953Z" fill="#09162B" stroke="#09162B" stroke-width="0.615068" stroke-linecap="round" stroke-linejoin="round"/>
<path d="M228.097 64.4811C219.992 62.7939 211.68 67.2047 204.588 69.9058C206.109 71.9649 216.767 76.4535 218.427 78.7828C220.396 81.5462 221.105 83.3673 224.201 85.1631C227.297 86.9579 229.912 88.7562 233.735 89.8173C236.157 90.4895 238.658 91.1656 241.15 91.5742C247.366 92.5937 253.245 94.6141 257.176 99.3415C258.939 101.462 260.321 103.107 262.097 105.136C263.865 107.156 266.732 109.805 267.359 112.349C268.971 118.892 267.325 126.27 267.325 133.031V140.921C267.325 143.434 271.567 142.586 273.475 142.586C278.093 142.586 282.509 143.141 287.007 143.141C288.765 143.141 292.392 144.377 293.294 145.915C294.2 147.459 295.847 149.907 297.326 150.908C299.529 152.398 300.087 153.742 303.306 153.096C305.854 152.586 306.235 149.343 307.612 147.826C309.889 145.315 309.269 143.546 313.113 142.555C316.807 141.603 317.76 141.449 317.76 137.87C317.76 132.21 315.915 126.682 315.915 120.948C315.915 116.84 317.574 109.628 315.197 105.876C313.361 102.978 307.782 94.3884 304.502 100.729C303.452 102.758 302.849 105.122 301.7 107.047C300.45 109.142 297.387 108.944 295.071 108.712C292.449 108.449 291.681 103.228 290.834 101.53C289.301 98.4563 284.448 97.7034 282.838 94.1941C281.32 90.8851 281.623 87.8842 280.993 84.3309C280.116 79.3865 277.503 76.1398 273.475 72.6799C271.577 71.0487 265.317 72.096 263.019 72.5566C258.606 73.4413 253.795 72.0307 249.624 71.0155C246.577 70.2738 243.473 69.9225 240.535 68.7962C236.683 67.3194 232.152 65.3251 228.097 64.4811Z" fill="#09162B" stroke="#09162B" stroke-width="0.615068" stroke-linecap="round" stroke-linejoin="round"/>
<path d="M30.5233 107.633C33.8293 107.078 37.0129 107.078 40.3545 107.078H40.3644C43.093 107.078 46.0289 105.026 48.2236 103.749C54.4207 100.143 62.0745 96.5387 66.7782 91.2352C69.6336 88.0156 73.0796 85.6161 77.0635 83.5295C77.2672 83.4228 78.9563 82.3873 80.1745 81.635C80.6664 81.1294 81.1311 80.7789 81.4373 80.8479C81.4427 80.8491 80.8898 81.1933 80.1745 81.635C79.2894 82.5449 78.3163 83.957 78.0203 84.3309C76.7015 85.9962 76.0384 86.9734 76.0384 89.0159C76.0384 91.1147 78.5171 90.4338 80.3439 90.4338C87.3962 90.4338 93.3579 85.9268 98.7959 82.1116C105.063 77.7145 112.121 74.1577 119.093 70.8922C123.368 68.89 127.756 66.5042 131.736 64.0187C135.746 61.5145 139.311 58.3964 144.038 56.9603C148.518 55.5991 152.641 54.485 156.749 52.2445C160.232 50.3451 165.859 49.167 169.87 48.3916C172.902 47.8057 175.991 47.8639 179.062 47.1587C182.792 46.3023 186.523 45.1377 190.304 44.508C198.05 43.2181 205.651 41.1689 213.677 41.0558C217.64 41 221.859 40.0147 222.391 44.5696C222.691 47.1483 222.229 48.2475 220.545 50.241C218.372 52.8141 215.446 54.5315 213.199 57.022C211.308 59.1173 210.85 61.7573 210.738 64.4811C210.662 66.3449 211.774 68.0288 213.54 69.0428C216.258 70.6027 218.178 72.0783 220.545 74.0361C223.29 76.3054 220.891 79.8581 218.871 81.6801C217.56 82.8627 212.359 82.1116 210.431 82.1116C206.8 82.1116 203.657 82.4351 200.282 83.6528C198.715 84.2183 196.12 83.7761 194.439 83.7761C192.184 83.7761 191.426 84.4725 189.519 84.8549C181.231 86.5161 173.367 83.7761 165.087 83.7761C163.035 83.7761 161.334 84.0357 159.346 84.3617C157.251 84.7054 156.091 86.7576 154.152 87.3823C150.53 88.549 146.9 89.7976 143.218 90.8653C140.951 91.5224 138.371 90.534 136.076 91.2968C134.41 91.8503 133.02 91.9036 131.439 92.0251C133.839 92.3293 136.698 93.6517 138.551 93.7561C140.493 93.196 142.56 93.7626 138.775 93.7626C138.702 93.7626 138.628 93.7604 138.551 93.7561C138.42 93.794 138.289 93.8371 138.16 93.8859C136.729 94.4296 134.76 94.6661 133.206 94.8414C130.313 95.1675 124.965 96.452 122.784 98.2011C121.719 99.0544 117.763 100.277 116.325 100.389C113.785 100.589 111.154 100.42 108.603 100.42C106.159 100.42 103.739 100.225 101.393 100.852C100.31 101.141 99.0252 100.975 97.9075 100.975C96.753 100.975 96.1924 101.982 95.1055 102.085C90.9749 102.477 86.8682 104.374 82.8383 104.828C77.4765 105.433 72.0118 105.504 66.6757 106.4C64.6585 106.738 64.1179 107.014 62.4727 107.879C60.6943 108.815 57.0864 108.188 55.1944 108.188C52.0076 108.188 32.8512 109.733 30.5233 107.633Z" fill="#09162B" stroke="#09162B" stroke-width="0.615068" stroke-linecap="round" stroke-linejoin="round"/>
<path d="M270.708 33.2885C263.114 33.2885 246.842 26.9815 240.262 30.5145C242.199 32.1699 243.132 34.6326 243.679 36.9564C244.581 40.795 245.41 44.5289 248.599 47.4053C251.158 49.7132 255.13 51.1965 257.962 53.2616C262.235 56.3779 265.162 61.5685 268.213 65.5907C271.016 69.2855 273.575 72.9564 275.97 76.8718C279.758 83.0655 284.046 90.8722 290.629 94.9955C295.271 97.9031 299.295 93.9705 302.999 91.7283C306.633 89.5276 309.803 85.1108 314.343 88.3378C316.897 90.1526 317.494 91.51 321.211 90.9269C325.525 90.2502 330.677 85.6137 330.677 81.5568C330.677 74.2191 329.447 67.2979 329.447 59.9193C329.447 57.9003 328.216 56.7561 328.216 54.8027C328.216 52.9262 327.897 52.0771 326.713 50.7033C325.334 49.1043 323.788 47.7119 322.339 46.0491C321.237 44.7837 320.563 43.3851 318.99 42.597C317.551 41.8754 316.372 40.4066 315.163 39.5147C314.169 38.781 312.412 38.849 311.268 38.0044C308.072 35.6458 303.665 34.5759 300.538 32.1789C297.796 30.0762 295.268 29.4048 291.62 29.4048H285.196C282.328 29.4048 281.782 29.866 279.489 31.3775C276.478 33.3622 274.436 33.2885 270.708 33.2885Z" fill="#09162B"/>
<path d="M240.262 30.5145C246.842 26.9815 263.114 33.2885 270.708 33.2885C274.436 33.2885 276.478 33.3622 279.489 31.3775C281.782 29.866 282.328 29.4048 285.196 29.4048C287.337 29.4048 289.479 29.4048 291.62 29.4048C295.268 29.4048 297.796 30.0762 300.538 32.1789C303.665 34.5759 308.072 35.6458 311.268 38.0044C312.412 38.849 314.169 38.781 315.163 39.5147C316.372 40.4066 317.551 41.8754 318.99 42.597C320.563 43.3851 321.237 44.7837 322.339 46.0491C323.788 47.7119 325.334 49.1043 326.713 50.7033C327.897 52.0771 328.216 52.9262 328.216 54.8027C328.216 56.7561 329.447 57.9003 329.447 59.9193C329.447 67.2979 330.677 74.2191 330.677 81.5568C330.677 85.6137 325.525 90.2502 321.211 90.9269C317.495 91.51 316.897 90.1526 314.343 88.3378C309.803 85.1108 306.633 89.5276 302.999 91.7283C299.295 93.9705 295.271 97.9031 290.629 94.9955C284.046 90.8722 279.758 83.0655 275.97 76.8718C273.575 72.9564 271.016 69.2855 268.213 65.5907C265.162 61.5685 262.235 56.3779 257.962 53.2616C255.13 51.1965 251.158 49.7132 248.599 47.4053C245.41 44.5289 244.581 40.795 243.679 36.9564C243.132 34.6326 242.199 32.1699 240.262 30.5145ZM240.262 30.5145C237.981 28.5654 234.759 29.9822 232.266 28.2952" stroke="#09162B" stroke-width="0.615068" stroke-linecap="round" stroke-linejoin="round"/>
<path d="M268.555 27.7404C265.554 25.7651 261.749 24.2867 258.167 23.3636C257.157 23.1032 256.34 23.2552 255.331 22.8088C254.474 22.4298 253.814 22.3562 252.939 22.1307C251.305 21.7095 249.842 21.0622 248.155 20.7437C246.847 20.4967 245.123 20.0811 244.02 19.4183C242.952 18.776 241.74 18.9207 240.638 18.3087C239.757 17.8197 238.473 17.7683 237.494 17.4148C235.502 16.6961 233.003 16.7087 230.882 16.2127C227.417 15.4024 223.938 14.3101 220.409 13.8856C218.935 13.7084 217.549 13.4346 216.12 13.038C215.379 12.8324 214.516 12.5618 213.745 12.4986C212.373 12.3861 211.192 11.7271 209.884 11.651C206.134 11.4328 202.449 10.8188 198.574 10.8188C194.485 10.8188 190.396 10.8188 186.306 10.8188C178.779 10.8188 170.941 10.7797 163.737 12.8685C162.236 13.3036 160.349 12.5973 158.936 13.1767C157.226 13.878 155.3 13.7506 153.554 14.3017C151.757 14.869 149.87 15.3791 148.018 15.7966C146.083 16.2331 143.806 16.6437 141.987 17.3532C141.416 17.5762 140.688 17.5339 140.074 17.6922C139.47 17.8478 138.718 18.2249 138.16 18.3087C136.441 18.5671 134.87 19.7331 133.24 20.2505C131.902 20.6752 130.314 21.8458 128.934 21.9149C128.236 21.9499 127.361 22.5108 126.713 22.7472C125.272 23.2726 123.742 23.6671 122.339 24.2575C118.06 26.0588 113.919 28.4848 109.423 29.9597C108.261 30.3407 107.079 30.8736 106.04 31.47C104.614 32.2884 103.16 33.8565 101.564 34.3365C98.8167 35.1624 96.1915 36.9165 93.8753 38.4976C91.16 40.3511 87.9928 41.5995 85.2644 43.3367C82.5255 45.0807 80.3154 47.4526 77.4735 49.1006C76.3776 49.7361 75.4037 50.4574 74.5007 51.3198C73.6507 52.1316 73.1439 53.4583 71.9892 54.1092C69.9906 55.236 68.4028 56.9417 66.6586 58.3782C65.807 59.0795 63.5124 60.2145 63.1219 61.1831C62.2946 63.2352 59.8935 64.6093 59.0556 66.7928C58.7191 67.6697 57.6088 70.9763 58.5772 71.5703C60.3938 72.6845 62.0464 73.5665 64.0445 74.4676C64.5994 74.7179 65.29 74.6217 65.8897 74.6217C67.0072 74.6217 67.9394 75.1766 69.0847 75.1766C70.4273 75.1766 71.7507 75.454 73.1168 75.454C74.0738 75.454 75.3328 75.2762 76.2263 75.6081C77.2306 75.9811 78.1948 75.9438 79.2333 76.1475C80.0805 76.3136 80.5236 76.8961 81.2664 77.0876C82.6286 77.4386 83.9093 77.6555 85.2986 78.0893C87.6456 78.8221 90.2986 79.8924 92.799 79.8924C94.1876 79.8924 95.5241 80.338 96.9165 80.4472C99.8272 80.6755 102.685 80.7246 105.613 80.7246C108.217 80.7246 110.822 80.8417 113.335 80.1082C117.697 78.8353 121.749 76.6774 125.961 75.0533C132.05 72.7055 138.634 70.8565 144.345 67.8408C151.721 63.9461 159.959 61.556 167.274 57.6384C173.848 54.1174 180.651 49.6314 188.22 48.1142C196.091 46.5366 203.633 45.7329 211.712 46.0799C222.747 46.5539 233.56 49.378 244.635 49.378C252.062 49.378 258.976 47.5857 265.462 44.2614C270.182 41.8424 271.63 38.1447 271.63 33.5659" stroke="#09162B" stroke-width="0.615068" stroke-linecap="round" stroke-linejoin="round"/>
<path d="M77.3027 62.9399C80.5358 59.5375 90.3401 58.2148 94.6613 56.3438C98.7214 55.6114 102.827 55.0846 106.894 54.3712C112.791 53.337 119.141 53.4563 124.902 52.0287C133.242 49.9621 140.507 49.3779 149.095 49.3779C154.719 49.3779 162.579 49.1551 159.073 55.4808C156.259 60.556 152.105 64.3088 148.001 68.5496C143.673 73.023 139.569 77.7521 134.948 81.9883C128.277 88.1048 122.462 94.5108 114.48 99.3107C111.214 101.275 108.029 104.298 105.22 106.831C102.751 109.059 98.522 110.284 96.3357 112.749C95.1756 114.057 89.7614 116.933 87.8614 117.065C85.3884 117.236 82.5619 119.497 80.5831 120.732C74.881 124.293 69.2333 127.609 62.5069 129.394C57.204 130.8 52.9207 134.851 47.1302 135.373C42.6022 135.782 36.3568 136.939 31.7876 135.651C26.5375 134.171 14.3251 133.091 10.2261 129.394C3.73369 123.537 14.4974 129.394 17.6069 128.592C19.1593 129.292 22.3046 128.716 24.0651 128.716C29.4541 128.716 34.8929 128.875 39.7494 126.928C40.9756 126.436 45.9344 120.979 44.0548 119.284C44.5101 118.873 50.0764 114.447 47.1302 114.29C44.8513 114.17 43.5404 115.955 41.3212 115.955C35.5009 115.955 29.4097 116.51 23.4501 116.51C19.5849 116.51 16.3811 116.174 12.6522 115.123C9.66792 114.281 6.16511 114.299 3.46033 112.626H6.53567C9.05763 112.626 12.0806 113.03 14.4974 112.349C16.6202 111.75 22.7264 112.215 20.9898 110.962C19.6992 110.03 16.7331 108.796 15.8984 107.633C15.5269 107.115 10.3696 103.42 8.075 102.218C7.33299 102.116 6.87033 101.999 7.01405 101.869C7.11661 101.776 7.50859 101.921 8.075 102.218C9.98779 102.48 13.7569 102.64 13.7798 102.64H23.6209C27.1653 102.64 30.2672 101.012 33.5645 99.8963C39.9613 97.7325 44.9587 95.0344 48.9754 90.0022C49.913 88.8276 51.7114 84.3308 48.9754 84.3308C46.0473 84.3308 43.0024 84.1445 40.1252 83.7452C36.7463 83.2763 33.3968 82.2326 29.9083 82.1116C28.036 82.0467 25.646 81.2681 23.7576 80.8787C21.5373 80.4209 19.1731 79.9039 17.0943 79.0602C12.0951 77.0309 6.96965 72.0975 6.53567 67.0085C6.30153 64.2629 5.9206 61.5406 5.9206 58.6864C5.9206 58.0877 5.74832 53.8775 6.53567 55.1726C12.6522 68.5496 22.2058 70.1112 24.5093 71.447C27.4633 73.1599 32.6175 73.2347 36.059 73.2347C37.6275 73.2347 47.3774 72.9326 47.1302 72.6799C45.2841 70.7926 44.9376 69.0322 43.7815 66.8852C43.2422 65.8836 42.6987 62.9517 42.073 62.2618C41.2308 61.3334 40.0034 60.7529 39.7835 59.3645C39.5598 57.9517 43.4819 60.9246 44.6699 61.4604C47.3976 62.6907 49.3783 63.3971 52.3583 63.8646C55.697 64.3883 58.2912 65.4674 61.8918 65.4674C64.4831 65.4674 67.1663 65.6467 69.751 65.4674C70.8759 65.3893 72.4828 64.2682 73.7148 63.9262C74.8446 63.6127 76.4451 63.8424 77.3027 62.9399Z" fill="#09162B"/>
<path d="M3.46033 112.626C4.48544 112.626 5.51055 112.626 6.53567 112.626C9.05763 112.626 12.0806 113.03 14.4974 112.349C16.6202 111.75 22.7264 112.215 20.9898 110.962C19.6992 110.03 16.7331 108.796 15.8984 107.633C15.4352 106.987 7.53209 101.402 7.01405 101.869C6.49983 102.333 13.7481 102.64 13.7798 102.64C17.0602 102.64 20.3405 102.64 23.6209 102.64C27.1653 102.64 30.2672 101.012 33.5645 99.8963C39.9613 97.7325 44.9587 95.0344 48.9754 90.0022C49.913 88.8276 51.7114 84.3308 48.9754 84.3308C46.0473 84.3308 43.0024 84.1445 40.1252 83.7452C36.7463 83.2763 33.3968 82.2326 29.9083 82.1116C28.036 82.0467 25.646 81.2681 23.7576 80.8787C21.5373 80.4209 19.1731 79.9039 17.0943 79.0602C12.0951 77.0309 6.96965 72.0975 6.53567 67.0085C6.30153 64.2629 5.9206 61.5406 5.9206 58.6864C5.9206 58.0877 5.74832 53.8775 6.53567 55.1726C12.6522 68.5496 22.2058 70.1112 24.5093 71.447C27.4633 73.1599 32.6175 73.2347 36.059 73.2347C37.6275 73.2347 47.3774 72.9326 47.1302 72.6799C45.2841 70.7926 44.9376 69.0322 43.7815 66.8852C43.2422 65.8836 42.6987 62.9517 42.073 62.2618C41.2308 61.3334 40.0034 60.7529 39.7835 59.3645C39.5598 57.9517 43.4819 60.9246 44.6699 61.4604C47.3976 62.6907 49.3783 63.3971 52.3583 63.8646C55.697 64.3883 58.2912 65.4674 61.8918 65.4674C64.4831 65.4674 67.1663 65.6467 69.751 65.4674C70.8759 65.3893 72.4828 64.2682 73.7148 63.9262C74.8446 63.6127 76.4451 63.8424 77.3027 62.9399C80.5358 59.5375 90.3401 58.2148 94.6613 56.3438C98.7214 55.6114 102.827 55.0846 106.894 54.3712C112.791 53.337 119.141 53.4563 124.902 52.0287C133.242 49.9621 140.507 49.3779 149.095 49.3779C154.719 49.3779 162.579 49.1551 159.073 55.4808C156.259 60.556 152.105 64.3088 148.001 68.5496C143.673 73.023 139.569 77.7521 134.948 81.9883C128.277 88.1048 122.462 94.5108 114.48 99.3107C111.214 101.275 108.029 104.298 105.22 106.831C102.751 109.059 98.522 110.284 96.3357 112.749C95.1756 114.057 89.7614 116.933 87.8614 117.065C85.3884 117.236 82.5619 119.497 80.5831 120.732C74.881 124.293 69.2333 127.609 62.5069 129.394C57.204 130.8 52.9207 134.851 47.1302 135.373C42.6022 135.782 36.3568 136.939 31.7876 135.651C26.5375 134.171 14.3251 133.091 10.2261 129.394C3.73369 123.537 14.4974 129.394 17.6069 128.592C19.1593 129.292 22.3046 128.716 24.0651 128.716C29.4541 128.716 34.8929 128.875 39.7494 126.928C40.9756 126.436 45.9344 120.979 44.0548 119.284C44.5101 118.873 50.0764 114.447 47.1302 114.29C44.8513 114.17 43.5404 115.955 41.3212 115.955C35.5009 115.955 29.4097 116.51 23.4501 116.51C19.5849 116.51 16.3811 116.174 12.6522 115.123C9.66792 114.281 6.16511 114.299 3.46033 112.626ZM3.46033 112.626C1.37129 112.626 2.15351 111.818 3.46033 112.626Z" stroke="#09162B" stroke-width="0.615068" stroke-linecap="round" stroke-linejoin="round"/>
<path d="M151.077 78.7828C141.243 84.6437 143.787 79.8924 132.01 79.8924C115.087 79.8924 125.216 101.344 137.887 94.0709C141.055 92.2524 146.567 93.3412 150.154 92.6222C153.028 92.0462 155.198 89.9917 157.569 88.7694C160.499 87.259 164.24 88.8177 167.068 86.5501C168.991 85.0089 174.313 84.3258 174.449 81.1253C174.543 78.9317 174.435 77.6262 173.219 75.7622C171.381 72.9431 166.071 74.0206 162.9 74.4676C158.577 75.0769 154.672 76.6399 151.077 78.7828Z" fill="#09162B" stroke="#09162B" stroke-width="0.615068" stroke-linecap="round" stroke-linejoin="round"/>
<path d="M312.361 147.271C309.267 152.294 298.088 148.377 294.388 146.469C294.388 149.335 295.618 151.459 295.618 154.237C295.618 155.932 297.991 158.606 300.06 158.675C301.05 158.708 303.701 159.089 304.502 158.367C305.795 157.201 305.197 156.456 307.441 156.456C310.641 156.456 312.714 157.566 315.778 157.566C318.408 157.566 323.296 158.53 323.296 155.346C323.296 152.175 322.746 149.683 320.221 147.271C318.911 146.02 313.373 145.628 312.361 147.271Z" fill="#09162B" stroke="#09162B" stroke-width="0.615068" stroke-linecap="round" stroke-linejoin="round"/>
<path d="M158.5 288.5C158.5 296.677 152.292 303 145 303C137.708 303 131.5 296.677 131.5 288.5C131.5 280.323 137.708 274 145 274C152.292 274 158.5 280.323 158.5 288.5Z" fill="#FF7A50" stroke="#09162B" stroke-width="6"/>
<rect x="165.652" y="183.001" width="21" height="3.6" rx="1.8" transform="rotate(-45 165.652 183.001)" fill="#09162B"/>
<rect x="180.501" y="185.547" width="21" height="3.6" rx="1.8" transform="rotate(-135 180.501 185.547)" fill="#09162B"/>
<rect x="94.9514" y="188.701" width="16.3336" height="3.6" rx="1.8" transform="rotate(-45 94.9514 188.701)" fill="#09162B"/>
<rect x="106.501" y="194.547" width="16.474" height="3.6" rx="1.8" transform="rotate(-135 106.501 194.547)" fill="#09162B"/>
<path d="M39.308 319.501C39.3096 321.437 38.952 323.15 38.2353 324.641C37.5186 326.132 36.4972 327.283 35.171 328.093C33.8539 328.894 32.3501 329.295 30.6598 329.296C28.9694 329.298 27.4696 328.913 26.1603 328.141C24.8509 327.361 23.8276 326.248 23.0903 324.804C22.362 323.36 21.9789 321.701 21.941 319.829L21.9401 318.711C21.9385 316.767 22.2915 315.053 22.9991 313.571C23.7158 312.08 24.7373 310.93 26.0635 310.12C27.3987 309.31 28.9161 308.904 30.6155 308.903C32.2968 308.901 33.7967 309.3 35.1151 310.099C36.4335 310.897 37.4569 312.037 38.1852 313.518C38.9225 314.989 39.2965 316.679 39.3072 318.588L39.308 319.501ZM34.4406 318.674C34.439 316.702 34.106 315.207 33.4418 314.19C32.7866 313.163 31.8455 312.651 30.6187 312.652C28.2194 312.654 26.9531 314.454 26.8198 318.053L26.8074 319.512C26.809 321.456 27.1329 322.951 27.779 323.996C28.4251 325.04 29.3844 325.562 30.6567 325.561C31.8654 325.56 32.7965 325.046 33.45 324.018C34.1034 322.991 34.4339 321.514 34.4414 319.587L34.4406 318.674ZM57.3345 309.153L57.3453 322.144C57.3465 323.617 57.0341 324.894 56.4079 325.976C55.7817 327.049 54.8827 327.867 53.7108 328.432C52.5389 328.996 51.1532 329.279 49.5537 329.281C47.1363 329.283 45.2319 328.657 43.8404 327.404C42.4489 326.151 41.7386 324.434 41.7095 322.253L41.6986 309.166L46.5107 309.162L46.5217 322.344C46.578 324.516 47.5877 325.602 49.5507 325.6C50.5413 325.599 51.2908 325.326 51.7993 324.78C52.3078 324.234 52.5615 323.348 52.5605 322.121L52.5497 309.157L57.3345 309.153ZM76.403 322.265C76.3405 323.646 75.9689 324.869 75.2882 325.933C74.6075 326.988 73.6494 327.806 72.4139 328.389C71.1875 328.972 69.7837 329.264 68.2023 329.265C65.5941 329.267 63.5395 328.419 62.0385 326.721C60.5376 325.023 59.7859 322.624 59.7833 319.525L59.7825 318.544C59.7808 316.599 60.1157 314.899 60.787 313.444C61.4674 311.981 62.4434 310.853 63.7151 310.061C64.9867 309.26 66.4586 308.859 68.1308 308.858C70.5391 308.856 72.4754 309.49 73.9397 310.762C75.4039 312.024 76.2369 313.768 76.4387 315.994L71.6675 315.998C71.6301 314.789 71.3249 313.922 70.7519 313.395C70.179 312.869 69.3063 312.606 68.1339 312.607C66.9434 312.608 66.0713 313.054 65.5177 313.945C64.9641 314.836 64.6745 316.258 64.6488 318.212L64.65 319.616C64.6517 321.734 64.9166 323.247 65.4444 324.155C65.9814 325.064 66.8996 325.517 68.1992 325.516C69.2989 325.515 70.1393 325.256 70.7205 324.737C71.3017 324.219 71.61 323.396 71.6454 322.269L76.403 322.265ZM95.2616 328.97L90.5041 328.974L90.4972 320.686L83.4494 320.691L83.4563 328.98L78.6715 328.984L78.655 309.135L83.4398 309.131L83.4464 317.011L90.4941 317.005L90.4876 309.126L95.2451 309.122L95.2616 328.97Z" fill="white"/>
<path d="M337.071 302.314L340.116 308.32L335.848 310.483L326.875 292.779L333.939 289.199C335.293 288.513 336.616 288.158 337.908 288.135C339.205 288.099 340.371 288.4 341.407 289.036C342.446 289.66 343.262 290.556 343.854 291.724C344.729 293.45 344.809 295.147 344.095 296.813C343.385 298.467 341.951 299.84 339.795 300.933L337.071 302.314ZM335.401 299.018L338.198 297.601C339.025 297.182 339.548 296.657 339.768 296.026C339.996 295.39 339.919 294.696 339.537 293.942C339.118 293.115 338.56 292.567 337.864 292.299C337.168 292.03 336.432 292.087 335.658 292.469L332.813 293.911L335.401 299.018ZM362.759 286.176C363.634 287.903 364.089 289.593 364.122 291.247C364.155 292.901 363.763 294.389 362.945 295.71C362.132 297.019 360.971 298.056 359.463 298.82C357.955 299.584 356.443 299.918 354.926 299.82C353.406 299.715 351.991 299.184 350.681 298.228C349.379 297.268 348.289 295.961 347.41 294.307L346.905 293.31C346.025 291.576 345.567 289.887 345.53 288.245C345.496 286.591 345.888 285.104 346.706 283.783C347.532 282.457 348.703 281.41 350.219 280.642C351.719 279.882 353.237 279.561 354.774 279.678C356.311 279.796 357.739 280.351 359.057 281.344C360.379 282.324 361.475 283.663 362.346 285.362L362.759 286.176ZM358.042 287.635C357.151 285.876 356.179 284.692 355.127 284.084C354.079 283.464 353.008 283.431 351.914 283.986C349.774 285.07 349.456 287.249 350.962 290.52L351.609 291.828C352.488 293.562 353.452 294.75 354.5 295.39C355.548 296.031 356.639 296.064 357.774 295.488C358.852 294.942 359.451 294.063 359.571 292.851C359.69 291.639 359.318 290.172 358.455 288.449L358.042 287.635ZM379.631 279.994L376.035 267.863L380.267 265.719L385.482 285.327L381.056 287.57L373.57 278.68L376.363 289.949L371.949 292.186L359.207 276.392L363.45 274.242L371.107 284.314L367.913 271.98L371.536 270.143L379.631 279.994ZM351.804 332.347L348.485 334.03L341.83 322.196L346.195 319.984L351.804 332.347ZM349.751 338.126C349.447 337.526 349.413 336.927 349.649 336.328C349.89 335.717 350.334 335.247 350.983 334.918C351.631 334.59 352.269 334.511 352.896 334.682C353.527 334.842 353.994 335.221 354.298 335.821C354.602 336.421 354.634 337.026 354.394 337.637C354.157 338.236 353.714 338.7 353.066 339.028C352.417 339.357 351.778 339.442 351.147 339.283C350.52 339.111 350.055 338.726 349.751 338.126ZM358.686 328.859L355.367 330.542L348.712 318.708L353.077 316.495L358.686 328.859ZM356.633 334.638C356.329 334.038 356.295 333.438 356.532 332.84C356.772 332.229 357.217 331.759 357.865 331.43C358.514 331.102 359.151 331.023 359.778 331.194C360.409 331.353 360.877 331.733 361.181 332.333C361.485 332.933 361.516 333.538 361.276 334.149C361.039 334.748 360.597 335.211 359.948 335.54C359.3 335.869 358.66 335.954 358.029 335.794C357.402 335.623 356.937 335.237 356.633 334.638Z" fill="white"/>
<path d="M371 138.656C374.565 136.532 375.895 136.316 379.104 138.801C380.724 140.055 381.894 140.633 382.186 142.916C382.434 144.855 382.461 148.539 380.94 149.992C380.064 150.829 376.323 151.003 377.511 151.003C380.992 151.003 388.363 151.57 389.632 156.202C390.577 159.649 389.82 164 385.961 164" stroke="#7289DA" stroke-width="6" stroke-linecap="round" stroke-linejoin="round"/>
<path d="M4 188C8.62459 180.53 19.8347 171.281 24.9444 184.056C25.4785 185.391 27.6379 192.886 24.7778 193C21.1771 193.144 20 193.243 20 189.444C20 184.046 25.0105 176.222 31.2222 176" stroke="#F9DC93" stroke-width="6" stroke-linecap="round" stroke-linejoin="round"/>
<path d="M351 239C360.348 233.391 369.491 234 380 234" stroke="#46E9C2" stroke-width="6" stroke-linecap="round" stroke-linejoin="round"/>
<path d="M58 248C49.5132 245.229 45.4557 244.408 38 250" stroke="#FD89AB" stroke-width="6" stroke-linecap="round" stroke-linejoin="round"/>
</svg>
