<svg xmlns="http://www.w3.org/2000/svg" width="449" height="494" fill="none" viewBox="0 0 449 494"><rect width="159.93" height="159.93" x="168.85" y="136.606" fill="#F9CF9D" rx="53.31"/><rect width="23.017" height="174.268" x="103.868" y="281.468" fill="#7A2544" rx="11.508" transform="rotate(15.4147 103.868 281.468)"/><circle cx="88.567" cy="287.481" r="27.949" fill="#C27431" stroke="#7A2544" stroke-width="16.44" transform="rotate(15.4147 88.5667 287.481)"/><path stroke="#000" stroke-linecap="round" stroke-linejoin="round" stroke-width="4" d="M240 209L224 225"/><path stroke="#000" stroke-linecap="round" stroke-linejoin="round" stroke-width="4" d="M224 209L240 225"/><path stroke="#000" stroke-linecap="round" stroke-linejoin="round" stroke-width="4" d="M202 209L186 225"/><path stroke="#000" stroke-linecap="round" stroke-linejoin="round" stroke-width="4" d="M186 209L202 225"/><path fill="#F9CF9D" d="M91.493 348.998C93.3635 341.98 100.57 337.806 107.589 339.677L136.183 347.297L122.636 398.132L94.041 390.511C87.0221 388.641 82.8486 381.435 84.7192 374.416L91.493 348.998Z"/><path fill="#6176CF" d="M114.821 343.592C114.887 341.417 117.01 339.904 119.087 340.552L168.312 355.911C173.513 357.534 176.413 363.065 174.79 368.266L161.695 410.238C160.223 414.954 155.49 417.854 150.62 417.024L121.262 412.019C116.411 411.192 112.912 406.916 113.06 401.997L114.821 343.592Z"/><path fill="#6176CF" d="M158.188 264.549C158.188 261.605 160.575 259.218 163.519 259.218H339.442C342.386 259.218 344.773 261.605 344.773 264.549V307.197C344.773 321.918 332.839 333.852 318.118 333.852H184.843C170.122 333.852 158.188 321.918 158.188 307.197V264.549Z"/><path fill="#6176CF" d="M136.864 355.176C136.864 331.622 155.958 312.528 179.512 312.528H328.779C352.333 312.528 371.427 331.622 371.427 355.176V488.451C371.427 491.395 369.041 493.782 366.096 493.782H142.195C139.251 493.782 136.864 491.395 136.864 488.451V355.176Z"/><path fill="#7289DA" d="M152.857 264.549C152.857 261.605 155.244 259.218 158.188 259.218H275.47C278.414 259.218 280.801 261.605 280.801 264.549V307.197C280.801 321.918 268.867 333.852 254.146 333.852H179.512C164.791 333.852 152.857 321.918 152.857 307.197V264.549Z"/><path fill="#7289DA" d="M136.864 355.176C136.864 331.622 155.958 312.528 179.512 312.528H254.146C277.699 312.528 296.793 331.622 296.793 355.176V488.451C296.793 491.395 294.407 493.782 291.462 493.782H142.195C139.251 493.782 136.864 491.395 136.864 488.451V355.176Z"/><path fill="#000" d="M328.779 184.584H302.124V195.246C302.124 209.968 314.058 221.901 328.779 221.901V221.901V184.584Z"/><ellipse cx="178.264" cy="161.693" fill="#000" rx="23.989" ry="10.649" transform="rotate(-9.40499 178.264 161.693)"/><path fill="#EB5050" d="M270.782 45.1853C279.285 37.6031 292.763 41.0896 296.523 51.8438L346.545 194.925L295.931 172.232C267.59 159.525 237.247 151.87 206.27 149.61L157.654 146.065L270.782 45.1853Z"/><path fill="#7A2544" d="M158.37 143.295C223.765 109.356 304.165 128.674 347.002 188.618L350.045 192.876L342.005 187.402C289.146 151.415 225.111 135.63 161.582 142.927L158.37 143.295V143.295Z"/><ellipse cx="250.187" cy="170" fill="#EB5050" rx="122.886" ry="20.022" transform="rotate(14.5029 250.187 170)"/><rect width="46.734" height="34.887" x="98.308" y="182.269" fill="#5293F4" stroke="#000" stroke-width="6.576" rx="3.288" transform="rotate(-22.8748 98.3076 182.269)"/><rect width="46.734" height="34.887" x="152.337" y="159.474" fill="#EF3E72" stroke="#000" stroke-width="6.576" rx="3.288" transform="rotate(-22.8748 152.337 159.474)"/><line x1="148.056" x2="152.968" y1="171.501" y2="169.428" stroke="#000" stroke-width="6.576"/><rect width="55.897" height="49.321" x="274.165" y="392.568" fill="#F9CF9D" rx="13.152"/><path fill="#fff" d="M37.5096 355.89C37.5107 357.212 37.2665 358.382 36.777 359.401C36.2876 360.419 35.59 361.204 34.6843 361.758C33.7848 362.305 32.7579 362.578 31.6035 362.579C30.4491 362.58 29.4248 362.317 28.5306 361.791C27.6364 361.258 26.9376 360.498 26.434 359.512C25.9367 358.525 25.6751 357.393 25.6492 356.114L25.6486 355.351C25.6475 354.023 25.8885 352.852 26.3718 351.84C26.8613 350.822 27.5588 350.036 28.4645 349.483C29.3764 348.93 30.4127 348.653 31.5733 348.652C32.7215 348.651 33.7458 348.923 34.6462 349.469C35.5465 350.014 36.2454 350.793 36.7428 351.804C37.2463 352.809 37.5018 353.963 37.5091 355.266L37.5096 355.89ZM34.1855 355.325C34.1844 353.978 33.957 352.957 33.5034 352.263C33.0559 351.562 32.4133 351.212 31.5754 351.212C29.9369 351.214 29.0721 352.443 28.9811 354.901L28.9726 355.897C28.9737 357.225 29.1949 358.246 29.6361 358.96C30.0774 359.673 30.7324 360.029 31.6014 360.029C32.4268 360.028 33.0627 359.677 33.509 358.975C33.9553 358.273 34.1809 357.265 34.1861 355.949L34.1855 355.325ZM49.8204 348.823L49.8278 357.695C49.8287 358.701 49.6153 359.573 49.1876 360.312C48.76 361.045 48.146 361.604 47.3457 361.989C46.5454 362.375 45.5991 362.568 44.5067 362.569C42.8558 362.57 41.5552 362.143 40.6049 361.287C39.6546 360.432 39.1695 359.259 39.1497 357.769L39.1422 348.832L42.4285 348.829L42.436 357.832C42.4745 359.315 43.164 360.056 44.5046 360.055C45.1811 360.055 45.693 359.868 46.0403 359.495C46.3875 359.123 46.5608 358.517 46.5601 357.679L46.5527 348.826L49.8204 348.823ZM62.8429 357.778C62.8002 358.721 62.5464 359.556 62.0816 360.283C61.6167 361.003 60.9624 361.562 60.1186 361.96C59.2811 362.358 58.3223 362.557 57.2424 362.558C55.4612 362.56 54.058 361.98 53.033 360.821C52.0079 359.661 51.4945 358.023 51.4928 355.906L51.4922 355.236C51.4911 353.908 51.7198 352.747 52.1782 351.754C52.6429 350.754 53.3095 349.984 54.1779 349.443C55.0464 348.896 56.0516 348.622 57.1936 348.622C58.8383 348.62 60.1606 349.053 61.1606 349.922C62.1606 350.783 62.7294 351.975 62.8672 353.495L59.6088 353.498C59.5833 352.672 59.3749 352.08 58.9836 351.72C58.5923 351.361 57.9963 351.181 57.1957 351.182C56.3827 351.182 55.7871 351.487 55.409 352.096C55.0309 352.704 54.8331 353.676 54.8156 355.01L54.8164 355.969C54.8176 357.415 54.9985 358.448 55.3589 359.069C55.7256 359.689 56.3528 359.999 57.2403 359.998C57.9913 359.997 58.5652 359.82 58.9621 359.466C59.3591 359.112 59.5696 358.55 59.5938 357.78L62.8429 357.778ZM75.722 362.357L72.4729 362.359L72.4682 356.699L67.6551 356.703L67.6598 362.363L64.3921 362.366L64.3808 348.811L67.6485 348.808L67.653 354.189L72.4661 354.185L72.4617 348.804L75.7107 348.802L75.722 362.357Z"/><path fill="#fff" d="M405.32 365.757L407.65 370.353L404.384 372.008L397.518 358.462L402.924 355.723C403.96 355.198 404.972 354.926 405.961 354.908C406.953 354.881 407.845 355.111 408.638 355.598C409.433 356.076 410.057 356.761 410.51 357.654C411.18 358.976 411.241 360.274 410.694 361.548C410.151 362.814 409.054 363.865 407.404 364.701L405.32 365.757ZM404.042 363.236L406.182 362.151C406.815 361.831 407.215 361.429 407.384 360.946C407.559 360.46 407.5 359.929 407.207 359.352C406.887 358.719 406.46 358.3 405.927 358.095C405.394 357.889 404.831 357.933 404.239 358.225L402.062 359.328L404.042 363.236ZM424.975 353.41C425.645 354.731 425.993 356.024 426.018 357.29C426.044 358.556 425.744 359.694 425.118 360.705C424.495 361.706 423.607 362.5 422.453 363.084C421.3 363.669 420.143 363.924 418.982 363.85C417.819 363.769 416.736 363.363 415.734 362.631C414.738 361.896 413.903 360.897 413.231 359.631L412.844 358.869C412.172 357.541 411.821 356.249 411.792 354.993C411.767 353.728 412.067 352.589 412.693 351.578C413.325 350.564 414.22 349.763 415.38 349.175C416.528 348.594 417.69 348.348 418.866 348.438C420.042 348.528 421.134 348.953 422.142 349.712C423.154 350.463 423.993 351.487 424.659 352.787L424.975 353.41ZM421.366 354.526C420.684 353.18 419.941 352.274 419.136 351.809C418.334 351.335 417.514 351.31 416.677 351.734C415.04 352.564 414.797 354.231 415.949 356.734L416.444 357.734C417.117 359.061 417.854 359.97 418.656 360.46C419.458 360.95 420.293 360.975 421.161 360.535C421.986 360.117 422.444 359.444 422.536 358.517C422.627 357.59 422.343 356.467 421.682 355.149L421.366 354.526ZM437.885 348.68L435.133 339.398L438.371 337.757L442.362 352.76L438.975 354.477L433.247 347.674L435.384 356.297L432.007 358.008L422.257 345.924L425.504 344.278L431.363 351.985L428.919 342.548L431.691 341.143L437.885 348.68ZM416.48 388.515L413.94 389.802L408.848 380.748L412.188 379.055L416.48 388.515ZM414.909 392.936C414.676 392.477 414.651 392.018 414.832 391.56C415.016 391.093 415.356 390.733 415.852 390.482C416.348 390.23 416.836 390.17 417.316 390.301C417.798 390.423 418.156 390.713 418.389 391.172C418.621 391.631 418.646 392.095 418.462 392.562C418.281 393.02 417.942 393.375 417.446 393.627C416.95 393.878 416.46 393.943 415.977 393.821C415.498 393.69 415.142 393.395 414.909 392.936ZM421.746 385.846L419.206 387.133L414.114 378.079L417.454 376.386L421.746 385.846ZM420.175 390.267C419.942 389.808 419.916 389.35 420.097 388.891C420.282 388.424 420.622 388.064 421.118 387.813C421.614 387.562 422.102 387.501 422.582 387.632C423.064 387.754 423.422 388.045 423.655 388.504C423.887 388.963 423.911 389.426 423.727 389.893C423.546 390.351 423.208 390.706 422.712 390.958C422.215 391.209 421.726 391.274 421.243 391.152C420.764 391.021 420.408 390.726 420.175 390.267Z"/><path stroke="#7289DA" stroke-linecap="round" stroke-linejoin="round" stroke-width="9.214" d="M392 111.544C397.476 108.282 399.517 107.949 404.446 111.765C406.934 113.692 408.731 114.579 409.179 118.086C409.56 121.063 409.601 126.721 407.265 128.953C405.92 130.237 400.175 130.505 401.999 130.505C407.345 130.505 418.665 131.375 420.614 138.489C422.065 143.782 420.902 150.465 414.977 150.465"/><path stroke="#F9DC93" stroke-linecap="round" stroke-linejoin="round" stroke-width="9.214" d="M38 148.429C45.1021 136.956 62.3178 122.753 70.1649 142.371C70.985 144.421 74.3014 155.932 69.909 156.107C64.3793 156.329 62.5716 156.48 62.5716 150.647C62.5716 142.357 70.2664 130.341 79.8059 130"/><path stroke="#46E9C2" stroke-linecap="round" stroke-linejoin="round" stroke-width="9.214" d="M392 266.708C406.355 258.095 420.397 259.03 436.536 259.03"/><path stroke="#FD89AB" stroke-linecap="round" stroke-linejoin="round" stroke-width="9.214" d="M55.7145 236.305C42.6811 232.049 36.4499 230.789 25 239.376"/></svg>