<svg xmlns="http://www.w3.org/2000/svg" width="112" height="188" fill="none" viewBox="0 0 112 188"><rect width="112" height="87" y="101" fill="#8C9DDE" rx="10"/><rect width="84" height="175" x="14" fill="#AEEED7" rx="8"/><rect width="84" height="66" x="14" fill="#D6E8CF" rx="8"/><rect width="8" height="20" x="64" y="58" fill="#D6E8CF" rx="4"/><rect width="8" height="28" x="75" y="58" fill="#D6E8CF" rx="4"/><rect width="42" height="6" x="35" y="95" fill="#fff"/><rect width="42" height="6" x="35" y="146" fill="#fff"/><rect width="42" height="6" x="35" y="132" fill="#fff"/><rect width="28" height="6" x="35" y="112" fill="#fff"/><rect width="40" height="6" x="71" y="138" fill="#fff" transform="rotate(-90 71 138)"/><rect width="26" height="6" x="35" y="138" fill="#fff" transform="rotate(-90 35 138)"/><rect width="12" height="6" x="57" y="124" fill="#fff" transform="rotate(-90 57 124)"/></svg>