<svg width="93" height="102" viewBox="0 0 93 102" fill="none" xmlns="http://www.w3.org/2000/svg">
<ellipse rx="25.5" ry="8.5" transform="matrix(-1 3.41878e-08 3.41878e-08 1 33.4874 68.8691)" fill="#E38F33"/>
<path d="M65.0948 40.908L48.7117 29.4365L19.3294 71.2071L30.8019 71.7784L43.0174 72.4377L65.0948 40.908Z" fill="white"/>
<path d="M65.0948 40.908L56.5882 34.9516L30.8019 71.7783L43.0174 72.4377L65.0948 40.908Z" fill="#BCCFE8"/>
<path d="M73.9423 42.22C74.5758 41.3152 74.3559 40.0681 73.4511 39.4345L47.2382 21.0801C46.3334 20.4465 45.0863 20.6664 44.4528 21.5712L42.1585 24.8478L71.648 45.4966L73.9423 42.22Z" fill="#7A2544"/>
<path d="M47.975 25.2583L43.8792 22.3904L40.151 27.7149C39.359 28.8459 39.6339 30.4048 40.7649 31.1967V31.1967C41.8959 31.9887 43.4548 31.7138 44.2467 30.5828L47.975 25.2583Z" fill="#7A2544"/>
<path d="M72.7986 19.4452C73.7489 18.088 73.419 16.2173 72.0618 15.267L70.4235 14.1198C69.0663 13.1695 67.1957 13.4994 66.2453 14.8566L57.0681 27.963C56.1178 29.3202 56.4476 31.1909 57.8048 32.1412L59.4431 33.2883C60.8004 34.2387 62.671 33.9088 63.6213 32.5516L72.7986 19.4452Z" fill="#7A2544"/>
<path d="M73.3687 43.0391L69.273 40.1712L65.5447 45.4957C64.7528 46.6267 65.0276 48.1856 66.1586 48.9776V48.9776C67.2897 49.7695 68.8485 49.4946 69.6405 48.3636L73.3687 43.0391Z" fill="#7A2544"/>
</svg>
