<svg xmlns="http://www.w3.org/2000/svg" width="2037" height="171" fill="none" viewBox="0 0 2037 171"><rect width="2035.77" height="49.921" y="34.537" fill="#BCCFE8"/><path fill="#BCCFE8" d="M158.302 0.611111C118.727 18.6147 87.0663 28.7682 0 35.9603H364.095C196.295 20.307 194.003 7.55369 175.188 2.63241C171.29 1.61285 162.942 -0.71737 158.302 0.611111Z"/><path fill="#BCCFE8" d="M419.501 0.398953C379.926 18.4026 348.265 28.5561 261.199 35.7481H625.294C457.494 20.0948 455.202 7.34153 436.387 2.42025C432.489 1.40069 424.141 -0.929528 419.501 0.398953Z"/><path fill="#BCCFE8" d="M721.859 0.398953C682.283 18.4026 650.623 28.5561 563.557 35.7481H927.652C759.852 20.0948 757.56 7.34153 738.745 2.42025C734.847 1.40069 726.499 -0.929528 721.859 0.398953Z"/><path fill="#BCCFE8" d="M978.309 0.398953C938.733 18.4026 907.073 28.5561 820.006 35.7481H1184.1C1016.3 20.0948 1014.01 7.34153 995.194 2.42025C991.296 1.40069 982.948 -0.929528 978.309 0.398953Z"/><path fill="#BCCFE8" d="M1263.25 0.398953C1223.68 18.4026 1192.02 28.5561 1104.95 35.7481H1469.05C1301.25 20.0948 1298.95 7.34153 1280.14 2.42025C1276.24 1.40069 1267.89 -0.929528 1263.25 0.398953Z"/><path fill="#BCCFE8" d="M1541.87 0.398953C1502.29 18.4026 1470.63 28.5561 1383.56 35.7481H1747.66C1579.86 20.0948 1577.57 7.34153 1558.75 2.42025C1554.85 1.40069 1546.5 -0.929528 1541.87 0.398953Z"/><path fill="#BCCFE8" d="M1826.81 0.822049C1787.23 18.8257 1755.57 28.9792 1668.51 36.1712H2032.6C1864.8 20.5179 1862.51 7.76463 1843.69 2.84334C1839.8 1.82378 1831.45 -0.506432 1826.81 0.822049Z"/><rect width="2035.77" height="49.921" y="77.537" fill="#7289DA"/><path fill="#7289DA" d="M158.302 43.6111C118.727 61.6147 87.0663 71.7682 0 78.9603H364.095C196.295 63.307 194.003 50.5537 175.188 45.6324C171.29 44.6128 162.942 42.2826 158.302 43.6111Z"/><path fill="#7289DA" d="M419.501 43.399C379.926 61.4026 348.265 71.5561 261.199 78.7481H625.294C457.494 63.0948 455.202 50.3415 436.387 45.4202C432.489 44.4007 424.141 42.0705 419.501 43.399Z"/><path fill="#7289DA" d="M721.859 43.399C682.283 61.4026 650.623 71.5561 563.557 78.7481H927.652C759.852 63.0948 757.56 50.3415 738.745 45.4202C734.847 44.4007 726.499 42.0705 721.859 43.399Z"/><path fill="#7289DA" d="M978.309 43.399C938.733 61.4026 907.073 71.5561 820.006 78.7481H1184.1C1016.3 63.0948 1014.01 50.3415 995.194 45.4202C991.296 44.4007 982.948 42.0705 978.309 43.399Z"/><path fill="#7289DA" d="M1263.25 43.399C1223.68 61.4026 1192.02 71.5561 1104.95 78.7481H1469.05C1301.25 63.0948 1298.95 50.3415 1280.14 45.4202C1276.24 44.4007 1267.89 42.0705 1263.25 43.399Z"/><path fill="#7289DA" d="M1541.87 43.399C1502.29 61.4026 1470.63 71.5561 1383.56 78.7481H1747.66C1579.86 63.0948 1577.57 50.3415 1558.75 45.4202C1554.85 44.4007 1546.5 42.0705 1541.87 43.399Z"/><path fill="#7289DA" d="M1826.81 43.822C1787.23 61.8257 1755.57 71.9792 1668.51 79.1712H2032.6C1864.8 63.5179 1862.51 50.7646 1843.69 45.8433C1839.8 44.8238 1831.45 42.4936 1826.81 43.822Z"/><rect width="2035.77" height="49.921" y="120.537" fill="#6176CF"/><path fill="#6176CF" d="M158.302 86.6111C118.727 104.615 87.0663 114.768 0 121.96H364.095C196.295 106.307 194.003 93.5537 175.188 88.6324C171.29 87.6128 162.942 85.2826 158.302 86.6111Z"/><path fill="#6176CF" d="M419.501 86.399C379.926 104.403 348.265 114.556 261.199 121.748H625.294C457.494 106.095 455.202 93.3415 436.387 88.4202C432.489 87.4007 424.141 85.0705 419.501 86.399Z"/><path fill="#6176CF" d="M721.859 86.399C682.283 104.403 650.623 114.556 563.557 121.748H927.652C759.852 106.095 757.56 93.3415 738.745 88.4202C734.847 87.4007 726.499 85.0705 721.859 86.399Z"/><path fill="#6176CF" d="M978.309 86.399C938.733 104.403 907.073 114.556 820.006 121.748H1184.1C1016.3 106.095 1014.01 93.3415 995.194 88.4202C991.296 87.4007 982.948 85.0705 978.309 86.399Z"/><path fill="#6176CF" d="M1263.25 86.399C1223.68 104.403 1192.02 114.556 1104.95 121.748H1469.05C1301.25 106.095 1298.95 93.3415 1280.14 88.4202C1276.24 87.4007 1267.89 85.0705 1263.25 86.399Z"/><path fill="#6176CF" d="M1541.87 86.399C1502.29 104.403 1470.63 114.556 1383.56 121.748H1747.66C1579.86 106.095 1577.57 93.3415 1558.75 88.4202C1554.85 87.4007 1546.5 85.0705 1541.87 86.399Z"/><path fill="#6176CF" d="M1826.81 86.822C1787.23 104.826 1755.57 114.979 1668.51 122.171H2032.6C1864.8 106.518 1862.51 93.7646 1843.69 88.8433C1839.8 87.8238 1831.45 85.4936 1826.81 86.822Z"/></svg>