<svg xmlns="http://www.w3.org/2000/svg" width="177" height="166" fill="none" viewBox="0 0 177 166"><rect width="126" height="72" x="25.66" y="66" fill="#E38F33" rx="10"/><mask id="mask0" width="113" height="110" x="32" y="20" mask-type="alpha" maskUnits="userSpaceOnUse"><path fill="#C4C4C4" d="M88.1597 20L144.018 129.5H32.301L88.1597 20Z"/></mask><g mask="url(#mask0)"><rect width="126" height="121" x="29.66" y="20" fill="#F9CF9D"/><rect width="126" height="19" x="29.66" y="80" fill="#7289DA"/><rect width="126" height="15.832" x="29.66" y="20" fill="#7289DA"/></g><mask id="mask1" width="122" height="110" x="0" y="20" mask-type="alpha" maskUnits="userSpaceOnUse"><path fill="#C4C4C4" d="M88.6233 20.0168L32.8076 129.539L32.8076 70L88.6233 20.0168Z"/></mask><g mask="url(#mask1)"><rect width="89" height="110" x="10.66" y="20" fill="#fff"/><rect width="10" height="107" x="80.66" y="20" fill="#8C9DDE"/><rect width="10" height="107" x="48.16" y="23" fill="#8C9DDE"/></g><mask id="mask2" width="123" height="110" x="54" y="20" mask-type="alpha" maskUnits="userSpaceOnUse"><path fill="#C4C4C4" d="M87.4673 20L143.283 129.522L143.283 69.9832L87.4673 20Z"/></mask><g mask="url(#mask2)"><rect width="89" height="110" fill="#BFA376" transform="matrix(-1 0 0 1 165.431 19.9832)"/><rect width="10" height="107" fill="#7A2544" transform="matrix(-1 0 0 1 95.4309 19.9832)"/><rect width="10" height="107" fill="#7A2544" transform="matrix(-1 0 0 1 127.931 22.9832)"/></g><path fill="#DB4242" d="M87.7963 0L119.16 17H87.7963V0Z"/><path fill="#BFA376" d="M85.6597 103H101.26V129.5H85.6597L85.6597 103Z"/><path fill="#7A2544" d="M85.6597 103L101.248 129.475H70.0712L85.6597 103Z"/></svg>