<svg width="18" height="18" viewBox="0 0 18 18" fill="none" xmlns="http://www.w3.org/2000/svg">
<path d="M10.2933 15.0342C10.0796 14.8605 7.92222 14.8605 7.70848 15.0342C7.39599 15.288 7.09851 15.5205 6.92727 15.7679C6.84352 15.8879 6.87602 16.0767 6.99226 16.1379C7.2785 16.2879 7.88222 16.5029 9.00091 16.5029C10.1196 16.5029 10.7246 16.2892 11.0096 16.1379C11.1258 16.0767 11.1583 15.8879 11.0745 15.7679C10.9033 15.5205 10.6058 15.288 10.2933 15.0342Z" fill="#723F22"/>
<path d="M12.0691 5.9442C11.7691 5.86169 11.0128 5.69542 10.8352 5.22786C10.6365 4.7028 11.069 2.16248 11.069 2.16248H6.93349C6.93349 2.16248 7.4048 4.56903 7.16727 5.22786C6.99725 5.69792 6.23341 5.86169 5.93337 5.9442C5.63333 6.02671 4.1994 6.08422 4.39943 8.72955C4.5907 11.2586 7.53482 15.1979 7.53482 15.1979C7.53482 15.1979 7.69234 15.5642 9.0025 15.5642C10.3127 15.5642 10.4702 15.1979 10.4702 15.1979C10.4702 15.1979 13.4143 11.2586 13.6056 8.72955C13.8031 6.08297 12.3692 6.02671 12.0691 5.9442Z" fill="#FF7E45"/>
<path d="M7.95616 15.6556C7.99241 15.6731 8.03116 15.6918 8.05616 15.7231C8.08491 15.7581 8.09366 15.8056 8.09991 15.8518C8.10866 15.9143 8.11365 15.9768 8.1149 16.0393C8.11615 16.0943 8.1099 16.1581 8.06366 16.1868C8.04366 16.1993 8.01991 16.2018 7.99741 16.2031C7.75992 16.2218 7.52244 16.1481 7.3087 16.0431C7.24495 16.0118 7.1762 15.9693 7.1662 15.8993C7.15871 15.8468 7.1887 15.7956 7.2187 15.7518C7.2687 15.6793 7.32245 15.6106 7.38119 15.5444C7.53869 15.3619 7.78117 15.5731 7.95616 15.6556Z" fill="#A15D38"/>
<path d="M6.44826 1.49988C6.15322 1.49988 6.13822 1.78361 6.25698 1.96735C6.48826 2.32733 6.7958 2.56857 6.96707 2.68107C7.13709 2.79356 7.52714 2.84731 8.99983 2.84731C10.4725 2.84731 10.8688 2.73856 11.0088 2.68107C11.1488 2.62357 11.5676 2.30859 11.7727 1.89986C11.8564 1.73362 11.8452 1.50863 11.6077 1.50863C11.4114 1.50988 6.67704 1.49988 6.44826 1.49988Z" fill="#723F22"/>
<path d="M13.2052 10.37C10.2986 10.7475 7.71825 10.7737 4.80664 10.3937L5.02542 10.9362C7.6745 11.2587 10.3423 11.2587 12.9852 10.9225L13.2052 10.37Z" fill="#723F22"/>
<path d="M4.70945 10.1162C4.69195 10.0624 4.67445 10.0087 4.6582 9.95618C4.67445 10.0099 4.6907 10.0624 4.70945 10.1162Z" fill="#723F22"/>
<path d="M13.3583 9.91614C13.3395 9.97613 13.3208 10.0361 13.3008 10.0961C13.3208 10.0361 13.3395 9.97613 13.3583 9.91614Z" fill="#723F22"/>
<path d="M13.619 8.41589C13.619 8.41589 13.2315 8.46089 12.8703 8.49339L12.6753 9.93581C12.9328 9.91207 13.1603 9.89082 13.3715 9.86832C13.4927 9.47084 13.5752 9.08461 13.6027 8.72838C13.6252 8.42964 13.619 8.41589 13.619 8.41589Z" fill="#723F22"/>
<path d="M13.5496 7.42578H13.5483C13.5633 7.50078 13.5771 7.57827 13.5883 7.66202C13.5708 7.53453 13.5496 7.42578 13.5496 7.42578Z" fill="#723F22"/>
<path d="M13.6144 7.96202C13.6144 7.96202 13.6119 7.91952 13.6069 7.85828C13.6107 7.89202 13.6119 7.92827 13.6144 7.96202Z" fill="#723F22"/>
<path d="M6.38974 8.25452C7.25985 8.33826 7.69241 8.36076 8.55876 8.37326C8.56626 8.87823 8.57001 9.13072 8.57752 9.63694C8.36749 9.63444 8.26248 9.63195 8.05245 9.62445C8.0412 9.31446 8.0362 9.15947 8.02495 8.84949C7.60739 8.83449 7.39862 8.82324 6.97982 8.79199C7.02232 9.35946 7.04357 9.64319 7.08483 10.2107C7.98869 10.2794 8.43875 10.2932 9.34136 10.2769C9.35261 9.51445 9.35886 9.13322 9.37011 8.37201C10.2365 8.35701 10.6703 8.33201 11.5404 8.24577C11.4916 8.75324 11.4666 9.00698 11.4191 9.5132C11.2078 9.53445 11.1028 9.54445 10.8916 9.5607C10.9153 9.25072 10.9266 9.09572 10.9503 8.78449C10.5315 8.81699 10.3227 8.82949 9.90518 8.84574C9.88518 9.41196 9.87518 9.69569 9.85518 10.2619C10.7578 10.2269 11.2091 10.1882 12.118 10.0669C12.213 9.30071 12.2605 8.91698 12.358 8.15077C12.8656 8.08453 13.2268 8.03078 13.6144 7.96078C13.6119 7.92578 13.5994 7.76079 13.5881 7.6608C13.5794 7.5833 13.5481 7.42456 13.5481 7.42456C10.4653 7.83079 7.53239 7.83829 4.45075 7.44956C4.4195 7.6108 4.39824 7.79079 4.38824 7.98953C4.82205 8.06703 5.01332 8.09203 5.57589 8.16327C5.63965 8.672 5.67215 8.92573 5.73466 9.43321C5.52338 9.40571 5.41712 9.39196 5.20459 9.35946C5.15959 9.04698 5.13709 8.89198 5.09208 8.5795C4.74704 8.52825 4.68078 8.5195 4.38574 8.46701C4.38949 8.55075 4.39324 8.63825 4.40074 8.72824C4.42825 9.09447 4.51576 9.49195 4.64077 9.90068C5.31461 10.0207 5.80467 10.0894 6.57227 10.1644C6.49976 9.40196 6.4635 9.01948 6.38974 8.25452Z" fill="#723F22"/>
<path d="M9.17594 12.0538C7.58699 12.0538 6.08805 11.8438 5.39421 11.7301L5.27295 11.4539C5.85677 11.5551 7.46447 11.8013 9.17469 11.8013C10.8599 11.8013 12.2288 11.5614 12.7389 11.4589L12.6064 11.7413C11.9863 11.8576 10.7086 12.0538 9.17594 12.0538Z" fill="#723F22"/>
<path d="M7.24335 2.2712C7.79707 2.3337 8.19955 2.26245 8.76327 2.07246C8.91826 2.01997 8.88701 1.79498 8.72452 1.79373L7.90456 1.78498L6.76087 1.73623C6.51714 1.72873 6.52964 2.01122 6.74338 2.12996C6.80712 2.16371 6.96711 2.23995 7.24335 2.2712Z" fill="#A15D38"/>
<path d="M11.1469 5.58904C11.0069 5.49404 10.8907 5.37655 10.8344 5.22656C10.7594 5.02657 10.7744 4.53659 10.8232 4.00537C9.47576 4.22161 8.54456 4.22286 7.20088 4.00912C7.24588 4.51284 7.25338 4.98657 7.16713 5.22656C7.11339 5.37655 6.99839 5.49529 6.8584 5.58904C8.26207 5.94402 9.74325 5.94402 11.1469 5.58904Z" fill="#723F22"/>
<path d="M4.60774 6.90871C4.59149 6.79371 4.4665 5.91751 4.4515 5.66877C4.4215 5.1738 4.42025 4.66882 4.50899 4.17885C4.57899 3.79137 4.71148 3.36514 5.02522 3.10391C5.2627 2.90642 5.56769 2.85892 5.87017 2.92267C6.2464 3.00141 6.57138 3.2414 6.84137 3.50514C6.95511 3.61638 7.21385 3.89386 7.31759 4.41259C7.38509 4.75257 7.40259 5.40004 7.03636 5.58628C6.97636 5.61753 6.89262 5.63127 6.84762 5.58003C6.81762 5.54503 6.86262 5.1613 6.79012 4.80632C6.70638 4.40134 6.08641 3.31889 5.53769 3.53013C5.2977 3.62263 5.19146 3.89511 5.15771 4.12635C5.04146 4.94881 5.18271 5.55253 5.33645 6.0475C5.36145 6.12625 5.43894 6.23749 5.41145 6.31374C5.2427 6.79496 4.61649 6.9637 4.60774 6.90871Z" fill="#723F22"/>
<path d="M13.3934 6.90871C13.4096 6.79371 13.5346 5.91751 13.5496 5.66877C13.5796 5.1738 13.5809 4.66882 13.4921 4.17885C13.4221 3.79137 13.2896 3.36514 12.9759 3.10391C12.7384 2.90642 12.4334 2.85892 12.131 2.92267C11.7547 3.00141 11.4297 3.2414 11.1598 3.50514C11.046 3.61638 10.7873 3.89386 10.6835 4.41259C10.616 4.75257 10.5985 5.40004 10.9648 5.58628C11.0248 5.61753 11.1085 5.63127 11.1535 5.58003C11.1835 5.54503 11.1385 5.1613 11.211 4.80632C11.2947 4.40134 11.9147 3.31889 12.4634 3.53013C12.7034 3.62263 12.8097 3.89511 12.8434 4.12635C12.9597 4.94881 12.8184 5.55253 12.6647 6.0475C12.6397 6.12625 12.5622 6.23749 12.5897 6.31374C12.7584 6.79496 13.3846 6.9637 13.3934 6.90871Z" fill="#723F22"/>
<path d="M5.33318 3.06283C5.58942 2.95158 5.97815 3.01408 6.17938 3.16532C6.39437 3.32656 6.29813 3.36656 6.12564 3.33906C5.9469 3.31156 5.73441 3.27782 5.55817 3.30781C5.24568 3.36156 5.07944 3.5703 4.94195 3.90278C4.82071 4.19277 4.74571 4.63149 4.66946 4.63149C4.61947 4.63149 4.60572 4.46525 4.63447 4.23777C4.70071 3.72029 4.85695 3.27157 5.33318 3.06283Z" fill="#A15D38"/>
<path d="M7.16743 5.22792C7.10743 5.40166 6.97244 5.50666 7.05994 5.53041C7.38992 5.6204 7.7124 5.66665 8.04363 5.66415C8.09113 5.66415 8.14113 5.66165 8.18238 5.63915C8.26362 5.59415 8.32862 5.50666 8.34362 5.36917C8.36612 5.16918 8.36862 4.96669 8.36362 4.76545C8.35987 4.62545 8.38237 4.39797 8.24612 4.30797C8.18238 4.26547 8.10363 4.25422 8.02864 4.24297C7.82865 4.21423 7.62866 4.18548 7.42867 4.15673C7.37367 4.14923 7.21993 4.13548 7.22743 4.27797C7.25368 4.80419 7.24118 5.01168 7.16743 5.22792Z" fill="#A15D38"/>
<path d="M12.1266 6.14689C11.8715 6.07564 11.6728 6.0069 11.439 5.89315C11.3527 5.85066 11.2214 5.73191 10.9564 5.81066C10.1926 6.03815 9.45998 6.03065 9.00117 6.0419C8.54236 6.03065 7.80977 6.03815 7.04592 5.81066C6.78089 5.73191 6.64963 5.8519 6.56336 5.89315C6.32959 6.0069 6.13081 6.07689 5.87578 6.14689C5.73076 6.18689 5.67825 6.32438 5.94454 6.41063C6.42085 6.56562 7.44723 6.77686 9.00117 6.77686C10.5551 6.77686 11.5802 6.56562 12.0578 6.41063C12.3241 6.32438 12.2728 6.18814 12.1266 6.14689Z" fill="#FFA364"/>
</svg>
