<svg width="18" height="18" viewBox="0 0 18 18" fill="none" xmlns="http://www.w3.org/2000/svg">
<path fill-rule="evenodd" clip-rule="evenodd" d="M10.4214 1.50437C10.5247 1.5116 10.6026 1.60121 10.5953 1.7045L9.66164 15.0388C9.65441 15.1421 9.56481 15.22 9.46151 15.2127C9.35822 15.2055 9.28034 15.1159 9.28758 15.0126L10.2213 1.67831C10.2285 1.57501 10.3181 1.49714 10.4214 1.50437Z" fill="#82AEC0"/>
<path d="M10.5334 12.502L14.6082 12.2845L10.6047 1.65759L10.5334 12.502Z" fill="#F4511E"/>
<path d="M10.5422 11.1847L14.0933 10.9172L13.7021 9.88098L10.5497 10.1197L10.5422 11.1847Z" fill="#BF360C"/>
<path d="M12.6859 7.18359L10.5673 7.34234L10.561 8.40853L13.0809 8.23229L12.6859 7.18359Z" fill="#BF360C"/>
<path d="M11.6683 4.48376L10.5846 4.56501L10.5784 5.6387L12.062 5.52621L11.6683 4.48376Z" fill="#BF360C"/>
<path d="M2.47754 13.8907C2.47754 13.8907 3.295 10.5296 5.20115 7.22232C6.9173 4.24498 10.2659 1.50012 10.2659 1.50012C10.2659 1.50012 9.25468 5.83364 9.06594 8.40851C8.82595 11.6808 9.38217 13.222 9.38217 13.222C9.38217 13.222 8.001 12.5995 6.49483 12.7495C4.29744 12.9683 2.47754 13.8907 2.47754 13.8907Z" fill="#FF7043"/>
<path d="M11.5308 13.3795L7.57355 13.0496C7.57355 13.0496 6.89358 13.0771 6.30236 13.0771C5.71115 13.0771 5.40991 14.3307 5.40991 14.3307L12.2446 14.7307L12.0071 13.7833C11.9496 13.5608 11.7596 13.3983 11.5308 13.3795Z" fill="#E0E0E0"/>
<path d="M6.77612 14.4107C6.77612 14.4107 7.16735 13.0496 7.57358 13.0496C7.90731 13.0496 10.6347 13.2945 11.5859 13.3808C11.7821 13.3983 11.9446 13.5383 11.9921 13.7295L12.2421 14.7307L6.77612 14.4107Z" fill="#82AEC0"/>
<path d="M4.03874 16.4993C2.83006 16.4993 2.37008 14.2619 2.31633 13.9257C2.30758 13.8744 2.35008 13.8294 2.40258 13.8357C6.85859 14.3744 14.6507 14.7256 15.7931 14.7756C15.8569 14.7781 15.8931 14.8481 15.8606 14.9019L15.0057 16.2855C14.9232 16.418 14.7782 16.4993 14.6219 16.4993H6.44861C6.44861 16.4993 5.12118 16.4993 4.03874 16.4993Z" fill="#B9E4EA"/>
<path d="M15.587 15.3394C5.91121 15.1669 2.52514 14.7645 2.52514 14.7645C2.45889 14.5607 2.40015 14.3232 2.40015 14.3232C6.85241 14.7307 15.6932 15.1482 15.6932 15.1482L15.587 15.3394Z" fill="#BF360C"/>
<path d="M8.75095 14.1581C8.94631 14.1581 9.10468 13.9998 9.10468 13.8044C9.10468 13.6091 8.94631 13.4507 8.75095 13.4507C8.55559 13.4507 8.39722 13.6091 8.39722 13.8044C8.39722 13.9998 8.55559 14.1581 8.75095 14.1581Z" fill="#37474F"/>
<path d="M10.0295 14.2294C10.2131 14.2294 10.362 14.0806 10.362 13.8969C10.362 13.7133 10.2131 13.5645 10.0295 13.5645C9.84588 13.5645 9.69702 13.7133 9.69702 13.8969C9.69702 14.0806 9.84588 14.2294 10.0295 14.2294Z" fill="#37474F"/>
<path d="M11.3071 14.3007C11.479 14.3007 11.6183 14.1613 11.6183 13.9895C11.6183 13.8176 11.479 13.6782 11.3071 13.6782C11.1352 13.6782 10.9958 13.8176 10.9958 13.9895C10.9958 14.1613 11.1352 14.3007 11.3071 14.3007Z" fill="#37474F"/>
<path d="M8.75095 13.4507C8.7222 13.4507 8.69471 13.4544 8.66846 13.4619C8.82345 13.4994 8.93969 13.6382 8.93969 13.8057C8.93969 13.9732 8.82345 14.1119 8.66846 14.1494C8.69471 14.1556 8.7222 14.1606 8.75095 14.1606C8.94719 14.1606 9.10468 14.0019 9.10468 13.8069C9.10468 13.6119 8.94719 13.4507 8.75095 13.4507Z" fill="#E0E0E0"/>
<path d="M10.0298 13.5645C10.001 13.5645 9.97351 13.5695 9.94727 13.5757C10.091 13.6132 10.1973 13.7419 10.1973 13.8969C10.1973 14.0519 10.091 14.1807 9.94727 14.2182C9.97351 14.2257 10.001 14.2294 10.0298 14.2294C10.2135 14.2294 10.3622 14.0807 10.3622 13.8969C10.3622 13.7132 10.2135 13.5645 10.0298 13.5645Z" fill="#E0E0E0"/>
<path d="M11.3071 13.6782C11.2784 13.6782 11.2509 13.6832 11.2246 13.6907C11.3559 13.727 11.4521 13.8457 11.4521 13.9895C11.4521 14.1319 11.3559 14.2507 11.2246 14.2882C11.2509 14.2957 11.2784 14.3007 11.3071 14.3007C11.4783 14.3007 11.6183 14.1619 11.6183 13.9895C11.6183 13.817 11.4783 13.6782 11.3071 13.6782Z" fill="#E0E0E0"/>
<path fill-rule="evenodd" clip-rule="evenodd" d="M9.69849 12.4733C9.69849 12.3697 9.78243 12.2858 9.88598 12.2858H14.482C14.5855 12.2858 14.6695 12.3697 14.6695 12.4733C14.6695 12.5768 14.5855 12.6607 14.482 12.6607H9.88598C9.78243 12.6607 9.69849 12.5768 9.69849 12.4733Z" fill="#82AEC0"/>
<path d="M9.00598 9.98967C7.34857 9.67343 5.29743 9.74218 3.72001 10.2447C3.47752 10.8171 3.16504 11.6796 3.16504 11.6796C4.89495 10.8871 7.17483 10.7946 9.05223 11.2758C9.02473 10.9021 9.00598 10.4746 9.00598 9.98967Z" fill="#FFAB91"/>
<path d="M5.29747 7.0598C5.26497 7.11355 5.23247 7.16855 5.19997 7.22229C4.94624 7.66227 4.7175 8.10475 4.51001 8.54097C5.83619 8.07225 7.64609 8.1185 9.06977 8.34098C9.10102 7.94226 9.15101 7.50478 9.21351 7.0473C8.02357 6.87481 6.46116 6.81231 5.29747 7.0598Z" fill="#FFAB91"/>
<path d="M7.56111 4.09997C7.17988 4.51745 6.79115 4.96867 6.41992 5.4424C7.29988 5.28616 8.54481 5.37115 9.45726 5.49365C9.52851 5.08117 9.6035 4.67369 9.6785 4.28621C9.04978 4.19246 8.17983 4.07497 7.56111 4.09997Z" fill="#FFAB91"/>
</svg>
