<svg width="18" height="18" viewBox="0 0 18 18" fill="none" xmlns="http://www.w3.org/2000/svg">
<path d="M13.2369 14.1307C13.2856 14.0569 14.6443 14.3957 14.6443 14.3957C14.6443 14.3957 15.3743 14.2782 15.6205 13.9582C15.8668 13.6382 15.8143 13.0882 15.7405 12.867C15.6668 12.6458 15.4493 12.4845 15.4493 12.4845C15.4493 12.4845 15.548 10.7646 15.4743 9.19095C15.4005 7.61854 15.3018 6.90482 15.3018 6.90482C15.3018 6.90482 15.7755 6.54234 15.7255 5.84113C15.6755 5.13992 15.0818 4.95118 14.7643 4.94993C14.3181 4.94868 13.9931 5.24991 13.9931 5.24991C13.9931 5.24991 14.0531 4.31246 13.2119 4.05872C12.6807 3.89873 12.3907 4.37871 12.3907 4.37871C12.3907 4.37871 12.4957 3.42876 11.7195 3.16752C11.1045 2.96128 10.8083 3.5175 10.8083 3.5175L8.4709 2.79129C8.4709 2.79129 7.99967 2.36506 7.57469 2.71629C7.22471 3.00628 7.22471 3.42751 7.22471 3.42751C7.22471 3.42751 6.06352 4.5187 4.93233 5.91988C3.80114 7.32105 2.56996 9.14096 2.41997 9.58343C2.33122 9.84592 2.36372 10.1997 2.36372 10.1997C2.36372 10.1997 3.30867 11.5421 3.32867 12.0321C3.34867 12.522 7.71219 13.5007 7.73218 13.677C7.75343 13.8545 13.2369 14.1307 13.2369 14.1307Z" fill="#FFCCC1"/>
<path d="M2.79349 15.0906C2.79349 15.0906 2.71224 15.5093 2.72599 15.848C2.73974 16.1868 2.72599 16.348 2.94223 16.443C3.15847 16.538 7.2295 16.0243 9.65062 15.6181C12.0717 15.2118 14.8166 14.3606 14.8166 14.3606C14.8166 14.3606 14.9478 11.6145 14.8266 10.2046C14.6916 8.64092 14.5154 8.36594 13.9741 8.1097C13.4329 7.85221 12.4542 8.20719 11.9368 8.37469C10.1868 8.93841 7.13576 9.73336 3.75344 9.91086C2.64224 9.9696 2.36226 9.95585 2.36226 9.95585C2.36226 9.95585 2.35101 10.0846 2.37726 10.5083C2.41226 11.0958 2.49475 12.002 2.5035 12.1107C2.516 12.2995 2.79349 15.0906 2.79349 15.0906Z" fill="#DF7C1A"/>
<path d="M8.35194 9.78962C10.2806 9.39839 12.8017 8.58593 13.2067 8.53218C13.6129 8.47844 14.0991 8.50468 14.2754 9.27589C14.4516 10.0471 14.4516 12.2507 14.4379 12.6295C14.4241 13.0082 14.3841 13.8194 14.3841 13.8194C14.3841 13.8194 12.8155 14.5631 9.02815 15.1581C5.24085 15.7531 2.72599 15.848 2.72599 15.848L2.37476 10.5058C2.37476 10.5058 5.21461 10.4246 8.35194 9.78962Z" fill="#FEA32E"/>
<path d="M5.87724 12.0758C7.65589 11.8245 9.74578 11.4271 11.7194 10.8446C12.8194 10.5209 14.3668 9.91089 14.3668 9.91089C14.3668 9.91089 14.3918 10.2084 14.413 10.5321C14.4343 10.8558 14.4518 11.5083 14.4518 11.5083C14.4518 11.5083 12.3556 12.4958 8.66334 13.1582C4.97103 13.8207 2.60241 13.9432 2.60241 13.9432L2.50366 12.4508C2.50241 12.4508 3.86234 12.3595 5.87724 12.0758Z" fill="#FFCCC1"/>
<path d="M8.59574 12.9808C10.4356 12.6558 10.4069 11.1984 10.4069 11.1984C10.4069 11.1984 9.13571 11.5033 8.51449 11.6283C8.00202 11.7308 6.70459 11.9496 6.70459 11.9496C6.70459 11.9496 7.17332 13.232 8.59574 12.9808Z" fill="#FE4F20"/>
<path d="M14.4517 11.507C14.4654 11.4258 14.2005 10.3821 12.7343 10.6958C11.2006 11.0233 10.9831 12.657 11.0606 12.6395C11.1531 12.617 12.0418 12.3832 12.888 12.1083C13.8242 11.802 14.4517 11.507 14.4517 11.507Z" fill="#FE4F20"/>
<path d="M2.71362 13.9369C2.71362 13.9369 3.01111 12.5507 4.58477 12.457C6.39718 12.3482 6.57592 13.4994 6.57592 13.4994C6.57592 13.4994 5.12475 13.7219 4.57102 13.7819C3.67607 13.8806 2.71362 13.9369 2.71362 13.9369Z" fill="#FE4F20"/>
<path d="M3.31848 9.09721C3.25098 9.31345 3.68096 9.2447 4.33343 9.2122C5.44212 9.15721 7.32702 8.91972 9.39566 8.37475C12.6817 7.50979 14.2879 6.90858 14.2879 6.79983C14.2879 6.69109 11.8668 5.06867 10.5956 4.67619C9.32441 4.28371 7.68825 3.62125 7.68825 3.68874C7.68825 3.75624 6.11208 5.26991 5.34837 6.23111C4.56591 7.21981 3.41098 8.80722 3.31848 9.09721Z" fill="white"/>
<path d="M9.66436 6.82728C11.4805 6.72604 11.8955 5.86733 11.8692 4.63615C11.843 3.45746 10.8005 1.40382 9.59686 1.44381C8.47442 1.48131 7.44698 3.24247 7.28449 4.5274C7.12199 5.81233 7.71696 6.93602 9.66436 6.82728Z" fill="#FF5117"/>
<path d="M9.46441 4.41621C9.38816 4.42996 9.18442 4.83744 9.19817 5.07743C9.21317 5.32866 9.33442 5.47241 9.56315 5.44991C9.77689 5.42866 9.85939 5.25992 9.82939 5.01618C9.79939 4.77244 9.54816 4.40121 9.46441 4.41621Z" fill="#FEFFFF"/>
<path d="M10.8019 4.8636C10.6806 4.8336 10.3919 5.28857 10.3769 5.54731C10.3656 5.7448 10.4981 5.88229 10.6956 5.88229C10.8931 5.88229 10.9994 5.7298 11.0144 5.53231C11.0294 5.33482 10.9081 4.88984 10.8019 4.8636Z" fill="#FEFFFF"/>
<path d="M8.14207 4.80361C8.02833 4.82611 7.91584 5.31984 7.96708 5.54108C7.99708 5.66982 8.11208 5.82981 8.32456 5.76856C8.53705 5.70732 8.5683 5.41108 8.49956 5.25984C8.43081 5.10735 8.27707 4.77612 8.14207 4.80361Z" fill="#FEFFFF"/>
<path d="M8.94086 2.83498C8.83836 2.80873 8.53088 3.10872 8.46213 3.39745C8.40213 3.65119 8.50713 3.79993 8.70587 3.84618C8.90336 3.89118 9.07085 3.76993 9.10085 3.54994C9.12835 3.34245 9.0621 2.86498 8.94086 2.83498Z" fill="#FEFFFF"/>
<path d="M10.0807 3.08624C9.9895 3.12374 9.92076 3.64121 10.012 3.8612C10.1095 4.09744 10.3295 4.10369 10.4607 4.04369C10.6432 3.95994 10.6632 3.7912 10.6132 3.62621C10.5507 3.42747 10.1607 3.05249 10.0807 3.08624Z" fill="#FEFFFF"/>
</svg>
