<svg width="18" height="18" viewBox="0 0 18 18" fill="none" xmlns="http://www.w3.org/2000/svg">
<path fill-rule="evenodd" clip-rule="evenodd" d="M2.04303 1.99805L5.21286 6.02909L4.72159 6.4154L1.55176 2.38436L2.04303 1.99805Z" fill="#26A69A"/>
<path d="M2.98985 3.20232L2.50237 3.5898L2.10864 3.08983V2.98608L2.8261 2.98858L2.98985 3.20232Z" fill="#00796B"/>
<path d="M2.12497 2.19116H1.5V6.2947H2.12497V2.19116Z" fill="#26A69A"/>
<path fill-rule="evenodd" clip-rule="evenodd" d="M9.23532 2.38436L6.06549 6.4154L5.57422 6.02909L8.74405 1.99805L9.23532 2.38436Z" fill="#26A69A"/>
<path fill-rule="evenodd" clip-rule="evenodd" d="M9.23524 1.99805L12.4038 6.02908L11.9125 6.4153L8.7439 2.38427L9.23524 1.99805Z" fill="#26A69A"/>
<path d="M10.1833 3.2073L9.6958 3.59478L9.30082 3.09231H8.6771L8.30462 3.56729L7.76465 3.24355L8.23587 2.64233H9.74704L10.1833 3.2073Z" fill="#00796B"/>
<path fill-rule="evenodd" clip-rule="evenodd" d="M8.677 6.2947V2.19116H9.30197V6.2947H8.677Z" fill="#26A69A"/>
<path fill-rule="evenodd" clip-rule="evenodd" d="M16.426 2.38427L13.2575 6.4153L12.7661 6.02908L15.9347 1.99805L16.426 2.38427Z" fill="#26A69A"/>
<path d="M15.8743 3.08608L15.5106 3.5473L14.9731 3.22232L15.1594 2.98608L15.9106 2.98858L15.8743 3.08608Z" fill="#00796B"/>
<path d="M16.4992 2.19116H15.8743V6.2947H16.4992V2.19116Z" fill="#26A69A"/>
<path d="M16.4992 5.90112H1.5V7.05606H16.4992V5.90112Z" fill="#80CBC4"/>
<path d="M16.4992 1.48999H1.5V3.00366H16.4992V1.48999Z" fill="#26A69A"/>
<path d="M16.4992 1.8186H1.5V2.07234H16.4992V1.8186Z" fill="#00796B"/>
<path d="M16.4992 6.13965H1.5V7.65332H16.4992V6.13965Z" fill="#26A69A"/>
<path d="M16.4992 6.46851H1.5V6.72224H16.4992V6.46851Z" fill="#00796B"/>
<path d="M14.2493 6.59472V5.99976H13.5994V7.65342H13.9006H14.2493H14.3993V6.59472H14.2493Z" fill="#00796B"/>
<path d="M5.32477 6.47848V5.99976H4.6748V7.65342H4.97604H5.32477H5.47601V6.47848H5.32477Z" fill="#00796B"/>
<path d="M3.32131 6.2122C3.91568 6.2122 4.3975 5.73037 4.3975 5.13601C4.3975 4.54164 3.91568 4.05981 3.32131 4.05981C2.72695 4.05981 2.24512 4.54164 2.24512 5.13601C2.24512 5.73037 2.72695 6.2122 3.32131 6.2122Z" fill="#455A64"/>
<path d="M5.75124 6.2122C6.34561 6.2122 6.82744 5.73037 6.82744 5.13601C6.82744 4.54164 6.34561 4.05981 5.75124 4.05981C5.15688 4.05981 4.67505 4.54164 4.67505 5.13601C4.67505 5.73037 5.15688 6.2122 5.75124 6.2122Z" fill="#455A64"/>
<path d="M3.32127 5.89718C3.74167 5.89718 4.08248 5.55637 4.08248 5.13597C4.08248 4.71556 3.74167 4.37476 3.32127 4.37476C2.90086 4.37476 2.56006 4.71556 2.56006 5.13597C2.56006 5.55637 2.90086 5.89718 3.32127 5.89718Z" fill="#607D8B"/>
<path d="M5.7512 5.89718C6.1716 5.89718 6.51241 5.55637 6.51241 5.13597C6.51241 4.71556 6.1716 4.37476 5.7512 4.37476C5.3308 4.37476 4.98999 4.71556 4.98999 5.13597C4.98999 5.55637 5.3308 5.89718 5.7512 5.89718Z" fill="#607D8B"/>
<path d="M4.99989 4.53101H4.11619C3.65621 4.53101 3.11499 4.75974 3.11499 5.13597C3.11499 5.25972 3.20624 5.35971 3.31873 5.35971C3.43122 5.35971 3.52247 5.25972 3.52247 5.13597C3.52247 5.12222 3.52122 5.10848 3.51872 5.09473C3.89995 5.05223 3.96995 5.32721 3.96995 5.56095V8.85328H5.11238V5.56095C5.11238 5.32721 5.21488 5.00098 5.59486 5.09473C5.59236 5.10848 5.59111 5.12097 5.59111 5.13597C5.59111 5.25972 5.68235 5.35971 5.79485 5.35971C5.90734 5.35971 5.99859 5.25972 5.99859 5.13597C6.00109 4.75974 5.46112 4.53101 4.99989 4.53101Z" fill="#82AEC0"/>
<path d="M3.52124 5.09467C3.52124 5.09467 3.77998 4.95717 3.98122 5.03467C4.18121 5.11342 4.2162 5.25841 4.2162 5.52839V8.3395H3.96622C3.96622 8.3395 3.96872 5.77713 3.96872 5.47465C3.96872 5.10467 3.52124 5.09467 3.52124 5.09467Z" fill="#C9E3E6"/>
<path d="M5.59877 5.09467C5.59877 5.09467 5.34004 4.95717 5.1388 5.03467C4.93756 5.11217 4.90381 5.25841 4.90381 5.52839V8.3395H5.1538C5.1538 8.3395 5.1513 5.77713 5.1513 5.47465C5.1513 5.10467 5.59877 5.09467 5.59877 5.09467Z" fill="#455A64"/>
<path d="M15.3743 9.12078L2.625 9.17703L2.79374 8.90829C3.01498 8.55456 3.40121 8.34082 3.81619 8.34082H14.1969C14.5844 8.34082 14.9481 8.52831 15.1756 8.84454L15.3743 9.12078Z" fill="#82AEC0"/>
<path d="M16.4992 15.8491H1.5V9.9932C1.5 9.65197 1.77624 9.37573 2.11747 9.37573H15.8805C16.2217 9.37573 16.498 9.65197 16.498 9.9932V15.8491H16.4992Z" fill="#FFCA28"/>
<path d="M15.7968 9.41571H2.37497C2.24372 9.41571 2.13623 9.30946 2.13623 9.17697C2.13623 9.04573 2.24247 8.93823 2.37497 8.93823H15.7968C15.928 8.93823 16.0355 9.04448 16.0355 9.17697C16.0355 9.30821 15.928 9.41571 15.7968 9.41571Z" fill="#78909C"/>
<path d="M16.4856 14.6692H1.50513V15.0817H16.4856V14.6692Z" fill="#FFF59D"/>
<path d="M15.1506 16.2741C14.3056 16.2741 3.36993 16.2741 2.46998 16.2741C1.62002 16.2741 1.49878 15.8479 1.49878 15.8479H16.493C16.4942 15.8479 16.4855 16.2741 15.1506 16.2741Z" fill="#9E740B"/>
<path d="M15.9917 9.24561H1.94623C1.69999 9.24561 1.5 9.44559 1.5 9.69183V11.8355H16.4992V9.75308C16.4992 9.47309 16.2717 9.24561 15.9917 9.24561Z" fill="#E2A610"/>
<path d="M12.8293 15.9803H10.9869C10.7257 15.9803 10.5132 15.769 10.5132 15.5066V10.6131C10.5132 10.3181 10.7519 10.0793 11.0469 10.0793H12.8293C13.0668 10.0793 13.2605 10.2718 13.2605 10.5106V15.5491C13.2605 15.7878 13.0668 15.9803 12.8293 15.9803Z" fill="#FFCA28"/>
<path fill-rule="evenodd" clip-rule="evenodd" d="M11.0471 10.2043C10.8212 10.2043 10.6384 10.3871 10.6384 10.6131V15.5066C10.6384 15.6998 10.7947 15.8553 10.9871 15.8553H12.8295C12.9982 15.8553 13.1358 15.7185 13.1358 15.5491V10.5106C13.1358 10.3411 12.9982 10.2043 12.8295 10.2043H11.0471ZM10.3884 10.6131C10.3884 10.249 10.6831 9.95435 11.0471 9.95435H12.8295C13.1358 9.95435 13.3858 10.2026 13.3858 10.5106V15.5491C13.3858 15.8571 13.1358 16.1053 12.8295 16.1053H10.9871C10.6571 16.1053 10.3884 15.8383 10.3884 15.5066V10.6131Z" fill="#9E740B"/>
<path d="M12.5669 10.4868H11.207C11.0233 10.4868 10.8745 10.6356 10.8745 10.8193V13.5604C10.8745 13.7441 11.0233 13.8929 11.207 13.8929H12.5669C12.7507 13.8929 12.8994 13.7441 12.8994 13.5604V10.8193C12.8982 10.6356 12.7494 10.4868 12.5669 10.4868Z" fill="#37474F"/>
<path d="M12.4583 10.8042H11.3508C11.2133 10.8042 11.1008 10.9167 11.1008 11.0542V13.3166C11.1008 13.4541 11.2133 13.5666 11.3508 13.5666H12.4583C12.5958 13.5666 12.7082 13.4541 12.7082 13.3166V11.0542C12.7082 10.9167 12.597 10.8042 12.4583 10.8042Z" fill="#BAE2FD"/>
<path d="M15.7144 10.4868H14.1045C13.9207 10.4868 13.772 10.6356 13.772 10.8193V12.6855C13.772 12.8692 13.9207 13.0179 14.1045 13.0179H15.7144C15.8981 13.0179 16.0469 12.8692 16.0469 12.6855V10.8193C16.0469 10.6356 15.8981 10.4868 15.7144 10.4868Z" fill="#37474F"/>
<path d="M15.6069 10.8042H14.2495C14.112 10.8042 13.9995 10.9167 13.9995 11.0542V12.4416C13.9995 12.5791 14.112 12.6916 14.2495 12.6916H15.6069C15.7444 12.6916 15.8569 12.5791 15.8569 12.4416V11.0542C15.8569 10.9167 15.7444 10.8042 15.6069 10.8042Z" fill="#BAE2FD"/>
<path d="M9.75462 10.4868H8.14596C7.96222 10.4868 7.81348 10.6356 7.81348 10.8193V12.6855C7.81348 12.8692 7.96222 13.0179 8.14596 13.0179H9.75587C9.93961 13.0179 10.0884 12.8692 10.0884 12.6855V10.8193C10.0871 10.6356 9.93836 10.4868 9.75462 10.4868Z" fill="#37474F"/>
<path d="M9.64721 10.8042H8.28978C8.15229 10.8042 8.03979 10.9167 8.03979 11.0542V12.4416C8.03979 12.5791 8.15229 12.6916 8.28978 12.6916H9.64721C9.7847 12.6916 9.8972 12.5791 9.8972 12.4416V11.0542C9.8972 10.9167 9.78595 10.8042 9.64721 10.8042Z" fill="#BAE2FD"/>
<path d="M6.77589 10.4868H5.16598C4.98224 10.4868 4.8335 10.6356 4.8335 10.8193V12.6855C4.8335 12.8692 4.98224 13.0179 5.16598 13.0179H6.77589C6.95963 13.0179 7.10838 12.8692 7.10838 12.6855V10.8193C7.10713 10.6356 6.95838 10.4868 6.77589 10.4868Z" fill="#37474F"/>
<path d="M6.66723 10.8042H5.3098C5.17231 10.8042 5.05981 10.9167 5.05981 11.0542V12.4416C5.05981 12.5791 5.17231 12.6916 5.3098 12.6916H6.66723C6.80472 12.6916 6.91722 12.5791 6.91722 12.4416V11.0542C6.91722 10.9167 6.80597 10.8042 6.66723 10.8042Z" fill="#BAE2FD"/>
<path d="M3.79616 10.4868H2.18624C2.0025 10.4868 1.85376 10.6356 1.85376 10.8193V12.6855C1.85376 12.8692 2.0025 13.0179 2.18624 13.0179H3.79616C3.9799 13.0179 4.12864 12.8692 4.12864 12.6855V10.8193C4.12739 10.6356 3.97865 10.4868 3.79616 10.4868Z" fill="#37474F"/>
<path d="M3.68746 10.8042H2.33129C2.19379 10.8042 2.0813 10.9167 2.0813 11.0542V12.4416C2.0813 12.5791 2.19379 12.6916 2.33129 12.6916H3.68746C3.82496 12.6916 3.93745 12.5791 3.93745 12.4416V11.0542C3.93745 10.9167 3.82621 10.8042 3.68746 10.8042Z" fill="#BAE2FD"/>
<path d="M12.1831 6.2122C12.7775 6.2122 13.2593 5.73037 13.2593 5.13601C13.2593 4.54164 12.7775 4.05981 12.1831 4.05981C11.5888 4.05981 11.1069 4.54164 11.1069 5.13601C11.1069 5.73037 11.5888 6.2122 12.1831 6.2122Z" fill="#455A64"/>
<path d="M14.6143 6.2122C15.2086 6.2122 15.6905 5.73037 15.6905 5.13601C15.6905 4.54164 15.2086 4.05981 14.6143 4.05981C14.0199 4.05981 13.5381 4.54164 13.5381 5.13601C13.5381 5.73037 14.0199 6.2122 14.6143 6.2122Z" fill="#455A64"/>
<path d="M12.1831 5.89718C12.6035 5.89718 12.9443 5.55637 12.9443 5.13597C12.9443 4.71556 12.6035 4.37476 12.1831 4.37476C11.7627 4.37476 11.4219 4.71556 11.4219 5.13597C11.4219 5.55637 11.7627 5.89718 12.1831 5.89718Z" fill="#607D8B"/>
<path d="M14.6142 5.89718C15.0346 5.89718 15.3754 5.55637 15.3754 5.13597C15.3754 4.71556 15.0346 4.37476 14.6142 4.37476C14.1938 4.37476 13.853 4.71556 13.853 5.13597C13.853 5.55637 14.1938 5.89718 14.6142 5.89718Z" fill="#607D8B"/>
<path d="M13.8629 4.53101H12.9792C12.5192 4.53101 11.978 4.75974 11.978 5.13597C11.978 5.25972 12.0693 5.35971 12.1818 5.35971C12.2943 5.35971 12.3855 5.25972 12.3855 5.13597C12.3855 5.12222 12.3843 5.10848 12.3818 5.09473C12.763 5.05223 12.833 5.32721 12.833 5.56095V8.85328H13.9754V5.56095C13.9754 5.32721 14.0779 5.00098 14.4579 5.09473C14.4554 5.10848 14.4541 5.12097 14.4541 5.13597C14.4541 5.25972 14.5454 5.35971 14.6579 5.35971C14.7704 5.35971 14.8616 5.25972 14.8616 5.13597C14.8641 4.75974 14.3229 4.53101 13.8629 4.53101Z" fill="#82AEC0"/>
<path d="M12.3831 5.09467C12.3831 5.09467 12.6418 4.95717 12.843 5.03467C13.043 5.11342 13.078 5.25841 13.078 5.52839V8.3395H12.828C12.828 8.3395 12.8305 5.77713 12.8305 5.47465C12.8305 5.10467 12.3831 5.09467 12.3831 5.09467Z" fill="#C9E3E6"/>
<path d="M14.4606 5.09467C14.4606 5.09467 14.2019 4.95717 14.0006 5.03467C13.8006 5.11342 13.7656 5.25841 13.7656 5.52839V8.3395H14.0156C14.0156 8.3395 14.0131 5.77713 14.0131 5.47465C14.0131 5.10467 14.4606 5.09467 14.4606 5.09467Z" fill="#455A64"/>
</svg>
