<svg xmlns="http://www.w3.org/2000/svg" width="18" height="18" fill="none" viewBox="0 0 18 18"><path fill="#F77E00" d="M15.5564 1.49487H2.55708C2.00461 1.49487 1.55713 1.94235 1.55713 2.49482V15.4941C1.55713 16.0466 2.00461 16.4941 2.55708 16.4941H15.5564C16.1089 16.4941 16.5563 16.0466 16.5563 15.4941V2.49482C16.5563 1.94235 16.1089 1.49487 15.5564 1.49487Z"/><path fill="#FF9800" d="M14.7689 1.49487H2.49458C1.97836 1.49862 1.56088 1.9161 1.55713 2.43232V14.6692C1.55588 15.1867 1.97461 15.6054 2.49208 15.6066C2.49333 15.6066 2.49333 15.6066 2.49458 15.6066H14.7564C15.2739 15.6079 15.6926 15.1892 15.6939 14.6717C15.6939 14.6704 15.6939 14.6704 15.6939 14.6692V2.43232C15.7051 1.9261 15.3027 1.50612 14.7964 1.49487C14.7877 1.49487 14.7777 1.49487 14.7689 1.49487Z"/><path fill="#FFBD52" d="M6.01964 2.6074C6.01964 2.31992 5.81965 2.23242 4.66971 2.26992C3.70726 2.30742 3.23229 2.41991 2.9448 2.76989C2.65732 3.11987 2.58232 3.83234 2.56982 4.68229C2.56982 5.28226 2.56982 5.84473 2.88231 5.84473C3.30729 5.84473 3.30729 4.85728 3.65727 4.30731C4.33223 3.21987 6.01964 2.98238 6.01964 2.6074Z" opacity=".75"/><path fill="#FAFAFA" d="M12.2068 12.4944H5.90711C5.71337 12.4944 5.55713 12.3381 5.55713 12.1444V5.84473C5.55713 5.65099 5.71337 5.49475 5.90711 5.49475H12.2068C12.3955 5.48975 12.5518 5.63849 12.5568 5.82723C12.5568 5.83348 12.5568 5.83848 12.5568 5.84473V12.1444C12.5618 12.3331 12.413 12.4894 12.2243 12.4944C12.218 12.4944 12.213 12.4944 12.2068 12.4944Z"/></svg>