<svg xmlns="http://www.w3.org/2000/svg" width="18" height="18" fill="none" viewBox="0 0 18 18"><path fill="url(#paint0_radial_715_447)" d="M10.0446 8.66819C9.96584 8.61944 6.46727 9.25566 6.46727 9.25566C6.46727 9.25566 5.1061 10.7668 4.81986 11.0243C4.53363 11.2806 3.94241 11.793 3.58743 12.0593C3.23244 12.3255 2.54248 12.818 2.54248 12.818L3.60742 13.8729L9.79835 15.3816C9.79835 15.3816 15.1531 13.9479 15.1018 13.8454C15.0506 13.7429 10.0446 8.66819 10.0446 8.66819Z"/><path fill="#234096" d="M10.9284 8.8645L10.3884 10.4069C10.3884 10.4069 11.1859 11.6431 11.4159 11.9493C11.6459 12.2556 12.797 13.553 12.797 13.553L15.3657 12.3943C15.3657 12.3943 14.7969 12.1543 13.792 11.2794C12.7871 10.4057 12.2183 9.8807 12.2183 9.8807L10.9284 8.8645Z"/><path fill="#BDCCD1" d="M7.16607 14.3216C7.15358 14.2829 6.17363 13.4192 6.17363 13.4192L2.88755 14.2566C2.88755 14.2566 1.43138 14.3979 1.45763 14.7079C1.48387 15.0166 1.63762 15.6616 2.23134 16.0478C2.8238 16.434 3.72626 16.434 4.30623 16.4603C4.88619 16.4865 7.81229 16.4865 9.4222 16.499C11.0334 16.5115 13.507 16.5253 14.3844 16.434C15.2619 16.3428 15.9181 16.0341 16.2268 15.5453C16.5356 15.0554 16.5618 14.6179 16.5356 14.2304C16.5093 13.8442 12.7333 15.0941 12.7333 15.0941L7.16607 14.3216Z"/><path fill="#E4EBEE" d="M7.30731 13.7292C7.30731 13.7292 7.10107 12.9942 6.06987 12.8142C5.03868 12.6343 4.58745 13.0717 4.26622 13.033C3.94373 12.9942 3.75124 12.633 3.02878 12.6855C2.30632 12.738 1.80385 13.1242 1.59886 13.7417C1.39387 14.3592 1.45762 14.7079 1.45762 14.7079C1.45762 14.7079 1.62511 15.4429 3.10753 15.4041C4.58995 15.3654 5.02743 14.8241 5.64614 14.4379C6.26486 14.0517 6.62609 13.9354 6.68984 14.0642C6.75484 14.1929 6.22611 14.4642 6.04487 14.9404C5.86363 15.4166 5.81239 15.6366 6.10987 15.6491C6.4061 15.6616 10.7884 15.5978 12.1546 15.5978C13.5207 15.5978 15.0544 15.5328 15.6856 15.2116C16.3168 14.8891 16.5743 14.5804 16.5743 14.5804C16.5743 14.5804 16.8068 13.8067 16.0981 12.9567C15.3894 12.1055 14.4619 12.0418 13.7782 12.2868C13.0958 12.5318 12.7083 13.138 12.7083 13.138C12.7083 13.138 12.362 12.613 11.4708 12.5705C9.82092 12.493 8.98347 13.8717 8.98347 13.8717C8.98347 13.8717 8.59724 13.7042 8.17101 13.6654C7.85853 13.6355 7.30731 13.7292 7.30731 13.7292Z"/><path fill="#fff" d="M3.8788 10.5544C3.88505 10.6807 3.96255 10.7182 4.03879 10.7182C4.11504 10.7182 4.20254 10.6682 4.21129 10.5707C4.22129 10.4532 4.15629 10.3857 4.05129 10.3819C3.9463 10.3782 3.87505 10.4707 3.8788 10.5544Z"/><path fill="#8CC2EA" d="M9.89972 10.5057C9.89972 10.5057 10.4109 10.5931 10.4647 10.5681C10.5872 10.5119 10.6984 10.2669 10.7697 10.1794C10.8222 10.1157 10.9097 10.1494 10.9522 10.1707C10.9959 10.1919 11.3496 10.5394 11.3859 10.5456C11.4221 10.5531 11.6859 10.5644 11.7009 10.5144C11.7159 10.4644 11.3359 10.1057 11.2484 10.0119C11.1622 9.91818 11.0709 9.77069 11.1909 9.70194C11.3259 9.62445 11.4646 9.75194 11.5221 9.80944C11.5796 9.86693 12.1733 10.4294 12.2233 10.4519C12.2733 10.4732 12.7183 10.3882 12.7533 10.3294C12.7758 10.2919 12.4021 9.94443 12.1908 9.74819C12.0146 9.58445 11.2646 8.87824 10.9684 8.6045C10.6722 8.33077 10.2722 7.91829 10.1785 7.80329C10.111 7.71955 9.94097 7.53206 9.78223 7.41956C9.72098 7.37707 9.64223 7.31582 9.57849 7.35332C9.52599 7.38457 9.46474 7.42706 9.46474 7.42706C9.46474 7.42706 9.30725 7.54706 9.03977 7.56706C8.79978 7.58455 8.70228 7.49456 8.64979 7.44206C8.57604 7.36957 8.52354 7.29582 8.3498 7.35082C8.18856 7.40206 8.30855 7.81704 8.30855 7.81704L9.89972 10.5057Z"/><path fill="#8CC2EA" d="M6.71484 10.0769C6.71484 10.0769 7.02483 10.2219 7.06857 10.4094C7.11232 10.5969 7.14107 10.8756 7.26731 10.9456C7.4623 11.0543 7.98228 10.3231 8.11477 10.1419C8.25226 9.9544 8.396 9.78816 8.63474 9.86066C8.87348 9.93315 8.95223 10.1644 8.95223 10.1644L8.93723 9.50693L8.03477 9.26819L7.13232 9.9544L6.71484 10.0769Z"/><path fill="#fff" d="M12.217 8.57944C12.1558 8.66443 12.1808 8.81943 12.2958 8.87942C12.4108 8.93942 12.517 8.89317 12.577 8.81068C12.637 8.72818 12.597 8.58694 12.517 8.52944C12.4008 8.4457 12.277 8.49569 12.217 8.57944Z"/><path fill="#fff" d="M7.47982 8.2583C7.49482 8.22955 8.37102 7.48584 8.37102 7.48584C8.37102 7.48584 8.35227 7.59833 8.39102 7.65083C8.43477 7.70833 8.65975 7.87082 8.7385 7.88457C8.84724 7.90332 9.15473 7.88457 9.23472 7.84207C9.31472 7.79957 9.38347 7.73208 9.38347 7.73208L9.37097 8.00831L9.10348 8.49954L9.21222 9.06951L9.82594 9.60323L9.90719 10.7282C9.90719 10.7282 9.76845 10.7719 9.50096 10.8007C9.23347 10.8294 8.44601 10.8594 8.31602 10.8669C8.18603 10.8744 8.04979 10.8669 8.18728 10.7007C8.31602 10.5444 8.48351 10.3757 8.57726 10.2744C8.671 10.1732 8.801 9.93571 8.64225 9.76947C8.48351 9.60323 8.34602 9.63948 8.20853 9.67573C8.07103 9.71197 7.47232 10.1232 7.13983 10.1519C6.80735 10.1807 6.68861 10.1532 6.55861 10.2044C6.48112 10.2344 6.29613 10.3469 6.12239 10.4594C6.00364 10.5369 5.88615 10.5394 5.81615 10.5257C5.65116 10.4957 5.78491 10.3344 6.00239 10.0757C6.14239 9.91071 6.26113 9.60198 6.26113 9.60198L7.47982 8.2583Z"/><path fill="#C6E4F7" d="M6.94359 9.13694C7.02484 9.14694 6.92484 9.34693 6.8286 9.47692C6.73235 9.60567 6.67611 9.72066 6.75235 9.77316C6.8286 9.82566 7.10108 9.55317 7.23983 9.36693C7.37857 9.18069 7.47356 8.8982 7.42107 8.84571C7.36857 8.79321 7.26858 8.93195 7.21483 8.87446C7.16233 8.81696 7.6548 8.29074 7.6548 8.29074L8.38352 7.63952C8.38352 7.63952 8.36852 7.57952 8.37227 7.50203C8.37477 7.44703 8.39852 7.31829 8.32602 7.35829C8.25477 7.39703 7.45232 8.092 7.45232 8.092C7.45232 8.092 6.03989 9.65941 5.96989 9.74941C5.8999 9.8394 5.86115 9.9194 5.90865 10.0094C5.94365 10.0756 6.03114 10.0506 6.03114 10.0506C6.03114 10.0506 6.85985 9.12569 6.94359 9.13694Z"/><path fill="#C6E4F7" d="M8.10104 8.18082C8.01979 8.15207 7.8948 8.30081 7.8473 8.48205C7.7998 8.66329 7.8048 8.75954 7.71856 8.90703C7.63231 9.05452 7.23108 9.54325 7.33108 9.65824C7.43107 9.77324 8.03479 9.09077 8.11978 8.99328C8.22353 8.87453 8.31102 8.76329 8.30102 8.65829C8.29103 8.5533 8.20103 8.47205 8.19103 8.41956C8.18228 8.36706 8.20603 8.21707 8.10104 8.18082Z"/><path fill="#fff" d="M15.0208 8.20696C15.0208 8.28445 15.0558 8.35945 15.1845 8.3657C15.3132 8.37195 15.3607 8.27945 15.3632 8.19946C15.3657 8.11946 15.2857 8.03197 15.1895 8.03322C15.092 8.03697 15.0208 8.11321 15.0208 8.20696Z"/><path fill="#fff" d="M4.22358 7.77577C4.16734 7.78077 4.05484 8.11825 4.05484 8.11825C4.05484 8.11825 3.70986 8.1395 3.69861 8.1795C3.68736 8.2195 3.9361 8.44199 3.9361 8.44199C3.9361 8.44199 3.84485 8.74447 3.88735 8.77822C3.92985 8.81072 4.21859 8.61823 4.21859 8.61823C4.21859 8.61823 4.52107 8.81322 4.55857 8.78447C4.59607 8.75572 4.49732 8.42574 4.49732 8.42574C4.49732 8.42574 4.73231 8.222 4.72981 8.1745C4.72731 8.127 4.38483 8.127 4.38483 8.127C4.38483 8.127 4.26358 7.77327 4.22358 7.77577Z"/><path fill="#fff" d="M1.79763 7.82324C1.78763 7.96698 1.92637 8.02698 2.00137 8.02323C2.07637 8.01823 2.18636 7.97823 2.20136 7.85699C2.21511 7.73449 2.13386 7.632 2.01137 7.627C1.89138 7.62075 1.80388 7.71699 1.79763 7.82324Z"/><path fill="#C6E4F7" d="M9.15478 7.55074C9.15478 7.55074 9.32852 7.50699 9.41602 7.4445C9.54726 7.3495 9.59851 7.3445 9.60226 7.347C9.64225 7.377 9.67725 7.43575 9.641 7.55199C9.60601 7.66448 9.52351 7.87447 9.48476 7.96072C9.44601 8.04696 9.33977 8.37945 9.33977 8.37945C9.33977 8.37945 9.23728 8.61069 9.32227 8.72068C9.36977 8.78193 9.60726 9.09441 9.7135 9.22315C9.81849 9.3519 9.93349 9.53439 9.93349 9.53439L10.4872 10.5543C10.4872 10.5543 10.4722 10.5868 10.1047 10.6943C9.98099 10.7306 9.72725 10.7668 9.72725 10.7668C9.72725 10.7668 9.52601 10.0156 9.54101 9.91562C9.55601 9.81562 9.60351 9.45189 9.52226 9.37065C9.44101 9.2894 9.28352 9.32815 9.17353 9.3519C9.06353 9.37564 8.85355 9.42814 8.80105 9.33315C8.74855 9.2369 8.84355 9.07066 8.88729 8.91692C8.93104 8.76318 9.09853 8.3257 9.09853 8.3257C9.09853 8.3257 9.30352 7.94572 9.31477 7.90822C9.35477 7.77198 9.25227 7.83073 9.25227 7.83073C9.25227 7.83073 9.42477 7.72948 9.36477 7.57699C9.33227 7.50324 9.15478 7.55074 9.15478 7.55074Z"/><path fill="#fff" d="M11.5145 6.28091C11.417 6.3959 11.4357 6.61214 11.6069 6.69589C11.7869 6.78338 11.9169 6.69589 11.9757 6.61339C12.0544 6.5034 12.0407 6.29091 11.8882 6.20841C11.7807 6.14841 11.6157 6.16091 11.5145 6.28091Z" opacity=".5"/><path fill="#fff" d="M5.54106 4.01974C5.44357 4.13473 5.46232 4.35097 5.63356 4.43472C5.81355 4.52221 5.94354 4.43472 6.00229 4.35222C6.08104 4.24223 6.06729 4.02974 5.91479 3.94724C5.8073 3.8885 5.64231 3.89975 5.54106 4.01974Z" opacity=".5"/><path fill="#fff" d="M12.2257 2.73602C12.052 2.65728 11.797 2.75602 11.7558 2.99101C11.712 3.2385 11.8633 3.36724 11.9833 3.40849C12.1445 3.46473 12.397 3.37474 12.4445 3.16225C12.4782 3.01226 12.4057 2.81727 12.2257 2.73602Z"/><defs><radialGradient id="paint0_radial_715_447" cx="0" cy="0" r="1" gradientTransform="translate(8.05022 10.5116) rotate(95.8315) scale(5.03523 11.2524)" gradientUnits="userSpaceOnUse"><stop offset=".251" stop-color="#346FD0"/><stop offset=".262" stop-color="#336DCE"/><stop offset=".452" stop-color="#284DA5"/><stop offset=".55" stop-color="#244196"/></radialGradient></defs></svg>