<svg xmlns="http://www.w3.org/2000/svg" width="18" height="18" fill="none" viewBox="0 0 18 18"><path fill="#C4A878" d="M5.98949 10.4021C5.98949 10.4021 6.04824 11.2421 6.02449 11.6695C5.99949 12.097 5.94824 12.4545 5.94824 12.4545L6.34822 15.6856L6.36947 16.0231C6.36947 16.0231 7.07318 16.4293 8.53561 16.4293C10.728 16.4293 11.6954 16.0818 12.0229 15.3856C12.2867 14.8219 11.8267 13.5444 11.7329 13.1045C11.4242 11.6545 11.6029 10.6071 11.6029 10.6071L5.98949 10.4021Z"/><path fill="#E8D4AF" d="M5.36336 15.1094C5.5171 15.7931 6.44706 16.0581 6.44706 16.0581C6.44706 16.0581 7.80073 16.1343 8.65819 16.0181C9.53814 15.8981 10.2631 15.6906 10.3381 15.1781C10.4131 14.6656 10.3931 14.3207 10.3581 13.7782C10.3431 13.5382 10.3181 12.8782 10.3181 12.8782C10.3181 12.8782 9.3194 12.9295 7.98447 12.8232C6.66954 12.7182 5.95708 12.4058 5.95708 12.4058C5.95708 12.4058 5.76834 13.272 5.63585 13.6194C5.50211 13.9657 5.20962 14.4257 5.36336 15.1094Z"/><path fill="#FF521A" d="M8.83185 1.49757C3.93461 1.49132 1.73598 4.79739 1.82097 8.09472C1.89722 11.0583 6.42323 11.4258 8.68186 11.4583C12.0529 11.507 16.0802 10.8233 16.1577 8.00972C16.2465 4.7399 13.8703 1.50257 8.83185 1.49757Z"/><path fill="#fff" d="M8.68831 2.18875C7.63836 2.155 6.78966 2.69497 6.8209 3.63742C6.85215 4.60112 8.15333 4.78986 8.66456 4.77986C9.35702 4.76611 10.4582 4.50488 10.5132 3.64742C10.5657 2.82872 9.73825 2.2225 8.68831 2.18875Z"/><path fill="#fff" d="M4.48708 3.48994C4.1271 3.78368 3.93461 4.3424 4.21709 4.60363C4.48208 4.84737 4.9583 4.65988 5.28453 4.37865C5.61077 4.09741 5.927 3.72993 5.74326 3.4087C5.51827 3.01497 4.89581 3.15621 4.48708 3.48994Z"/><path fill="#fff" d="M3.04983 6.78477C2.7336 7.69347 2.84234 8.63717 3.63355 9.0309C4.42476 9.42463 5.52095 8.91966 5.83093 8.03346C6.14217 7.14725 5.96843 5.99731 5.19847 5.68983C4.42851 5.38235 3.36606 5.87607 3.04983 6.78477Z"/><path fill="#fff" d="M7.73825 8.20477C7.722 9.32221 8.64695 10.3209 9.83439 10.2547C11.0218 10.1884 11.7355 9.4872 11.7605 8.31727C11.788 7.00233 10.7068 6.27737 9.64815 6.30612C8.58945 6.33487 7.7545 7.08858 7.73825 8.20477Z"/><path fill="#fff" d="M11.453 4.08868C10.8792 4.88364 11.3517 5.75484 11.9554 6.22482C12.6892 6.79479 13.6379 6.88853 14.0891 6.19607C14.5991 5.41236 14.1991 4.65115 13.6754 4.11493C13.1516 3.57871 12.0254 3.29372 11.453 4.08868Z"/><path fill="#fff" d="M13.8918 7.66469C13.4618 7.83968 13.5155 8.36715 13.6568 8.64589C13.7968 8.92212 14.1742 9.16211 14.4942 9.04962C14.8267 8.93212 14.9467 8.55714 14.8305 8.19466C14.713 7.83218 14.3792 7.4672 13.8918 7.66469Z"/></svg>