<svg xmlns="http://www.w3.org/2000/svg" width="18" height="18" fill="none" viewBox="0 0 18 18"><path fill="#424242" d="M16.5019 14.4017C11.3075 16.627 6.6894 12.1777 1.5 14.4017V3.60039C6.6894 1.37636 11.3075 5.82567 16.5019 3.60039V14.4017Z"/><path fill="url(#paint0_linear_744_75098)" d="M16.5019 14.4017C11.3075 16.627 6.6894 12.1777 1.5 14.4017V3.60039C6.6894 1.37636 11.3075 5.82567 16.5019 3.60039V14.4017Z" opacity=".3"/><path fill="url(#paint1_linear_744_75098)" d="M16.5019 14.4017C11.3075 16.627 6.6894 12.1777 1.5 14.4017V3.60039C6.6894 1.37636 11.3075 5.82567 16.5019 3.60039V14.4017Z" opacity=".2"/><path fill="url(#paint2_linear_744_75098)" d="M16.5019 14.4017C11.3075 16.627 6.6894 12.1777 1.5 14.4017V3.60039C6.6894 1.37636 11.3075 5.82567 16.5019 3.60039V14.4017Z" opacity=".2"/><path fill="#fff" d="M5.68049 9.60463C5.89048 9.70213 6.11921 9.62713 6.19046 9.42839C6.74668 9.71338 7.02417 9.87587 7.58039 10.2134C7.96787 10.1871 8.16036 10.1796 8.54784 10.1659C7.68413 9.61588 7.25165 9.3384 6.3867 8.88092C6.45795 8.68343 6.3442 8.43219 6.13421 8.32595C5.92422 8.21971 5.69549 8.30345 5.62424 8.50469C5.58424 8.61718 5.60299 8.74218 5.66299 8.84842C5.55549 8.87717 5.46675 8.95467 5.428 9.06841C5.35675 9.2709 5.4705 9.50714 5.68049 9.60463Z"/><path fill="#fff" d="M12.071 11.8362C11.861 11.7337 11.6322 11.8037 11.561 11.9999C11.0048 11.7037 10.7273 11.5362 10.1711 11.1937C9.78358 11.215 9.59109 11.2225 9.20361 11.235C10.0673 11.7862 10.4998 12.0699 11.3647 12.5449C11.2935 12.7399 11.4072 12.9936 11.6172 13.1049C11.8272 13.2161 12.056 13.1386 12.1272 12.9386C12.1672 12.8274 12.1485 12.7011 12.0885 12.5949C12.196 12.5687 12.2847 12.4937 12.3234 12.3812C12.3947 12.1787 12.281 11.9387 12.071 11.8362Z"/><path fill="#fff" d="M11.5613 10.8436C11.6325 11.0686 11.8601 11.2248 12.0713 11.1848C12.2814 11.1461 12.3951 10.9298 12.3239 10.7098C12.2839 10.5873 12.1963 10.4886 12.0888 10.4311C12.1488 10.3423 12.1663 10.2211 12.1276 10.0986C12.0563 9.87737 11.8288 9.72863 11.6175 9.75988C11.4063 9.79113 11.2937 9.99237 11.365 10.2186C9.64228 10.3998 7.90831 10.3411 6.1906 10.5861C6.11934 10.3636 5.89181 10.2124 5.68054 10.2561C5.47051 10.3011 5.35674 10.5198 5.428 10.7373C5.46801 10.8586 5.55552 10.9548 5.66303 11.0098C5.60303 11.1011 5.58552 11.2211 5.62428 11.3435C5.69554 11.5623 5.92307 11.7048 6.13434 11.6698C6.34562 11.6348 6.45813 11.4298 6.38687 11.2061C8.10709 10.9911 9.84106 11.0511 11.5613 10.8436Z"/><path fill="#fff" d="M9.95542 5.87424C9.28171 5.32052 8.46925 5.06304 7.79429 5.23553C7.11807 5.40802 6.48686 6.00049 7.12682 7.64415C7.12682 7.64415 6.78434 8.6741 7.87053 8.72534C7.87053 8.72534 8.04428 8.74534 8.03303 9.00408V9.12782C8.03303 9.20782 8.09802 9.29031 8.17677 9.31281C8.17802 9.31281 8.17927 9.31406 8.18052 9.31406C8.26051 9.33781 8.32426 9.29156 8.32426 9.21282V9.09282C8.39426 9.11282 8.42801 9.12407 8.498 9.14407V9.26407C8.498 9.34406 8.563 9.42656 8.64174 9.45156H8.64299C8.72299 9.4753 8.78674 9.43031 8.78674 9.35156V9.23157C8.85673 9.25282 8.89048 9.26282 8.96048 9.28406V9.40406C8.96048 9.48405 9.02547 9.5678 9.10422 9.59155C9.18422 9.6153 9.24796 9.5703 9.24796 9.49155V9.37156C9.31796 9.39281 9.35171 9.40281 9.4217 9.42406V9.54405C9.4217 9.62405 9.4867 9.70779 9.56544 9.73029C9.56669 9.73029 9.56795 9.73154 9.5692 9.73154C9.64919 9.75529 9.71294 9.70904 9.71294 9.6303V9.50655C9.70169 9.24157 9.87543 9.32156 9.87543 9.32156C10.9629 9.89278 10.6191 8.6441 10.6191 8.6441C11.2629 7.32167 10.6316 6.42921 9.95542 5.87424ZM8.12177 7.96163C7.82179 7.87414 7.57805 7.5654 7.57805 7.26417C7.57805 6.96294 7.82179 6.78545 8.12177 6.87294C8.42301 6.96044 8.66549 7.27792 8.66549 7.5779C8.66674 7.87914 8.42301 8.04913 8.12177 7.96163ZM9.05672 8.82409C8.94548 8.73534 8.81673 8.6966 8.70549 8.71784C8.66174 8.72659 8.63424 8.70409 8.63424 8.58035C8.63424 8.50036 8.63674 8.43161 8.64174 8.37286C8.65424 8.23537 8.75799 8.16037 8.88048 8.19662C9.00423 8.23412 9.10672 8.37161 9.11922 8.5166C9.12422 8.57785 9.12672 8.6491 9.12672 8.72909C9.12672 8.85159 9.10047 8.85909 9.05672 8.82409ZM9.64544 8.41661C9.34546 8.32786 9.10172 8.01038 9.10172 7.70915C9.10172 7.40791 9.34546 7.23917 9.64544 7.32792C9.94543 7.41666 10.1892 7.72915 10.1892 8.02913C10.1892 8.33036 9.94543 8.50661 9.64544 8.41661Z"/><defs><linearGradient id="paint0_linear_744_75098" x1="1.671" x2="16.298" y1="3.833" y2="14.147" gradientUnits="userSpaceOnUse"><stop stop-color="#fff" stop-opacity="0"/><stop offset=".801" stop-color="#090909" stop-opacity=".915"/><stop offset="1"/></linearGradient><linearGradient id="paint1_linear_744_75098" x1="1.603" x2="16.023" y1="9.001" y2="9.001" gradientUnits="userSpaceOnUse"><stop offset=".001" stop-color="#BFBEBE"/><stop offset=".234" stop-color="#212121" stop-opacity="0"/><stop offset=".803" stop-color="#212121" stop-opacity="0"/><stop offset="1" stop-color="#BFBEBE"/></linearGradient><linearGradient id="paint2_linear_744_75098" x1="9.356" x2="8.63" y1="3.002" y2="15.272" gradientUnits="userSpaceOnUse"><stop offset=".001" stop-color="#BFBEBE"/><stop offset=".197" stop-color="#212121" stop-opacity="0"/><stop offset=".75" stop-color="#212121" stop-opacity="0"/><stop offset="1" stop-color="#BFBEBE"/></linearGradient></defs></svg>