<svg width="18" height="18" viewBox="0 0 18 18" fill="none" xmlns="http://www.w3.org/2000/svg">
<path d="M15.5766 16.5317H2.4148C1.89608 16.5317 1.47485 16.1105 1.47485 15.5917V2.42994C1.47485 1.91122 1.89608 1.48999 2.4148 1.48999H15.5766C16.0953 1.48999 16.5166 1.91122 16.5166 2.42994V15.5917C16.5178 16.1105 16.0966 16.5317 15.5766 16.5317Z" fill="#FFF5D0"/>
<path d="M16.5178 11.3408V15.5918C16.5178 16.1106 16.0966 16.5318 15.5779 16.5318H2.4148C1.89608 16.5318 1.47485 16.1106 1.47485 15.5918V10.9971L16.5178 11.3408Z" fill="#F8AB59"/>
<path d="M16.5178 14.2605V15.5917C16.5178 16.1104 16.0966 16.5316 15.5778 16.5316H10.8068C10.8068 16.5316 9.5369 16.0867 9.19317 16.0354C8.84943 15.9842 7.29827 15.7304 7.23452 15.4879C7.17077 15.2454 9.35816 15.0042 9.77814 14.9667C10.1981 14.928 12.9067 14.6355 13.1105 14.5855C13.3142 14.5342 13.8604 14.3567 14.4841 14.318C15.1079 14.2805 16.5178 14.2605 16.5178 14.2605Z" fill="#F08846"/>
<path d="M12.6018 16.5316H15.5766C16.0953 16.5316 16.5166 16.1104 16.5166 15.5917V15.298C16.5166 15.298 14.1117 15.0755 13.438 15.0342C12.7643 14.993 11.1393 14.9755 11.2543 15.6054C11.3368 16.0554 12.6018 16.5316 12.6018 16.5316Z" fill="#C76933"/>
<path d="M3.12236 14.1393C3.05737 14.2555 3.63984 14.4043 4.56854 14.428C5.49599 14.4518 6.29095 14.2718 6.32719 14.0905C6.36344 13.9093 5.16851 13.7681 4.67478 13.7681C4.13981 13.7681 3.24236 13.9231 3.12236 14.1393Z" fill="#EF8848"/>
<path d="M1.47363 12.2143C1.47363 12.2143 3.06105 12.2481 3.42228 12.2968C3.78351 12.3456 4.34973 12.3943 4.65096 12.3818C4.9522 12.3693 6.7596 12.2006 7.44582 12.1518C8.13203 12.1031 8.72325 12.2481 8.89199 12.2606C9.06073 12.2731 9.47071 12.4056 9.36197 12.4768C9.25322 12.5481 8.57951 12.7655 8.16953 12.778C7.75955 12.7905 7.01334 12.923 6.48337 12.9593C5.9534 12.9955 4.39848 13.0618 3.63852 13.0855C2.87856 13.1093 1.47488 13.0443 1.47488 13.0443L1.47363 12.2143Z" fill="#EF8848"/>
<path d="M16.5167 11.9968C16.5167 11.9968 16.1692 12.0431 15.8917 12.1518C15.6142 12.2606 15.048 12.3806 15.0605 12.4531C15.073 12.5255 15.5905 12.6455 15.843 12.718C16.0955 12.7905 16.5179 12.7943 16.5179 12.7943L16.5167 11.9968Z" fill="#EF8848"/>
<path d="M11.8918 11.4406L16.5166 11.5256L16.5178 11.1156L11.8193 11.0681L11.8918 11.4406Z" fill="#EF8848"/>
<path d="M1.47485 10.5169L1.4761 11.4181C1.4761 11.4181 2.98977 11.5381 3.96597 11.5619C4.94217 11.5856 7.38704 11.4894 7.38704 11.4894C7.38704 11.4894 6.51959 10.3807 6.47084 10.357C6.42209 10.3332 4.89467 9.07202 4.71343 9.07202C4.53219 9.07202 4.3622 9.24826 4.15721 9.30826C3.95222 9.36826 3.15726 9.69324 2.80853 9.86198C2.45855 10.0307 2.24231 10.247 2.00108 10.332C1.75984 10.417 1.47485 10.5169 1.47485 10.5169Z" fill="#EF8848"/>
<path d="M4.97727 9.97082C5.3285 10.427 5.73598 10.537 5.97722 10.7658C6.21846 10.9945 7.02591 11.5132 7.02591 11.5132L12.7356 11.477C12.7356 11.477 12.1569 10.7058 11.5669 10.5858C10.977 10.4658 10.567 10.5495 10.567 10.5495C10.567 10.5495 9.67578 10.4533 9.04956 10.3083C8.42334 10.1633 7.91712 10.0196 7.42339 9.95832C6.92967 9.89708 6.09846 9.66959 5.74848 9.5121C5.3985 9.35585 4.74854 9.07837 4.74854 9.07837C4.74854 9.07837 4.77228 9.24711 4.82103 9.3921C4.86853 9.5371 4.73604 9.65834 4.97727 9.97082Z" fill="#C76831"/>
<path d="M10.112 8.01208C9.67829 8.03458 9.19956 8.38081 9.16332 9.16452C9.14332 9.60825 9.26706 10.2857 9.27581 10.4182C9.29581 10.7344 9.29581 11.6981 9.4808 12.1669C9.67829 12.6693 9.90828 12.9068 10.1133 13.0156C10.3183 13.1243 11.5969 13.763 11.5969 13.763C11.5969 13.763 11.6694 14.9805 11.6819 15.2217C11.6944 15.4629 12.0557 15.7404 12.6944 15.6804C13.3331 15.6204 13.6231 14.053 13.6231 13.9805C13.6231 13.908 13.6718 11.9431 13.6718 11.9431C13.6718 11.9431 14.5518 12.2081 14.9743 11.7506C15.3967 11.2919 16.0117 8.45831 15.8792 8.08458C15.7467 7.71085 15.4205 7.48211 15.083 7.50586C14.7455 7.5296 14.4443 7.71085 14.3593 8.25332C14.2743 8.79579 14.408 9.66449 14.408 9.89323C14.408 10.122 14.348 10.6169 14.1181 10.6894C13.8893 10.7619 13.6843 10.6532 13.6843 10.6532C13.6843 10.6532 13.8943 6.6384 13.7856 6.21717C13.6768 5.7947 13.2381 5.39597 12.6231 5.45596C12.0082 5.51596 11.4494 5.93344 11.3657 6.92214C11.282 7.91084 11.4294 8.31331 11.4419 8.89203C11.4544 9.47075 11.5382 12.2444 11.5382 12.2444C11.5382 12.2444 10.9232 12.5693 10.8145 12.0031C10.7057 11.4369 11.092 9.06077 10.9707 8.68704C10.8495 8.31331 10.582 7.98833 10.112 8.01208Z" fill="#8BC12D"/>
<path d="M10.3706 8.43837C10.3443 8.45837 10.3768 10.0983 10.4006 10.6533C10.4243 11.2082 10.4493 12.1007 10.9068 12.4982C11.258 12.8031 11.5393 12.7331 11.5393 12.7331L11.5318 12.0394C11.5318 12.0394 11.3168 12.0394 11.1368 11.8707C10.8993 11.6495 10.9193 10.9307 10.9681 10.4958C11.0168 10.062 11.0643 9.22958 11.0168 8.84335C10.9681 8.45837 10.7068 8.17464 10.3706 8.43837Z" fill="#418C1D"/>
<path d="M10.968 13.3569C10.943 13.3569 10.9193 13.3482 10.8993 13.3294C10.8743 13.3057 10.2768 12.7394 10.0843 12.3882C9.79434 11.8595 9.79434 11.1308 9.79434 10.857C9.79434 10.7245 9.77809 10.5533 9.75934 10.3558C9.74184 10.1633 9.72184 9.94584 9.70934 9.7046C9.68435 9.19962 9.76809 8.90089 9.84184 8.69465C9.86059 8.64215 9.91683 8.52841 9.96933 8.54216C10.0231 8.55716 10.0243 8.67965 10.0118 8.7334C9.97683 8.88589 9.89683 9.19338 9.91933 9.66585C9.93058 9.90334 9.94183 10.1483 9.95933 10.3383C9.97808 10.5408 9.99433 10.717 9.99433 10.8583C9.99433 11.1183 10.0393 11.8095 10.3043 12.2932C10.4806 12.6157 11.0768 13.1582 11.083 13.1644C11.123 13.2019 11.078 13.2869 11.0405 13.3269C11.0205 13.3469 10.9943 13.3569 10.968 13.3569Z" fill="#5F9A22"/>
<path d="M11.5681 13.1555L11.5969 13.8455C11.5969 13.8455 11.0569 13.8093 10.6357 13.573C10.0882 13.2643 9.77947 12.8093 9.67198 12.5643C9.64323 12.4993 10.3657 12.8643 10.7507 13.003C11.1369 13.1405 11.5681 13.1555 11.5681 13.1555Z" fill="#418C1D"/>
<path d="M13.7531 11.2708C13.7018 11.2708 13.6581 11.2308 13.6531 11.1783C13.6493 11.1233 13.6906 11.0758 13.7456 11.0708C13.7518 11.0708 14.2718 11.0883 14.5318 10.8608C14.7243 10.6933 14.7968 10.1533 14.7893 9.77208C14.7868 9.65584 14.7843 9.54334 14.7868 9.44335C14.798 8.99337 14.7818 8.30216 14.7805 8.29341C14.778 8.23841 14.7343 7.98592 14.8418 7.97717C14.898 7.97342 14.938 8.05592 14.9567 8.14716C15.008 8.39215 14.9967 8.99212 14.9855 9.44835C14.983 9.54584 14.9855 9.65459 14.988 9.76708C14.998 10.2108 14.9505 10.8133 14.688 11.042C14.3768 11.3145 13.7868 11.267 13.7593 11.2695C13.7581 11.2708 13.7556 11.2708 13.7531 11.2708Z" fill="#5F9A22"/>
<path d="M12.8131 15.4204C12.7456 15.4204 12.6406 15.3204 12.6393 15.2517C12.6393 15.2167 12.6281 11.8531 12.6281 11.2556C12.6281 10.8619 12.5806 10.0245 12.5631 9.2495C12.5543 8.84827 12.5493 8.2458 12.5406 8.00957C12.5018 7.07712 12.5793 6.59964 12.6181 6.27591C12.6268 6.20716 12.6718 5.80593 12.7868 5.83718C12.8843 5.86468 12.8656 5.99842 12.8581 6.22966C12.8506 6.4459 12.8081 7.52834 12.8206 8.20331C12.8243 8.43954 12.8331 8.80452 12.8418 9.2045C12.8593 9.98071 12.8806 10.8594 12.8806 11.2569C12.8806 11.8519 12.9406 15.2604 12.9406 15.2942C12.9418 15.3629 12.8868 15.4204 12.8181 15.4217C12.8143 15.4204 12.8131 15.4204 12.8131 15.4204Z" fill="#5F9A22"/>
<path d="M12.1981 15.553C12.1318 15.553 12.1331 15.4643 12.0731 15.4343C11.9843 15.3905 11.9618 13.2519 11.9381 12.3082C11.9231 11.7207 11.8918 10.822 11.8631 10.0721C11.8456 9.61209 11.8168 9.18837 11.8068 8.90338C11.8031 8.78589 11.7881 8.6209 11.7843 8.50215C11.7606 7.85094 11.7606 7.28597 11.8343 6.85724C11.9206 6.34976 11.9931 6.22102 12.0781 6.06728C12.1731 5.89479 12.3093 5.79729 12.3706 5.82854C12.4318 5.85979 12.3556 5.98978 12.3168 6.12853C12.2781 6.26727 12.2118 6.40726 12.1318 6.87599C12.0631 7.27972 12.0356 7.93343 12.0581 8.54215C12.0631 8.66089 12.0668 8.78089 12.0706 8.89963C12.0793 9.18462 12.1218 9.58334 12.1393 10.0421C12.1681 10.792 12.1931 11.702 12.2081 12.292C12.2318 13.2319 12.3218 15.398 12.3231 15.4205C12.3268 15.4893 12.2731 15.548 12.2043 15.5518C12.2018 15.553 12.1993 15.553 12.1981 15.553Z" fill="#5F9A22"/>
<path d="M11.678 15.1518C11.678 15.2618 11.6743 15.6393 11.7555 15.7693C11.868 15.9492 11.9917 15.9542 12.2592 15.993C12.5155 16.0292 13.1517 16.0167 13.3879 15.9542C13.5517 15.9093 13.7191 15.723 13.7504 15.4768C13.7816 15.2305 13.7616 13.8519 13.7716 13.3969C13.7804 12.9419 13.7754 12.4082 13.7754 12.4082C13.7754 12.4082 14.5091 12.3994 15.0866 11.9532C15.664 11.507 15.8865 10.6245 15.9515 10.1133C16.0165 9.60208 16.0228 8.22215 15.8215 7.96217C15.6778 7.77718 15.4053 7.85467 15.4116 8.09716C15.4153 8.22715 15.4491 9.68708 15.3278 10.2995C15.2066 10.9133 15.1053 11.247 14.7241 11.4895C14.3429 11.7307 13.7854 11.6945 13.7854 11.6945C13.7854 11.6945 13.8229 9.29585 13.8879 8.42214C13.9529 7.54844 14.0179 6.51724 13.7304 6.02352C13.4467 5.53855 13.1417 5.60604 13.1554 5.82353C13.1592 5.87978 13.2729 6.10102 13.3129 6.61724C13.3504 7.10846 13.4054 8.14216 13.3767 8.95087C13.3492 9.75957 13.2554 11.1907 13.2367 12.5207C13.2179 13.8494 13.4792 14.9718 12.9379 15.208C12.5217 15.3855 11.678 15.1518 11.678 15.1518Z" fill="#378016"/>
<path d="M2.95471 4.94977C2.92971 5.98097 3.68217 6.50844 4.50963 6.54719C5.15084 6.57719 6.01205 6.10221 6.03079 5.07602C6.04954 4.04482 5.41083 3.50985 4.53462 3.4536C3.79091 3.4061 2.97846 3.99482 2.95471 4.94977Z" fill="#FFDA6B"/>
</svg>
