<svg xmlns="http://www.w3.org/2000/svg" width="18" height="18" fill="none" viewBox="0 0 18 18"><path fill="#D7CCC6" d="M10.6258 6.05226L3.4762 13.7031C3.4762 13.7031 5.75608 16.4417 9.39713 16.2767C11.902 16.163 13.4044 15.2293 14.6344 13.8168C16.1368 12.0907 16.4755 9.55832 16.388 8.39713C16.2743 6.89471 15.2493 4.93607 14.4519 4.3436C13.6544 3.75113 10.6258 6.05226 10.6258 6.05226Z"/><path fill="#F1EDEC" d="M4.1361 3.61607C1.76623 5.72471 0.200059 10.512 3.47614 13.703C5.22979 15.4104 10.967 15.4967 13.6993 11.9219C14.983 10.2432 16.013 7.61711 15.3168 5.52847C15.043 4.70851 14.3081 4.11979 13.6544 3.56982C10.512 0.92871 7.02845 1.04245 4.1361 3.61607Z"/><path fill="#979892" d="M9.70831 16.5104L9.22209 16.4704C9.23209 16.4242 10.2445 11.8744 7.28469 8.89209C5.96976 7.56716 4.75857 6.95469 3.68363 7.07344C2.56369 7.19593 1.81873 8.23338 1.81373 8.24338L1.58374 7.77715C1.61249 7.73215 2.27245 6.72596 3.62988 6.57721C4.86482 6.44347 6.2135 7.10344 7.64092 8.54086C10.7958 11.7219 9.75331 16.313 9.70831 16.5104Z"/><path fill="#979892" d="M16.2493 8.60082C16.2155 8.57832 12.9294 6.2522 11.2333 4.80477C9.70835 3.50484 7.68721 1.68869 7.66846 1.66994L8.01969 1.44995C8.03844 1.46745 9.98459 3.19361 11.5045 4.48979C13.1857 5.92346 16.3368 8.1821 16.3705 8.20459L16.2493 8.60082Z"/><path fill="#ED520A" d="M9.54334 3.0312C9.48085 3.09745 9.31961 3.57992 9.25711 3.84866C9.22086 4.0024 9.24336 4.24114 9.43585 4.27239C9.65084 4.30864 9.73208 4.18489 9.79833 4.00115C9.86458 3.81741 9.98207 3.48493 9.98207 3.48493C9.98207 3.48493 10.3246 3.37118 10.4933 3.32119C10.7183 3.25494 10.7845 3.16245 10.7895 3.04495C10.7945 2.92746 10.672 2.70747 10.2933 2.79497C10.0596 2.84996 9.63459 2.93371 9.54334 3.0312Z"/><path fill="#ED520A" d="M8.43838 2.09878C8.38464 2.14253 8.12715 2.76875 8.0859 2.84749C8.0434 2.92624 8.01716 3.12748 8.16465 3.21247C8.31214 3.29747 8.47338 3.15123 8.52963 3.02623C8.58463 2.90124 8.74587 2.53001 8.74587 2.53001C8.74587 2.53001 9.1396 2.50876 9.28084 2.48876C9.45333 2.46501 9.58457 2.41751 9.57457 2.21877C9.56457 2.02004 9.24334 2.03503 8.91211 2.05628C8.70337 2.06878 8.47463 2.06878 8.43838 2.09878Z"/><path fill="#ED520A" d="M7.6672 1.37628C7.5772 1.41753 7.22722 1.77501 7.18098 1.83625C7.13473 1.8975 7.09973 2.02999 7.21722 2.12249C7.33472 2.21498 7.49846 2.13749 7.5847 2.07624C7.6722 2.01499 7.83469 1.815 7.83469 1.815C7.83469 1.815 8.17217 1.82 8.26967 1.825C8.36716 1.83 8.49466 1.75376 8.49466 1.60002C8.49466 1.44627 8.31592 1.38503 8.16717 1.38003C8.01968 1.37628 7.72345 1.35003 7.6672 1.37628Z"/><path fill="#ED520A" d="M10.957 4.20748C10.8745 4.27248 10.672 4.99869 10.6295 5.14493C10.587 5.29118 10.5182 5.60366 10.7345 5.67116C10.962 5.7424 11.1145 5.64116 11.182 5.38367C11.2445 5.14618 11.387 4.64996 11.387 4.64996C11.387 4.64996 11.9332 4.44872 12.0532 4.40247C12.1732 4.35622 12.3119 4.20373 12.2282 4.01624C12.1444 3.82875 11.9057 3.8525 11.7882 3.895C11.7894 3.89625 11.037 4.14499 10.957 4.20748Z"/><path fill="#ED520A" d="M12.367 5.41726C12.3095 5.49226 12.117 6.16347 12.0857 6.30222C12.0545 6.43971 12.0557 6.6597 12.2745 6.71595C12.4532 6.76219 12.597 6.6697 12.637 6.50096C12.7044 6.22097 12.8519 5.81599 12.8519 5.81599C12.8519 5.81599 13.2407 5.596 13.3882 5.51976C13.5369 5.44351 13.6031 5.23352 13.5107 5.08478C13.4182 4.93604 13.2094 4.95729 13.0044 5.02853C12.8007 5.10103 12.4182 5.35102 12.367 5.41726Z"/><path fill="#ED520A" d="M13.7656 6.47224C13.6931 6.58099 13.6731 7.22345 13.6731 7.32095C13.6731 7.41844 13.7443 7.67343 13.9743 7.67343C14.1793 7.67343 14.2656 7.45344 14.2656 7.34095C14.2656 7.22845 14.2906 6.79348 14.2906 6.79348C14.2906 6.79348 14.5543 6.65348 14.648 6.58849C14.7755 6.50099 14.9193 6.3385 14.8268 6.16476C14.7343 5.99102 14.4893 6.04227 14.3306 6.10851C14.2193 6.15726 13.8168 6.396 13.7656 6.47224Z"/><path fill="#ED520A" d="M15.0456 7.51092C15.0006 7.61967 14.9981 8.22588 15.0081 8.38963C15.0181 8.55337 15.1569 8.69586 15.3356 8.69086C15.5143 8.68586 15.5968 8.51712 15.5906 8.38463C15.5843 8.25213 15.6006 7.81716 15.6006 7.81716C15.6006 7.81716 15.8381 7.65216 15.9018 7.60717C15.9993 7.54092 16.0193 7.38218 15.9331 7.25969C15.8456 7.13719 15.6668 7.10094 15.4981 7.19844C15.3293 7.29593 15.0631 7.46717 15.0456 7.51092Z"/><path fill="#ED520A" d="M15.9942 8.18978C15.913 8.32977 15.9892 8.96724 15.9892 9.02848C15.9892 9.08973 16.0092 9.29972 16.2192 9.29972C16.403 9.29972 16.4642 9.18722 16.4692 9.08473C16.4742 8.98224 16.4592 8.40477 16.4592 8.40477C16.4592 8.40477 16.638 8.34852 16.5617 8.11353C16.4855 7.87979 16.0792 8.04479 15.9942 8.18978Z"/><path fill="#ED520A" d="M8.82967 16.1754C8.75968 16.2992 8.77468 16.4616 9.03841 16.5941C9.3034 16.7266 9.35715 16.7341 9.41339 16.7379C9.51214 16.7429 9.73838 16.6666 9.88712 16.5841C10.0059 16.5179 10.1521 16.4192 10.0471 16.2267C9.94961 16.0467 9.41964 16.2592 9.41964 16.2592C9.41964 16.2592 8.95092 15.9617 8.82967 16.1754Z"/><path fill="#ED520A" d="M8.79584 15.0468C8.6496 15.1818 8.74584 15.383 9.04333 15.5755C9.30831 15.7468 9.45706 15.873 9.57205 15.873C9.68704 15.873 10.1208 15.6543 10.2333 15.5918C10.4045 15.498 10.4595 15.3105 10.327 15.1781C10.1945 15.0456 10.007 15.1831 9.91328 15.2331C9.81954 15.283 9.60455 15.3868 9.60455 15.3868C9.60455 15.3868 9.32331 15.1831 9.22957 15.1168C9.13582 15.0506 8.93958 14.9143 8.79584 15.0468Z"/><path fill="#ED520A" d="M8.65333 13.6619C8.53333 13.8419 8.60333 14.0306 8.88957 14.1906C9.1758 14.3506 9.53453 14.4931 9.64953 14.5106C9.76452 14.5281 10.217 14.1356 10.3045 14.0531C10.392 13.9706 10.6345 13.7119 10.4807 13.5356C10.297 13.3257 10.1008 13.4856 9.92451 13.6069C9.78952 13.6994 9.63203 13.8156 9.63203 13.8156C9.63203 13.8156 9.32954 13.7331 9.1533 13.6506C8.97831 13.5681 8.76332 13.4969 8.65333 13.6619Z"/><path fill="#ED520A" d="M9.36704 12.1932C9.36704 12.1932 9.68077 11.8682 9.79702 11.7582C9.91326 11.6482 10.1108 11.5382 10.2595 11.7144C10.4082 11.8907 10.2545 12.1557 10.1157 12.2819C9.97701 12.4082 9.62578 12.8219 9.52578 12.8381C9.42579 12.8544 8.69458 12.7219 8.48459 12.6119C8.36084 12.5469 8.1646 12.4244 8.27585 12.1769C8.36709 11.9719 8.57333 11.9957 8.72707 12.0282C8.88082 12.0607 9.36704 12.1932 9.36704 12.1932Z"/><path fill="#ED520A" d="M8.61959 10.4259C8.61959 10.4259 8.88457 9.88594 8.97207 9.69345C9.06081 9.50096 9.17081 9.32472 9.4183 9.41222C9.66578 9.49971 9.59079 9.73345 9.50704 9.95719C9.4083 10.2222 9.13206 10.9209 9.01082 10.9821C8.86332 11.0559 8.08587 11.0809 7.81588 11.0759C7.69464 11.0734 7.55714 10.9871 7.56214 10.8221C7.56714 10.6572 7.66964 10.5422 7.93712 10.4972C8.10212 10.4697 8.61959 10.4259 8.61959 10.4259Z"/><path fill="#ED520A" d="M7.39717 8.64091C7.36967 8.65716 6.80095 8.88589 6.65846 8.92714C6.44972 8.98714 6.37722 9.19713 6.42222 9.34587C6.46722 9.49461 6.66971 9.57211 6.90719 9.49961C7.14343 9.42837 7.85964 9.24588 7.92589 9.14213C7.99214 9.03839 8.10213 8.29968 8.12463 8.10719C8.14713 7.9147 8.15213 7.67221 7.89839 7.63346C7.64466 7.59471 7.54091 7.76595 7.51841 7.94719C7.50466 8.05844 7.39717 8.64091 7.39717 8.64091Z"/><path fill="#ED520A" d="M5.86477 7.40461C5.86477 7.40461 5.90852 6.90339 5.92477 6.75465C5.94102 6.6059 5.99601 6.40717 6.25475 6.42466C6.51348 6.44216 6.48599 6.77715 6.48599 6.99213C6.48599 7.20712 6.43599 7.76834 6.40349 7.79584C6.37099 7.82334 6.02351 8.09333 5.84227 8.21457C5.66103 8.33581 5.36854 8.41706 5.25855 8.25207C5.14856 8.08708 5.30855 7.82959 5.48479 7.6971C5.66103 7.5646 5.86477 7.40461 5.86477 7.40461Z"/><path fill="#ED520A" d="M4.28114 5.71862C4.02616 5.78236 4.03866 6.0486 4.11615 6.31859C4.19365 6.58857 4.2374 6.80856 4.2374 6.80856C4.2374 6.80856 4.05616 7.08979 3.97866 7.18854C3.90116 7.28728 3.65868 7.57977 3.91241 7.78851C4.16615 7.99725 4.41364 7.62852 4.50738 7.51852C4.59863 7.41228 4.89861 7.0123 4.89861 6.9573C4.89861 6.79731 4.73362 6.20859 4.69487 6.0811C4.65612 5.95361 4.56738 5.64737 4.28114 5.71862Z"/><path fill="#ED520A" d="M2.45124 6.13982C2.3375 6.21732 2.28 6.45355 2.42374 6.65729C2.54123 6.82478 2.62748 6.99852 2.62748 6.99852C2.62748 6.99852 2.47374 7.44475 2.41249 7.58849C2.35124 7.73224 2.28 8.04597 2.53374 8.14471C2.78747 8.24346 2.96371 7.96847 3.02996 7.76473C3.09621 7.56099 3.27245 7.10352 3.27745 6.96603C3.2812 6.87478 3.04121 6.42605 2.93621 6.27231C2.83122 6.11857 2.62248 6.02483 2.45124 6.13982Z"/><path fill="#ED520A" d="M2.03251 7.70974C2.06126 7.84099 1.98876 8.21097 1.91626 8.5247C1.89501 8.6172 1.86377 8.82469 1.60253 8.76094C1.37629 8.70594 1.47004 8.41971 1.49754 8.27596C1.51378 8.19097 1.58003 7.91848 1.58003 7.91848C1.58003 7.91848 1.46004 7.85349 1.46379 7.71474C1.46879 7.5335 1.56253 7.47226 1.71127 7.46101C1.86002 7.44976 2.01001 7.611 2.03251 7.70974Z"/></svg>