<svg xmlns="http://www.w3.org/2000/svg" width="18" height="18" fill="none" viewBox="0 0 18 18"><path fill="#FF9003" d="M9.71058 9.09949C9.71058 9.09949 9.66433 8.31203 9.58933 8.09704C9.39559 7.54707 9.41184 6.59837 10.2168 6.65461C11.023 6.71086 10.8355 7.61956 10.6755 8.10704C10.5168 8.59451 10.5918 9.11823 10.5918 9.11823L9.71058 9.09949Z"/><path fill="#FF9003" d="M8.32441 9.15452C8.33316 9.11702 8.27817 8.5358 8.33316 8.04957C8.38816 7.56335 8.6519 6.80339 7.90194 6.67215C7.15198 6.5409 6.83699 7.5496 7.14573 8.25206C7.45446 8.95453 7.47071 9.29451 7.47071 9.29451L8.32441 9.15452Z"/><path fill="#FA1C1F" d="M6.31964 4.33974C6.91961 3.91476 8.20579 3.45353 8.33079 3.68977C8.45578 3.92726 7.25709 4.77596 7.25709 4.77596C7.25709 4.77596 7.59458 5.41343 7.59458 5.58842C7.59458 5.76341 7.60707 6.20089 7.40708 6.35088C7.2071 6.50087 5.75842 7.41207 5.75842 7.41207C5.75842 7.41207 5.74717 7.59456 5.69593 7.73706C5.59593 8.01454 5.44594 8.09954 5.44594 8.09954L5.35844 8.762L5.84592 9.8107L6.78212 13.433L6.23215 13.783C6.23215 13.783 5.34594 13.5455 5.14595 13.533C4.94596 13.5205 4.58348 13.483 4.49599 13.5205C4.40849 13.558 4.38349 13.083 4.38349 13.083C4.38349 13.083 4.93347 12.658 4.92097 12.5456C4.90847 12.4331 4.55849 12.4243 4.371 12.4056C4.18351 12.3868 3.70603 12.4618 3.65853 12.3868C3.61104 12.3118 3.62104 12.0306 3.80853 11.9468C3.99602 11.8631 4.63348 11.6006 4.64223 11.5256C4.65098 11.4506 4.00226 11.3169 3.58354 11.1856C3.17856 11.0581 2.95857 10.9856 2.65609 10.9081C2.4386 10.8519 2.14111 10.8619 2.14111 10.8619L2.59109 10.2719L4.70848 10.5157C4.70848 10.5157 3.71603 9.74695 3.56604 9.60696C3.41605 9.46697 3.27605 9.31697 3.27605 9.31697C3.27605 9.31697 3.45354 9.19573 3.61354 9.23323C3.77353 9.27073 4.71848 10.0582 4.71848 10.0582C4.71848 10.0582 4.69973 9.7582 4.77472 9.62696C4.84972 9.49571 4.93347 9.46822 4.93347 9.46822C4.93347 9.46822 5.07346 9.58071 5.12096 9.51446C5.1672 9.44947 4.91472 9.17698 4.82097 8.93324C4.72723 8.68951 4.72723 8.53077 4.72723 8.53077C4.72723 8.53077 4.2585 8.41827 4.18351 7.79955C4.10851 7.18084 4.81097 6.76961 4.81097 6.76961L6.31964 4.33974Z"/><path fill="#FA1C1F" d="M9.72935 3.71855C9.6356 4.08728 10.4606 4.88348 10.4606 4.88348L10.4418 5.18347C10.4418 5.18347 10.1606 5.91468 10.3668 6.17592C10.5731 6.4384 11.4068 6.66339 11.4068 6.66339L12.3905 7.65584C12.3905 7.65584 12.6904 8.03957 12.8117 8.16206C12.9329 8.28331 12.2405 9.15451 12.2405 9.15451L11.8842 11.9644L12.1842 13.4918L13.6579 13.3518C13.6579 13.3518 13.5516 13.0618 13.5054 12.9206C13.4592 12.7806 12.9717 12.3493 12.9717 12.3493C12.9717 12.3493 13.1867 12.1156 13.5616 12.0969C13.9366 12.0781 14.3116 12.2368 14.2641 12.0969C14.2179 11.9569 14.0304 11.6656 14.0304 11.6656L13.2054 11.3381C13.2054 11.3381 13.6454 11.0669 13.9454 10.9544C14.2454 10.8419 15.2191 10.5982 15.3503 10.5519C15.4815 10.5057 15.9128 10.6169 15.7715 10.3744C15.6315 10.1307 14.8816 10.1307 14.8816 10.1307L13.2704 10.2807C13.2704 10.2807 13.5979 9.93447 13.9541 9.68073C14.3104 9.42824 14.8903 9.01577 14.8903 9.01577L14.4141 8.87452L13.1217 9.33325C13.1217 9.33325 12.8317 9.52949 12.8317 9.39825C12.8317 9.267 13.3817 9.04576 13.5691 8.63329C13.7029 8.3383 13.5904 8.20831 13.5904 8.20831C13.5904 8.20831 13.8716 8.06832 13.8904 7.62709C13.9091 7.18711 13.5629 6.71839 13.5629 6.71839L10.798 3.89104C10.798 3.89104 9.79934 3.44731 9.72935 3.71855Z"/><path fill="#FF5F00" d="M5.27099 8.20328C4.94726 8.34827 5.05601 8.75325 5.121 8.93074C5.186 9.10823 5.38349 9.47446 5.38349 9.47446C5.38349 9.47446 5.196 9.83944 5.14975 9.99943C5.1035 10.1582 4.99976 10.8144 5.196 11.4519C5.39224 12.0893 5.83346 13.0543 5.94596 13.2318C6.05845 13.4093 6.43343 14.0842 7.23839 14.4679C8.04335 14.8517 9.02705 14.8379 9.75826 14.7867C10.6945 14.7217 11.5757 14.1492 11.7344 13.9155C11.8931 13.6817 12.2406 13.503 12.4369 12.8005C12.6331 12.0981 12.8306 11.0394 12.7743 10.2994C12.7181 9.55946 12.4556 9.24073 12.4556 9.24073C12.4556 9.24073 12.7931 9.08198 12.9893 8.8195C13.1856 8.55701 13.2768 8.25078 13.0043 8.14828C12.7331 8.04579 12.3081 8.33202 12.2019 8.47327C12.0394 8.68825 11.9494 8.91324 11.9494 8.91324C11.9494 8.91324 9.897 8.89449 8.95205 8.94074C7.44338 9.01574 6.63842 9.19323 6.63842 9.19323L5.99221 9.22073C5.99221 9.22073 5.96471 7.8933 5.27099 8.20328Z"/><path fill="#FF5F00" d="M2.02369 9.87948C1.84745 9.74948 2.12369 9.367 2.60491 9.04202C3.08614 8.71704 3.37362 8.61079 3.59111 8.64829C3.80985 8.68579 4.40357 9.06702 4.6648 9.24201C4.88854 9.392 5.12728 9.517 5.13353 9.55449C5.13978 9.59199 5.01728 9.56574 4.88354 9.78573C4.81229 9.90448 4.73355 10.142 4.7523 10.1295C4.77105 10.117 3.58486 9.3895 3.48486 9.3895C3.38487 9.3895 2.8599 9.66074 2.68491 9.72324C2.51117 9.78573 2.16743 9.98572 2.02369 9.87948Z"/><path fill="#FF5F00" d="M1.05235 11.7306C1.0986 11.8406 1.30859 11.8681 1.70232 11.5994C2.09605 11.3306 2.61977 10.7682 2.72602 10.7382C2.83226 10.7082 3.63097 10.8507 4.06844 10.9132C4.50592 10.9757 4.76216 11.0382 4.76216 11.0382L4.73091 10.5257C4.73091 10.5257 3.49473 10.1695 3.076 10.1195C2.65727 10.0695 2.61352 9.99446 2.38228 10.0945C2.15105 10.1944 1.62607 10.8257 1.48358 10.9994C1.34109 11.1731 1.00236 11.6131 1.05235 11.7306Z"/><path fill="#FF5F00" d="M3.58226 11.5193C3.30728 11.5756 2.48357 12.2505 2.33358 12.5055C2.18359 12.7618 1.83361 13.5792 1.75236 13.8855C1.67111 14.1917 1.85235 14.1979 2.03984 14.1229C2.22733 14.048 2.70231 13.3167 2.7898 13.193C2.8773 13.068 3.28353 12.743 3.40852 12.6305C3.53352 12.518 3.9085 12.1931 3.99599 12.1743C4.08349 12.1556 4.99469 12.2555 5.03844 12.2056C5.08218 12.1556 5.01969 11.9431 4.95094 11.8243C4.88219 11.7056 4.65471 11.5718 4.65471 11.5718C4.65471 11.5718 3.7935 11.4756 3.58226 11.5193Z"/><path fill="#FF5F00" d="M5.01847 12.6743C4.72473 12.5993 4.12601 12.7993 3.95727 12.8993C3.78853 12.9993 3.60729 13.2743 3.51354 13.6805C3.4198 14.0867 3.30106 14.7667 3.3948 14.8167C3.48855 14.8667 3.85728 14.6917 4.00727 14.3417C4.15726 13.9917 4.351 13.6355 4.50099 13.5167C4.65098 13.398 4.89472 13.348 5.11346 13.348C5.3322 13.348 5.60093 13.348 5.60093 13.348C5.60093 13.348 5.40094 12.9855 5.3572 12.8855C5.3122 12.7868 5.20221 12.7218 5.01847 12.6743Z"/><path fill="#FF9003" d="M6.63577 9.7832C6.42954 9.52696 6.06705 9.7457 5.83582 10.0644C5.60458 10.3832 5.56083 10.5332 5.59833 11.1194C5.63583 11.7068 6.16705 11.7631 6.1733 11.3444C6.17955 10.9256 6.10455 10.8006 6.24204 10.6007C6.37954 10.4007 6.84951 10.0482 6.63577 9.7832Z"/><path fill="#FF9003" d="M5.92966 12.2493C6.07215 12.4243 6.47338 12.3681 6.50463 12.0743C6.53588 11.7806 6.34214 11.6993 6.1359 11.6993C5.84091 11.7006 5.76717 12.0493 5.92966 12.2493Z"/><path fill="#FF5F00" d="M12.9431 9.42946C12.9431 9.42946 13.0244 9.50071 13.0869 9.63195C13.1569 9.77944 13.1706 9.85069 13.1931 9.88194C13.2206 9.92068 14.223 9.08823 14.5105 9.03823C14.798 8.98823 15.5155 9.50071 15.8155 9.5507C16.0517 9.58945 16.2342 9.5382 16.0842 9.29447C15.9342 9.05073 15.0668 8.33327 14.6918 8.36451C14.2568 8.40076 13.0119 9.37946 12.9431 9.42946Z"/><path fill="#FF5F00" d="M13.2705 10.2794C13.2705 10.2794 14.9767 9.62693 15.3717 9.70818C15.8279 9.80192 16.2366 10.4231 16.3891 10.5819C16.5604 10.7594 17.1141 11.3443 16.8078 11.4556C16.2941 11.6443 15.3592 10.4756 15.2029 10.4006C15.0467 10.3256 14.9529 10.3694 14.528 10.4381C14.103 10.5069 13.2243 10.7694 13.2243 10.7694C13.2218 10.7706 13.248 10.5819 13.2518 10.5044C13.2555 10.4294 13.2705 10.2794 13.2705 10.2794Z"/><path fill="#FF5F00" d="M13.1931 11.2757C13.1519 11.3169 13.1231 11.5832 13.1119 11.6444C13.0931 11.7444 13.0681 11.9069 13.0681 11.9069C13.0681 11.9069 13.9731 11.9257 14.0606 11.9632C14.1481 12.0007 14.4293 12.2906 14.6605 12.4944C14.838 12.6494 15.3667 13.1631 15.3667 13.1631C15.3667 13.1631 15.7667 13.9568 16.0105 13.9631C16.2542 13.9693 16.2542 13.6318 16.1417 13.3256C16.0292 13.0194 15.8667 12.5006 15.8042 12.4394C15.7417 12.3769 15.523 12.0644 15.2605 11.8019C15.1318 11.6732 14.6605 11.2644 14.5355 11.2457C14.4105 11.2257 13.2806 11.1882 13.1931 11.2757Z"/><path fill="#FF5F00" d="M12.9679 12.3218C12.9679 12.3218 13.8354 12.4555 14.1541 12.7368C14.3478 12.908 14.5753 13.3955 14.6166 13.7979C14.6291 13.9242 14.7103 14.6904 14.4978 14.7217C14.2853 14.7529 13.9953 14.3192 13.9141 14.0942C13.8329 13.8692 13.6866 13.473 13.6866 13.473C13.6866 13.473 13.2829 13.2317 13.2616 13.223C13.1116 13.1642 12.6492 13.1542 12.6492 13.1542C12.6492 13.1542 12.8042 12.8742 12.8554 12.7293C12.9179 12.553 12.9679 12.3218 12.9679 12.3218Z"/><path fill="#FF5F00" d="M5.35582 4.29979C4.39462 4.90601 3.8534 6.56092 4.78085 7.24714C5.79205 7.9971 7.18572 6.90966 7.79694 6.08595C8.40816 5.26224 8.70814 4.83727 8.5219 4.58103C8.33566 4.32479 7.43571 5.1185 7.43571 5.1185C7.43571 5.1185 7.51695 5.39974 7.50446 5.72472C7.49196 6.0497 7.46696 6.35594 7.32321 6.35594C7.17947 6.35594 7.19197 5.87471 7.05448 5.46348C6.91699 5.05225 6.77324 5.00101 6.77949 4.83852C6.78574 4.67602 7.51071 4.26855 7.69445 4.16105C8.09067 3.92731 8.42566 3.72732 8.26567 3.63358C8.13442 3.55358 6.78699 3.39859 5.35582 4.29979Z"/><path fill="#FF9003" d="M4.92474 6.57208C5.35971 6.52083 5.15847 6.0871 5.25597 5.73462C5.37471 5.3034 5.74969 5.06591 5.46846 4.82342C5.15972 4.55594 4.81224 5.07466 4.69975 5.63588C4.631 5.97961 4.606 6.60958 4.92474 6.57208Z"/><path fill="#FF5F00" d="M10.9757 5.09217C10.9819 5.21092 10.6694 5.32341 10.5819 5.74214C10.4945 6.16087 10.4882 6.5046 11.2007 7.04082C11.9131 7.57704 12.8118 8.05827 13.418 7.35956C14.0243 6.66084 13.743 5.25467 12.6056 4.34971C11.6819 3.61475 10.4007 3.40851 9.85824 3.59975C9.5395 3.71225 10.1082 4.04348 10.4395 4.36846C10.8282 4.75094 10.9694 4.97343 10.9757 5.09217Z"/><path fill="#FF5F00" d="M9.60813 4.65218C9.49689 4.76968 9.57314 5.20841 9.78312 5.49589C9.95187 5.72713 10.3456 6.12711 10.3456 6.12711C10.3456 6.12711 10.2706 5.60838 10.3206 5.49589C10.3706 5.3834 10.3456 5.14591 10.3456 5.14591C10.3456 5.14591 10.1456 4.96467 10.0331 4.87092C9.92062 4.77718 9.71438 4.53969 9.60813 4.65218Z"/><path fill="#FF9009" d="M10.9507 5.56714C10.7257 5.60464 10.7982 5.96212 10.9507 6.27961C11.1069 6.60459 11.3632 6.74833 11.5194 6.61709C11.6757 6.48584 11.5007 6.19836 11.4069 6.02962C11.3132 5.86088 11.1757 5.52964 10.9507 5.56714Z"/><path fill="#322D2E" d="M10.5922 7.67343C10.6773 7.38759 10.5665 7.1024 10.3448 7.03644C10.1232 6.97049 9.87455 7.14874 9.7895 7.43459C9.70445 7.72043 9.81519 8.00562 10.0368 8.07157C10.2585 8.13752 10.5071 7.95927 10.5922 7.67343Z"/><path fill="#322D2E" d="M7.77837 8.08783C8.02834 8.06225 8.20637 7.80101 8.17601 7.50435C8.14565 7.20768 7.9184 6.98792 7.66843 7.0135C7.41846 7.03908 7.24043 7.30031 7.27079 7.59698C7.30115 7.89365 7.5284 8.11341 7.77837 8.08783Z"/><path fill="#A62616" d="M10.7481 4.76221C10.6606 4.62472 10.3844 4.84846 10.2669 5.13094C10.1294 5.46218 10.1294 5.9184 10.3107 6.10464C10.4919 6.29088 10.3232 5.65467 10.4919 5.31718C10.6319 5.0372 10.8356 4.89846 10.7481 4.76221Z"/><path fill="#A62616" d="M6.99206 4.606C6.89456 4.70349 7.0358 4.74974 7.11705 4.95598C7.1983 5.16222 7.26704 5.31846 7.31079 5.5747C7.34454 5.77219 7.31704 6.4334 7.45453 6.23966C7.59203 6.04592 7.61952 5.23097 7.43578 4.91848C7.27204 4.6435 7.1033 4.49351 6.99206 4.606Z"/><path fill="#A62616" d="M11.2694 8.952C11.3031 9.08824 11.7943 9.03324 12.1131 9.20823C12.4318 9.38322 12.6755 9.8207 12.6568 10.7194C12.6368 11.6194 12.3743 12.6168 12.3306 12.7618C12.2243 13.118 11.8431 13.7417 11.7743 13.8292C11.7056 13.9167 11.5468 14.113 11.8368 13.9105C12.1556 13.688 12.2743 13.5105 12.2743 13.5105C12.2743 13.5105 12.843 13.5293 12.8618 13.4168C12.8805 13.3043 12.3993 13.248 12.3993 13.248C12.3993 13.248 12.4993 13.0543 12.5805 12.8043C12.6618 12.5543 12.7243 12.3231 12.7243 12.3231C12.7243 12.3231 12.868 12.3256 13.183 12.2918C13.5292 12.2543 14.0292 12.2418 14.0917 12.1418C14.1692 12.0181 13.5767 12.0418 13.273 12.0706C13.0255 12.0931 12.7668 12.0793 12.7668 12.0793C12.7668 12.0793 12.8105 11.8331 12.8355 11.6769C12.8605 11.5206 12.8755 11.3269 12.8755 11.3269C12.8755 11.3269 13.4905 11.1831 13.6842 11.1206C13.878 11.0581 14.5342 10.8494 14.5279 10.7557C14.5229 10.6869 14.0217 10.7744 13.6692 10.8619C13.3668 10.9369 12.8793 11.0431 12.8793 11.0431C12.8793 11.0431 12.898 10.7619 12.9105 10.6182C12.923 10.4744 12.9105 10.3119 12.9105 10.3119C12.9105 10.3119 13.1355 10.3369 13.2693 10.2782C13.403 10.2194 13.6067 9.99819 13.7655 9.8882C13.9405 9.76695 14.4242 9.42572 14.3929 9.34448C14.358 9.25323 13.7655 9.60071 13.5805 9.72821C13.438 9.82695 13.228 10.0057 13.1218 10.0244C13.0155 10.0432 12.8968 10.0557 12.8968 10.0557C12.8968 10.0557 12.8093 9.68696 12.7655 9.54946C12.7218 9.41197 12.5718 9.12449 12.3281 8.97449C12.0843 8.8245 11.1944 8.64576 11.2694 8.952Z"/><path fill="#A32916" d="M5.59842 9.26447C5.21094 9.39572 4.97345 9.7957 4.9422 10.0582C4.91095 10.3207 4.9297 10.4207 4.9297 10.4207C4.9297 10.4207 4.50472 10.1207 4.34223 9.98319C4.22974 9.88819 3.47103 9.27072 3.38353 9.41447C3.29604 9.55821 4.14224 10.1832 4.22974 10.2707C4.31723 10.3582 4.9172 10.7769 4.9172 10.7769L4.9922 11.1769C4.9922 11.1769 4.78346 11.2394 4.57722 11.2581C4.37098 11.2769 3.52603 10.9306 3.49978 11.1556C3.49353 11.2081 4.48722 11.5069 4.56097 11.5206C4.71971 11.5519 5.11094 11.5019 5.11094 11.5019C5.11094 11.5019 5.23594 11.9043 5.26093 11.9793C5.28593 12.0543 5.39468 12.3418 5.39468 12.3418C5.39468 12.3418 5.0422 12.3506 4.93595 12.3443C4.77096 12.3356 4.12224 12.2781 4.0985 12.4006C4.0835 12.4818 4.78596 12.5318 5.0097 12.5693C5.23469 12.6068 5.49717 12.638 5.49717 12.638C5.49717 12.638 5.62466 12.9343 5.72466 13.0843C5.82465 13.2343 6.03964 13.5467 6.03964 13.5467C6.03964 13.5467 5.15094 13.393 5.18344 13.5442C5.20219 13.628 6.23838 13.9005 6.23838 13.9005C6.23838 13.9005 7.27083 14.5704 7.40832 14.5392C7.55081 14.5067 7.05209 14.2955 6.64461 13.8817C6.37837 13.6105 5.96715 13.0693 5.70466 12.4331C5.59842 12.1756 5.17719 10.8481 5.20219 10.3969C5.22719 9.94069 5.40843 9.6907 5.68341 9.56571C5.9584 9.44071 6.91335 9.31572 6.71961 9.16573C6.52962 9.01449 5.84715 9.18073 5.59842 9.26447Z"/></svg>