<svg xmlns="http://www.w3.org/2000/svg" width="18" height="18" fill="none" viewBox="0 0 18 18"><path fill="#04C1EA" d="M3.21367 15.1706C2.7287 14.8843 2.08248 14.3519 2.10123 13.4569C2.11748 12.697 3.19242 11.4883 5.94853 11.0258C8.70463 10.5633 10.2258 10.7833 11.4607 10.9158C12.6957 11.0483 13.4669 11.4445 13.4669 11.4445L12.3419 13.7157L3.21367 15.1706Z"/><path fill="#F5C876" d="M8.10205 13.0944L5.56844 13.7669L3.53854 14.6631C3.53854 14.6631 3.28606 15.1956 3.4123 15.3356C3.53854 15.4755 5.40095 16.5405 8.70327 16.553C12.3581 16.5667 14.3017 15.6155 14.9742 15.1256C15.6467 14.6356 13.6443 11.822 13.6443 11.822L11.9731 11.1345L10.0744 11.3183L8.95451 11.8782L8.10205 13.0944Z"/><path fill="#F2A159" d="M9.75075 12.8656L12.5819 12.7156C12.5819 12.7156 12.2119 12.0057 12.0756 11.6869C11.9206 11.3245 11.8919 11.1157 11.8919 11.1157C11.8919 11.1157 12.2244 11.0232 12.7918 11.167C13.3593 11.3107 15.3767 11.9582 15.8704 13.2056C16.3004 14.293 14.9655 15.1343 14.9655 15.1343C14.9655 15.1343 14.0655 14.5205 13.7293 14.1993C13.2031 13.6968 12.9181 13.2756 12.9181 13.2756L9.72075 13.3881L9.53076 13.2619L9.75075 12.8656Z"/><path fill="#DCECF6" d="M3.66613 13.3181C3.30865 13.6756 3.72238 14.1156 3.72238 14.1156C3.72238 14.1156 2.91117 14.2981 2.93867 14.7731C2.95242 15.0106 3.2749 15.2905 3.4149 15.333C3.55489 15.3755 3.52739 15.103 3.72238 14.9131C4.2261 14.4231 5.77977 14.3106 6.85722 14.1993C7.93466 14.0881 8.37713 13.7156 8.57837 13.5831C9.11085 13.2331 8.91461 12.2419 9.49458 11.8007C10.427 11.0908 12.5594 11.1883 12.5444 11.1095C12.5294 11.0308 10.777 10.637 9.17084 11.287C8.09715 11.722 8.11715 12.6307 7.36219 12.8832C6.60723 13.1356 4.23985 12.7444 3.66613 13.3181Z"/><path fill="#EE594A" d="M5.1735 13.6557C4.94726 13.7382 5.161 13.9769 5.26599 14.0369C5.47598 14.1569 5.75972 14.2832 5.75972 14.2832C5.75972 14.2832 5.1635 14.7356 5.32849 14.9719C5.44973 15.1456 6.57217 14.7144 6.57217 14.7144C6.58342 14.7144 7.26464 15.2706 7.55462 15.2719C7.77086 15.2731 7.62462 14.4656 7.62462 14.4656C7.62462 14.4656 8.53582 14.2719 8.53582 13.9944C8.53582 13.7782 8.08334 13.8407 8.08334 13.8407C8.08334 13.8407 5.39973 13.5732 5.1735 13.6557Z"/><path fill="#F79228" d="M7.10474 13.1005C6.8685 13.0793 6.43352 13.568 6.43352 13.568C6.43352 13.568 5.15234 13.4805 5.13109 13.6967C5.10984 13.913 5.8098 14.0055 5.8098 14.128C5.8098 14.2505 5.24483 14.7029 5.29608 14.8467C5.34733 14.9904 6.46602 14.343 6.54976 14.3742C6.63351 14.4055 7.48097 15.2242 7.63221 15.0842C7.7622 14.9642 7.62846 14.2605 7.62846 14.2605C7.62846 14.2605 8.49216 14.0555 8.48091 13.9005C8.47091 13.7467 7.39222 13.633 7.39222 13.633C7.39222 13.633 7.33097 13.1205 7.10474 13.1005Z"/><path fill="#4EA4B0" d="M8.70084 3.22853L8.10962 3.18604L8.71209 7.5933C8.71209 7.5933 9.31581 12.5593 9.35705 12.8568C9.40955 13.2368 9.5033 13.4392 9.83828 13.388C10.1733 13.3368 10.1395 13.008 10.1183 12.7518C10.097 12.4955 9.56079 7.83579 9.56079 7.83579L8.70084 3.22853Z"/><path fill="#EE5948" d="M8.21708 2.48003C8.21708 2.48003 5.36348 2.79251 3.52608 4.8324C2.04366 6.47857 1.80242 7.95724 1.90741 7.97349C2.08365 8.00099 2.53238 7.85099 3.02236 8.05473C3.51233 8.25847 3.79731 8.6797 3.96106 8.6797C4.1248 8.6797 4.72227 8.27222 5.56597 8.39472C6.40843 8.51721 6.97965 9.01968 7.15714 9.01968C7.33463 9.01968 8.04084 8.48971 9.12828 8.43471C10.1207 8.38472 10.7869 8.6247 10.9232 8.61095C11.0594 8.59721 11.3244 7.756 12.3719 7.44352C13.4193 7.13103 13.7655 7.38727 13.9155 7.38727C14.0655 7.38727 14.1468 6.65356 14.8942 6.36732C15.6417 6.08234 15.9279 6.20358 16.0904 6.17733C16.2529 6.15108 15.4917 4.32993 12.7931 3.09624C10.562 2.07755 8.21708 2.48003 8.21708 2.48003Z"/><path fill="#FEFEFE" d="M8.3483 2.68628C8.3483 2.68628 6.4909 3.2425 5.19847 5.26864C4.14103 6.92606 4.12478 8.15099 4.19227 8.21849C4.25977 8.28599 4.88599 7.9735 5.6472 8.04225C6.40841 8.10974 7.05087 8.67596 7.08837 8.54597C7.13587 8.38098 7.12087 6.91856 7.29336 5.68737C7.61459 3.38374 8.36455 2.88252 8.36455 2.88252C8.36455 2.88252 9.3645 3.55248 10.1232 5.44363C10.5994 6.62982 10.8357 7.84851 10.9344 8.0035C10.9782 8.07225 11.3894 7.44228 12.2443 7.16479C13.0356 6.90731 13.7268 7.10605 13.8218 7.0523C13.9168 6.9973 13.0293 5.0724 11.5481 3.96496C9.87572 2.71128 8.3483 2.68628 8.3483 2.68628Z"/><path fill="#4EA4B0" d="M8.17958 1.48878C7.8146 1.53877 7.93084 2.0725 7.95834 2.38623C7.97084 2.52497 8.00084 3.05744 8.36707 3.0287C8.67205 3.00495 8.62956 2.59872 8.60206 2.29998C8.57581 2 8.56331 1.43628 8.17958 1.48878Z"/></svg>