<svg width="18" height="18" viewBox="0 0 18 18" fill="none" xmlns="http://www.w3.org/2000/svg">
<path d="M11.7457 8.7583L9.52454 15.7129L10.7632 16.0192L13.4206 15.8579L13.2918 11.3669L11.7457 8.7583Z" fill="#2F2F2F"/>
<path d="M5.46719 6.53602C5.3022 6.65976 4.90347 8.08219 3.93727 10.0296C2.97107 11.977 1.73114 14.5543 1.73114 14.5543C1.73114 14.5543 1.87613 14.7631 3.71104 15.4243C5.54594 16.0855 7.06211 16.3755 7.06211 16.3755C7.06211 16.3755 11.1494 10.0133 11.1819 9.86959C11.2144 9.7246 11.8669 7.07224 11.8669 7.07224C11.8669 7.07224 9.26574 6.891 8.1383 6.79475C7.01086 6.69851 5.65968 6.39103 5.46719 6.53602Z" fill="#F19F40"/>
<path d="M14.7992 15.8443L16.1717 15.6105C16.1717 15.6105 14.9055 12.9619 14.213 11.6257C13.5206 10.2896 12.3256 7.45347 12.2131 7.24473C12.1006 7.03599 11.6332 6.9385 11.4244 7.30973C11.2157 7.68096 9.47327 11.5045 9.14579 12.1157C8.77706 12.8032 6.94466 16.1893 6.92841 16.3667C6.91216 16.5442 10.0132 16.2505 10.0132 16.2505L10.8132 13.8944L11.7794 9.70835L11.9406 9.74085L12.7131 13.1544L14.7992 15.8443Z" fill="#EC5F32"/>
<path d="M10.9157 16.1392C10.8882 16.3017 10.0707 16.443 9.60577 16.453C9.13955 16.4642 8.30584 16.4967 8.20834 16.388C8.11085 16.2792 9.25829 15.2618 9.99575 13.9294C10.732 12.5969 11.1657 11.677 11.2732 11.3082C11.3819 10.9395 11.5982 9.83582 11.6844 9.65083C11.7707 9.46584 11.9444 9.49959 11.9981 9.67208C12.0519 9.84582 12.6156 11.9795 12.8106 12.4882C13.0056 12.9969 13.8068 14.0581 14.0455 14.3943C14.2843 14.7306 15.4642 15.6255 15.4855 15.7118C15.5067 15.798 14.7555 16.0617 14.2443 16.1205C13.878 16.1617 13.0243 16.098 12.9593 15.9892C12.8943 15.8805 12.4531 12.9969 12.2906 12.0332C12.1281 11.0695 11.8469 9.78082 11.8469 9.78082C11.8469 9.78082 11.2082 12.8782 11.1207 13.7019C11.0344 14.5256 10.9582 15.8793 10.9157 16.1392Z" fill="#9C2D1B"/>
<path d="M1.5249 13.3144C1.5249 13.3144 1.61615 13.2194 1.78864 13.2082C1.96113 13.1982 2.11362 13.3032 2.11362 13.3032L2.22487 14.9056C2.22487 14.9056 2.09237 15.0218 1.92988 15.0218C1.76739 15.0218 1.6149 14.9368 1.6149 14.9368L1.5249 13.3144Z" fill="#9C2D1B"/>
<path d="M6.18219 14.9256C6.18219 14.9256 6.32343 14.8069 6.53967 14.8069C6.75591 14.8069 6.9184 14.9156 6.9184 14.9156L6.92965 16.5405C6.92965 16.5405 6.75591 16.638 6.62592 16.638C6.49592 16.638 6.28968 16.573 6.28968 16.573L6.18219 14.9256Z" fill="#9C2D1B"/>
<path d="M15.8741 14.2119C15.8741 14.2119 15.9904 14.077 16.1966 14.087C16.4029 14.097 16.5154 14.1682 16.5154 14.1682L16.4179 15.8356C16.4179 15.8356 16.3416 15.9444 16.1579 15.9444C15.9741 15.9444 15.8116 15.8581 15.8116 15.8581L15.8741 14.2119Z" fill="#9C2D1B"/>
</svg>
