<svg width="18" height="18" viewBox="0 0 18 18" fill="none" xmlns="http://www.w3.org/2000/svg">
<path d="M8.04847 7.09207L4.27742 5.22467C4.27742 5.22467 4.26867 5.04593 4.43741 4.95593C4.6074 4.86594 7.27976 3.771 7.49475 3.771C7.70974 3.771 8.96842 4.01348 9.88462 4.21722C10.8008 4.42096 13.2219 4.94093 13.2332 5.09968C13.2444 5.25842 10.7558 7.80328 10.7558 7.80328L8.04847 7.09207Z" fill="#C3FECE"/>
<path d="M11.4883 5.92716C11.4883 5.92716 9.90713 5.46219 8.36846 5.10095C7.65225 4.93221 5.54736 4.49099 5.54736 4.49099C5.54736 4.49099 5.7711 4.39349 5.93984 4.32225C6.11108 4.251 6.24733 4.2135 6.24733 4.2135C6.24733 4.2135 7.61975 4.48724 8.6397 4.70473C10.0196 4.99846 11.9508 5.57468 11.9958 5.66592C12.042 5.75592 11.4883 5.92716 11.4883 5.92716Z" fill="white"/>
<path d="M8.42582 5.48968C8.08959 5.72342 8.41957 5.86466 9.03954 6.00965C9.71825 6.1684 10.2357 6.40213 10.672 6.1484C11.0657 5.92091 10.102 5.67342 9.65951 5.57843C9.32202 5.50593 8.68581 5.30969 8.42582 5.48968Z" fill="#ACB1B2"/>
<path d="M9.6582 5.95965C9.6557 5.95965 9.66945 3.22104 9.66945 3.1198C9.66945 3.01855 9.5557 2.92731 9.6807 2.71232C9.80569 2.49733 10.1332 2.51983 10.1332 2.51983C10.1332 2.51983 11.4919 2.12485 12.0343 1.98861C12.5768 1.85237 13.7767 1.53613 13.7767 1.53613L13.8567 2.22235C13.8567 2.22235 12.5993 2.57733 11.9768 2.73607C11.3544 2.89481 10.5057 3.1548 10.5057 3.1548L10.3807 3.26854L10.4169 5.94465C10.4169 5.94465 10.3007 6.07464 10.0407 6.07464C9.78819 6.07339 9.6582 5.95965 9.6582 5.95965Z" fill="#FFD816"/>
<path d="M13.5531 1.88741C13.5631 2.10115 13.6769 2.23365 13.8119 2.23365C13.9468 2.23365 14.0393 2.06115 14.0193 1.83617C13.9981 1.61243 13.8531 1.50993 13.7294 1.55118C13.6056 1.59243 13.5456 1.73117 13.5531 1.88741Z" fill="#FEB804"/>
<path d="M10.3834 3.33105C10.3596 3.33105 10.3359 3.3248 10.3146 3.3098L9.66592 2.87732C9.60842 2.83857 9.59342 2.76108 9.63092 2.70358C9.66967 2.64608 9.74591 2.62983 9.80466 2.66858L10.4534 3.10106C10.5109 3.13981 10.5259 3.2173 10.4884 3.2748C10.4634 3.31105 10.4234 3.33105 10.3834 3.33105Z" fill="#FEB804"/>
<path d="M10.4832 3.22606C10.4457 3.22606 10.4082 3.20856 10.3832 3.17606C10.217 2.95482 10.027 2.70359 9.99326 2.66484C9.95076 2.62359 9.94201 2.5561 9.97576 2.50485C10.0145 2.44735 10.0908 2.4311 10.1495 2.46985C10.172 2.48485 10.1845 2.4936 10.5832 3.02482C10.6245 3.07982 10.587 3.15856 10.532 3.19981C10.5095 3.21731 10.5095 3.22606 10.4832 3.22606Z" fill="#FEB804"/>
<path d="M10.3307 3.43602C10.3244 3.43602 10.3182 3.43602 10.3107 3.43477L9.68572 3.33602C9.61822 3.32477 9.57072 3.26103 9.58197 3.19353C9.59322 3.12603 9.65572 3.07854 9.72447 3.08979L10.3494 3.18853C10.4169 3.19978 10.4757 3.21228 10.4644 3.28103C10.4557 3.34102 10.3919 3.43602 10.3307 3.43602Z" fill="#FEB804"/>
<path d="M4.27246 5.21094C4.4712 5.21094 6.06612 5.62967 6.88857 5.78091C7.71103 5.93215 10.1946 6.51962 10.2784 6.53587C10.3621 6.55212 10.3459 7.62706 10.3459 7.62706C10.3459 7.62706 11.5208 13.7017 11.4871 13.988C11.4533 14.273 10.6821 16.4716 10.6821 16.4716C10.6821 16.4716 10.2284 16.5391 9.07096 16.2029C7.91352 15.8666 4.85868 15.0279 4.67369 14.7929C4.4887 14.5579 4.60619 11.4531 4.5062 9.54071C4.4037 7.62706 4.27246 5.21094 4.27246 5.21094Z" fill="#79DD8A"/>
<path d="M13.5331 14.9268C13.5969 14.7155 13.2419 12.4506 13.1919 10.3695C13.1419 8.28961 13.3206 5.12477 13.2344 5.09977C13.1481 5.07603 10.2783 6.53595 10.2783 6.53595C10.2783 6.53595 10.2658 8.60084 10.3008 10.5482C10.3458 13.0681 10.547 16.4042 10.6808 16.4717C10.8145 16.5392 11.9757 15.8892 12.3257 15.6992C12.9457 15.363 13.4831 15.0955 13.5331 14.9268Z" fill="#02AB46"/>
<path d="M11.4795 7.49215L11.4857 5.92473L11.9995 5.67224L12.0145 7.3909L11.777 7.80713L11.4795 7.49215Z" fill="#DBDFE1"/>
<path d="M6.93107 8.04201C5.82112 7.92327 5.05242 8.91322 5.11241 10.2032C5.18366 11.7268 6.18735 12.8493 7.27355 13.073C8.35974 13.2967 9.41219 12.8255 9.43468 11.1594C9.45968 9.42319 7.93351 8.14826 6.93107 8.04201Z" fill="#FEFEFD"/>
<path d="M7.6708 9.43327C7.6708 9.43327 7.44581 8.67706 6.76959 8.8783C6.09338 9.07954 5.72715 10.5507 6.87459 11.2132C7.97703 11.8494 8.99198 10.682 8.63699 9.92574C8.31451 9.23578 7.6708 9.43327 7.6708 9.43327Z" fill="#EF5B44"/>
<path d="M7.4135 8.50831C7.33725 8.53581 7.27726 8.84704 7.35725 9.14453C7.41725 9.36702 7.60849 9.672 7.71973 9.652C7.80848 9.63575 7.87597 9.28577 7.79223 8.99204C7.69473 8.6533 7.50224 8.47581 7.4135 8.50831Z" fill="#B8CF17"/>
<path d="M7.39722 10.2632C7.07974 10.1669 6.72226 11.2581 7.36472 11.9381C8.07344 12.6868 8.90089 12.0268 8.87839 11.8818C8.8459 11.6806 8.29092 11.5356 8.01719 11.1981C7.74345 10.8581 7.58221 10.3194 7.39722 10.2632Z" fill="#FD8F01"/>
<path d="M6.38219 10.0782C6.38219 10.0782 6.44593 9.60077 6.00346 9.62702C5.57598 9.65327 5.68097 10.1582 5.68097 10.1582C5.68097 10.1582 5.32474 10.2007 5.38474 10.5957C5.42974 10.8945 5.74472 10.8907 5.74472 10.8907C5.74472 10.8907 5.39849 11.0269 5.55598 11.4219C5.69597 11.7732 6.01846 11.6319 6.01846 11.6319C6.01846 11.6319 5.89971 11.9744 6.1797 12.1556C6.41593 12.3081 6.62217 12.1794 6.62217 12.1794C6.62217 12.1794 6.60967 12.4719 6.93591 12.5256C7.33089 12.5906 7.50213 12.1094 7.22089 11.8869C7.00715 11.7182 6.81341 11.8494 6.81341 11.8494C6.81341 11.8494 6.85341 11.7557 6.81591 11.6482C6.79091 11.5782 6.75092 11.5519 6.75092 11.5519C6.75092 11.5519 7.09715 11.5194 7.0409 11.1257C6.98465 10.7307 6.63842 10.7795 6.63842 10.7795C6.63842 10.7795 6.83966 10.6182 6.75967 10.3282C6.68092 10.037 6.38219 10.0782 6.38219 10.0782Z" fill="#A281D0"/>
<path d="M11.8358 7.92828C11.5483 7.92828 10.3221 6.70959 10.3108 6.69709C10.2658 6.64459 10.2721 6.56585 10.3246 6.52085C10.3771 6.47585 10.4546 6.4821 10.5008 6.53335C10.5796 6.62085 11.517 7.4908 11.787 7.65829C11.962 7.39705 12.5307 6.25336 13.0194 5.22092C13.0494 5.15842 13.1244 5.13217 13.1857 5.16092C13.2482 5.19092 13.2744 5.26467 13.2457 5.32716C12.0407 7.87328 11.922 7.90703 11.8583 7.92453C11.8508 7.92828 11.8433 7.92828 11.8358 7.92828Z" fill="#2D802D"/>
</svg>
