<svg xmlns="http://www.w3.org/2000/svg" width="18" height="18" fill="none" viewBox="0 0 18 18"><path fill="#EE3E23" d="M9.34338 8.29827L9.28089 4.27598C9.28089 4.27598 9.20089 1.75737 9.20089 1.55738C9.20089 1.35739 9.16089 1.18365 9.0509 1.17365C8.94091 1.16365 8.83216 1.24614 8.82216 1.51738C8.81216 1.78862 8.75967 4.19724 8.75967 4.19724C8.75967 4.19724 8.42343 4.19474 8.41718 4.24349C8.40343 4.34348 8.33844 6.36837 8.26844 7.13083C8.19844 7.89329 7.90971 9.84944 7.54848 10.8044C7.36849 11.2794 6.96101 12.2431 6.56228 12.9255C6.16105 13.6142 5.63733 14.3442 5.3236 14.7829C4.69863 15.6566 4.33865 15.9679 4.44114 16.0666C4.48864 16.1129 5.73607 16.0879 5.73607 16.0879C5.73607 16.0879 6.53478 14.9829 6.72852 14.6967C6.98976 14.3105 7.31224 14.063 7.71472 14.1255C7.99221 14.1692 8.22469 14.3667 8.28219 14.8154C8.35844 15.3979 8.38093 16.3728 8.45218 16.4278C8.56093 16.5141 9.32589 16.5128 9.32589 16.5128L9.34338 8.29827ZM8.48218 13.6255C8.35844 13.683 8.08345 13.5167 7.80097 13.4805C7.51848 13.4443 7.30849 13.5605 7.1635 13.423C7.01851 13.2855 7.221 12.9155 7.40224 12.568C7.58348 12.2206 7.97471 11.5831 8.1772 11.6268C8.39343 11.6731 8.46718 12.2356 8.53218 12.713C8.56967 12.9855 8.60467 13.5667 8.48218 13.6255ZM8.22844 11.3294C8.16345 11.3219 7.96971 10.8419 8.02595 10.7856C8.08345 10.7281 8.56218 10.7781 8.59092 10.8431C8.61967 10.9081 8.29344 11.3369 8.22844 11.3294ZM8.36594 10.4594C8.1772 10.4519 8.0997 10.3357 8.1122 10.2282C8.13345 10.0469 8.25844 9.99568 8.40968 10.0257C8.56842 10.0569 8.61342 10.1494 8.61967 10.2569C8.62717 10.3732 8.55468 10.4669 8.36594 10.4594Z"/><path fill="#EE3E23" d="M7.53101 12.1769L8.34221 13.7569L8.64595 13.5544L7.6935 11.7307C7.69475 11.7307 7.59475 12.0494 7.53101 12.1769Z"/><path fill="#EE3E23" d="M8.49585 11.9731L6.98218 13.4081L7.22841 13.6181L8.62709 12.3506L8.49585 11.9731Z"/><path fill="#C9C7CA" d="M9.10572 8.86572C9.10572 8.86572 7.39456 8.87447 7.32207 8.87447C7.24957 8.87447 7.11458 8.97947 7.27832 9.2157C7.39456 9.3832 7.7433 9.81442 7.80829 9.83067C7.87329 9.84692 9.14072 9.83067 9.14072 9.83067L9.10572 8.86572Z"/><path fill="#E3E1DF" d="M9.03953 6.72957L8.29706 6.71582C8.29706 6.71582 8.28582 6.96081 8.25707 7.23579C8.23582 7.44078 8.18457 7.77951 8.18457 7.77951L9.18452 7.78701L9.03953 6.72957Z"/><path fill="#E3E1DF" d="M9.03961 4.5498L8.4009 4.5623C8.4009 4.5623 8.38215 4.96103 8.37465 5.09228C8.36715 5.22227 8.3584 5.55725 8.3584 5.55725H9.11211L9.03961 4.5498Z"/><path fill="#CD3001" d="M13.698 15.8368C13.643 15.7705 13.0555 15.0555 12.548 14.3231C12.0405 13.5906 11.5456 12.8219 11.2643 12.2807C10.7006 11.197 10.5144 10.5408 10.2131 9.37959C10.0581 8.78212 9.88066 8.11466 9.74316 6.25726C9.61567 4.53235 9.69317 4.22861 9.62317 4.22236C9.56567 4.21611 9.00195 4.20361 9.00195 4.20361C9.00195 4.20361 9.0232 6.39725 9.0407 8.3184C9.0582 10.1995 9.14195 16.5105 9.14195 16.5105C9.14195 16.5105 9.23319 16.5142 9.35443 16.5142C9.57442 16.513 9.89316 16.503 9.9319 16.4667C9.9994 16.4017 10.0044 15.163 10.0381 14.6906C10.0756 14.1631 10.6444 13.8069 11.2181 14.3406C11.8593 14.938 12.4955 16.0817 12.573 16.138C12.6705 16.208 13.6667 16.1492 13.7892 16.1492C13.9079 16.1455 13.8079 15.9692 13.698 15.8368ZM9.67567 10.0058C9.82316 9.96456 9.9869 10.0296 10.0144 10.1446C10.0406 10.2595 10.0206 10.4095 9.80316 10.4345C9.62692 10.4545 9.53317 10.4045 9.51068 10.2608C9.48943 10.1246 9.56942 10.0358 9.67567 10.0058ZM9.57942 10.8495C9.61567 10.762 10.0494 10.6858 10.1056 10.767C10.1619 10.8483 10.0569 11.3157 9.9319 11.322C9.80691 11.327 9.55192 10.9145 9.57942 10.8495ZM11.0756 13.3919C10.9631 13.5044 10.8469 13.4456 10.4294 13.5256C10.0119 13.6056 9.90066 13.7206 9.74816 13.6956C9.59567 13.6719 9.61317 13.3331 9.65317 12.7394C9.69317 12.1457 9.82691 11.657 10.0219 11.622C10.2856 11.5757 10.5681 12.1619 10.7281 12.4582C10.8881 12.7544 11.1881 13.2794 11.0756 13.3919Z"/><path fill="#CD3001" d="M10.5656 11.792L9.58569 13.8081L10.0119 13.8156L10.8219 12.0657L10.5656 11.792Z"/><path fill="#CD3001" d="M9.65831 11.8645L11.337 13.5019L10.9107 13.5669L9.49707 12.2332L9.65831 11.8645Z"/><path fill="#AFB1B0" d="M9.0459 8.86581C9.0459 8.86581 10.5033 8.86206 10.6458 8.86206C10.7921 8.86206 10.8558 8.94831 10.8083 9.05705C10.7608 9.16454 10.3858 9.70452 10.3296 9.79951C10.3133 9.82701 9.0559 9.83076 9.0559 9.83076L9.0459 8.86581Z"/><path fill="#C9C7CA" d="M9.02466 6.72583L9.78212 6.73333C9.78212 6.73333 9.81962 7.10581 9.83212 7.22955C9.85587 7.45704 9.89586 7.77952 9.89586 7.77952L9.03091 7.78452L9.02466 6.72583Z"/><path fill="#C9C7CA" d="M9.00464 4.55103L9.66085 4.55228L9.6971 5.54472L9.00839 5.55972L9.00464 4.55103Z"/><path fill="#C9C7CA" d="M8.78076 3.0886H9.25199L9.21574 1.97241H8.80326L8.78076 3.0886Z"/></svg>