<svg xmlns="http://www.w3.org/2000/svg" width="18" height="18" fill="none" viewBox="0 0 18 18"><path fill="#51ABFF" d="M15.5769 16.5317H2.41505C1.89633 16.5317 1.4751 16.1105 1.4751 15.5917V2.42994C1.4751 1.91122 1.89633 1.48999 2.41505 1.48999H15.5769C16.0956 1.48999 16.5168 1.91122 16.5168 2.42994V15.5917C16.5181 16.1105 16.0968 16.5317 15.5769 16.5317Z"/><path fill="#51ABFF" d="M15.5769 16.5317H2.41505C1.89633 16.5317 1.4751 16.1105 1.4751 15.5917V2.42994C1.4751 1.91122 1.89633 1.48999 2.41505 1.48999H15.5769C16.0956 1.48999 16.5168 1.91122 16.5168 2.42994V15.5917C16.5181 16.1105 16.0968 16.5317 15.5769 16.5317Z"/><path fill="url(#paint0_radial_746_435)" d="M1.4775 6.78969L1.46875 9.68079L16.518 8.76709L16.538 3.52987C16.538 3.52987 15.8392 2.9674 14.753 3.29738C13.6669 3.62736 13.4531 4.28608 13.4531 4.28608C13.4531 4.28608 12.3719 3.9311 11.242 4.42232C9.76706 5.06229 9.18459 6.43846 9.18459 6.43846C9.18459 6.43846 7.71092 5.93349 6.04226 5.95349C3.68113 5.98349 1.4775 6.78969 1.4775 6.78969Z"/><path fill="url(#paint1_radial_746_435)" d="M6.27841 8.42462C6.27841 8.42462 7.28211 7.95214 8.64953 7.8959C9.52449 7.85965 10.5644 8.18713 10.5644 8.18713C10.5644 8.18713 11.4219 7.71341 13.6105 7.8584C15.7992 8.00464 16.5179 8.46212 16.5179 8.46212L16.5191 13.3669L1.47241 12.9494L1.47491 8.38712C1.47491 8.38712 2.7236 8.11464 4.30976 8.16838C5.54845 8.21213 6.27841 8.42462 6.27841 8.42462Z"/><path fill="#B11F2B" d="M5.07871 10.3232L5.03271 12.5664L5.28265 12.5715L5.32865 10.3283L5.07871 10.3232Z"/><path fill="#B11F2B" d="M7.72215 14.0006L7.47217 13.9981L7.49467 9.04712L7.74465 9.04962L7.72215 14.0006Z"/><path fill="#B11F2B" d="M3.74291 9.04552L3.67285 12.4622L3.92279 12.4673L3.99284 9.05065L3.74291 9.04552Z"/><path fill="#B11F2B" d="M16.5205 8.73093C16.4868 8.71468 15.6918 8.3397 15.1543 7.98847C14.6769 7.67724 13.6882 6.90478 12.472 5.75234C11.482 4.81364 10.6571 3.43121 10.6221 3.37246L10.8796 3.21997C10.8883 3.23372 11.7195 4.62615 12.6782 5.53485C13.8794 6.67354 14.8506 7.43225 15.3181 7.73723C15.838 8.07596 16.5093 8.3872 16.5168 8.39095L16.5205 8.73093Z"/><path fill="#B11F2B" d="M15.9087 8.32745L15.8962 10.8723L16.1462 10.8735L16.1587 8.32867L15.9087 8.32745Z"/><path fill="#B11F2B" d="M6.45604 13.292L6.20605 13.2895L6.2523 7.67603L6.50229 7.67853L6.45604 13.292Z"/><path fill="#B11F2B" d="M9.89891 7.41463L9.64893 7.41528L9.66516 13.6487L9.91515 13.6481L9.89891 7.41463Z"/><path fill="#B11F2B" d="M14.2519 13.4493L14.002 13.4468L14.037 7.04834L14.2869 7.05084L14.2519 13.4493Z"/><path fill="#B11F2B" d="M14.9676 5.78422L14.9548 12.3176L15.2048 12.3181L15.2176 5.78471L14.9676 5.78422Z"/><path fill="#B11F2B" d="M8.87596 5.6936H8.62598V14.3919H8.87596V5.6936Z"/><path fill="#FF2D26" d="M16.5218 7.10334C16.5143 7.09834 15.6869 6.48587 14.9357 5.8384C14.4307 5.40343 13.852 4.80846 13.5282 4.43848C12.9895 3.82351 12.6683 3.35354 12.6545 3.33354L12.9033 3.16479C12.907 3.16979 13.2283 3.64102 13.7545 4.24099C14.072 4.60222 14.6382 5.18594 15.1319 5.61092C15.8744 6.24963 16.5168 6.71961 16.5243 6.72461L16.5218 7.10334Z"/><path fill="#B01522" d="M12.6758 3.1411C12.6758 3.1411 13.192 3.13235 13.202 3.1411C13.2545 3.18109 13.237 6.29343 13.237 6.29343H13.3407V13.2356L12.727 12.5868L12.6758 3.1411Z"/><path fill="#B01522" d="M10.8032 3.12738C10.8032 3.12738 11.3907 3.11113 11.3944 3.12238C11.4094 3.17612 11.4169 12.9369 11.4169 12.9369L10.4282 13.3381L10.8032 3.12738Z"/><path fill="#FF2D26" d="M12.982 6.31608H12.8083L12.8033 3.14L12.2745 3.1325L12.272 3.47998C12.272 3.47998 12.0746 3.67872 11.6458 3.69122C11.2171 3.70247 11.0434 3.42498 11.0434 3.42498L11.0396 3.125L10.3946 3.13L10.3871 6.31608L10.2646 6.32358L10.2709 7.23228V12.587L10.2821 14.6719L11.0821 14.0582L11.0709 9.8409L12.207 9.82965V13.7244L12.9833 13.7594V7.23228V6.31608H12.982ZM11.0359 4.62492C11.0596 4.57867 12.2533 4.61367 12.2533 4.61367L12.242 6.31733H11.0371V4.62492H11.0359ZM12.2408 8.90095H11.0359V7.23228H12.2408V8.90095Z"/><path fill="#FF2D26" d="M1.47241 11.5495L1.47616 11.2333C1.48366 11.2321 2.5786 11.0521 2.91359 10.9408C2.95233 10.9283 3.01858 10.9096 3.10733 10.8833C3.83104 10.6771 6.03342 10.0496 8.48829 8.34471C11.1919 6.46731 12.3718 3.32373 12.3843 3.29248L12.6656 3.39622C12.6543 3.42872 11.4431 6.65855 8.65953 8.5922C6.16341 10.3246 3.92478 10.9621 3.18857 11.1708C3.10483 11.1946 3.04483 11.2121 3.00733 11.2246C2.6536 11.3433 1.50366 11.5433 1.47241 11.5495Z"/><path fill="#B11F2B" d="M1.46997 9.85712V9.56339C1.49122 9.56339 3.43237 9.54214 6.35971 7.4735C7.44341 6.70854 8.93333 5.37986 9.54954 4.63115C10.2545 3.77369 10.2858 3.56495 10.3795 3.34746C10.3795 3.34746 10.4182 3.15372 10.5257 3.12998C10.552 3.12373 10.7395 3.12623 10.7395 3.12623C10.7195 3.19497 10.5145 3.92993 9.78203 4.82114C9.15331 5.5861 7.63464 6.94103 6.5347 7.71848C3.51986 9.84837 1.56122 9.85712 1.46997 9.85712Z"/><path fill="#DD0C29" d="M12.8745 3.13609C12.8745 3.13609 12.9145 2.73236 12.6682 2.73611C12.4395 2.73861 12.487 3.14109 12.487 3.14109C12.487 3.14109 12.5845 3.14359 12.6945 3.14109C12.8195 3.13859 12.8745 3.13609 12.8745 3.13609Z"/><path fill="#DD0C29" d="M10.9345 2.72999C10.712 2.73249 10.7483 3.13247 10.7483 3.13247C10.7483 3.13247 10.8495 3.12997 10.9458 3.12997C11.0408 3.12997 11.132 3.12497 11.132 3.12497C11.132 3.12497 11.172 2.72749 10.9345 2.72999Z"/><path fill="url(#paint2_radial_746_435)" d="M15.5769 16.5317H2.41505C1.89633 16.5317 1.4751 16.1105 1.4751 15.5917V2.42994C1.4751 1.91122 1.89633 1.48999 2.41505 1.48999H15.5769C16.0956 1.48999 16.5168 1.91122 16.5168 2.42994V15.5917C16.5181 16.1105 16.0968 16.5317 15.5769 16.5317Z"/><path fill="url(#paint3_radial_746_435)" d="M13.4393 16.5317H2.41492C1.8962 16.5317 1.47497 16.1105 1.47497 15.5918L1.46997 10.5408C1.46997 10.5408 2.24743 10.0696 3.55486 10.4371C4.86229 10.8033 5.6185 11.9495 5.6185 11.9495C5.6185 11.9495 6.49721 11.2033 7.95713 11.5595C9.83828 12.0182 10.8932 14.3343 10.8932 14.3343L13.4393 16.5317Z"/><path fill="url(#paint4_radial_746_435)" d="M16.518 10.1507V15.5917C16.518 16.1104 16.0968 16.5316 15.5781 16.5316H5.14111C5.14111 16.5316 5.65734 14.4655 7.67598 13.2456C9.44714 12.1744 10.7096 12.5681 10.7096 12.5681C10.7096 12.5681 11.8883 10.5657 13.7144 10.0645C15.5406 9.56325 16.518 10.1507 16.518 10.1507Z"/><defs><radialGradient id="paint0_radial_746_435" cx="0" cy="0" r="1" gradientTransform="translate(10.73 15.1467) rotate(-92) scale(12.7301 24.2666)" gradientUnits="userSpaceOnUse"><stop offset=".553" stop-color="#92BDCC"/><stop offset=".622" stop-color="#B9D5DE"/><stop offset=".732" stop-color="#fff"/></radialGradient><radialGradient id="paint1_radial_746_435" cx="0" cy="0" r="1" gradientTransform="translate(9.30873 18.4449) rotate(-83.6965) scale(10.7993 20.7303)" gradientUnits="userSpaceOnUse"><stop offset=".593" stop-color="#A1C3CE"/><stop offset=".61" stop-color="#A8C8D2"/><stop offset=".708" stop-color="#CEE0E5"/><stop offset=".799" stop-color="#E9F1F3"/><stop offset=".879" stop-color="#F9FBFC"/><stop offset=".94" stop-color="#fff"/></radialGradient><radialGradient id="paint2_radial_746_435" cx="0" cy="0" r="1" gradientTransform="translate(9.59758 19.6553) rotate(-90.439) scale(16.9858 35.2507)" gradientUnits="userSpaceOnUse"><stop offset=".131" stop-color="#fff"/><stop offset=".848" stop-color="#fff" stop-opacity="0"/></radialGradient><radialGradient id="paint3_radial_746_435" cx="0" cy="0" r="1" gradientTransform="translate(3.21426 17.3483) rotate(-80.5612) scale(10.2042 13.9383)" gradientUnits="userSpaceOnUse"><stop offset=".158" stop-color="#C0D0D5"/><stop offset=".578" stop-color="#FAFBFB"/><stop offset="1" stop-color="#FAFBFB" stop-opacity="0"/></radialGradient><radialGradient id="paint4_radial_746_435" cx="0" cy="0" r="1" gradientTransform="translate(9.81874 7.40344) scale(9.98095 9.98095)" gradientUnits="userSpaceOnUse"><stop offset=".052" stop-color="#FAFBFB" stop-opacity="0"/><stop offset=".571" stop-color="#FAFBFB"/><stop offset=".718" stop-color="#EEF2F3"/><stop offset=".919" stop-color="#D6E1E3"/></radialGradient></defs></svg>