<svg xmlns="http://www.w3.org/2000/svg" width="18" height="18" fill="none" viewBox="0 0 18 18"><path fill="#1F87FD" d="M9.2232 8.2308C8.96821 8.51828 9.07196 8.87577 9.21445 9.05201C9.48068 9.38199 9.87566 9.40074 10.0857 9.81697C10.2706 10.1832 10.1594 10.8482 9.34069 10.9032C8.52199 10.9582 7.70953 10.2932 7.53704 9.50323C7.3233 8.52203 7.61578 7.42709 8.77197 6.86587C9.92816 6.30465 11.4468 6.59339 12.2855 7.49209C13.153 8.41954 13.768 9.62198 13.353 11.3619C12.938 13.1018 11.1156 14.5892 8.262 14.293C5.91212 14.0492 3.74849 11.9231 3.85223 8.71327C3.95348 5.58594 6.55209 3.66854 8.99321 3.28231C11.5168 2.88358 13.2955 3.96602 14.3342 4.79223C14.9804 5.3072 15.5366 5.88217 15.6966 6.05841C15.9191 6.3034 16.2566 6.3159 16.3028 5.92342C16.3641 5.4047 16.0416 4.69724 15.2891 3.80978C14.5367 2.92358 12.3543 1.19992 8.77197 1.5349C3.25976 2.04863 1.36111 6.95212 1.73734 10.0007C2.11357 13.0493 4.27471 16.4041 9.26695 16.5091C12.3193 16.5729 14.6779 14.6392 15.4116 12.0806C15.8179 10.6644 15.6904 8.87327 14.8317 7.47834C13.678 5.60719 12.3618 4.84723 10.5619 4.66599C9.1207 4.52099 7.75328 4.93722 6.85332 5.74593C5.01592 7.39584 4.95967 10.3719 6.87457 11.8644C7.88577 12.6531 9.0907 12.7981 10.0169 12.5118C10.6531 12.3156 11.2081 11.9769 11.5343 11.3444C11.9218 10.5919 11.8843 9.85321 11.6168 9.27449C11.3956 8.79452 10.9269 8.39079 10.5181 8.18455C9.90191 7.87582 9.46318 7.96081 9.2232 8.2308Z"/></svg>