<svg xmlns="http://www.w3.org/2000/svg" width="18" height="18" fill="none" viewBox="0 0 18 18"><path fill="#FBB75A" d="M4.031 11.3044C4.031 11.3044 3.14479 9.99077 3.12729 9.23956C3.11729 8.82458 3.32728 8.34835 3.73726 8.10212C4.14724 7.85588 4.71096 7.69214 4.71096 7.69214L13.7205 7.71589C13.7205 7.71589 14.4192 7.67839 14.7292 8.51335C14.9992 9.24081 14.4004 10.602 14.4004 10.602C14.4004 10.602 9.79069 12.2894 8.54701 12.1957C7.30332 12.1019 4.031 11.3044 4.031 11.3044Z"/><path fill="#CF6E21" d="M6.70587 8.14835L4.45349 7.76087C4.45349 7.76087 4.08976 7.90211 3.96101 7.97211C3.83227 8.0421 3.73853 8.10085 3.73853 8.10085C3.73853 8.10085 5.73342 10.0183 8.95825 9.942C13.463 9.83701 14.278 7.88961 14.278 7.88961C14.278 7.88961 14.1255 7.75212 13.908 7.71087C13.5593 7.64462 13.0518 7.69087 13.0518 7.69087L6.70587 8.14835Z"/><path fill="#CF6E21" d="M3.46714 10.4007L3.41089 10.0282C3.41089 10.0282 3.50088 9.98819 3.86211 10.1394C4.80207 10.5319 6.68572 11.2594 8.61936 11.2594C11.1255 11.2594 13.0504 10.4469 14.0128 9.93819C14.4528 9.7057 14.629 9.6582 14.629 9.6582L14.4003 10.7994L8.73436 12.6643L3.86586 11.2219L3.46714 10.4007Z"/><path fill="#A9E7FF" d="M5.08589 10.8231L3.93595 10.6944L3.26099 10.2657C3.26099 10.2657 3.81346 11.2956 3.9072 11.7881C4.00095 12.2806 4.57967 15.0342 4.57967 15.0342C4.57967 15.0342 5.37087 16.4854 8.84944 16.4766C12.5855 16.4679 13.7879 14.8454 13.7879 14.8454L14.1467 11.8043L14.3979 10.9206L14.6679 9.87195L13.378 10.5644L12.463 11.1856H11.3956L10.3044 11.6431L9.08443 11.5381L8.20447 11.9368L7.00829 11.4206L6.03459 11.5381L5.08589 10.8231Z"/><path fill="#4EC0F5" d="M6.0833 12.0193C5.63707 11.9544 5.63707 12.5593 5.69582 13.0518C5.75457 13.5443 5.97205 16.0329 5.97205 16.0329C5.97205 16.0329 6.14454 16.1179 6.40328 16.1866C6.61202 16.2429 6.89326 16.3016 6.89326 16.3016C6.89326 16.3016 6.64702 13.3918 6.63577 13.123C6.62452 12.8543 6.56452 12.0893 6.0833 12.0193Z"/><path fill="#4EC0F5" d="M8.25313 12.4768C7.9019 12.4606 7.71316 12.7705 7.76066 13.4505C7.80815 14.1305 7.9244 16.4416 7.9244 16.4416C7.9244 16.4416 8.13439 16.4741 8.36813 16.4853C8.60311 16.4966 8.8506 16.4766 8.8506 16.4766C8.8506 16.4766 8.7681 13.8955 8.75685 13.5442C8.74561 13.193 8.7581 12.5006 8.25313 12.4768Z"/><path fill="#4EC0F5" d="M4.03087 11.3044C3.77214 11.3131 3.80838 11.5768 3.91338 12.0343C4.01837 12.4918 4.28836 13.9792 4.33586 14.213C4.38335 14.4479 4.4996 14.9867 4.4996 14.9867C4.4996 14.9867 4.67459 15.2054 4.76208 15.2841C4.86583 15.3779 5.03957 15.5129 5.03957 15.5129C5.03957 15.5129 4.55835 12.2893 4.4996 11.9956C4.44085 11.7031 4.35836 11.2919 4.03087 11.3044Z"/><path fill="#4EC0F5" d="M10.447 12.3594C9.87076 12.3719 9.94201 13.1806 9.94201 13.3568C9.94201 13.5331 9.97701 16.4192 9.97701 16.4192C9.97701 16.4192 10.282 16.3954 10.4457 16.3717C10.6095 16.3479 10.902 16.2929 10.902 16.2929C10.902 16.2929 10.9157 13.5443 10.9157 13.2868C10.917 13.0281 10.9995 12.3481 10.447 12.3594Z"/><path fill="#4EC0F5" d="M12.4305 11.7031C11.9643 11.7394 11.9381 12.2656 11.9256 12.8293C11.9143 13.3918 11.8931 16.0204 11.8931 16.0204C11.8931 16.0204 12.1656 15.9217 12.3243 15.8567C12.5218 15.7742 12.6768 15.6867 12.6768 15.6867C12.6768 15.6867 12.7943 12.8893 12.7943 12.6193C12.7943 12.3494 12.898 11.6656 12.4305 11.7031Z"/><path fill="#4EC0F5" d="M13.4417 15.1879C13.5429 15.1129 13.7904 14.8466 13.7904 14.8466C13.7904 14.8466 14.1429 12.6418 14.1891 12.3005C14.2366 11.9605 14.4091 10.9119 14.4091 10.9119C14.4091 10.9119 14.2916 10.8531 14.1279 10.9119C13.9641 10.9706 13.7491 11.2356 13.7141 11.7868C13.6791 12.3393 13.4417 15.1404 13.4417 15.1879Z"/><path fill="#D9EFF2" d="M13.4616 10.6469C12.9804 10.8581 12.4292 11.5381 12.4292 11.5381C12.4292 11.5381 11.9604 11.1844 11.4205 11.3269C10.7993 11.4906 10.4468 12.1593 10.4468 12.1593C10.4468 12.1593 9.76681 11.6781 9.30934 11.7018C8.85186 11.7256 8.27689 12.2643 8.27689 12.2643C8.27689 12.2643 7.53818 11.7131 7.09195 11.6431C6.64573 11.5731 6.05951 11.8193 6.05951 11.8193C6.05951 11.8193 5.48454 11.1269 4.98081 10.9981C4.47709 10.8694 4.05461 11.1394 4.05461 11.1394C4.05461 11.1394 3.80838 10.6819 3.57339 10.5532C3.3384 10.4244 3.11841 10.4432 3.17466 10.1432C3.20966 9.95569 3.49464 9.98569 3.64338 10.0494C4.05336 10.2257 4.15961 10.5769 4.15961 10.5769C4.15961 10.5769 4.44084 10.3894 5.09831 10.5294C5.82077 10.6844 6.16575 11.2806 6.16575 11.2806C6.16575 11.2806 6.57573 11.0369 7.06945 11.0694C7.77317 11.1169 8.19564 11.7143 8.19564 11.7143C8.19564 11.7143 8.68812 11.2094 9.27434 11.1869C9.86056 11.1644 10.3418 11.5031 10.3418 11.5031C10.3418 11.5031 10.483 11.0569 11.3505 10.8581C12.0217 10.7044 12.4067 10.9869 12.4067 10.9869C12.4067 10.9869 12.6417 10.4357 13.2866 10.2244C13.8016 10.0557 14.0841 10.1769 14.0841 10.1769C14.0841 10.1769 14.1078 9.75445 14.4716 9.63696C14.6378 9.58321 14.7865 9.64446 14.759 9.82445C14.7353 9.97694 14.5791 9.87569 14.4603 10.1294C14.3728 10.3169 14.2728 10.6344 14.2728 10.6344C14.2728 10.6344 13.8566 10.4732 13.4616 10.6469Z"/><path fill="#FFE9C8" d="M8.69953 1.49611C8.63953 1.59485 8.84077 2.07108 8.59453 2.49355C8.3483 2.91603 7.85582 3.17352 7.26836 3.19727C6.68089 3.22102 6.4034 3.34976 6.11842 3.63099C5.80093 3.94473 5.80218 4.4047 5.80218 4.4047C5.80218 4.4047 5.29971 4.59094 5.10972 5.02592C4.90973 5.4834 5.03972 5.85838 5.03972 5.85838C5.03972 5.85838 4.30476 6.08712 4.13602 6.76208C4.00728 7.2783 4.07602 7.68453 4.39226 7.95452C4.70849 8.2245 7.03337 9.2957 9.32075 9.09696C11.6081 8.89822 13.8955 7.56079 13.908 7.19706C13.9193 6.83333 13.978 6.25836 13.4618 5.96587C12.9456 5.67214 12.5931 5.70839 12.5931 5.70839C12.5931 5.70839 12.7693 4.92218 12.6168 4.66469C12.4643 4.4072 12.2881 4.24221 11.9956 4.08972C11.7019 3.93723 11.5619 3.94848 11.5619 3.94848C11.5619 3.94848 11.6031 3.29976 11.2731 3.08602C10.9919 2.90353 10.6944 2.79854 9.96696 2.4823C9.42574 2.24607 9.2395 1.93108 9.13451 1.80234C9.02826 1.67235 8.76953 1.37986 8.69953 1.49611Z"/><path fill="#FFCB86" d="M6.7632 4.67595C6.73695 4.7672 7.23567 5.05218 7.84189 5.15718C8.5931 5.28592 10.1318 5.21092 11.033 4.84094C11.8892 4.48846 11.8879 4.03224 11.8192 3.726C11.7142 3.25728 11.268 3.09229 11.268 3.09229C11.268 3.09229 11.0455 3.51476 10.693 3.66725C10.3405 3.81975 9.48805 4.07723 8.87434 4.20723C8.20687 4.34722 6.78695 4.59346 6.7632 4.67595Z"/><path fill="#FFCB86" d="M5.68457 6.62344C5.68457 6.71969 6.62077 7.11717 7.9132 7.29216C9.98934 7.57339 11.6318 7.03467 12.2305 6.58844C12.8292 6.14222 12.8992 5.87223 12.8754 5.39226C12.8517 4.91228 12.618 4.66479 12.618 4.66479C12.618 4.66479 12.4892 5.01728 12.113 5.35726C11.738 5.69724 10.8455 6.02597 9.98934 6.21346C9.13314 6.40095 8.13569 6.4947 7.47948 6.55345C6.89451 6.60469 5.68457 6.5297 5.68457 6.62344Z"/><path fill="#FFCF86" d="M13.8728 6.43591C13.8728 6.43591 13.9778 6.78839 13.9778 7.05713C13.9778 7.32712 13.8953 7.64335 13.8141 7.77334C13.7316 7.90209 12.8291 9.14577 10.213 9.41576C7.59688 9.68574 6.20071 9.13452 5.47324 8.77079C4.74578 8.40706 4.20581 7.86709 4.20581 7.73834C4.20581 7.59585 4.66329 8.01958 5.35575 8.25457C5.85447 8.42331 7.91311 9.05203 10.048 8.5708C12.1829 8.08958 13.1453 7.47961 13.4378 7.15088C13.7303 6.82214 13.8028 6.52966 13.8728 6.43591Z"/><path fill="#A681CB" d="M6.00701 5.32094C6.18825 5.57468 6.34074 5.85717 6.56073 5.72592C6.78072 5.59343 6.60448 5.32969 6.43699 5.07471C6.26949 4.81972 6.09325 4.53848 5.88326 4.68723C5.67328 4.83722 5.87577 5.13595 6.00701 5.32094Z"/><path fill="#49C0F5" d="M9.50055 4.11606C9.35306 4.22481 9.41055 4.45979 9.67179 4.81102C9.92678 5.15476 10.1068 5.38349 10.2918 5.251C10.4917 5.10726 10.3405 4.84227 10.103 4.51604C9.86553 4.18981 9.69804 3.97107 9.50055 4.11606Z"/><path fill="#A681CB" d="M10.7232 7.50332C10.5869 7.82705 10.3832 8.22078 10.6569 8.30452C10.9469 8.39202 11.0306 7.98829 11.1806 7.67081C11.3306 7.35457 11.3956 7.12833 11.2069 7.03709C10.9694 6.9221 10.8644 7.16833 10.7232 7.50332Z"/><path fill="#ED4889" d="M6.63207 6.22716C6.47332 6.55215 6.33833 6.85713 6.55332 6.95712C6.79956 7.07212 6.91455 6.86963 7.08579 6.5034C7.23828 6.17967 7.35453 5.90968 7.15204 5.82093C6.88955 5.70844 6.76831 5.94718 6.63207 6.22716Z"/><path fill="#72E38D" d="M6.35956 7.90828C6.16582 8.10202 6.36831 8.3045 6.57955 8.48075C6.79079 8.65699 7.10702 8.86823 7.27451 8.68323C7.462 8.47575 7.08952 8.28201 6.89203 8.12076C6.64455 7.91703 6.52705 7.73953 6.35956 7.90828Z"/><path fill="#72E38D" d="M9.59678 1.94235C9.33305 1.9161 9.3418 2.32983 9.35055 2.56732C9.3593 2.80481 9.35055 3.06854 9.58804 3.07729C9.83427 3.08604 9.81677 2.76106 9.80802 2.50482C9.79927 2.24984 9.85177 1.96735 9.59678 1.94235Z"/><path fill="#FD6660" d="M10.7143 4.45844C10.568 4.54344 10.573 4.75718 10.8105 5.15341C11.0205 5.50464 11.2155 5.77837 11.4442 5.63713C11.7205 5.46714 11.4267 5.1884 11.2592 4.91592C11.0918 4.64343 11.0043 4.29095 10.7143 4.45844Z"/><path fill="#ED4889" d="M7.70961 5.02226C8.13208 5.16851 8.48207 4.80352 8.41832 4.42729C8.35957 4.08356 8.01834 3.98482 7.99084 3.99357C7.96334 4.00232 7.43587 4.2948 7.39962 4.32355C7.36337 4.3523 7.26588 4.86852 7.70961 5.02226Z"/><path fill="#ED4889" d="M8.70832 7.76206C9.04205 7.9908 9.52702 7.71831 9.52202 7.31708C9.51827 6.97835 9.22954 6.81711 9.20204 6.81961C9.17454 6.82336 8.57707 7.0196 8.53707 7.0396C8.49708 7.06085 8.33458 7.50707 8.70832 7.76206Z"/><path fill="#ED4889" d="M12.4867 7.29339C12.8154 7.36713 13.1391 7.0534 13.0366 6.69342C12.9504 6.38969 12.6554 6.31594 12.6316 6.32594C12.6079 6.33594 12.1567 6.63092 12.1267 6.65842C12.0967 6.68592 12.0104 7.18714 12.4867 7.29339Z"/><path fill="#ED4889" d="M4.83708 7.3358C5.21206 7.4783 5.57954 7.13207 5.51954 6.77708C5.46454 6.45335 5.14331 6.35961 5.11831 6.36961C5.09331 6.37836 4.59709 6.65334 4.56334 6.67959C4.52959 6.70584 4.4321 7.18206 4.83708 7.3358Z"/><path fill="#FFA5AA" d="M7.66088 4.03603C7.46214 4.13228 7.34839 4.32227 7.37964 4.45851C7.40964 4.58975 7.69212 4.66975 7.94211 4.55476C8.20085 4.43726 8.24084 4.18728 8.16585 4.07478C8.10585 3.98354 7.84212 3.94854 7.66088 4.03603Z"/><path fill="#FFA5AA" d="M4.75339 6.42096C4.5809 6.52095 4.50716 6.75469 4.5684 6.87843C4.6609 7.06217 4.92214 7.10092 5.12712 6.97468C5.36461 6.82968 5.38211 6.5347 5.29837 6.45095C5.21587 6.36846 5.01338 6.27096 4.75339 6.42096Z"/><path fill="#FFA5AA" d="M8.78315 6.79966C8.58191 6.87466 8.46316 7.07214 8.50566 7.23089C8.54566 7.37588 8.78065 7.40963 9.00688 7.33213C9.32812 7.22214 9.37686 6.9709 9.31062 6.8884C9.24437 6.80591 9.06438 6.69342 8.78315 6.79966Z"/><path fill="#FFA5AA" d="M12.6543 6.83463C12.4655 6.99587 12.1693 6.96587 12.1206 6.83463C12.0706 6.69964 12.1618 6.5034 12.2968 6.40465C12.4318 6.30591 12.6518 6.28341 12.7655 6.3834C12.8993 6.49965 12.7943 6.71463 12.6543 6.83463Z"/></svg>