<svg xmlns="http://www.w3.org/2000/svg" width="18" height="18" fill="none" viewBox="0 0 18 18"><path fill="#C9CABB" d="M8.92447 8.77954C8.92447 8.77954 1.87484 9.40826 1.90734 9.88823C1.93984 10.3682 2.02358 12.1219 2.45356 12.6356C2.88354 13.1493 4.50595 14.158 5.73089 14.803C6.95582 15.4479 9.18945 16.5404 10.4306 16.5079C11.6718 16.4754 13.923 14.5055 14.0217 13.993C14.1204 13.4805 13.9892 11.6431 13.9892 11.6431L8.92447 8.77954Z"/><path fill="#C9CABB" d="M6.57461 4.67479L4.40723 5.41975C4.40723 5.41975 4.46222 6.05347 4.57222 6.47845C4.70471 6.99092 5.01844 8.1996 6.07839 8.64583C7.13708 9.09206 12.9293 10.3832 13.2768 10.2845C13.6242 10.1857 14.7004 9.3083 15.0967 8.97706C15.4941 8.64583 11.2569 4.39355 11.2569 4.39355L6.57461 4.67479Z"/><path fill="#fff" d="M7.46834 4.50977L4.96973 5.02224C4.96973 5.02224 5.26721 7.38836 5.78093 7.76959C6.29466 8.15082 12.4668 9.70574 12.8468 9.65575C13.228 9.60575 14.6342 8.5633 14.6342 8.5633C14.6342 8.5633 15.0154 7.23962 14.9979 7.18963C14.9817 7.14088 7.46834 4.50977 7.46834 4.50977Z"/><path fill="#fff" d="M2.521 10.0532C2.521 10.0532 2.61974 11.8406 2.86848 12.1544C3.11721 12.4693 4.47339 13.5443 6.2608 14.4055C8.0482 15.2667 9.76936 15.7954 10.4643 15.8117C11.1593 15.8279 13.2779 14.1568 13.4429 13.8255C13.6079 13.4943 13.2604 11.6244 13.2604 11.6244L2.521 10.0532Z"/><path fill="#FF6110" d="M4.09218 5.94846C4.6584 6.2072 5.03588 5.07101 6.77328 5.05476C8.51069 5.03851 10.0831 5.96471 11.1756 6.51093C12.268 7.05715 14.5179 8.87706 15.1966 9.0758C15.8753 9.27454 16.504 8.59582 16.4878 7.68587C16.4715 6.77592 16.0903 4.32605 13.6079 2.73738C11.1256 1.14871 7.92072 1.26246 6.00082 2.18866C4.07468 3.12111 3.02848 5.46224 4.09218 5.94846Z"/><path fill="#D4D3D4" d="M5.6783 6.04342C5.70455 6.23716 5.96953 6.26216 6.24827 6.21591C6.45326 6.18216 6.72574 6.07717 6.68574 5.84468C6.657 5.67344 6.33451 5.62594 6.09578 5.67969C5.85704 5.73343 5.65205 5.85093 5.6783 6.04342Z"/><path fill="#D4D3D4" d="M10.3681 7.3209C10.3293 7.55089 10.613 7.63839 10.918 7.67213C11.223 7.70463 11.448 7.69838 11.4943 7.47964C11.5405 7.26091 11.2293 7.15466 10.998 7.12841C10.7668 7.10216 10.4068 7.08341 10.3681 7.3209Z"/><path fill="#D4D3D4" d="M12.3617 8.06337C12.2192 8.18711 12.2755 8.38085 12.5542 8.63334C12.8329 8.88457 13.0179 8.88457 13.1242 8.76583C13.2304 8.64709 13.0579 8.36835 12.8992 8.22211C12.7392 8.07712 12.5129 7.93087 12.3617 8.06337Z"/><path fill="#D4D3D4" d="M3.09471 11.6469C2.92472 11.8469 3.08846 12.0844 3.37969 12.3294C3.67093 12.5744 3.91341 12.8044 4.09465 12.6269C4.33964 12.3882 3.96841 12.0569 3.76342 11.8782C3.55843 11.6994 3.28095 11.4282 3.09471 11.6469Z"/><path fill="#D4D3D4" d="M4.27478 11.6994C4.18728 11.8606 4.28603 12.0331 4.58601 12.1831C4.87725 12.3294 5.03599 12.3219 5.13598 12.1631C5.23598 12.0044 5.00349 11.7856 4.7785 11.6856C4.55226 11.5869 4.35977 11.5407 4.27478 11.6994Z"/><path fill="#D4D3D4" d="M4.52599 13.0006C4.51474 13.1881 4.58223 13.3356 5.15345 13.3906C5.72467 13.4468 5.83217 13.2718 5.83717 13.1256C5.84467 12.9168 5.64218 12.7981 5.22345 12.7693C4.80472 12.7418 4.53973 12.7631 4.52599 13.0006Z"/><path fill="#FE8E6E" d="M4.92217 5.65221C4.85593 5.29973 4.77843 4.8235 4.88843 4.24728C5.06342 3.32858 5.73213 2.47238 6.87707 1.85116C7.38704 1.68492 7.98826 1.58617 8.46574 1.54368C8.64573 1.52743 8.80822 1.51993 8.94196 1.51868C8.66823 1.60742 8.08326 1.74366 7.50579 2.01365C6.28085 2.58612 5.56964 3.44358 5.40715 4.29728C5.32965 4.70476 5.34465 5.08474 5.38465 5.37597C5.22216 5.46722 5.05467 5.56096 4.92217 5.65221Z"/><path fill="#FE8E6E" d="M7.70446 5.13106C7.70071 4.70359 7.78945 4.10862 8.22068 3.61239C8.93189 2.79369 10.0618 2.37496 10.7855 2.18122C11.1668 2.07873 11.608 2.01623 12.038 1.97998C12.2317 2.04623 12.5817 2.17122 13.0092 2.39371C12.4605 2.38621 11.7542 2.41871 11.163 2.57745C10.0256 2.88368 9.08313 3.38616 8.62691 3.91113C8.25818 4.33486 8.20193 4.87733 8.21568 5.24106C8.00444 5.19106 7.8757 5.16356 7.70446 5.13106Z"/><path fill="#FE8E6E" d="M10.157 5.99467C10.287 5.61844 10.532 5.14346 10.9969 4.76098C12.2056 3.76853 13.5193 3.65479 13.928 3.61229C14.1818 3.58604 14.4318 3.57354 14.658 3.57104C14.813 3.72104 15.0042 3.92478 15.1142 4.06727C14.8367 4.05477 14.4693 4.05352 14.0918 4.09477C13.8255 4.12352 12.3731 4.30726 11.3682 5.13221C10.9607 5.4672 10.742 5.90092 10.6257 6.23216C10.4632 6.15216 10.352 6.09091 10.157 5.99467Z"/><path fill="#FE8E6E" d="M12.3755 7.25338C12.563 6.97589 12.8942 6.56591 13.3904 6.24468C14.2204 5.70596 14.9791 5.52222 15.9103 5.52222C15.939 5.52222 15.9678 5.52222 15.9965 5.52347C16.0878 5.72471 16.149 5.9122 16.1915 6.03594C16.104 6.02719 16.0103 6.02219 15.9103 6.02219C15.0816 6.02219 14.4091 6.20468 13.6654 6.68716C13.2417 6.96214 12.953 7.31087 12.7917 7.54086C12.5917 7.40462 12.468 7.31962 12.3755 7.25338Z"/><path fill="#F6FFFE" d="M4.79585 3.49731C4.91835 3.56355 4.87335 3.87854 4.71836 4.11727C4.56336 4.35476 4.40337 4.5435 4.22588 4.45976C4.04839 4.37726 4.17088 3.99478 4.28088 3.81854C4.39212 3.64105 4.59211 3.38731 4.79585 3.49731Z"/><path fill="#F6FFFE" d="M7.21961 3.04985C7.4621 3.32733 6.99838 3.51982 6.97088 3.77981C6.94338 4.0398 7.16212 3.93105 7.14837 4.20604C7.13212 4.52102 5.99218 4.74226 5.83719 4.17854C5.68094 3.61357 6.88213 2.66237 7.21961 3.04985Z"/><path fill="#F6FFFE" d="M9.77309 3.70983C9.58935 3.52109 9.12562 3.68233 8.85439 3.96982C8.58315 4.2573 8.5119 4.75478 9.00313 4.93727C9.4956 5.11976 9.61185 4.84852 9.5781 4.73228C9.55685 4.65603 9.4956 4.47729 9.56685 4.35105C9.64059 4.22481 9.99433 3.93732 9.77309 3.70983Z"/><path fill="#CC1935" d="M6.07327 8.23838C6.07327 8.23838 1.62975 8.75336 1.54101 9.16209C1.43601 9.64706 1.51726 10.0058 1.7135 10.2458C2.05348 10.662 3.46466 10.8095 5.36331 11.7032C7.09196 12.5169 7.78443 12.9556 8.80062 13.4706C9.81682 13.9856 10.568 14.1943 11.3055 14.0131C12.043 13.8318 12.8917 13.5256 13.6016 12.9556C14.1378 12.5244 14.3316 11.9157 14.2828 11.2995C14.2416 10.7745 13.9629 10.2145 13.6154 9.93579C13.2666 9.65706 6.08702 8.18214 6.07327 8.23838Z"/><path fill="#FF605F" d="M4.94587 6.91588C2.39975 7.38836 1.48605 8.87953 1.5473 9.21076C1.58605 9.4195 2.11852 9.31575 4.19591 10.047C7.202 11.1044 9.59812 12.3643 10.4468 12.5043C11.6143 12.6956 12.8055 12.0269 13.2717 11.6831C14.0254 11.1269 14.1154 10.5482 13.8379 10.1732C13.5579 9.79698 11.9318 8.24956 9.51063 7.38836C7.58073 6.70339 6.32955 6.65839 4.94587 6.91588Z"/><path fill="#F9FFFF" d="M3.14475 7.89081C2.85477 7.85831 1.80732 8.51453 2.1773 9.10449C2.54853 9.69571 4.29344 9.60947 4.33094 9.17449C4.37469 8.67327 3.35349 8.67452 3.2085 8.45953C3.06351 8.24579 3.48598 7.92956 3.14475 7.89081Z"/></svg>