<svg width="18" height="18" viewBox="0 0 18 18" fill="none" xmlns="http://www.w3.org/2000/svg">
<path d="M3.45616 11.5157C3.45616 11.5157 3.22742 11.9381 3.20992 12.2019C3.19243 12.4656 3.36867 14.613 3.7549 15.088C4.14113 15.563 5.32106 16.8129 8.80463 16.8479C12.2882 16.8829 14.0656 15.2992 14.2593 14.983C14.4531 14.6668 14.6993 13.1881 14.7168 12.0269C14.7343 10.8657 8.54089 11.6744 8.54089 11.6744L3.45616 11.5157Z" fill="#FBB75A"/>
<path d="M8.7345 14.3305C11.8318 14.418 14.6992 12.5181 14.6992 12.5181L14.6117 13.468C14.6117 13.468 12.2543 15.2804 8.787 15.1929C5.31968 15.1054 3.31479 13.468 3.31479 13.468L3.22729 12.6406C3.22729 12.6406 6.0259 14.253 8.7345 14.3305Z" fill="#F2A05B"/>
<path d="M9.12195 6.9396C7.80202 6.94584 3.82598 7.25583 3.421 8.94574C3.01602 10.6357 3.06852 12.2193 3.13977 12.3593C3.20976 12.5006 3.36725 12.2568 3.73848 12.3943C4.21346 12.5705 4.17846 13.8542 5.04092 14.083C5.90337 14.3117 5.92087 13.133 6.90582 13.203C7.89077 13.273 7.43329 14.5942 8.73572 14.6104C10.0732 14.6279 9.57693 13.303 10.5131 13.1855C11.4393 13.068 10.9531 14.5054 12.238 14.3117C13.523 14.118 13.3742 12.2893 14.0317 12.0956C14.5304 11.9493 14.4879 12.4393 14.7242 12.4181C14.9179 12.4006 14.8417 9.71945 14.6654 9.12198C14.4892 8.52451 12.8343 6.9221 9.12195 6.9396Z" fill="url(#paint0_radial_721_198)"/>
<path d="M5.11848 10.7145C4.18228 10.3196 3.8798 9.94582 3.72856 9.75583C3.62356 9.62334 3.46482 9.57084 3.37607 9.67709C3.28858 9.78208 3.33233 9.89708 3.42857 10.0108C3.52482 10.1258 3.95604 10.7845 5.06474 11.1458C6.03968 11.4632 6.6834 11.507 6.92964 11.5157C7.20337 11.5257 7.31712 11.182 6.95589 11.137C6.54216 11.0858 6.13968 11.1458 5.11848 10.7145Z" fill="#FDFFFF"/>
<path d="M7.93078 11.2631C7.6908 11.2569 7.60205 11.3919 7.60205 11.4981C7.60205 11.6269 7.71329 11.6981 7.90703 11.7094C8.10077 11.7206 8.21202 11.5919 8.21202 11.5044C8.21327 11.4156 8.15952 11.2681 7.93078 11.2631Z" fill="#FDFFFF"/>
<path d="M4.1422 12.0969C4.0322 12.2044 4.07845 12.3294 4.13095 12.3943C4.21719 12.5006 4.37218 12.5181 4.45218 12.4556C4.54342 12.3856 4.53217 12.2556 4.47468 12.1694C4.40093 12.0569 4.25094 11.9894 4.1422 12.0969Z" fill="#FCE9CA"/>
<path d="M4.44969 12.5594C4.29845 12.6444 4.36595 12.8331 4.44719 12.9881C4.62093 13.3181 4.67593 13.5868 4.87592 13.7193C5.07841 13.8531 5.32839 13.7606 5.30465 13.6218C5.26715 13.4006 5.13091 13.5681 5.01341 13.2881C4.96466 13.1718 4.86467 12.9856 4.74843 12.7344C4.68093 12.5869 4.60218 12.4731 4.44969 12.5594Z" fill="#FCE9CA"/>
<path d="M7.97221 13.4506C7.82347 13.5568 7.91346 13.8255 8.10095 14.0368C8.28844 14.248 8.55218 14.418 8.83966 14.3418C9.06215 14.283 9.04465 14.0368 8.89216 13.9668C8.73967 13.8968 8.55843 13.938 8.39344 13.7205C8.31344 13.6143 8.20095 13.2868 7.97221 13.4506Z" fill="#FCE9CA"/>
<path d="M11.5043 13.2193C11.3568 13.328 11.4956 13.5543 11.5868 13.7105C11.678 13.8667 11.9793 14.1667 12.1555 13.9892C12.2843 13.8592 12.0418 13.7017 11.928 13.5318C11.843 13.403 11.7005 13.073 11.5043 13.2193Z" fill="#FCE9CA"/>
<path d="M11.2507 12.8119C11.1532 12.8832 11.1682 12.9957 11.2032 13.0582C11.2507 13.1407 11.4032 13.1757 11.4907 13.0994C11.5757 13.0257 11.5257 12.9057 11.4795 12.8469C11.4332 12.7882 11.3157 12.7644 11.2507 12.8119Z" fill="#FCE9CA"/>
<path d="M11.7993 5.94604C11.7993 5.94604 10.8331 7.27847 10.8944 7.54346C10.9419 7.7522 11.1669 7.97594 11.6481 8.00844C12.1293 8.04094 12.4306 7.8172 12.4993 7.60471C12.5918 7.32222 12.2906 6.42227 12.1818 6.24353C12.0281 5.98979 11.8893 5.95354 11.7993 5.94604Z" fill="#EE5B4A"/>
<path d="M13.7968 7.14844L12.7581 8.60336C12.7581 8.60336 12.7893 8.9221 13.1018 9.05959C13.428 9.20208 14.0942 9.21083 14.2855 8.9321C14.503 8.61586 14.4092 8.07214 14.2992 7.74341C14.2142 7.48592 14.0342 7.12094 13.7968 7.14844Z" fill="#EE5B4A"/>
<path d="M12.0382 8.79213L11.0332 10.3358C11.0332 10.3358 11.022 10.7183 11.4757 10.8245C11.8357 10.9083 12.4969 10.912 12.7431 10.7008C12.9894 10.4895 12.9694 10.0646 12.7569 9.61834C12.5244 9.13336 12.1794 8.67714 12.0382 8.79213Z" fill="#EE5B4A"/>
<path d="M9.53568 9.1709L8.2195 10.7633C8.2195 10.7633 8.19325 11.0708 8.51824 11.2208C8.93571 11.4145 9.57818 11.4045 9.90441 11.2295C10.1906 11.0758 10.2344 10.5883 10.1307 10.2833C10.0457 10.0346 9.92816 9.82336 9.88441 9.70837C9.84067 9.59463 9.69317 9.24089 9.53568 9.1709Z" fill="#EE5B4A"/>
<path d="M6.70225 8.6333L5.58105 10.3845C5.58105 10.3845 5.61605 10.7932 6.04353 10.8769C6.41226 10.9494 7.01973 10.9919 7.23097 10.7269C7.44221 10.462 7.45096 9.78949 7.24847 9.31451C7.04598 8.84079 6.86974 8.6958 6.70225 8.6333Z" fill="#EE5B4A"/>
<path d="M4.9997 6.98221L4.84971 6.92847L3.84976 8.50838C3.84976 8.50838 3.82101 8.78712 4.0535 8.93586C4.27349 9.0771 4.97345 9.1471 5.35093 8.96211C5.72966 8.77712 5.70217 8.15715 5.43843 7.62468C5.19469 7.13096 4.9997 6.98221 4.9997 6.98221Z" fill="#EE5B4A"/>
<path d="M6.83472 5.81592L5.86353 7.49208C5.86353 7.49208 5.90602 7.70957 6.24101 7.80456C6.56974 7.89831 6.99972 7.88081 7.2197 7.71082C7.44094 7.54083 7.49969 7.1671 7.39844 6.73337C7.3297 6.43714 7.06346 5.90091 6.83472 5.81592Z" fill="#EE5B4A"/>
<path d="M5.87595 9.24457C5.66721 9.69455 5.37473 10.362 5.70846 10.582C6.04219 10.802 6.53592 10.4495 6.71091 9.78954C6.8859 9.12958 6.9134 8.79959 6.74591 8.65835C6.57967 8.51961 6.14844 8.65585 5.87595 9.24457Z" fill="#FD6F42"/>
<path d="M4.74346 6.87732C4.50597 6.89232 4.23349 7.2598 4.09724 7.62103C3.961 7.98226 3.80226 8.43099 3.85976 8.57598C3.91725 8.72097 4.30848 8.89721 4.47597 8.58973C4.64346 8.28225 4.60972 7.87102 4.64721 7.66103C4.71346 7.29105 4.9997 6.98356 4.9997 6.98356C4.9997 6.98356 4.9022 6.86732 4.74346 6.87732Z" fill="#FD6F42"/>
<path d="M6.62604 5.74357C6.45605 5.75357 6.29481 5.82481 6.14982 6.29979C6.07107 6.55977 5.84858 6.86101 5.82733 7.14474C5.80609 7.42973 5.86983 7.50347 5.86983 7.50347C5.86983 7.50347 6.27731 7.58222 6.43605 7.26474C6.58854 6.961 6.54105 6.65102 6.59229 6.50728C6.64354 6.36228 6.87728 5.83606 6.87728 5.83606C6.87728 5.83606 6.77478 5.73607 6.62604 5.74357Z" fill="#FD6F42"/>
<path d="M11.7582 5.93726C11.5795 5.92851 11.3182 6.14975 11.152 6.54473C10.9845 6.93971 10.8833 7.36844 10.8908 7.49468C10.8983 7.62092 11.5582 7.63592 11.7907 7.25469C11.937 7.01471 11.9295 6.37099 11.9132 6.216C11.8982 6.05976 11.9445 5.94601 11.7582 5.93726Z" fill="#FF6E45"/>
<path d="M13.7417 7.14337C13.588 7.16836 13.2255 7.25711 12.933 7.88833C12.7505 8.28206 12.6955 8.66079 12.828 8.71578C12.9605 8.77078 13.3217 8.82578 13.4867 8.61954C13.6517 8.4133 13.8342 7.85208 13.8754 7.57209C13.9154 7.29461 13.9429 7.11087 13.7417 7.14337Z" fill="#FF6E45"/>
<path d="M11.0707 10.4421C11.2682 10.6221 11.6445 10.4521 11.7795 10.2921C11.9857 10.0458 12.1582 9.53087 12.1669 9.17089C12.1732 8.90965 12.2332 8.76216 12.0044 8.77466C11.9257 8.77966 11.7095 8.81841 11.4595 9.18839C11.2607 9.48087 11.147 9.71211 11.0807 9.99835C11.0245 10.2358 11.0132 10.3896 11.0707 10.4421Z" fill="#FF6E45"/>
<path d="M9.27568 9.08201C9.14818 9.07701 8.9057 9.15201 8.65571 9.56574C8.40447 9.97947 8.11949 10.6482 8.24198 10.8544C8.36573 11.0607 8.66821 11.0832 8.97694 10.9557C9.28443 10.8282 9.49567 10.3832 9.51317 10.2032C9.53066 10.0232 9.64941 9.25325 9.54816 9.17826C9.44692 9.10451 9.38567 9.08701 9.27568 9.08201Z" fill="#FF6E45"/>
<path d="M14.0367 4.25355C14.0367 5.99471 11.2543 7.53838 9.08569 7.53838C6.91705 7.53838 4.15845 5.90096 4.15845 4.15981C4.15845 2.41865 6.8783 1.03247 9.04569 1.03247C11.2131 1.03247 14.0367 2.51239 14.0367 4.25355Z" fill="url(#paint1_radial_721_198)"/>
<path d="M10.0983 4.88988C10.142 4.82863 10.9657 4.89738 11.0395 4.91613C11.0745 4.92487 11.0657 8.06596 11.022 8.09221C10.9845 8.11471 10.837 8.25095 10.5558 8.25095C10.2745 8.25095 10.1158 8.15471 10.0633 8.11846C10.0108 8.08346 10.0545 4.95112 10.0983 4.88988Z" fill="#FEA8A8"/>
<path d="M8.58588 5.66485C8.55213 5.6936 8.54213 8.72719 8.56838 8.75344C8.59463 8.77968 8.77087 8.93843 9.11335 8.92968C9.45708 8.92093 9.61457 8.79718 9.64082 8.77094C9.66707 8.74469 9.65832 5.66485 9.63207 5.64735C9.60582 5.6286 8.63838 5.61985 8.58588 5.66485Z" fill="#EC7FAE"/>
<path d="M7.10715 5.01361C7.06466 5.03861 7.06341 8.1197 7.0809 8.14595C7.0984 8.1722 7.35339 8.26094 7.59088 8.26094C7.82837 8.26094 8.0571 8.20844 8.08335 8.1822C8.1096 8.15595 8.0921 5.04986 8.06585 5.01486C8.0396 4.97986 7.1509 4.98736 7.10715 5.01361Z" fill="#93C7EE"/>
<path d="M9.12211 2.875C9.1746 2.875 9.24585 3.28873 9.34209 3.52622C9.43834 3.7637 9.79957 4.35367 9.65833 4.86365C9.50458 5.42237 8.63338 5.53111 8.44464 4.8024C8.31215 4.29243 8.76087 3.7637 8.87587 3.52622C8.95461 3.36247 9.08586 2.875 9.12211 2.875Z" fill="url(#paint2_radial_721_198)"/>
<path d="M10.5383 2.23242C10.5383 2.23242 10.4083 2.82489 10.2483 3.07738C10.0195 3.43861 9.87454 3.93233 10.0545 4.33606C10.2833 4.84603 11.1995 4.81979 11.2157 3.94858C11.2245 3.49111 11.0245 3.24862 10.882 2.98988C10.7845 2.81364 10.5995 2.24992 10.5383 2.23242Z" fill="url(#paint3_radial_721_198)"/>
<path d="M7.6258 2.32983C7.6258 2.32983 7.38831 2.9198 7.23832 3.13979C7.08833 3.35978 6.82209 3.8785 6.97458 4.29223C7.15957 4.79345 7.97828 4.85345 8.13577 4.19599C8.24077 3.75601 8.01203 3.42228 7.85454 3.06105C7.75579 2.83356 7.6258 2.32983 7.6258 2.32983Z" fill="url(#paint4_radial_721_198)"/>
<defs>
<radialGradient id="paint0_radial_721_198" cx="0" cy="0" r="1" gradientUnits="userSpaceOnUse" gradientTransform="translate(9.16409 8.84002) rotate(91.1173) scale(5.72282 12.4582)">
<stop offset="0.4451" stop-color="#FEEAC9"/>
<stop offset="0.5647" stop-color="#FEE7C2"/>
<stop offset="0.7412" stop-color="#FEDEAE"/>
<stop offset="0.9521" stop-color="#FFCF8D"/>
<stop offset="1" stop-color="#FFCB85"/>
</radialGradient>
<radialGradient id="paint1_radial_721_198" cx="0" cy="0" r="1" gradientUnits="userSpaceOnUse" gradientTransform="translate(9.09835 4.2853) scale(4.8777 3.0032)">
<stop offset="0.0341" stop-color="#FFE265" stop-opacity="0.7"/>
<stop offset="0.1123" stop-color="#FFE575" stop-opacity="0.6433"/>
<stop offset="0.4171" stop-color="#FFF0B0" stop-opacity="0.4224"/>
<stop offset="0.6773" stop-color="#FFF8DB" stop-opacity="0.2339"/>
<stop offset="0.8799" stop-color="#FFFDF5" stop-opacity="0.0871"/>
<stop offset="1" stop-color="white" stop-opacity="0"/>
</radialGradient>
<radialGradient id="paint2_radial_721_198" cx="0" cy="0" r="1" gradientUnits="userSpaceOnUse" gradientTransform="translate(9.11318 5.49716) scale(2.42838 2.42838)">
<stop offset="0.1702" stop-color="#FF9616"/>
<stop offset="0.6539" stop-color="#FFD429"/>
</radialGradient>
<radialGradient id="paint3_radial_721_198" cx="0" cy="0" r="1" gradientUnits="userSpaceOnUse" gradientTransform="translate(10.651 4.85315) scale(2.38044)">
<stop offset="0.1702" stop-color="#FF9616"/>
<stop offset="0.6539" stop-color="#FFD429"/>
</radialGradient>
<radialGradient id="paint4_radial_721_198" cx="0" cy="0" r="1" gradientUnits="userSpaceOnUse" gradientTransform="translate(7.60229 4.8524) scale(2.35645)">
<stop offset="0.1702" stop-color="#FF9616"/>
<stop offset="0.6539" stop-color="#FFD429"/>
</radialGradient>
</defs>
</svg>
