<svg xmlns="http://www.w3.org/2000/svg" width="18" height="18" fill="none" viewBox="0 0 18 18"><path fill="#615555" d="M9.93849 13.8954L9.09229 16.3016C9.09229 16.3016 10.8709 16.2778 11.3884 16.2253C11.9059 16.1728 12.8646 15.8366 13.0196 15.3191C13.1746 14.8016 12.8896 12.7555 12.8896 12.7555C12.8896 12.7555 13.667 12.548 14.0295 12.1343C14.392 11.7206 14.2883 11.0468 14.262 10.5806C14.2358 10.1144 14.217 6.25209 14.1583 5.78962C14.0695 5.09965 13.822 4.46844 13.4071 4.00346C12.9921 3.53848 12.5109 3.3185 12.3384 3.23225C12.1184 3.12101 11.4147 2.94727 11.4147 2.94727L9.93849 13.8954Z"/><path fill="#4A4240" d="M5.16497 4.2524C5.14497 4.29364 4.73374 4.62238 4.72374 4.95986C4.71374 5.29859 4.77499 5.57108 4.81624 5.80107C4.85499 6.01855 4.93623 6.41228 4.93623 6.41228L11.4846 6.37603C11.4846 6.37603 11.7384 6.14105 11.6996 5.71982C11.6384 5.04235 11.3509 4.70362 11.0947 4.39614C10.8384 4.08866 7.53484 3.58618 7.53484 3.58618C7.53484 3.58618 5.17497 4.2324 5.16497 4.2524Z"/><path fill="#948585" d="M4.97484 6.6922C4.97484 6.6922 4.87985 6.32472 4.96109 6.21598C5.04234 6.10723 5.35607 5.83475 5.8323 5.73975C6.30852 5.64476 6.79849 5.76725 6.79849 5.76725L8.58215 5.15479C8.58215 5.15479 8.70464 5.33228 8.79964 5.53602C8.89463 5.73975 9.01713 6.17598 9.01713 6.17598C9.01713 6.17598 9.14587 5.98974 9.55335 5.86725C9.96208 5.74475 10.6495 5.92099 10.6495 5.92099L11.032 9.19832C11.032 9.19832 10.937 10.097 10.9645 11.9082C10.992 13.7193 10.9783 14.5493 10.897 15.1893C10.862 15.463 10.6158 16.128 9.5496 16.2917C8.53215 16.4479 6.74475 16.6317 5.41107 16.5229C4.07614 16.4142 3.70491 15.8917 3.57241 15.638C3.43617 15.3755 3.62741 14.6393 3.62741 14.6393L4.32112 13.9631C4.32112 13.9631 3.96739 11.512 3.95364 11.4445C3.9399 11.3757 4.97484 6.6922 4.97484 6.6922Z"/><path fill="#615654" d="M6.86858 11.1543L7.91102 11.6068C7.91102 11.6068 8.49474 11.7455 8.57474 11.913C8.62599 12.0193 8.56724 12.2118 8.28975 12.1318C8.12976 12.0855 7.38605 11.8793 7.16606 11.8255C6.89608 11.7593 5.43615 11.6793 5.08867 11.7693C4.82744 11.8368 4.4862 12.1055 4.29621 12.0593C4.11372 12.0155 4.12872 11.9018 4.12622 11.698C4.12497 11.5805 4.5187 11.3218 4.5187 11.3218L6.58234 11.0593L6.86858 11.1543Z"/><path fill="#615654" d="M4.83352 12.1757C4.70977 12.4607 5.55598 12.8045 5.97846 12.8169C6.92716 12.8457 7.46213 12.2845 7.45213 12.2332C7.42963 12.1307 6.53343 12.117 5.94971 12.1095C5.41599 12.1032 4.87727 12.0732 4.83352 12.1757Z"/><path fill="#BFB3B3" d="M11.5545 6.37352C11.3858 6.16478 10.6608 5.7373 10.0646 5.96479C9.44215 6.20353 9.12591 6.98974 9.32965 7.64345C9.46839 8.08968 9.87712 8.51965 10.2209 8.89588C10.5896 9.30086 10.7596 9.6096 10.9183 9.6096C11.0771 9.6096 11.2358 8.18967 11.3558 7.68345C11.4758 7.17723 11.6645 6.50976 11.5545 6.37352Z"/><path fill="#615654" d="M9.19099 6.026C9.19099 6.026 9.09224 6.07599 9.04224 6.046C8.99225 6.016 8.91725 5.84351 8.91725 5.84351C8.91725 5.84351 7.45733 7.78465 7.37858 7.9034C7.29859 8.02214 7.32733 8.07089 7.36733 8.12089C7.40733 8.17088 8.17729 8.00964 8.64351 8.35587C9.12974 8.71835 9.14849 9.42457 8.95975 9.6933C8.77101 9.96079 8.19354 9.97954 7.81481 9.69955C7.62857 9.56206 6.82236 9.14083 5.80866 9.14083C5.38619 9.14083 4.63998 9.21333 4.63998 9.21333L4.1875 9.62831L4.63373 10.2533L6.42738 10.8932L6.69237 10.4683C6.69237 10.4683 8.24979 10.632 8.77351 10.5445C9.29723 10.457 9.72846 10.037 9.63721 9.24458C9.55347 8.51962 9.05224 8.20088 8.80851 7.63966C8.59852 7.15469 8.81226 6.66971 8.88725 6.48847C8.9485 6.34348 9.19099 6.026 9.19099 6.026Z"/><path fill="#4A4240" d="M5.27745 9.52701C5.14871 9.48452 4.87122 9.722 4.84122 9.817C4.81123 9.91574 5.02121 10.2495 5.34245 10.1732C5.56869 10.1207 5.39119 9.56451 5.27745 9.52701Z"/><path fill="#4A4240" d="M6.23852 9.44463C6.00978 9.47588 6.12728 9.80211 6.23852 9.97585C6.35976 10.1658 6.47976 10.2933 6.621 10.3183C6.76224 10.3433 7.46846 10.3521 7.46096 10.1183C7.45346 9.88461 6.546 9.40338 6.23852 9.44463Z"/><path fill="#BFB3B3" d="M7.246 9.11342C7.39849 9.16967 7.80972 9.06967 8.19095 8.87968C8.57218 8.68844 8.77217 8.55845 8.76342 8.4722C8.75467 8.38596 8.50343 8.17722 8.17345 8.14222C7.82847 8.10597 7.61223 8.15722 7.53224 8.23721C7.41974 8.34971 6.98602 9.01842 7.246 9.11342Z"/><path fill="#91837F" d="M11.6757 2.10376C11.6757 2.10376 11.9194 2.18251 12.2456 2.60748C12.5181 2.96121 12.4269 3.43244 12.2731 3.90117C12.1494 4.2799 11.8669 4.82862 11.4807 4.74487C11.1669 4.67737 9.932 4.28864 8.93955 4.13615C7.66837 3.94116 6.83841 3.98116 5.98096 4.2674C5.166 4.53863 4.72478 4.96111 4.72478 4.96111C4.72478 4.96111 4.68978 4.47364 4.79977 4.20115C4.90977 3.92866 6.0797 3.35744 6.0797 3.35744L11.6757 2.10376Z"/><path fill="#BFB3B3" d="M8.58354 5.15353C8.59104 5.32352 7.17236 7.59215 7.00487 7.86589C6.83738 8.13963 6.43865 8.79459 6.32116 8.89834C6.17742 9.02708 5.69494 9.16082 5.44245 9.17957C4.81124 9.22832 4.49875 9.44456 4.42376 9.5958C4.34876 9.74704 4.90998 10.2483 5.31246 10.347C5.71494 10.4458 6.57239 10.4158 6.73239 10.4833C6.89238 10.5507 7.20986 10.8232 7.45985 10.9682C7.70983 11.1132 8.05232 11.357 8.04482 11.4857C8.03732 11.6144 7.98232 11.6269 7.86983 11.5982C7.73733 11.5644 7.17861 11.3957 6.84613 11.357C6.24241 11.287 5.35621 11.2557 4.84999 11.3857C4.57125 11.457 4.06503 11.7107 4.13627 11.9407C4.20002 12.1444 4.30501 12.2982 4.45501 12.4869C4.585 12.6506 4.83499 13.0869 4.99373 13.3444C5.15372 13.6018 5.46495 14.0268 6.06992 14.0706C6.77488 14.1218 7.04987 13.7693 7.37735 13.3281C7.70358 12.8881 7.89357 12.4319 8.35605 12.4856C8.81853 12.5394 8.91727 13.1156 9.00102 13.5256C9.08476 13.9356 9.34225 15.0443 9.21351 15.3017C9.08476 15.5592 8.87227 15.583 8.49229 15.6505C8.11231 15.7192 6.3974 15.9617 5.36496 15.818C4.33251 15.6742 3.68755 15.3405 3.6263 14.9943C3.56505 14.648 3.71005 14.5043 3.73254 13.8368C3.75504 13.1694 3.68005 10.0583 3.97628 8.78209C4.27252 7.50591 4.77249 6.8122 5.06872 6.57721C5.36496 6.34222 5.97743 6.10723 6.10992 6.17848C6.24241 6.24973 5.5487 7.71965 5.5487 7.71965C5.5487 7.71965 5.98743 7.59715 6.02867 7.49466C6.06992 7.39217 7.20236 4.94229 7.41735 4.8198C7.63234 4.69731 7.84858 4.71856 8.10356 4.7998C8.3598 4.88605 8.58354 5.15353 8.58354 5.15353Z"/><path fill="#D4CCCD" d="M5.39622 14.7666C5.10998 14.7979 5.14123 15.1754 5.20248 15.3279C5.26373 15.4804 5.43747 15.5729 5.64121 15.5116C5.84495 15.4504 5.87619 15.2254 5.81495 15.0416C5.7537 14.8579 5.65995 14.7391 5.39622 14.7666Z"/><path fill="#D4CCCD" d="M5.10988 10.5106C4.95614 10.4744 4.81364 10.4794 4.70115 10.6231C4.58866 10.7656 4.56616 10.9569 4.72115 11.0106C4.92489 11.0819 5.07863 11.0106 5.20112 10.8781C5.29612 10.7769 5.32487 10.5619 5.10988 10.5106Z"/><path fill="#D4CCCD" d="M9.89466 6.94102C9.75716 6.92852 9.69717 6.99226 9.67092 7.08726C9.64467 7.18225 9.71342 7.25975 9.80841 7.2685C9.90341 7.27725 9.9809 7.21725 10.0147 7.13976C10.0496 7.06226 9.98965 6.94977 9.89466 6.94102Z"/><path fill="#D4CCCD" d="M5.25355 6.72336C5.10855 6.62711 4.89607 6.7746 4.80482 6.96834C4.71358 7.16208 4.78482 7.33582 4.87607 7.37707C4.96731 7.41832 5.1498 7.37582 5.2748 7.18333C5.38604 7.00834 5.40604 6.8246 5.25355 6.72336Z"/><path fill="#D4CCCD" d="M10.4632 6.0371C10.162 6.0471 10.0495 6.13209 9.94703 6.32958C9.83203 6.54957 9.95578 6.72081 10.1533 6.73456C10.3945 6.75206 10.5495 6.68331 10.6957 6.44208C10.8007 6.26958 10.722 6.02835 10.4632 6.0371Z"/><path fill="#D4CCCD" d="M7.67716 4.72974C7.23344 4.73224 7.0147 4.95848 6.77971 5.36471C6.52348 5.80843 6.45848 6.32466 6.091 6.88588C5.72352 7.4471 5.33604 7.93707 5.1723 8.09081C5.00856 8.24456 4.65107 8.68328 4.88606 8.88702C5.12105 9.09076 5.44728 8.77453 5.67227 8.48829C5.89726 8.20206 6.36598 7.3346 6.60097 6.96712C6.83596 6.59964 7.74466 5.40471 7.89715 5.12972C7.9909 4.96098 7.92465 4.72849 7.67716 4.72974Z"/><path fill="#BFB3B3" d="M10.8157 3.83231C11.2769 3.87856 11.6057 3.54608 11.7557 3.01486C11.9056 2.48364 11.8681 2.24865 11.7994 2.1674C11.7319 2.08616 10.217 1.35369 8.29709 1.51744C6.37719 1.68118 5.88596 2.2749 5.60098 2.55238C5.111 3.02861 4.76852 3.86731 4.79352 4.22729C4.79352 4.23479 5.07851 3.68107 6.92216 3.46483C9.0183 3.21985 10.272 3.77857 10.8157 3.83231Z"/><path fill="#D4CCCD" d="M5.41356 3.35226C5.5198 3.4535 5.72979 3.406 5.84229 3.23351C5.95603 3.06102 5.94353 2.88228 5.84229 2.80479C5.74104 2.72729 5.5498 2.78729 5.44356 2.92353C5.33731 3.05977 5.28732 3.23351 5.41356 3.35226Z"/><path fill="#D4CCCD" d="M5.82116 2.34249C5.82116 2.34249 6.11865 2.05501 6.51863 1.89626C7.0811 1.67253 7.52732 1.61503 7.52732 1.61503C7.52732 1.61503 7.82856 1.58378 7.90605 1.67877C8.0048 1.79877 7.82856 1.96251 7.82856 1.96251C7.82856 1.96251 8.08729 1.92751 8.15604 2.0575C8.22479 2.18625 8.17354 2.39374 7.86356 2.40249C7.55357 2.41124 7.64857 2.135 7.64857 2.135C7.64857 2.135 7.44233 2.23875 7.26984 2.28124C7.09735 2.32374 6.87361 2.27249 6.87361 2.27249C6.87361 2.27249 6.50488 2.85746 6.0724 2.73747C5.71492 2.63997 5.82116 2.34249 5.82116 2.34249Z"/></svg>