<svg width="18" height="18" viewBox="0 0 18 18" fill="none" xmlns="http://www.w3.org/2000/svg">
<path d="M11.792 12.2702C11.6683 11.9002 10.9696 11.1277 10.9696 11.1277C10.9696 11.1277 10.6296 11.0815 10.6171 11.4652H10.1158C10.1008 11.244 10.0409 11.0952 9.84461 11.0952C9.59087 11.0952 9.60462 11.4864 9.60462 11.7139C9.60462 11.9414 9.63962 12.1914 9.85836 12.1977C10.0371 12.2027 10.0946 12.0814 10.1121 11.8702H10.6821C10.8071 12.2189 11.0708 12.4501 11.1295 12.4326C11.2045 12.4126 11.9158 12.6401 11.792 12.2702Z" fill="#EE3E23"/>
<path d="M2.72885 7.84472C2.72885 7.84472 2.26263 7.83347 2.17763 7.84472C1.97389 7.87222 1.94139 8.09471 1.86515 8.10346C1.8039 8.10971 1.45142 8.07346 1.34143 8.14471C1.22518 8.2197 1.21268 8.96091 1.32768 9.03591C1.44392 9.11091 1.7839 9.06966 1.85765 9.10341C1.9314 9.13715 2.00014 9.33464 2.21138 9.35464C2.42262 9.37464 3.02134 9.34089 3.02134 9.34089L2.72885 7.84472Z" fill="#00AA48"/>
<path d="M16.3965 7.60474C16.1715 7.60474 16.1715 7.84222 16.1715 7.84222V8.35095H16.0677C15.9003 7.82347 15.3065 7.67723 15.3065 7.67723C15.3065 7.67723 14.9041 8.79967 14.8966 8.83342C14.8903 8.86592 15.279 9.57963 15.279 9.57963C15.279 9.57963 15.9765 9.44464 16.0927 8.81967H16.1702V9.26215C16.1702 9.26215 16.1502 9.51339 16.4015 9.51339C16.6127 9.51339 16.619 9.26965 16.619 9.26965V7.84347C16.6215 7.84347 16.6277 7.60474 16.3965 7.60474Z" fill="#00AA48"/>
<path d="M13.5393 5.1742H12.7967C12.6066 4.06801 11.709 3.93301 11.0777 3.91176C10.7564 3.90051 5.63201 3.91176 4.95818 3.92301C4.16683 3.93551 3.52425 4.59673 3.51425 5.58168C3.50425 6.56663 4.35935 7.1441 4.86192 7.20784C5.30322 7.26409 11.7628 7.20784 11.7628 7.20784C11.7628 7.20784 12.6004 6.92661 12.7842 5.89166H13.2605L13.5393 5.1742Z" fill="#FCC11A"/>
<path d="M5.10778 4.77804C5.14154 5.18427 5.43907 5.19552 6.10291 5.18427C6.77674 5.17302 10.1372 5.18427 10.4472 5.17302C10.7572 5.16178 10.9498 4.91679 10.9185 4.74555C10.8873 4.57431 10.7047 4.39182 10.2984 4.38182C9.85962 4.37057 5.92288 4.36057 5.62285 4.37057C5.32156 4.38307 5.08653 4.52181 5.10778 4.77804Z" fill="#FEFFFF"/>
<path d="M13.22 7.09714C13.22 7.09714 3.33629 7.1809 2.95749 7.20965C2.57869 7.2384 2.56494 7.78347 2.56494 8.06351C2.56494 8.34354 2.56744 9.33617 2.58119 9.5462C2.59495 9.75622 2.69121 10.1075 3.29253 10.1075C3.89386 10.1075 6.72296 10.1213 6.72296 10.1213C6.72296 10.1213 6.62545 10.5413 7.0305 10.8639C7.4368 11.1864 7.74434 11.1301 8.48693 11.1439C9.22952 11.1576 10.8972 11.1401 10.8972 11.1401C10.8972 11.1401 11.9861 14.4206 12.0711 14.6018C12.1549 14.7844 12.1836 15.0644 12.3512 15.0781C12.5187 15.0919 14.2827 15.0919 14.4927 15.0781C14.7027 15.0644 14.8427 14.8544 14.689 14.5043C14.5352 14.1543 13.4013 11.1726 13.4013 11.1726C13.4013 11.1726 13.9851 11.0864 14.2276 10.7101C14.4127 10.4226 14.4239 10.0375 14.4239 10.0375C14.4239 10.0375 14.984 10.1075 15.2778 9.78497C15.5716 9.46243 15.4741 9.08489 15.4878 8.52482C15.5016 7.96475 15.4453 7.62845 15.334 7.46093C15.2228 7.29341 15.0678 7.25091 15.0678 7.25091C15.0678 7.25091 15.3665 7.06963 15.3753 6.7746C15.389 6.35454 15.3478 5.16439 15.3478 4.95437C15.3478 4.74434 15.2078 4.54807 14.914 4.53431C14.6902 4.52306 13.8639 4.52681 13.5138 4.52056C13.085 4.51181 13.1075 4.8281 13.0938 5.27691C13.0825 5.6407 13.08 6.54957 13.08 6.67708C13.08 6.92837 13.22 7.09714 13.22 7.09714Z" fill="#FF8E00"/>
<path d="M14.269 13.4342C14.269 13.4342 12.9116 13.4342 12.7428 13.4342C12.5741 13.4342 12.4541 13.5329 12.5179 13.7154C12.5816 13.8979 12.7078 13.9267 12.8278 13.9329C12.9478 13.9404 14.4528 13.9329 14.4528 13.9329L14.269 13.4342Z" fill="#EE3E23"/>
<path d="M14.0011 12.7303C14.0011 12.7303 12.6437 12.7303 12.5024 12.7303C12.3612 12.7303 12.2425 12.8153 12.2637 12.9841C12.285 13.1528 12.3549 13.2441 12.5662 13.2516C12.7774 13.2591 14.1836 13.2516 14.1836 13.2516L14.0011 12.7303Z" fill="#EE3E23"/>
<path d="M12.0387 12.2453C12.0575 12.3915 12.1162 12.534 12.3625 12.534C12.6362 12.534 13.9236 12.534 13.9236 12.534L13.7124 11.9778C13.7124 11.9778 12.4749 11.9778 12.355 11.9778C12.235 11.9778 12.0037 11.9778 12.0387 12.2453Z" fill="#EE3E23"/>
<path d="M8.06218 10.8951C8.06218 10.8951 7.94843 11.7688 8.43966 12.2526C8.75714 12.5638 9.03588 12.7838 10.2946 12.8013C11.562 12.8188 11.9807 12.8188 11.9807 12.8188L11.8545 12.1538C11.8545 12.1538 10.1108 12.2801 9.38336 12.1363C9.07712 12.0763 8.73589 11.8263 8.74214 11.4601C8.74714 11.1751 8.73839 10.8064 8.73839 10.8064L8.06218 10.8951Z" fill="#FF8E00"/>
<path d="M11.8138 11.514C11.8326 11.7102 11.9613 11.7952 12.1863 11.8027C12.4113 11.8102 13.635 11.8027 13.635 11.8027L13.4375 11.254C13.4375 11.254 12.2625 11.254 12.1713 11.254C12.0801 11.254 11.7863 11.2252 11.8138 11.514Z" fill="#EE3E23"/>
<path d="M7.46338 9.86627C7.46338 10.0863 7.55839 10.145 7.85218 10.145C8.16722 10.145 13.1753 10.145 13.3304 10.145C13.4854 10.145 13.6892 10.0863 13.6829 9.84502C13.6754 9.60253 13.4116 9.64003 13.3091 9.64003C13.2066 9.64003 8.06595 9.64003 7.84593 9.64003C7.6259 9.64003 7.46338 9.69003 7.46338 9.86627Z" fill="#EC3F23"/>
<path d="M4.49023 6.99592C4.49023 6.99592 4.49023 10.1745 4.49023 10.2345C4.49023 10.2932 4.49898 10.437 4.64148 10.437C4.78522 10.437 4.81897 10.3357 4.81897 10.2345C4.81897 10.1333 4.81897 6.94592 4.81897 6.94592L4.49023 6.99592Z" fill="#FCC11A"/>
<path d="M5.07275 6.92339C5.07275 6.92339 5.07275 10.0857 5.07275 10.1957C5.07275 10.3057 5.09775 10.432 5.23275 10.432C5.36774 10.432 5.41024 10.3145 5.41024 10.187C5.41024 10.0607 5.41024 6.82214 5.41024 6.82214L5.07275 6.92339Z" fill="#FCC11A"/>
</svg>
