<svg width="131" height="10" viewBox="0 0 131 10" fill="none" xmlns="http://www.w3.org/2000/svg">
<path d="M1 4.21392C1.74875 3.07851 3.04601 2.11751 4.42365 1.96801C5.1555 1.88859 5.64931 2.26568 5.98128 2.80859M5.98128 2.80859C6.24561 3.24087 6.40733 3.77828 6.50491 4.27406C6.79276 5.73653 6.86759 7.61516 5.63229 8.69058C4.33856 9.81687 4.10778 7.63571 4.18844 6.81512C4.33196 5.35497 4.99631 3.89804 5.98128 2.80859ZM5.98128 2.80859C7.30651 1.34279 9.21214 0.54221 11.2106 1.29404M11.0514 1.28721C11.6619 1.41899 12.3203 2.10155 12.7854 2.8678M12.7854 2.8678C13.0712 3.33882 13.2841 3.84145 13.3679 4.26723C13.6558 5.7297 13.7306 7.60832 12.4953 8.68374C11.2016 9.81004 10.9708 7.62887 11.0514 6.80828C11.1921 5.37744 11.8328 3.9497 12.7854 2.8678ZM12.7854 2.8678C14.1127 1.36018 16.0453 0.524156 18.0736 1.28721M18.0514 1.28721C18.6619 1.41899 19.3203 2.10155 19.7854 2.8678M19.7854 2.8678C20.0712 3.33882 20.2841 3.84145 20.3679 4.26723C20.6558 5.7297 20.7306 7.60832 19.4953 8.68374C18.2016 9.81004 17.9708 7.62887 18.0514 6.80828C18.1921 5.37744 18.8328 3.9497 19.7854 2.8678ZM19.7854 2.8678C21.1127 1.36018 23.0453 0.524156 25.0736 1.28721M25.0514 1.28721C25.6619 1.41899 26.3203 2.10155 26.7854 2.8678M26.7854 2.8678C27.0712 3.33882 27.2841 3.84145 27.3679 4.26723C27.6558 5.7297 27.7306 7.60832 26.4953 8.68374C25.2016 9.81004 24.9708 7.62887 25.0514 6.80828C25.1921 5.37744 25.8328 3.9497 26.7854 2.8678ZM26.7854 2.8678C28.1127 1.36018 30.0453 0.524156 32.0736 1.28721M32.0514 1.28721C32.6619 1.41899 33.3203 2.10155 33.7854 2.8678M33.7854 2.8678C34.0712 3.33882 34.2841 3.84145 34.3679 4.26723C34.6558 5.7297 34.7306 7.60832 33.4953 8.68374C32.2016 9.81004 31.9708 7.62887 32.0514 6.80828C32.1921 5.37744 32.8328 3.9497 33.7854 2.8678ZM33.7854 2.8678C35.1127 1.36018 37.0453 0.524156 39.0736 1.28721M39.0514 1.28721C39.6619 1.41899 40.3203 2.10155 40.7854 2.8678M40.7854 2.8678C41.0712 3.33882 41.2841 3.84145 41.3679 4.26723C41.6558 5.7297 41.7306 7.60832 40.4953 8.68374C39.2016 9.81004 38.9708 7.62887 39.0514 6.80828C39.1921 5.37744 39.8328 3.9497 40.7854 2.8678ZM40.7854 2.8678C42.1127 1.36018 44.0453 0.524156 46.0736 1.28721M46.0514 1.28721C46.6619 1.41899 47.3203 2.10155 47.7854 2.8678M47.7854 2.8678C48.0712 3.33882 48.2841 3.84145 48.3679 4.26723C48.6558 5.7297 48.7306 7.60832 47.4953 8.68374C46.2016 9.81004 45.9708 7.62887 46.0514 6.80828C46.1921 5.37744 46.8328 3.9497 47.7854 2.8678ZM47.7854 2.8678C49.1127 1.36018 51.0453 0.524156 53.0736 1.28721M53.0514 1.28721C53.6619 1.41899 54.3203 2.10155 54.7854 2.8678M54.7854 2.8678C55.0712 3.33882 55.2841 3.84145 55.3679 4.26723C55.6558 5.7297 55.7306 7.60832 54.4953 8.68374C53.2016 9.81004 52.9708 7.62887 53.0514 6.80828C53.1921 5.37744 53.8328 3.9497 54.7854 2.8678ZM54.7854 2.8678C56.1127 1.36018 58.0453 0.524156 60.0736 1.28721M60.0514 1.28721C60.6619 1.41899 61.3203 2.10155 61.7854 2.8678M61.7854 2.8678C62.0712 3.33882 62.2841 3.84145 62.3679 4.26723C62.6558 5.7297 62.7306 7.60832 61.4953 8.68374C60.2016 9.81004 59.9708 7.62887 60.0514 6.80828C60.1921 5.37744 60.8328 3.9497 61.7854 2.8678ZM61.7854 2.8678C63.1127 1.36018 65.0453 0.524156 67.0736 1.28721M67.0514 1.28721C67.6619 1.41899 68.3203 2.10155 68.7854 2.8678M68.7854 2.8678C69.0712 3.33882 69.2841 3.84145 69.3679 4.26723C69.6558 5.7297 69.7306 7.60832 68.4953 8.68374C67.2016 9.81004 66.9708 7.62887 67.0514 6.80828C67.1921 5.37744 67.8328 3.9497 68.7854 2.8678ZM68.7854 2.8678C70.1127 1.36018 72.0453 0.524156 74.0736 1.28721M74.0514 1.28721C74.6619 1.41899 75.3203 2.10155 75.7854 2.8678M75.7854 2.8678C76.0712 3.33882 76.2841 3.84145 76.3679 4.26723C76.6558 5.7297 76.7306 7.60832 75.4953 8.68374C74.2016 9.81004 73.9708 7.62887 74.0514 6.80828C74.1921 5.37744 74.8328 3.9497 75.7854 2.8678ZM75.7854 2.8678C77.1127 1.36018 79.0453 0.524156 81.0736 1.28721M81.0514 1.28721C81.6619 1.41899 82.3203 2.10155 82.7854 2.8678M82.7854 2.8678C83.0712 3.33882 83.2841 3.84145 83.3679 4.26723C83.6558 5.7297 83.7306 7.60832 82.4953 8.68374C81.2016 9.81004 80.9708 7.62887 81.0514 6.80828C81.1921 5.37744 81.8328 3.9497 82.7854 2.8678ZM82.7854 2.8678C84.1127 1.36018 86.0453 0.524156 88.0736 1.28721M88.0514 1.28721C88.6619 1.41899 89.3203 2.10155 89.7854 2.8678M89.7854 2.8678C90.0712 3.33882 90.2841 3.84145 90.3679 4.26723C90.6558 5.7297 90.7306 7.60832 89.4953 8.68374C88.2016 9.81004 87.9708 7.62887 88.0514 6.80828C88.1921 5.37744 88.8328 3.9497 89.7854 2.8678ZM89.7854 2.8678C91.1127 1.36018 93.0453 0.524156 95.0736 1.28721M95.0514 1.28721C95.6619 1.41899 96.3203 2.10155 96.7854 2.8678M96.7854 2.8678C97.0712 3.33882 97.2841 3.84145 97.3679 4.26723C97.6558 5.7297 97.7306 7.60832 96.4953 8.68374C95.2016 9.81004 94.9708 7.62887 95.0514 6.80828C95.1921 5.37744 95.8328 3.9497 96.7854 2.8678ZM96.7854 2.8678C98.1127 1.36018 100.045 0.524156 102.074 1.28721M102.051 1.28721C102.662 1.41899 103.32 2.10155 103.785 2.8678M103.785 2.8678C104.071 3.33882 104.284 3.84145 104.368 4.26723C104.656 5.7297 104.731 7.60832 103.495 8.68374C102.202 9.81004 101.971 7.62887 102.051 6.80828C102.192 5.37744 102.833 3.9497 103.785 2.8678ZM103.785 2.8678C105.113 1.36018 107.045 0.524156 109.074 1.28721M109.051 1.28721C109.662 1.41899 110.32 2.10155 110.785 2.8678M110.785 2.8678C111.071 3.33882 111.284 3.84145 111.368 4.26723C111.656 5.7297 111.731 7.60832 110.495 8.68374C109.202 9.81004 108.971 7.62887 109.051 6.80828C109.192 5.37744 109.833 3.9497 110.785 2.8678ZM110.785 2.8678C112.113 1.36018 114.045 0.524156 116.074 1.28721M116.051 1.28721C116.662 1.41899 117.32 2.10155 117.785 2.8678M117.785 2.8678C118.071 3.33882 118.284 3.84145 118.368 4.26723C118.656 5.7297 118.731 7.60832 117.495 8.68374C116.202 9.81004 115.971 7.62887 116.051 6.80828C116.192 5.37744 116.833 3.9497 117.785 2.8678ZM117.785 2.8678C119.113 1.36018 121.045 0.524156 123.074 1.28721M123.051 1.28721C123.662 1.41899 124.32 2.10155 124.785 2.8678M124.785 2.8678C125.071 3.33882 125.284 3.84145 125.368 4.26723C125.656 5.7297 125.731 7.60832 124.495 8.68374C123.202 9.81004 122.971 7.62887 123.051 6.80828C123.192 5.37744 123.833 3.9497 124.785 2.8678ZM124.785 2.8678C126.113 1.36018 128.045 0.524156 130.074 1.28721" stroke="#F2229F" stroke-width="1.1425" stroke-linecap="round" stroke-linejoin="round"/>
</svg>
