<svg xmlns="http://www.w3.org/2000/svg" width="18" height="18" fill="none" viewBox="0 0 18 18"><g opacity=".4"><path fill="#E4EAEE" d="M3.93115 8.78728C4.02115 8.69728 3.77241 7.62609 4.8811 6.79863C5.98979 5.97117 6.746 6.4649 6.85225 6.42865C6.95724 6.39365 7.45096 4.22877 9.5271 3.6663C11.6032 3.10383 13.7681 4.15877 14.2781 5.91868C14.7443 7.52734 14.3831 8.61104 14.4368 8.68103C14.4893 8.75103 15.493 8.71603 16.073 9.64848C16.653 10.5809 16.443 11.1622 16.443 11.1622L12.7482 12.3058H6.836C6.836 12.3058 1.62752 10.9334 1.57502 10.6872C1.52253 10.4409 1.64127 9.64098 2.48998 9.15601C3.22744 8.73478 3.77241 8.94602 3.93115 8.78728Z"/><path fill="#BACDD2" d="M5.39465 12.6044C5.39465 12.6044 3.42226 13.0169 2.08858 11.9844C1.28612 11.362 1.5786 10.3533 1.5786 10.3533C1.5786 10.3533 2.15357 10.9345 3.31476 11.092C4.47595 11.2507 5.77838 11.197 5.77838 11.197C5.77838 11.197 6.10337 11.7519 7.32705 12.0069C8.86072 12.3257 9.66943 11.5407 9.66943 11.5407C9.66943 11.5407 10.0894 12.0432 11.5681 12.0782C13.0468 12.1132 13.8755 11.0807 14.0142 11.057C14.0842 11.0457 14.4917 11.4157 15.2991 11.2857C16.0678 11.162 16.4728 10.8282 16.4728 10.8282C16.4728 10.8282 16.5841 11.6557 15.8104 12.1657C15.2066 12.5632 14.1567 12.6057 14.1567 12.6057C14.1567 12.6057 13.9967 13.2194 13.2755 13.6656C12.6055 14.0818 11.4506 14.2206 10.5956 13.9656C9.52194 13.6456 9.2557 13.1569 9.2557 13.1569C9.2557 13.1569 8.45574 13.6256 7.20581 13.4669C6.02462 13.3194 5.39465 12.6044 5.39465 12.6044Z"/></g></svg>